<svg width="795" height="370" viewBox="0 0 795 370" fill="none" xmlns="http://www.w3.org/2000/svg">
  <g opacity=".6" stroke="#fff" stroke-miterlimit="10">
    <path d="M1288.7 499.7a469.2 469.2 0 0 0-169.9-25.7c-135.9 5.3-190.7 71.2-233.2 42-65.6-45 47-215-36.4-359.6C788 50.4 651.5 10.1 619.9.8 496.5-35.6 429.8 5.4 376.9-53c-38.7-42.7-19.7-83-65.7-163a375 375 0 0 0-103.9-114.5"/>
    <path d="M1281.7 506.1c-55-19-112.5-27.7-169.9-25.7-135.9 5.3-190.7 71.2-233.2 42-65.7-45 47-215-36.4-359.6C781 56.8 644.4 16.5 612.8 7.2c-123.3-36.4-190 4.6-243-53.8-38.6-42.7-19.6-83-65.6-163A375 375 0 0 0 200.3-324"/>
    <path d="M1274.7 512.5c-54.9-19-112.5-27.7-169.9-25.7-135.9 5.3-190.7 71.2-233.2 42-65.6-45 47-215-36.4-359.6C774 63.2 637.5 23 605.9 13.6c-123.4-36.4-190.1 4.6-243-53.8-38.7-42.7-19.7-83-65.7-163a375 375 0 0 0-103.9-114.5"/>
    <path d="M1267.7 518.9c-55-19-112.5-27.7-169.9-25.7-135.9 5.3-190.7 71.2-233.2 42-65.7-45 47-215-36.4-359.6C767 69.6 630.5 29.3 598.8 20c-123.3-36.4-190 4.6-242.9-53.8-38.7-42.7-19.7-83-65.7-163a375 375 0 0 0-103.9-114.6"/>
    <path d="M1260.7 525.3c-54.9-19-112.4-27.7-169.8-25.8-136 5.4-190.8 71.3-233.2 42.1-65.7-45 46.8-215-36.5-359.6C760 76 623.5 35.7 591.9 26.3c-123.3-36.3-190 4.6-243-53.8-38.7-42.6-19.7-83-65.7-162.9A375.4 375.4 0 0 0 179.4-305"/>
    <path d="M1253.7 531.7c-54.9-19-112.4-27.8-169.8-25.8-136 5.4-190.7 71.3-233.2 42-65.7-45 46.9-215-36.4-359.6C753 82.3 616.6 42 584.9 32.7 461.6-3.7 395 37.3 342-21.1c-38.7-42.7-19.7-83-65.7-163a375.5 375.5 0 0 0-103.9-114.6"/>
    <path d="M1246.7 538c-55-19-112.5-27.7-169.9-25.7-136 5.4-190.7 71.3-233.2 42.1-65.7-45 46.9-215-36.4-359.6C746 88.8 609.5 48.5 577.8 39.1 454.5 2.8 387.8 43.7 335-14.6c-38.7-42.7-19.7-83-65.7-163a375.7 375.7 0 0 0-103.9-114.6"/>
    <path d="M1239.8 544.4c-55-19-112.5-27.7-169.9-25.8C934 524 879.2 590 836.7 560.7c-65.7-45 47-215-36.4-359.6C739 95.1 602.6 54.8 571 45.5 447.6 9 381 50 328-8.3c-38.7-42.7-19.7-83-65.7-163a375.1 375.1 0 0 0-103.9-114.5"/>
    <path d="M1232.8 550.8c-55-19-112.5-27.7-170-25.7-135.8 5.3-190.6 71.2-233.1 42-65.7-45 46.9-215-36.4-359.6C732 101.5 595.6 61.2 563.9 51.8 440.6 15.5 374 56.4 321-1.9c-38.7-42.7-19.7-83-65.7-163a375 375 0 0 0-103.9-114.5"/>
    <path d="M1225.7 557.2c-54.9-19-112.5-27.7-169.9-25.7-135.9 5.4-190.7 71.3-233.2 42-65.7-45 47-215-36.4-359.5C725 108 588.5 67.6 556.8 58.3 433.5 22 366.8 63 314 4.5c-38.7-42.6-19.7-83-65.7-162.9A375.1 375.1 0 0 0 144.3-273"/>
    <path d="M1218.8 563.6c-55-19-112.5-27.8-169.9-25.8-135.9 5.4-190.7 71.3-233.2 42.1-65.6-45 47-215-36.4-359.6C718 114.3 581.6 74 549.9 64.6c-123.3-36.3-190 4.6-243-53.8-38.6-42.6-19.6-83-65.6-162.9a375 375 0 0 0-103.9-114.6"/>
    <path d="M1211.8 570c-55-19-112.5-27.7-169.9-25.8-136 5.4-190.7 71.3-233.2 42.1-65.7-45 47-215-36.5-359.6C711.2 120.7 574.5 80.4 543 71c-123.3-36.4-190 4.5-243-53.9-38.7-42.6-19.6-83-65.6-162.9a375.1 375.1 0 0 0-103.9-114.6"/>
    <path d="M1204.8 576.3c-55-19-112.5-27.7-170-25.7-135.8 5.3-190.6 71.2-233.1 42-65.6-45 47-215-36.4-359.5C704 127 567.6 86.8 535.9 77.4 412.6 41.1 346 82 293 23.6c-38.6-42.6-19.6-83-65.6-163a375.4 375.4 0 0 0-103.9-114.5"/>
    <path d="M1197.8 582.8c-55-19-112.5-27.8-169.9-25.8-135.9 5.4-190.7 71.3-233.2 42-65.7-45 47-215-36.4-359.5C697 133.5 560.6 93.2 529 83.8 405.6 47.5 339 88.4 286 30c-38.7-42.6-19.7-83-65.7-162.9a375.5 375.5 0 0 0-103.9-114.6"/>
    <path d="M1190.8 589.1c-55-19-112.5-27.7-169.9-25.7-135.9 5.3-190.7 71.2-233.2 42-65.6-45 47-215-36.4-359.5C690 139.9 553.6 99.6 521.9 90.2c-123.3-36.4-190 4.6-243-53.8-38.6-42.6-19.6-83-65.6-163A375.7 375.7 0 0 0 109.4-241"/>
    <path d="M1183.8 595.5a469 469 0 0 0-170-25.8c-135.8 5.4-190.6 71.3-233 42-65.8-45 46.8-215-36.5-359.5C683 146.2 546.6 106 515 96.6c-123.4-36.4-190 4.6-243-53.8-38.7-42.7-19.7-83-65.7-163a375.8 375.8 0 0 0-103.9-114.5"/>
    <path d="M1176.8 602c-55-19-112.5-27.8-169.9-25.8-135.9 5.3-190.7 71.2-233.2 42-65.7-45 47-215-36.4-359.5C676 152.7 539.6 112.3 507.9 103c-123.3-36.4-190 4.6-243-53.8-38.6-42.7-19.6-83-65.6-163A375 375 0 0 0 95.4-228.2"/>
    <path d="M1169.8 608.3c-54.9-19-112.4-27.7-169.9-25.7-135.9 5.3-190.6 71.2-233.2 42-65.6-45 47-215-36.4-359.6C669 159 532.6 118.7 500.9 109.4 377.6 73 311 114 258 55.6c-38.6-42.7-19.6-83-65.6-163A375.1 375.1 0 0 0 88.4-221.8"/>
    <path d="M1162.8 614.6c-55-19-112.5-27.7-169.9-25.7-136 5.3-190.7 71.2-233.2 42-65.6-45 47-215-36.4-359.5-61.1-106-197.7-146.3-229.3-155.6-123.3-36.4-190 4.6-243-53.8-38.7-42.7-19.7-83-65.7-163A375 375 0 0 0 81.4-215.6"/>
    <path d="M1155.8 621.1c-55-19-112.5-27.7-169.9-25.7-135.9 5.3-190.7 71.2-233.2 42-65.7-45 47-215-36.4-359.6-61.1-106-197.7-146.3-229.3-155.6-123.3-36.4-190 4.5-243-53.9-38.7-42.6-19.7-83-65.7-162.9A375.1 375.1 0 0 0 74.5-209.2"/>
    <path d="M1148.8 627.5c-54.9-19-112.4-27.8-169.8-25.8-136 5.4-190.7 71.3-233.2 42-65.7-45 46.9-215-36.5-359.5C648 178.2 511.5 138 479.9 128.6c-123.3-36.4-190 4.6-243-53.8-38.7-42.7-19.6-83-65.6-163A375 375 0 0 0 67.4-202.7"/>
    <path d="M1141.8 633.8C1087 614.8 1029.3 606 972 608c-135.9 5.4-190.7 71.3-233.2 42.1-65.7-45 47-215-36.4-359.5-61.1-106-197.7-146.3-229.3-155.7-123.3-36.4-190 4.6-243-53.8-38.7-42.6-19.6-83-65.6-163a375.4 375.4 0 0 0-104-114.5"/>
    <path d="M1134.8 640.3a470 470 0 0 0-169.9-25.8c-136 5.4-190.7 71.3-233.2 42.1-65.7-45 47-215-36.4-359.6C634.2 191 497.6 150.6 466 141.3c-123.3-36.4-190 4.6-243-53.8-38.7-42.7-19.6-83-65.6-163A375.4 375.4 0 0 0 53.4-190"/>
    <path d="M1127.9 646.6A469.2 469.2 0 0 0 958 621c-136 5.3-190.7 71.2-233.2 42-65.7-45 46.9-215-36.5-359.6-61-106-197.7-146.3-229.3-155.6-123.3-36.4-190 4.6-243-53.8-38.7-42.7-19.6-83-65.6-163A375.8 375.8 0 0 0 46.5-183.5"/>
    <path d="M1120.8 653c-54.9-19-112.4-27.8-169.9-25.8-135.9 5.3-190.6 71.2-233.1 42-65.8-44.9 46.8-215-36.4-359.5-61.2-106-197.8-146.3-229.4-155.6-123.3-36.4-190 4.6-243-53.8-38.7-42.7-19.6-83-65.6-163a375 375 0 0 0-104-114.5"/>
    <path d="M1113.9 659.4A469.2 469.2 0 0 0 944 633.7c-135.9 5.3-190.7 71.2-233.2 42-65.7-45 46.9-215-36.4-359.6-61.2-106-197.7-146.3-229.4-155.6-123.3-36.4-190 4.6-243-53.8-38.6-42.7-19.6-83-65.6-163A375 375 0 0 0 32.5-170.8"/>
    <path d="M1106.9 665.8c-55-19-112.5-27.7-169.9-25.8-136 5.4-190.7 71.3-233.2 42.1-65.7-45 47-215-36.4-359.6C606.2 216.5 469.7 176.2 438 167c-123.3-36.4-190 4.5-243-53.9-38.6-42.6-19.6-82.9-65.6-162.9A375 375 0 0 0 25.5-164.5"/>
  </g>
</svg>
