<svg width="343" height="546" viewBox="0 0 343 546" fill="none" xmlns="http://www.w3.org/2000/svg">
<g opacity="0.6">
<path d="M1043.68 721.17C989.617 699.632 933.397 688.061 877.721 687.011C745.938 685.141 695.311 746.967 652.886 716.099C587.333 668.396 690.019 507.422 603.408 361.161C539.894 253.876 405.682 207.168 374.605 196.368C253.422 154.183 190.203 190.915 136.552 130.833C97.2651 86.9186 114.168 48.3608 66.3627 -32.5485C33.0811 -88.8737 -8.60314 -126.906 -39.0058 -150.468" stroke="white" stroke-miterlimit="10"/>
<path d="M1036.69 727.565C982.621 706.03 926.393 694.456 870.708 693.4C738.909 691.541 688.297 753.356 645.885 722.505C580.32 674.785 683.005 513.811 596.407 367.567C532.865 260.276 398.654 213.568 367.591 202.757C246.408 160.572 183.202 197.321 129.538 137.221C90.251 93.3072 107.166 54.766 59.3485 -26.16C26.0545 -82.502 -15.6173 -120.518 -46.02 -144.079" stroke="white" stroke-miterlimit="10"/>
<path d="M1029.71 733.958C975.638 712.415 919.408 700.842 863.723 699.794C731.925 697.935 681.313 759.75 638.888 728.882C573.372 681.229 676.009 520.188 589.41 373.943C525.881 266.67 391.67 219.962 360.607 209.151C239.409 166.977 176.205 203.698 122.554 143.615C83.2666 99.7008 100.184 61.1319 52.3789 -19.7774C19.0849 -76.1194 -22.587 -114.135 -52.9897 -137.697" stroke="white" stroke-miterlimit="10"/>
<path d="M1022.7 740.322C968.626 718.795 912.397 707.231 856.713 706.185C724.914 704.326 674.302 766.141 631.89 735.29C566.325 687.57 669.01 526.595 582.412 380.35C518.87 273.06 384.659 226.352 353.596 215.541C232.398 173.367 169.206 210.104 115.543 150.005C76.2552 106.091 93.1849 67.5385 45.3675 -13.3876C12.0735 -69.7297 -29.5985 -107.746 -60.0013 -131.307" stroke="white" stroke-miterlimit="10"/>
<path d="M1015.73 746.731C961.656 725.195 905.428 713.622 849.743 712.566C717.932 710.69 667.318 772.533 624.907 741.654C559.355 693.951 662.028 532.96 575.43 386.715C511.888 279.425 377.689 232.734 346.614 221.906C225.429 179.749 162.224 216.47 108.574 156.387C69.2861 112.473 86.2034 73.904 38.3984 -7.00532C5.10449 -63.3473 -36.5821 -101.352 -66.9701 -124.925" stroke="white" stroke-miterlimit="10"/>
<path d="M1008.73 753.103C954.659 731.574 898.432 720.001 842.748 718.938C710.95 717.079 660.323 778.905 617.925 748.043C552.398 700.374 655.046 539.35 568.494 393.045C504.966 285.772 370.755 239.065 339.692 228.254C218.495 186.08 155.303 222.817 101.64 162.718C62.3532 118.804 79.2827 80.2524 31.4656 -0.673271C-1.82821 -57.015 -43.5146 -95.0195 -73.9148 -118.609" stroke="white" stroke-miterlimit="10"/>
<path d="M1001.71 759.485C947.633 737.96 891.402 726.405 835.718 725.376C703.907 723.5 653.293 785.343 610.882 754.464C545.315 706.772 647.988 545.781 561.389 399.535C497.863 292.233 363.663 245.542 332.588 234.715C211.402 192.557 148.198 229.278 94.5469 169.195C55.2593 125.281 72.1766 86.712 24.3715 5.80244C-8.93727 -50.5287 -50.6092 -88.5445 -80.9973 -112.117" stroke="white" stroke-miterlimit="10"/>
<path d="M994.801 765.841C940.73 744.298 884.5 732.724 828.815 731.676C697.031 729.806 646.405 791.632 603.992 760.781C538.427 713.061 641.113 552.087 554.502 405.826C490.988 298.541 356.776 251.833 325.699 241.033C204.516 198.848 141.324 235.586 87.6458 175.497C48.3584 131.583 65.2756 93.0141 17.456 12.1158C-15.8256 -44.2094 -57.4975 -82.2251 -87.9125 -105.803" stroke="white" stroke-miterlimit="10"/>
<path d="M987.756 772.28C933.681 750.738 877.448 739.16 821.758 738.099C689.975 736.229 639.361 798.072 596.936 767.204C531.408 719.535 634.057 558.511 547.503 412.234C483.976 304.932 349.777 258.241 318.688 247.425C197.518 205.257 134.299 241.988 80.648 181.906C41.3607 137.992 58.2632 99.4342 10.4584 18.5252C-22.8355 -37.8166 -64.5073 -75.8322 -94.9099 -99.3937" stroke="white" stroke-miterlimit="10"/>
<path d="M980.734 778.634C926.646 757.12 870.406 745.573 814.714 744.547C682.915 742.688 632.303 804.504 589.877 773.636C524.324 725.932 627.011 564.957 540.399 418.695C476.885 311.409 342.672 264.701 311.595 253.901C190.412 211.716 127.205 248.465 73.541 188.365C34.2534 144.451 51.156 105.893 3.35079 24.9831C-29.9309 -31.3425 -71.603 -69.3584 -102.018 -92.9368" stroke="white" stroke-miterlimit="10"/>
<path d="M973.793 785.014C919.719 763.486 863.493 751.913 807.807 750.85C676.009 748.991 625.397 810.806 582.984 779.955C517.432 732.252 620.105 571.261 533.506 425.016C469.965 317.725 335.766 271.034 304.691 260.207C183.52 218.038 120.301 254.77 66.638 194.671C27.3629 150.773 44.2655 112.216 -3.55185 31.2895C-36.8458 -25.0525 -78.5177 -63.0682 -108.92 -86.6297" stroke="white" stroke-miterlimit="10"/>
<path d="M966.779 791.434C912.707 769.899 856.479 758.325 800.794 757.27C668.995 755.411 618.383 817.226 575.958 786.358C510.406 738.655 613.091 577.681 526.48 431.419C462.951 324.145 328.74 277.437 297.677 266.627C176.48 224.452 113.288 261.19 59.6243 201.09C20.3369 157.176 37.2542 118.608 -10.5508 37.6983C-43.8324 -18.6269 -85.5043 -56.6427 -115.919 -80.221" stroke="white" stroke-miterlimit="10"/>
<path d="M959.758 797.779C905.683 776.257 849.457 764.684 793.772 763.614C661.973 761.755 611.361 823.57 568.949 792.719C503.436 745.038 606.128 583.981 519.496 437.813C455.954 330.523 321.755 283.832 290.68 273.004C169.495 230.847 106.29 267.568 52.627 207.468C13.3519 163.571 30.2691 125.002 -17.5483 44.0756C-50.8423 -12.2665 -92.5289 -50.2712 -122.917 -73.8437" stroke="white" stroke-miterlimit="10"/>
<path d="M952.799 804.205C898.726 782.67 842.498 771.097 786.813 770.041C655.015 768.182 604.388 830.008 561.978 799.129C496.425 751.426 599.111 590.452 512.5 444.19C448.971 336.916 314.759 290.209 283.709 279.414C162.511 237.24 99.3193 273.978 45.656 213.878C6.36857 169.964 23.2858 131.396 -24.5192 50.4862C-57.8007 -5.83905 -99.4874 -43.8438 -129.888 -67.4331" stroke="white" stroke-miterlimit="10"/>
<path d="M945.801 810.585C891.727 789.056 835.5 777.483 779.815 776.42C648.016 774.561 597.39 836.387 554.992 805.525C489.452 757.839 592.113 596.831 505.499 450.597C441.958 343.306 307.758 296.615 276.684 285.787C155.498 243.63 92.2937 280.351 38.6304 220.251C-0.644712 176.354 16.2725 137.785 -31.5449 56.859C-64.8535 0.528012 -106.525 -37.4878 -136.914 -61.0604" stroke="white" stroke-miterlimit="10"/>
<path d="M938.766 816.938C884.696 795.389 828.465 783.815 772.78 782.774C640.996 780.904 590.37 842.73 547.959 811.851C482.429 764.209 585.122 603.152 498.504 456.974C434.99 349.689 300.778 302.981 269.716 292.17C148.518 249.996 85.3259 286.734 31.6627 226.634C-7.62476 182.72 9.29241 144.151 -38.5125 63.242C-71.8088 6.92775 -113.481 -31.0879 -143.881 -54.6772" stroke="white" stroke-miterlimit="10"/>
<path d="M931.789 823.379C877.718 801.836 821.488 790.263 765.803 789.215C634.02 787.344 583.393 849.171 540.98 818.32C475.428 770.616 578.101 609.626 491.503 463.381C427.976 356.079 293.777 309.388 262.687 298.571C141.516 256.403 78.2974 293.135 24.6341 233.036C-14.6533 189.121 2.26158 150.58 -45.5558 69.6543C-78.8497 13.3123 -120.522 -24.7034 -150.924 -48.265" stroke="white" stroke-miterlimit="10"/>
<path d="M924.82 829.764C870.749 808.221 814.519 796.647 758.834 795.599C627.05 793.729 576.424 855.555 533.998 824.688C468.458 777.001 571.132 616.01 484.491 469.77C420.977 362.485 286.765 315.777 255.688 304.977C134.504 262.792 71.2974 299.541 17.634 239.441C-21.6535 195.527 -4.75088 156.969 -52.5559 76.0594C-85.8376 19.734 -127.51 -18.2819 -157.925 -41.8602" stroke="white" stroke-miterlimit="10"/>
<path d="M917.789 836.09C863.717 814.554 807.488 802.981 751.803 801.925C620.005 800.066 569.393 861.881 526.98 831.03C461.435 783.399 564.115 622.325 477.539 476.141C413.998 368.851 279.786 322.143 248.724 311.332C127.553 269.163 64.3336 305.895 10.6703 245.796C-28.6172 201.882 -11.7023 163.34 -59.5197 82.4143C-92.8137 26.0722 -134.486 -11.9435 -164.888 -35.5051" stroke="white" stroke-miterlimit="10"/>
<path d="M910.793 842.565C856.722 821.022 800.493 809.448 744.808 808.4C613.01 806.541 562.398 868.356 519.973 837.489C454.421 789.786 557.106 628.812 470.496 482.551C407.011 375.245 272.8 328.537 241.737 317.726C120.54 275.552 57.3482 312.29 3.68514 252.19C-35.6022 208.276 -18.685 169.708 -66.4898 88.7987C-99.7712 32.4736 -141.443 -5.54202 -171.858 -29.1202" stroke="white" stroke-miterlimit="10"/>
<path d="M903.844 848.915C849.771 827.38 793.543 815.806 737.858 814.751C606.058 812.891 555.446 874.707 513.033 843.856C447.481 796.152 550.154 635.161 463.497 488.959C399.955 381.668 265.743 334.96 234.68 324.149C113.494 281.992 50.2899 318.713 -3.37359 258.613C-42.6612 214.699 -25.7315 176.147 -73.549 95.2202C-106.843 38.878 -148.515 0.862018 -178.918 -22.6996" stroke="white" stroke-miterlimit="10"/>
<path d="M896.811 855.239C842.738 833.703 786.51 822.13 730.825 821.074C599.026 819.215 548.399 881.041 505.989 850.162C440.427 802.57 543.107 641.496 456.561 495.29C393.031 388.016 258.82 341.308 227.757 330.497C106.559 288.323 43.3672 325.061 -10.2961 264.961C-49.5836 221.047 -32.6664 182.478 -80.4714 101.569C-113.753 45.2434 -155.452 7.22188 -185.84 -16.3507" stroke="white" stroke-miterlimit="10"/>
<path d="M889.785 861.736C835.712 840.208 779.485 828.635 723.8 827.572C592.003 825.713 541.376 887.539 498.978 856.677C433.426 808.974 536.099 647.984 449.501 501.74C386.033 394.395 251.823 347.687 220.76 336.877C99.5632 294.703 36.3716 331.44 -17.2914 271.341C-56.5786 227.427 -39.6491 188.875 -87.4661 107.95C-120.76 51.6081 -162.446 13.6035 -192.834 -9.96889" stroke="white" stroke-miterlimit="10"/>
<path d="M882.863 868.086C828.798 846.542 772.573 834.964 716.893 833.911C585.094 832.052 534.468 893.878 492.057 862.999C426.49 815.307 529.176 654.333 442.58 508.061C379.051 400.787 244.839 354.079 213.777 343.268C92.5792 301.094 29.375 337.815 -24.2759 277.733C-63.5632 233.819 -46.6461 195.25 -94.451 114.34C-127.747 58.0263 -169.431 19.9939 -199.819 -3.57861" stroke="white" stroke-miterlimit="10"/>
<path d="M875.822 874.398C821.751 852.855 765.522 841.281 709.836 840.233C578.052 838.363 527.426 900.189 485.013 869.338C419.424 821.74 522.104 660.666 435.585 514.466C372.058 407.164 237.846 360.456 206.769 349.656C85.5857 307.471 22.3936 344.209 -31.2844 284.12C-70.5719 240.206 -53.6423 201.654 -101.474 120.739C-134.768 64.3968 -176.44 26.3811 -206.843 2.81951" stroke="white" stroke-miterlimit="10"/>
<path d="M868.885 880.857C814.814 859.314 758.584 847.74 702.899 846.692C571.115 844.822 520.489 906.648 478.064 875.781C412.511 828.077 515.184 667.087 428.586 520.842C365.072 413.557 230.904 366.816 199.77 356.032C78.5998 313.864 15.3807 350.596 -38.2702 290.513C-77.5577 246.599 -60.6551 208.041 -108.46 127.132C-141.754 70.7899 -183.426 32.7741 -213.829 9.21259" stroke="white" stroke-miterlimit="10"/>
<path d="M861.889 887.235C807.816 865.699 751.588 854.126 695.903 853.07C564.105 851.211 513.493 913.026 471.08 882.175C405.515 834.455 508.201 673.481 421.602 527.236C358.075 419.935 223.864 373.227 192.787 362.427C71.6037 320.242 8.39703 356.99 -45.2662 296.891C-84.5537 252.977 -67.6389 214.436 -115.456 133.51C-148.75 77.1676 -190.422 39.1519 -220.825 15.5904" stroke="white" stroke-miterlimit="10"/>
</g>
</svg>
