<svg width="640" height="359" viewBox="0 0 640 359" fill="none" xmlns="http://www.w3.org/2000/svg">
  <path fill-rule="evenodd" clip-rule="evenodd" d="m697.5 89-.9 1.9 1.7 1.3 2-1-.4-2.3-2.4.2Z" fill="#B4C1E0"/>
  <path fill-rule="evenodd" clip-rule="evenodd" d="m524.2 121.4 3 2.7 1.7-2 .7-1.8-1.7-1.2-2.1-.5-1.6 2.8Z" fill="#B4C1E0"/>
  <path fill-rule="evenodd" clip-rule="evenodd" d="m517.2 127.8 1 1.4 3.7-1.7-.6-2.1-2.2-.3-1.5 1.6-.4 1.1Z" fill="#B4C1E0"/>
  <path fill-rule="evenodd" clip-rule="evenodd" d="m599.8 105 5.3 1.2v2.5l-2.2.4-2.3-1.7-.8-2.5Z" fill="#B4C1E0"/>
  <path fill-rule="evenodd" clip-rule="evenodd" d="m614.9 98 .5 4.2 2.2.3.9-3.6-2-2-1.6 1.2Z" fill="#B4C1E0"/>
  <path fill-rule="evenodd" clip-rule="evenodd" d="m619.5 102-.5 4.6 5.6-.5 5.4-2-1.3-4-3.4-.7-2.5-.8-2.2 2.4-1.1 1Z" fill="#B4C1E0"/>
  <path fill-rule="evenodd" clip-rule="evenodd" d="m624 76.4 1.2 3.5 10.6 1.2 3.6-5-1.6-4.2-2.4 2-4.4-.8-1.3 1.8-2.4-.3-.6 2.2-2.8-.4Z" fill="#B4C1E0"/>
  <path fill-rule="evenodd" clip-rule="evenodd" d="m621.6 59.4-1 2.4 2 .7 1.1-2-2.1-1Z" fill="#B4C1E0"/>
  <path fill-rule="evenodd" clip-rule="evenodd" d="m613.7 80.2 2 3.8 4.6 1.4.6-5-1.3-2.6-5.3-.9-3 1.6-4.3-1.1-.7 2.7 2.3 2.8-1.5 1.4-3.8-3.6h-5l-.7 3.6v4l2 2.8.5 3 4.4 1.8h4.3l.1-4.1 3 .6 2.7-3.4 2.8.9 2-1.8-1.6-2-4-1.5-2.9-4 2.8-.4Z" fill="#B4C1E0"/>
  <path fill-rule="evenodd" clip-rule="evenodd" d="m592 87.3.4 3 2.5 3.4 1.8-.4-1.7-3.9-3-2.1Z" fill="#B4C1E0"/>
  <path fill-rule="evenodd" clip-rule="evenodd" d="m714.6 93.6-1.7 2.5-8.1 3.2-5-5.6-5.6-1-8.5 4-6 5.6-2.7 6.2-3.7.7-4.3-2.6h-4.4l-2.5 2.5-1.8-1.8-2 1.7-2-2.2 3.5-2.7-7.5-1.3-4.7 3 1.6 7.9-4.7 3.5.6-6-3-.2-3.1 2.1-.4-3 4.7-3.3-4.6-.2-14.4 5.1 2.3 3.3-4.2 3.1 1.2 2.8 3-1-.2 3.8 3 4-5.3.7-1.7 1.8 1 3.3-4.2.2-5.5-2.2-2.3 5.8-9.3-2.6-1.4 13-6.5-1.7-9.5-9.8 4-2.1-5.3-9.5-3.8-2.2-6.4 1.3-6.6-3.2-2 9.8-13 3.7-4.4-3.5 1-2.3-12.7-1.5-3.8 3.9-1.1 2.6-.4-4.1-2.2-2.2-3 2.4-4.1 1.4-.5 2.5 1.6 2.4v.1l.4 4.2 5.1 8.5v.1l-.5 5.3 2.7 3.7.2.2-.3.2-7.5 4.4-.7 3-2 2.2-1.7 5.5-.1.2h-.3l-3.3-.8-6 3.6-2 .8 3.7 6.7v.1l-.3 17.7v.1l-4.4 3.7 2.4 2 .1.2-1.6 4.7 2 2.5v.1l-.3 3.4 2.5 2h.2l-.1.3-1.6 3-4.6 4.2-.7 3.2 6.6.7 2.7 2.4 3.2-1.6h.2l.2.1 1.5 2.2v.2l2 3.4v.2l-.2.1-2.6 1.3-.3 2.8 2.7.5 2.5-1.3.3-.1v.2l2.4 5.5v.1l-.8 6.2 3.5 2.3.1.1v.2l-2.4 6.3 1.6 4.5 4.6 1.9h.3l-.2.3-4.4 7.5-1.7 9.7 3.2 4 4.2-2.4h.2l5.8.4 2.5-3.3.2-.3.2.3 2.9 3.3 4.6-4 7.8-12.5h.2l4.4-.3h.1l8.3 4.1v.1l1.3 5.4 5.2-1.6h.2l3 2.4v.1l4.5 12.6 6 13.6 5-2.3 5-1.3h.2l3.4 3.2 2.2-1.4.2-.2.1.2 2.7 2.9 3-2.3h.2l6.7.9h.1l4 3.6 8.5-2h.2l2.6 2.5 12-3.7 3.3 1 3.7-.9-.2-2.5v-.2h.2l9.3-3.5-1.6-6v-.2l3.3-2.7-.9-3-5.3-4-.2-.2.2-.2 3.5-5-5.1-4.2-.3-.2.3-.2 2.8-2.6 1.3-12h.2l11.2-2.7.9-4.6v-.2h.3l6.4.3 1.9-3.6.2-3.9v-.1l3.4-1.1-1.5-8-4-3.3-.2-.1 3.9-9.3-2.9-10.2v-.2l2.7-2.6h.1l7.4 3.3 5-.4 2-2.7h.2l5.8-.2 1.4-3.4-7.6-19.7v-.1l1.4-4.5.2-.1 6.8-3.6-2-4.6v-.2l.2-.1 6.8-4.8H716.2l3.5-3 1.2-5.8-3.3-3.4v-.2l.2-3.8-2-3.4v-.2l.1-.1 3-2.2-2.6-3.6-.2-.1 8-5.6h.1l3.4-1 2.8-3-3.6-9.4-5.7-.6-4.4-2.3-.1-.1-1.7-6v-.2l10.2-9 .5-4.9-11-9.6Z" fill="#B4C1E0"/>
  <path fill-rule="evenodd" clip-rule="evenodd" d="m735.5 29.8 5.4 7.4 1.4-1.1 2.5-7.6 2.3-3.4-1.9-3-5.5-.1-3.8 4.2-.4 3.6Z" fill="#B4C1E0"/>
  <path fill-rule="evenodd" clip-rule="evenodd" d="M821.4 107V92.7l-3.9-2.7 10.6-5.4-1-4.4-18.2-3.4-2.5 2.5-5-.1-1 3.6-4-.7.5-5.1 4.8-1 2.1-3.3v-9.4l-1.7-.9-2.4 1.1.2-3.4-4.4 1.1-2.6-3.5 1.6-5 3.3 3.5 2.3-1.4 2.7 3.5 2.2-3.8.1-4.7 3.6-2.3 5.9 1.1 10.5-5.9L823 40l4.8 1.1.3-4.4-5.4.3-1.2-3.3-7-2 3.2-3-3.4-2.9 3.6-1.9-3.7-5.5-12.5 5.3-1.3 5.3-3.6 3.6 7.6 3.8-4.5 1.4-12.5-4.6-15.9 7.7-23.5 9-7 8.6.3 2.8-4.2.6-6.2 4.2 3.5 5.2 3.8-.7 5.1 3.5-1 5H737l-3.5 1.5-6.7-5-.9 8.6-7.8 4.3-3.3 4.8L726 103h.1l-.5 5.4h-.1l-10 9 1.6 5.6 4.1 2.3 6 .6v.1l1.8 4.7 3.7 1h.1l2 4.3 5.3-1.7h.2l4.6 2 4-2.7 5.7.2 4.5-3.6-.3-4v-.2h.2l4.2-.9 1.6-3.5v-.2H768.6l1.4-3v-.1h.2l6.7-.8 2-2.6v-.1h.2l9.8.5h.1l.1.1 1.6 6 7-1.1 7.5 1 7.6-15.5.2-.3.2.2 3.4 2.1 4.8-.8Z" fill="#B4C1E0"/>
  <path fill-rule="evenodd" clip-rule="evenodd" d="M821.4 107V92.7l-3.9-2.7 10.6-5.4-1-4.4-18.2-3.4-2.5 2.5-5-.1-1 3.6-4-.7.5-5.1 4.8-1 2.1-3.3v-9.4l-1.7-.9-2.4 1.1.2-3.4-4.4 1.1-2.6-3.5 1.6-5 3.3 3.5 2.3-1.4 2.7 3.5 2.2-3.8.1-4.7 3.6-2.3 5.9 1.1 10.5-5.9L823 40l4.8 1.1.3-4.4-5.4.3-1.2-3.3-7-2 3.2-3-3.4-2.9 3.6-1.9-3.7-5.5-12.5 5.3-1.3 5.3-3.6 3.6 7.6 3.8-4.5 1.4-12.5-4.6-15.9 7.7-23.5 9-7 8.6.3 2.8-4.2.6-6.2 4.2 3.5 5.2 3.8-.7 5.1 3.5-1 5H737l-3.5 1.5-6.7-5-.9 8.6-7.8 4.3-3.3 4.8L726 103h.1l-.5 5.4h-.1l-10 9 1.6 5.6 4.1 2.3 6 .6v.1l1.8 4.7 3.7 1h.1l2 4.3 5.3-1.7h.2l4.6 2 4-2.7 5.7.2 4.5-3.6-.3-4v-.2h.2l4.2-.9 1.6-3.5v-.2H768.6l1.4-3v-.1h.2l6.7-.8 2-2.6v-.1h.2l9.8.5h.1l.1.1 1.6 6 7-1.1 7.5 1 7.6-15.5.2-.3.2.2 3.4 2.1 4.8-.8Z" fill="#B4C1E0"/>
  <path fill-rule="evenodd" clip-rule="evenodd" d="m859.5 183.8 2 2.2 4.5-2.8-1.8-.6-4.7 1.2Z" fill="#B4C1E0"/>
  <path fill-rule="evenodd" clip-rule="evenodd" d="m832.2 267.8.2 1.6 2 1.5 1.2-2.3-1-2-2.4 1.2Z" fill="#B4C1E0"/>
  <path fill-rule="evenodd" clip-rule="evenodd" d="m839.2 265.6-.5 1.4 2.2 1 1.3-1-2-2.1-1 .7Z" fill="#B4C1E0"/>
  <path fill-rule="evenodd" clip-rule="evenodd" d="m837.4 268.6-1.2 6 2.2 3.3 2.4-.7.2-6-1.7-1.9-1.9-.7Z" fill="#B4C1E0"/>
  <path fill-rule="evenodd" clip-rule="evenodd" d="m839.6 282.4-.6 2.2.9 2.4 3-1 .6-1.4-4-2.2Z" fill="#B4C1E0"/>
  <path fill-rule="evenodd" clip-rule="evenodd" d="m841.6 300.5-1.4 2 1.5 2.4 2.2-1.6-1-2.4-1.3-.4Z" fill="#B4C1E0"/>
  <path fill-rule="evenodd" clip-rule="evenodd" d="m840.6 311.8.9 1.8 1.6-.3.7-2.8-2-.6-1.2 1.9Z" fill="#B4C1E0"/>
  <path fill-rule="evenodd" clip-rule="evenodd" d="m841.5 316.4-1.9 1.5 1 3.5 4-.6-1-3.5-2.1-.9Z" fill="#B4C1E0"/>
  <path fill-rule="evenodd" clip-rule="evenodd" d="m837.4 330-2.1 1.5-.6 7.9-.1 1.8 2 .2 2.1-4.3.1-4.5-1.4-2.7Z" fill="#B4C1E0"/>
  <path fill-rule="evenodd" clip-rule="evenodd" d="m830 344.3 2 .3.4 2.5-1.7 2-2.2 2.5-.5 2.8-1 3.5-.6 2.7-.9-.6-.2-4.7.4-5.9 2.8-2.1 1.5-1v-2Z" fill="#B4C1E0"/>
  <path fill-rule="evenodd" clip-rule="evenodd" d="m819.4 374.6 1-.3 1.2-6.8 1.3-1.2.5-1.8-1.3-.9-2.1.7-1.2.7.7 3.1-.8 3.8.7 2.7Z" fill="#B4C1E0"/>
  <path fill-rule="evenodd" clip-rule="evenodd" d="m827.7 368.6.6 1.5 2-.5-.1-2-1-1.6-1.2.9-.3 1.7Z" fill="#B4C1E0"/>
  <path fill-rule="evenodd" clip-rule="evenodd" d="m809.4 164.8-2 4.4 5.4 7.2 1.9-9.3-3.2-1.8-2-.5Z" fill="#B4C1E0"/>
  <path fill-rule="evenodd" clip-rule="evenodd" d="m848.4 186.2 1.4 2.5 6.1 1.6 2.6-1-1.2-2.6-4.5-1-4.4.5Z" fill="#B4C1E0"/>
  <path fill-rule="evenodd" clip-rule="evenodd" d="m730.6 226 4-2 2.7-1.7 3.5-.4-.4-6.8 6.4-1.2 5.1-3.4 4.4.3-3.7 4 2.8 2.8 5-4.2 1.9-7.4 4.2-1 3.6-3.6-3.1-2.7-3.3 3-2.8-3 .6-13.6-1.8-8.2 1.5-5.8 5.8-6.4 3 .1 1.8-3.7 5.2 8.3 4.2-.2.6-2.8-.3-6-.6-4.3-3.9-2.6v-.1l-.4-3.9-2.4-2.5-4.2-.1h-.2v-.2l-2-6.4-3.4-1-.1-.1-5-8.5-4.5 3.5h-.2l-5.6-.2-3.9 2.7H744.8l-4.6-1.9-5.4 1.8h-.2l-.1-.2-2-4.3-3.3-.8 1.8 4.5-.1.1-3 3.2-3.4 1-7.7 5.3 2.8 3.8-.2.1-3 2.1 1.9 3.4v.1l-.2 3.8 3.3 3.4v.2l-1.2 6-3.7 3.2h-5.8l-6.6 4.7 2 4.6v.2l-7.1 3.8-1.4 4.2 7.5 19.5 4.7-2.3h.2l9.7 4.2v.1l.6 5.3v.1l-2.8 3.8 1.4 3.5 4.2-2.3 5.3.5.1.2 2 4.3Z" fill="#B4C1E0"/>
  <path fill-rule="evenodd" clip-rule="evenodd" d="m730.6 226 4-2 2.7-1.7 3.5-.4-.4-6.8 6.4-1.2 5.1-3.4 4.4.3-3.7 4 2.8 2.8 5-4.2 1.9-7.4 4.2-1 3.6-3.6-3.1-2.7-3.3 3-2.8-3 .6-13.6-1.8-8.2 1.5-5.8 5.8-6.4 3 .1 1.8-3.7 5.2 8.3 4.2-.2.6-2.8-.3-6-.6-4.3-3.9-2.6v-.1l-.4-3.9-2.4-2.5-4.2-.1h-.2v-.2l-2-6.4-3.4-1-.1-.1-5-8.5-4.5 3.5h-.2l-5.6-.2-3.9 2.7H744.8l-4.6-1.9-5.4 1.8h-.2l-.1-.2-2-4.3-3.3-.8 1.8 4.5-.1.1-3 3.2-3.4 1-7.7 5.3 2.8 3.8-.2.1-3 2.1 1.9 3.4v.1l-.2 3.8 3.3 3.4v.2l-1.2 6-3.7 3.2h-5.8l-6.6 4.7 2 4.6v.2l-7.1 3.8-1.4 4.2 7.5 19.5 4.7-2.3h.2l9.7 4.2v.1l.6 5.3v.1l-2.8 3.8 1.4 3.5 4.2-2.3 5.3.5.1.2 2 4.3Z" fill="#B4C1E0"/>
  <path fill-rule="evenodd" clip-rule="evenodd" d="m721.4 385.5-2.1 15.3 2.4 5-11.5-.3-4.6 7.3 9.5 11.4v3.8l6.3-4.6 10 1.2 8-4.8 5-7.6 4.5-22 4.2-11.4-.5-13.9-2.8-1h-.2v-.2l-.3-3.4-4.5-3.7-5.7 3.2 2.8 3.6 5 1h.3v.2l-2 7.3v.2h-.2l-3.6-.3V376.7h-.1l-5.5 2.8h-.2l-8.5-.4-2.4 2.4 1.3 3.3.2.3h-.4l-4.4.4Z" fill="#B4C1E0"/>
  <path fill-rule="evenodd" clip-rule="evenodd" d="m718.5 368.6 3.1 6-1.8 4.1 1.6 6.3 4-.4-1.2-3V381.2l2.6-2.6h.2l8.6.3 5.3-2.6v-5.1h.2l3.7.3 1.8-6.9-4.9-.9h-.1l-3-4-.3-.1.3-.2 6.1-3.4H745l4.7 4 .4 3.4 2.5 1 3-15.4-1.4-5-6.5-16.3-2.3-3.3-1.2-11.1-1.3-3.8-.5-.7-5.8-3-1.8-2.5 2.2-3.3-4.3-2.1-9.2-2.6-7.6 2.8-3.6 10-2.7-4-4 3.9-2-8.3-6.6 2.9-5-1.4.7-4.5 8.4-15 3.3-15.6 2.8-7.3-1-6.5 2.8-5.4-.4-6.1 15.5-11.5 4.4 1.2.6-1.5-1.1-2 2.1-1-2-4.2-4.8-.5-4.7 2.5-.1-.2-1.6-4v-.2l2.8-3.8-.5-5-9.3-4-4.7 2.3-1.5 3.5v.1h-.2l-5.9.2-2 2.6v.1h-.1l-5.2.5h-.1l-7.3-3.2-2.2 2.2 2.8 10.2v.1l-3.8 9 4 3.4 1.6 8.3v.2l-.1.1-3.3 1-.2 3.8v.1l-2 3.8v.1h-.2l-6.4-.3-1 4.5v.2h-.1l-11.2 2.7-1.3 11.9-2.8 2.5 5.1 4 .2.2-3.7 5.3 5.2 4 1 3.3.1.1-.1.1-3.3 2.7 1.5 5.9 9.3-3.4H672.3l2.5 3.3.1.2v.1l-5.3 8.3V315h-.1l-3.4 1.5-.2 3.5 7.4.7v.1l2.9 5 3.6.2 6.4-4.5 1.4-3.6v-.2l4.6.5 1.7-2.5v-.1h.3l3 .8h.2v.2l2 8.7v.2l-2.2 1.6h-.1l-7.2.4 1.4 3.7v.2h-.1l-3.2 2.7-1 3.6v.1h-.1l-4.7 4.2 1.6 2.3v.2l-3.3 3.3-.4 4.3 7.2 4.4 5.3 8.6 4.1-3h.2l8.2 1h.1l3.4 3.1 11.7-2.4-.2.5-1.6 4.2Z" fill="#B4C1E0"/>
  <path fill-rule="evenodd" clip-rule="evenodd" d="m686.9 372.4 3.5 6.7 4 4 10-3.2 1.7-3.6 7.9-6.7 4-1.2 1.5-3.8-11 2.2h-.2l-3.4-3.2-8-1-4.2 3.1-5.8 6.7Z" fill="#B4C1E0"/>
  <path fill-rule="evenodd" clip-rule="evenodd" d="m613.4 341.1 10-3.6 7 3.2 8.9-.4 11.6 13.3 14.3 17 6.5-1.6 3.7 2.1 3-1 5.1 2.1h3l5.7-6.7-5.3-8.6-7.2-4.4h-.2l.5-4.8 3.2-3.2-1.6-2.3V341.9l4.9-4.3 1-3.6v-.1l3.2-2.6-1.5-3.9v-.3h.3l7.5-.3 1.9-1.5-2-8.3-2.7-.7-1.6 2.4h-.1l-4.5-.4-1.3 3.6h-.1l-6.6 4.6h-.1l-4-.1-.1-.1-2.8-5-7.6-.8v-.2l.2-3.9v-.2h.1l3.4-1.4v-4.3l5.2-8.2-2.3-3-18.6 6.8.1 2.6v.2h-.2l-4 1-3.3-1-12 3.7H633.7l-2.5-2.5-8.6 2h-.2l-4-3.6-6.5-1-3 2.4-.3.1-.1-.1-2.7-3-2.2 1.5-.1.2-.2-.2-3.4-3.2-4.9 1.2-4.8 2.3 5.4 4.2.2.2-.2.1-2 2.1 2.4 2.7 5-2h.3l.1.2 1.9 4 3.7-.4h.3v.2l-.2 6.8 3.8 2.6-.2.2-2.4 2.6 5 9Z" fill="#B4C1E0"/>
  <path fill-rule="evenodd" clip-rule="evenodd" d="m613.4 341.1 10-3.6 7 3.2 8.9-.4 11.6 13.3 14.3 17 6.5-1.6 3.7 2.1 3-1 5.1 2.1h3l5.7-6.7-5.3-8.6-7.2-4.4h-.2l.5-4.8 3.2-3.2-1.6-2.3V341.9l4.9-4.3 1-3.6v-.1l3.2-2.6-1.5-3.9v-.3h.3l7.5-.3 1.9-1.5-2-8.3-2.7-.7-1.6 2.4h-.1l-4.5-.4-1.3 3.6h-.1l-6.6 4.6h-.1l-4-.1-.1-.1-2.8-5-7.6-.8v-.2l.2-3.9v-.2h.1l3.4-1.4v-4.3l5.2-8.2-2.3-3-18.6 6.8.1 2.6v.2h-.2l-4 1-3.3-1-12 3.7H633.7l-2.5-2.5-8.6 2h-.2l-4-3.6-6.5-1-3 2.4-.3.1-.1-.1-2.7-3-2.2 1.5-.1.2-.2-.2-3.4-3.2-4.9 1.2-4.8 2.3 5.4 4.2.2.2-.2.1-2 2.1 2.4 2.7 5-2h.3l.1.2 1.9 4 3.7-.4h.3v.2l-.2 6.8 3.8 2.6-.2.2-2.4 2.6 5 9Z" fill="#B4C1E0"/>
  <path fill-rule="evenodd" clip-rule="evenodd" d="m743 309.6-.2-.5 7.8 5 2 6.9 3.5 5.3 4.1 7.8 3 5.7 3.7 3.4.9 3.5.8 3.1 4.8 2.8.2 4.8 4.5 6.7 1-5.4-.3-4h4l1.7-.4 3.5 2.2-2.4-6.3-4.5-.5-4.5-2.5-5-4.2-2.7-8.8-1.4-5.5 4.5-1.8 7.8.4-16.4-13-11.3-11.8-4.7-10.7-7.2-5.9-3.2-4.7-2.6.8-.9 2.4 4.3 3.5 2.2 3.8-1.6 1.6-2.2-.8-1 3 4.1 3.6 3.5 10-.4-.2.5.7Z" fill="#B4C1E0"/>
  <path fill-rule="evenodd" clip-rule="evenodd" d="m81.3 181.2 1 2.2-.7 4.8 3.3 2.1 2.5 1.8 2.5-1.2h.2l3.6.5 4-1.8.7-2.6v-.3h.3l4.1 1 2.4-.4h.2v.2l1.4 3.3 3.6 1.7 1-.6.6-4-2.3-2v-2.7l-1.3-1.5-2.3-2 .7-4-4.3-3.8h-.1l-.2-2.8-1.7-1h-.1l.2-1.9-.6-1.2-2.6-.4-.6 1h-.2l-1.1.1h-.2v-.1l-.7-1h-1.2l-1.8 1.3-.3 2.8h-.1L90 170l.8.7h.1V172.6h-.3l-2-.3-.8 1.2.2 2.6v.1l-6.7 5Z" fill="#B4C1E0"/>
  <path fill-rule="evenodd" clip-rule="evenodd" d="m75 153.7-2.2 2.2-1.2 1.3.3 2 2 1.2-.6 3 5 3.6-.5 5.8 3.3 7.9 6.4-4.9-.3-2.5v-.1l1.2-1.5h.2l1.8.3v-1l-1-.8-.1-.2 1.4-1.5.3-2.7-3.4-4.1-3.7-1.2h-.1l-2.6-2v-.1l-.5-2.3-1.4-.3-1.6.6-.1-.1-2.6-2.6Z" fill="#B4C1E0"/>
  <path fill-rule="evenodd" clip-rule="evenodd" d="m80 141.4-2.4.7-1.3 2-1.7.2-.5 2.6 2.3 1.5-1.1 4.9 2.6 2.5 1.3-.5h.1l1.8.5v.1l.5 2.3 2.5 1.9 3.7 1.1.1.1 3.5 4 1.8-1.2h.1l1.6.1v.1l.7 1 .8-.1.5-1-1.5-2.3V159.6l-1.7-.7h-.1v-.1l-.5-1.2.2-1.9-.8-1.1v-.1l.4-4-5.3-8-7.6-1.1Z" fill="#B4C1E0"/>
  <path fill-rule="evenodd" clip-rule="evenodd" d="m90.5 124.8-3.8-.7-2.5-2.8.5-2.3-2.6-.8-2 3.4-6 3.8.2 3 2.9.1 2 2 .5 3.7h2.5l3 .9-.3 1.8-4 4.1 6.8 1 9.2-5-.5-1.1v-1.6h.2l1-.9h.1l1.6-.7v-1l-1.8-.4-1 .6-.2.1-1.6-1v-.1l-.8-2v-1.6l.1-.1 1-1.4-4-.7h-.1l-.4-.3Z" fill="#B4C1E0"/>
  <path fill-rule="evenodd" clip-rule="evenodd" d="m105 104-.7.9-5 2-2.7 3.3-3 4.6-.7 3.9.5 2.4-2 1.9-.3 1.6 4.4.8 1.8-.6h.1l3.5.5 2.1-1.5h.2l2.5.4h.2v.2l.8 3.6 1-.4h.2l1.8.4h.1v.1l.9 1.4h5l3.2-1.4 3.8-4.1.2-1-2-3-.1-2.4-5.5-1.6h-.1l-2.5-2.2h-.1l-3-6.7-.8-2.7-1-.7-2.3.3h-.5Z" fill="#B4C1E0"/>
  <path fill-rule="evenodd" clip-rule="evenodd" d="m88.1 142.3 5.3 8.1-.4 4 .8 1.1-.2 2 .4 1 1.8.7 2.8.5 1-1.4 5.8-3.5 1-4-2-2.3h-.1l-1-2.6v-.1l.6-4.2-6.6-4.2-9.2 5Z" fill="#B4C1E0"/>
  <path fill-rule="evenodd" clip-rule="evenodd" d="m105.6 155.2-5.6 3.4-1 1.5-.2.1h-.1l-2.7-.4v2l1.4 2.3 2.8.4h.2v.2l.7 1.4-.2 1.7 1.7 1h.1v.1l.2 2.7 4.2 3.8 2.4-.7.7-1.2-.2-2.2-.5-1.3v-.2l1.2-1.5h.1l4.1-1.4 2.5-1.7.3-2.4-.3-1.6-2-1.8v-.1l-.5-1.8-2-.4-3.2 1h-.1l-2.3-.4v-.1l-1.7-2.4Z" fill="#B4C1E0"/>
  <path fill-rule="evenodd" clip-rule="evenodd" d="M118 165v.4l-2.8 2-4.1 1.3-1 1.3.5 1.2.1 2.3v.1l-.8 1.4v.1h-.2l-2.4.8-.7 3.7 2.1 1.8 1.5 1.6v2.7l2.2 2 3.4-.3 7.3-2.6 1-1 .6-5.4 1-3.6h.1l3.4-3.1-2.2-2.8-1.5.7-1.4.3h-.2l-1.8-1.3v-.1l-1.4-3-2.7-.5Z" fill="#B4C1E0"/>
  <path fill-rule="evenodd" clip-rule="evenodd" d="M118 165v.4l-2.8 2-4.1 1.3-1 1.3.5 1.2.1 2.3v.1l-.8 1.4v.1h-.2l-2.4.8-.7 3.7 2.1 1.8 1.5 1.6v2.7l2.2 2 3.4-.3 7.3-2.6 1-1 .6-5.4 1-3.6h.1l3.4-3.1-2.2-2.8-1.5.7-1.4.3h-.2l-1.8-1.3v-.1l-1.4-3-2.7-.5Z" fill="#B4C1E0"/>
  <path fill-rule="evenodd" clip-rule="evenodd" d="m104.4 141.7-.5 4 .8 2.5 2.2 2.3v.2l-1 4.2 1.7 2.3 2 .4 3.3-1 2 .4.3-1v-.1l1.7-1.7 3-2.5.3-1.9 1.9-1.4V145l-2-1.4-.7-1.9-4.3-.2-1.1 1-.2.2-.2-.2-3.4-2.5-1-.4-4.8 2Z" fill="#B4C1E0"/>
  <path fill-rule="evenodd" clip-rule="evenodd" d="m104.4 141.7-.5 4 .8 2.5 2.2 2.3v.2l-1 4.2 1.7 2.3 2 .4 3.3-1 2 .4.3-1v-.1l1.7-1.7 3-2.5.3-1.9 1.9-1.4V145l-2-1.4-.7-1.9-4.3-.2-1.1 1-.2.2-.2-.2-3.4-2.5-1-.4-4.8 2Z" fill="#B4C1E0"/>
  <path fill-rule="evenodd" clip-rule="evenodd" d="m120.3 152-3 2.6-1.6 1.5-.3 1.2.5 1.8 2 1.8.4 1.9-.3 1.7 2.9.5h.1l.1.1 1.4 3.1 1.7 1.2 1-.2 1.8-.8H127.3l2.4 3.1 1.7.8 1.6.1 5.8-3.9 3.1-1.6-.5-1.7-.8-3-4.5-9.2-3.4-.5-1.2.9h-.4l-1.2-1-1.2-1-.7.4h-.1l-2.4.4h-.1l-1.3-.7-1 .6H120.2Z" fill="#B4C1E0"/>
  <path fill-rule="evenodd" clip-rule="evenodd" d="m119.5 141.3.9-.8 1.4-1.6.4-4-1.8-1.3h-.1L119 131l-.2-2.4-2.9 1.3H110.4v-.1l-1-1.4-1.6-.5-1.2.6h-.3v-.2l-.8-3.8-2.3-.3-2 1.4h-.1l-3.7-.4-1.7.6-1.2 1.5-.1 1.5.7 1.7 1.3.8 1-.5v-.1h.1l2.2.4v.2l.1 1.5v.1l-.1.1-1.7.7-1 .8-.1 1.1.6 1.2 6.7 4.3 4.8-2H109.3l1 .5h.1l3.4 2.4 1-1h.2l4.5.2Z" fill="#B4C1E0"/>
  <path fill-rule="evenodd" clip-rule="evenodd" d="m119.3 128.4.2 2.5 1.2 2.4 2 1.2v.1l-.4 4.5-1.5 1.7-1 .9.8 1.7 1.9 1.4v3.7l-1.9 1.6-.1 1.5h2.3l1-.6.2-.1h.2l1.3.8 2.2-.3.9-.5.1-.1.2.1 1.3 1.1 1.1.9 1.2-.8 3.6.4 1.5-1.7 1.1-2.3-.7-.8-1.4-2-.9-3.8v-.1l1.2-2.5 3.2-2.9 2-1.3.6-1.8-2-2.8-5.5-.5-5.6-4.2-.1-.1v-.2l.4-2-.7-.5-.7.6h-.1l-5.1.1-.2.5-3.8 4.2Z" fill="#B4C1E0"/>
  <path fill-rule="evenodd" clip-rule="evenodd" d="m119.3 128.4.2 2.5 1.2 2.4 2 1.2v.1l-.4 4.5-1.5 1.7-1 .9.8 1.7 1.9 1.4v3.7l-1.9 1.6-.1 1.5h2.3l1-.6.2-.1h.2l1.3.8 2.2-.3.9-.5.1-.1.2.1 1.3 1.1 1.1.9 1.2-.8 3.6.4 1.5-1.7 1.1-2.3-.7-.8-1.4-2-.9-3.8v-.1l1.2-2.5 3.2-2.9 2-1.3.6-1.8-2-2.8-5.5-.5-5.6-4.2-.1-.1v-.2l.4-2-.7-.5-.7.6h-.1l-5.1.1-.2.5-3.8 4.2Z" fill="#B4C1E0"/>
  <path fill-rule="evenodd" clip-rule="evenodd" d="m142 135.7-1.5 1.1-3.2 2.8-1 2.3.8 3.6 1.3 2 .8.8.2.2-.1.1-1.2 2.5-1.6 1.7 4.5 9 4-1.7 4.8.4 5.5-2.4-.8-3-4.4-6.6-2.5-1.4-1.7-2.2-.2-.1.2-.2 1.6-1.6.8-2.2-1-1.2-2.8 1.7-.2.1-.2-.2-2.2-2.7v-.1l.1-2.7Z" fill="#B4C1E0"/>
  <path fill-rule="evenodd" clip-rule="evenodd" d="m148.5 140.3.3.3.1.1v.2l-1 2.3-1.5 1.6 1.6 2 2.4 1.3h.1l4.5 6.8.8 3h1.7l1.4-1.6h3.5v.1l1.2 1.2 2-.8 1.3-6.3-3-2V145.7l-1.2-1.3-2.4.4-7.3-4.5h-4.5Z" fill="#B4C1E0"/>
  <path fill-rule="evenodd" clip-rule="evenodd" d="m156 141.6 4.3 2.7 2.6-.5v.1l1.5 1.6h.1v.1l-.1 2.6 3 2-1.2 6.5 9.2 1 1.2-.5 3.2.4h.2v.2l.6 2.3 2.4 1.2v.1l2 2.2 3.7-2.9 8.5 1 .6-4.9.1-.1 1.8-1.5-1.6-2-4.5.6h-.2l-6.2-4.3h-.1v-.1l-3.3-7.3-5.6-4-9.2-1.5-3.4 1.7-3.7-.2-1.2 1.5-4.6 2Z" fill="#B4C1E0"/>
  <path fill-rule="evenodd" clip-rule="evenodd" d="m156 141.6 4.3 2.7 2.6-.5v.1l1.5 1.6h.1v.1l-.1 2.6 3 2-1.2 6.5 9.2 1 1.2-.5 3.2.4h.2v.2l.6 2.3 2.4 1.2v.1l2 2.2 3.7-2.9 8.5 1 .6-4.9.1-.1 1.8-1.5-1.6-2-4.5.6h-.2l-6.2-4.3h-.1v-.1l-3.3-7.3-5.6-4-9.2-1.5-3.4 1.7-3.7-.2-1.2 1.5-4.6 2Z" fill="#B4C1E0"/>
  <path fill-rule="evenodd" clip-rule="evenodd" d="m143 133 4.2-1.3-.4-1.8v-.1l1.9-6.2v-.2h.3l3.4.6 4.7-3.5v-4.7l-4.3-.4v.2l-4.6-4.7-2.8-.1h-.1l-.1-.1-3-3h-.1l-.4-2.4-2.3-2-1 .6-.6 2.1v.2l-6.4-1.2h-.2l-1.8-2-5.9-2v-.1l-3-2.5-1.5-1.8-1.8 1.4-1.3 3.6-2.1 2.4v.1h-.2l-4.2.4.8 2.4 2.8 6.6 2.5 2 5.6 1.6h.2v2.8l2 2.8.2.1v.1l-.1.3h4.9l.7-.6.2-.2.1.1 1 .6.1.1v.2l-.3 2 5.3 4.1 5.4.6h.2l2 2.8Z" fill="#B4C1E0"/>
  <path fill-rule="evenodd" clip-rule="evenodd" d="m168.6 136.3-3-3.4-.2-.1v-.2l1.8-4.3-2.2-3.1-2.2-.1-.1-.1-5.3-4-4.8 3.5h-.2l-3.3-.5-1.8 5.9.4 1.9v.2h-.1l-4.4 1.4-.6 1.9-.1 3 2 2.4 2.9-1.8.1.2.6.7h5.1l2.4 1.5 4.7-2 1.3-1.6h.2l3.7.2 3-1.6Z" fill="#B4C1E0"/>
  <path fill-rule="evenodd" clip-rule="evenodd" d="m152.4 229.3-.5 3 1.3 4 2-.2 1.5-1 2.8 1.6-.3 1.8-1 1.6.8 1.2 2.7 1.2.8 3.7.6 4.8-1.6 2.7 1 2.5 3.4-1.5 1.4.5.8 2.1.3 3.5 2 1.6 2.6-1.3 2.4.4 4.3 2.3-.4 2 .8 1.6 2.2.7 2-1.7 1.8 2 2.3 1.8-.9 3.6.3 2.1 2.3 3 2 .8 2.2-1 1.6.7 1 2.5 5 2.2 2.4-1.4 2.6-2.8-3.1-8.5-.3-.2-.1-.1-.7-2.8h.2l2.3-1.4.7-1.4-.9-2.3-5.3-2.2-2.7.4-1.6 2.8-.1.2-3.5-.7h-.1v-.1l-2.8-3.2-5.5-1.8h-.1v-.1l-1-2.4-.1-.1.1-.1 2.5-2-1.3-1.5v-.2l.2-1.4v-.2h.2l2-.3.6-3.2-2.9-.2-1.5.7-.3.2v-.4l-.1-3.9v-.2h.2l1.3-.3.4-2.3-1.2-1.5v-.2l.7-5.3-1.4-2.2v-.1l.8-7.2-1.2-3.3v-.2l1-2.8-1.8-2.3-.1.3-1.4 3.1-1 1.4-.1.1-6.3 2.5-1.7 2.4-.2.1-4.2.8h-2.1l-4.6 3h-.1l-6.1-.1-.2.1Z" fill="#B4C1E0"/>
  <path fill-rule="evenodd" clip-rule="evenodd" d="m152.4 229.3-.5 3 1.3 4 2-.2 1.5-1 2.8 1.6-.3 1.8-1 1.6.8 1.2 2.7 1.2.8 3.7.6 4.8-1.6 2.7 1 2.5 3.4-1.5 1.4.5.8 2.1.3 3.5 2 1.6 2.6-1.3 2.4.4 4.3 2.3-.4 2 .8 1.6 2.2.7 2-1.7 1.8 2 2.3 1.8-.9 3.6.3 2.1 2.3 3 2 .8 2.2-1 1.6.7 1 2.5 5 2.2 2.4-1.4 2.6-2.8-3.1-8.5-.3-.2-.1-.1-.7-2.8h.2l2.3-1.4.7-1.4-.9-2.3-5.3-2.2-2.7.4-1.6 2.8-.1.2-3.5-.7h-.1v-.1l-2.8-3.2-5.5-1.8h-.1v-.1l-1-2.4-.1-.1.1-.1 2.5-2-1.3-1.5v-.2l.2-1.4v-.2h.2l2-.3.6-3.2-2.9-.2-1.5.7-.3.2v-.4l-.1-3.9v-.2h.2l1.3-.3.4-2.3-1.2-1.5v-.2l.7-5.3-1.4-2.2v-.1l.8-7.2-1.2-3.3v-.2l1-2.8-1.8-2.3-.1.3-1.4 3.1-1 1.4-.1.1-6.3 2.5-1.7 2.4-.2.1-4.2.8h-2.1l-4.6 3h-.1l-6.1-.1-.2.1Z" fill="#B4C1E0"/>
  <path fill-rule="evenodd" clip-rule="evenodd" d="m123.3 224 2.4 2.6-.5 2.6-1 2 1.3 2.8 3.2-1 1.8-2.7 2-1.6 4.3 1.2 2.6-1.6h1.7l1.1 1.1 4.4.2 3.3-.4 2.2-.3.1-.1.3-1.8v-1.5l-2-3.1v-.2l.7-3.4-2-3.1h-.1v-.1l-.6-3.4v-1.9l-1.8-.8-5.7-3.7h-.1v-.2l.3-3-5.7-1.6h-.1l-5.8-4-.1-.1.2-2-.7-1.6-3-.6h-.1l-3.8-7-6.1 2.2-3.5.2-.7 4-1.1.8v3.2l1.5 2.3 2.5.8h.1l4.3 4.9-.3 3.4v.1l-2.4 2-.3 2 1.7.4 2-.6.3-.1-.2 4 1 1.6 2.7.8.2.1v.2l-.5 6Z" fill="#B4C1E0"/>
  <path fill-rule="evenodd" clip-rule="evenodd" d="M149.1 210.3v1.9l.5 3.2 2.1 3.2v.2l-.6 3.4 1.8 3.1v.1l.1 1.6-.2 1.7 5.8.2 4.5-3h.2l2.1-.1 4.1-.8 1.7-2.3v-.1h.2l6.2-2.5 1-1.3 1.3-3 .5-1.5-2.5-4.3-1.2-1.2-1.5.7-1.2.1H173.7l-2-3.6-.8.4-3.4 2.7-2 .8h-.1l-2.2-.7-3.2-3.3-2.2-1.8h-5.7l-1.6 1.8-.2.8 1 .6.2.1v.2l-.6 2.1v.2h-.2l-1.6.4Z" fill="#B4C1E0"/>
  <path fill-rule="evenodd" clip-rule="evenodd" d="M149.1 210.3v1.9l.5 3.2 2.1 3.2v.2l-.6 3.4 1.8 3.1v.1l.1 1.6-.2 1.7 5.8.2 4.5-3h.2l2.1-.1 4.1-.8 1.7-2.3v-.1h.2l6.2-2.5 1-1.3 1.3-3 .5-1.5-2.5-4.3-1.2-1.2-1.5.7-1.2.1H173.7l-2-3.6-.8.4-3.4 2.7-2 .8h-.1l-2.2-.7-3.2-3.3-2.2-1.8h-5.7l-1.6 1.8-.2.8 1 .6.2.1v.2l-.6 2.1v.2h-.2l-1.6.4Z" fill="#B4C1E0"/>
  <path fill-rule="evenodd" clip-rule="evenodd" d="m141.7 202.5-.3 3 5.5 3.5 2 .9 1.5-.4.5-1.9-1-.6h-.2v-.3l.3-1v-.1l1.7-1.9h.2l3.8-.1H158l2.2 2 3.1 3.1 2 .8 1.8-.8 3.3-2.6.9-.5-2-2.8-.1-.2.1-.1 1.1-1v-2.2l-4.4-.8h-.1l-.1-.1-2.2-3.7-3.2-.5h-.2v-.2l-1-2.9-3-4.3-.6.5-1 2.9-.9 1.1-.1.2-.2-.1-5.2-2.4-.6 5.4-1.4 1.2.9 2v.2l-.6 1.2h-.1l-4.8 3.5Z" fill="#B4C1E0"/>
  <path fill-rule="evenodd" clip-rule="evenodd" d="m132.9 172.9-1.6-.1-1.7-.8-3.4 3-1 3.5-.7 5.5-1 1.2h-.1l-.8.3 3.6 6.8 3 .6h.1v.1l.9 1.7-.2 2 5.7 3.9 5.7 1.5 4.7-3.4.6-1-1-2v-.2l.2-.2 1.3-1.1.6-5.3-2.1-.4h-.1l-.1-.1-1.1-3.2-3.3-.9-1.2.8-.3.2-.1-.3-1.8-3.4V177.7l-3.6-.4v-.1l-1.2-4.4Z" fill="#B4C1E0"/>
  <path fill-rule="evenodd" clip-rule="evenodd" d="m142.1 167.3-3 1.6-5.7 3.9 1.1 4.2 3.8.4v4l1.5 3.1 1-.6.2-.1 3.6 1h.2v.2l1.1 3 2 .4h.3l5.3 2.5.8-.9 1-2.9.8-.8 1.3-1.7.2-1.3-1.4-1h-.1v-1.7l-1-.6-.6.7h-.2l-3.8-.2-.6 1.1h-.2l-1.9-.5-.1-.2-1.7-3.7v-5.3l-3.9-4.6Z" fill="#B4C1E0"/>
  <path fill-rule="evenodd" clip-rule="evenodd" d="m158.2 183.4-.3 1.4-1.3 1.6 3.2 4.5.4 1.3 2.8-.4h3.7l.6-2.6v-.2h.2l1.9-.8 3.8-.5.7-2.8-.5-5.2-6.7-2.8-4.1.6-.8 3.9-.1.1-3.5 1.9Z" fill="#B4C1E0"/>
  <path fill-rule="evenodd" clip-rule="evenodd" d="m141.2 162.3.7 2.7.5 2 4 4.7h.1V177.1l1.6 3.6 1.6.4.5-1h.2l3.8.2.7-.8.1-.2.2.1 1.2.8.1.1v.1l.1 1.6 1.3 1 3.4-1.9.8-3.9v-.1h.2l4.2-.7.8-5.9h.2l3.7.3 2.1-1.3.2-.1.1.1 3.7 2.8 3.8-4 .2.2 3.4 2.9 2.7-.8 1.3-1.2-2-2.9-4-4.8-2.4-1.3h-.1v-.1l-.6-2.3-2.8-.3-1.2.6h-.2l-9.5-1.1-2.3 1h-.2v-.1l-1.3-1.3h-2.9l-1.3 1.4-.1.1h-.1l-2 .2-5.7 2.4h-.2l-4.7-.3-4 1.7Z" fill="#B4C1E0"/>
  <path fill-rule="evenodd" clip-rule="evenodd" d="m141.2 162.3.7 2.7.5 2 4 4.7h.1V177.1l1.6 3.6 1.6.4.5-1h.2l3.8.2.7-.8.1-.2.2.1 1.2.8.1.1v.1l.1 1.6 1.3 1 3.4-1.9.8-3.9v-.1h.2l4.2-.7.8-5.9h.2l3.7.3 2.1-1.3.2-.1.1.1 3.7 2.8 3.8-4 .2.2 3.4 2.9 2.7-.8 1.3-1.2-2-2.9-4-4.8-2.4-1.3h-.1v-.1l-.6-2.3-2.8-.3-1.2.6h-.2l-9.5-1.1-2.3 1h-.2v-.1l-1.3-1.3h-2.9l-1.3 1.4-.1.1h-.1l-2 .2-5.7 2.4h-.2l-4.7-.3-4 1.7Z" fill="#B4C1E0"/>
  <path fill-rule="evenodd" clip-rule="evenodd" d="m177.1 172.7-3.6-2.7-2 1.2h-.2l-3.6-.2-.7 5.5 7 2.9v.1l.4 5.4-.6 2.7 2-.5 6-.2 4 1.7h.2v.2l1.1 2.1 2.3-1.6.3-4.4-.7-2.2-2.5-3.3-7.2-2h-.1l-1.6-1.5v-.2l-.5-3Z" fill="#B4C1E0"/>
  <path fill-rule="evenodd" clip-rule="evenodd" d="m189.4 190-2.2 1.5-.3.2-.1-.3-1.2-2.4-3.9-1.6-5.8.2-2.2.5h-.2l-4 .6-1.7.7-.7 2.6v.2h-4l-2.7.5.3 1 3.2.5h.1v.1l2.3 3.7 4.8.8v2.9l-.1.1-1 .9 1.8 2.6.2.3 2 3.5h1l1.6-.8.2-.1.2.1 1.3 1.4 2.6 4.5v.2l-.2.6 2 2.7.2.1v.2l-1.1 2.8 1.1 3.1h.7l1-1.7 1.5-2.3v-.1h.2l2 .3 2.5 1.8.7-.8-.2-2.6-1.6-2h-.1v-.2l.7-2.6v-.2l5 1 4-.7.8-3-1.3-.2h-.1v-.1l-.9-1.1-.1-.3 2.4-1.3.2-.6-1.8-.4h-.2v-.2l-.1-1v-.2l1.2-1.7-.6-.5-3.6 1.4h-.2l-4-1.2-.1-.1-1.5-2.8-.7-3.3.7-7.3Z" fill="#B4C1E0"/>
  <path fill-rule="evenodd" clip-rule="evenodd" d="m189.6 198.8.3 1.5 1.4 2.7 3.8 1.1 3.7-1.4H199l.9.8.1.2v.1l-1.4 1.8.1.8 1.8.4h.3v.3l-.3 1-.1.1-2 1.1.5.8 1.5.4 2.4.2 2.7-1.8.6-5.2v-.3h.3l2.2.4 2.6-2.1 1.8-3.4 2.6-2.1 3.2-6-1.2-1.1-1.4-1.9-2 .2h-.2v-.1l-2.5-2.7-4.2-.6-.2 1.4-.5 2-3.3 2.1H203l-2.3-1.3-1.9-.3-2.6 6.4h-.2l-4.1.1-2.4 4.4Z" fill="#B4C1E0"/>
  <path fill-rule="evenodd" clip-rule="evenodd" d="m205.9 209.3-2.8 1.9-2.5-.2-.8 3v.2h-.2l-4.2.9h-.1l-4.5-1-.6 2.3 1.6 1.8v.2l.2 3-1 1-.1.2-.2-.2-2.6-1.8-1.7-.3-1.3 2.1-1.2 2v.1h-1l-.7 6.8 1.4 2.2v.1l-.7 5.4 1.2 1.5v.2l-.4 2.5v.2l-1.5.3v3.3l1.2-.6h.1l3.4.2h.2l-.6 4-.2.1-2.1.4-.2 1 1.3 1.7.2.2-2.7 2.1.9 2 5.4 1.9h.1l2.8 3.2 3 .6 1.6-2.7v-.1h.2l2.7-.4.6-2.2.6-2.3v-.1h.2l3.4-.4.6-2.5 3.3-4.2h.1l5-2h.2l2.2 1.3 1 .2 1.2-2.8.2-.1 2.4-.4 1.4-.8-1.6-2-1.1.4-1.8.6h-.2l-7.2-3v-.1l-1.6-1.5-1.6-4.4v-.1l1.1-2.4v-.1h.2l3.7-1.7h.1l2 .4h.1l1.4 2.2v.1l-.2 3.2 1.3 1.2 1.9-.6h.1l1.7.3h.1l1 1h.1l2.4 2.7 1.3-.5 1-1.6-1.4-2.2v-1.8l2-2.8.6-2.4-1.4-.3-4.6-2.5-2-1.8v-.2l-.6-2.2-2 .3h-.1l-.1-.1-.8-1.3-.2-2.1-.1-1.2-2.2-.8h-.1V214l-5.1-.8h-.3l.4-3.8-2.2-.2Z" fill="#B4C1E0"/>
  <path fill-rule="evenodd" clip-rule="evenodd" d="m226.1 169.5-3.6 1.1h-.2l-9.4-4.5-3.7 3-.1.2-.2-.1-1.4-1.4h-.1l.6-5.7-.7-1.8v-.2h.1l8.7-7.5V149l-2-2.8-3 .1-4.8 2.3h-.2l-3.9-.5-.7 1.2 2.5 2.8.2.2-.2.1-3.8 3-1.9 1.6-.7 5v.2h-.2l-8.5-1-3.6 2.8 1.9 2.2 2 3.2.1.1-.1.2-1.5 1.3-3.1 1-.1-.2-3.4-2.8-3.5 3.7.4 3 1.5 1.3 7.2 2h.1l2.7 3.4v.1l.7 2.3v.1l-.3 4.5v.1l-.7 7.6.2 1 2.2-4v-.1h.2l4.1-.2 2.6-6.3.1-.2h.2l2.1.4h.1l2.2 1.3 3-1.9.5-1.8.2-1.6v-.2h.3l4.5.7h.2l2.4 2.7 2.3-.2v.2l1.5 1.9 1.2 1 2.3-2 2-2-1.8-1.7v-.1l.2-2.8h.2l7.5-2.2.2-3.7-3.8-5.8Z" fill="#B4C1E0"/>
  <path fill-rule="evenodd" clip-rule="evenodd" d="m395.2 113.7 1.9.4.5-1.2-1.2-1.5-1.6.3.4 2Z" fill="#B4C1E0"/>
  <path fill-rule="evenodd" clip-rule="evenodd" d="m400.4 123.7 2.2 1.1 2.4-.2-.7-3.4-3 1.2-1 1.3Z" fill="#B4C1E0"/>
  <path fill-rule="evenodd" clip-rule="evenodd" d="m405.6 126-2.8-.2-1.9 4.6-4.2-4.4-1.7 3.9 4.4 5.5-.2 4.3-8.1-8.4.2-4.7 4.2-4 1.3-6.8-1.6.5-2.3 4.5-3 2-3 .5-3.3 3.7-1 10.3-7.8 9.4-.3 6.2 7 .7 5 7-.6 6.2-4.5 4.2.9 2.2 3 2-6.1.7-1-6 5.2-7-1.4-5.6-6.8-1.7-4 3-1.3 7.7-7 5.4-5.9 1.3-4.3 3.6-12.3-9 .4-3.7 8.4 4.7 4.8-1.2 7.8-3.7 6-8.9-.3-5.2 10.6-18 1.3-3.2-.5-4.4 6-4.4 2-6.9-3.8-5.8h4.5l-.2-5.2-4.3-.8-.8 3.7.8 2.3-2.7-1.3-4.5 2.5-5.7 5.5-4.3 3.2-6 .7-3.3 2.4 2.6 4.1-4 5.3-4.7.8-.3 2 3.6 4.3-1.7 3.5.4 2.5 1.3 2.2-5.6 4-1.4-2.7-.8-5.8-4.6-8.8-3.4 2.1 1.5 3.3v.2l-4.5 6 1 4.7v.2L333 151l-4 .8-2.8 2.6h-.2l-9.6-.6-5.3 3.3h-.2l-3.2-.3-1 7.7h-.1l-4.3 4.7 2 5 9.1 1.7h.1l4.1 3.7.1.1v.1l-.3 4.2 1.4 1.5 10.6 1.7h.1l3 4.3v.1l-.4 6.4 1.6 2.4v.2l-.6 4.1 7.1.8 5.9 6.2 8.4 4.5.1.1 2.7 5.4 5.4 3.9 5.8 1.1 5.1-2.8H374l4 4.3 4.5.4.2.1 2.8 5 1.7.3h.1l3 3.4 7.5-7.2 1-5v-.2l5-5.2-.3-4.7-4.8-4.2v-.1l2-6.6-2.9-4.6v-.1l2-9.3-3.6-5.5-.1-.1v-.1l2.2-4.6-1.3-3.8v-.3l5.8-.8 2.9-5.2-.6-6.6-5.5-1.9-.1-.1-4.5-7v-.2l1.4-3.8.2-.1 8-2.5 1.2-2.8-2.6-6.9v-.1l1.3-4.2v-.2l3.6-.2-2.5-6.6v-.6Z" fill="#B4C1E0"/>
  <path fill-rule="evenodd" clip-rule="evenodd" d="m272.9 269.6 4 .4 2.6 5.4 2.5.7.1-.1 1.1-2v-.1l5-3.6 1.1-3 3.2-2.6v-.1h.2l3.4 1 1-1.2.8-2.3-.7-2.5-2.8-1.4h-.1v-.1l-.3-1.6v-.2l1.6-1.4.9-4v-.1l5.5-4 .2-.2 2.6 3.1.2.2-.2.1-1.7 1.9 1.9.5h.1l4.6 4 4-.2 3.5 2.3 3.4.5 5-2.5-7.7-6.8-.1-.1-3.3-8-2.3-6.6-2.3-.7-4.8-2.5-2.3-2.5-1 1.8v.1l-4.1-.6-1 1h-.1l-2.6 1h-.2l-1.9-.6-1.3.7-2.7-.2-3-1.6-1.6 2.2v.1h-.2l-4.5.4-3.3 4.3-.1.1h-.2l-7.8-1.1-2.6 4-.3 4.2v.2h-.3l-2.1.3-1 3.3 1.3 4 .5 2.7 3.2 1.3 2.9 3v.2l-.1 2.7 4 4.2h.2v2.6Z" fill="#B4C1E0"/>
  <path fill-rule="evenodd" clip-rule="evenodd" d="m236 261.2 7.7 2.5 4.2 3 2.9-1.6 3.7 2.4 12.9 3.7 5-1.5v-2.5l-4.2-4.2v-.1l.1-2.7-2.7-2.9-3.3-1.3-.1-.2-.5-2.7-1.4-4.2v-.1l1-3.3-3.5-2-2.9 1h-.2v-.1l-2-3-4.7-2-5.7 1 .2 1.4-.6 4.7v.1l-.2.1-8 4.5-.4 2.5 5.3 3.7.2.2-.2.2-2.5 3.4Z" fill="#B4C1E0"/>
  <path fill-rule="evenodd" clip-rule="evenodd" d="m203.8 270.7 1.8-1.7 5.4.1.8-3.5 2.6-1 2.7.4 3 2.7 2-1.5-2-4-.6-3.7 2.9-2.4 2.4-.4 3.3 4 7.4 1.3 2.5-3.3-5.2-3.7-.1-.1v-.2l.5-2.7v-.2h.1l8-4.5.6-4.5-.3-3.3-1.8-2-1.1.5h-.2l-1.9-.6h-.1l-7.3-7.3-1.4.2-.6 2.4-2 2.8v1.5l1.5 2.3V238.6l-1.2 1.7h-.1l-1.8.8v-.2l-2.6-2.8-1-.8-1.5-.3-2 .6H216.2l-1.5-1.5v-.2l.2-3.2-1.2-1.9-1.8-.3-3.5 1.5-1 2.2 1.4 4.2 1.5 1.4 7 3 1.7-.6 1.5-.5v.2l2.2 2.5-.3.1-1.7 1-2.3.5-1.3 2.9-1.6-.2-2.2-1.3-4.7 1.8-3.2 4-.6 2.7v.1h-.3l-3.4.4-.5 2.1-.6 2.2 5.3 2.1h.2v.2l.9 2.4v.2l-.8 1.6-2.3 1.4.5 2.1Z" fill="#B4C1E0"/>
  <path fill-rule="evenodd" clip-rule="evenodd" d="m269.6 181.7-1.6 2-1.2 2v.1l-5.1 5.1-7.5 5.5-6 1.9-.3 2.3 1.4 3.5.1.2h-.1l-2.7 2.5-.8 3.5-1.9 1.8h-.2l-5.3-.3-1.1 3.2h-.1l-2.6 1.3-.1-.2-2-2.5-3.4 4.1v.1h-5.2l-4.7 4.2.6 2.3 1.7 1.6 4.6 2.5 1.5.4 1.8-.2h.1l7.3 7.3 1.7.6 1.3-.5H240l2 2.3v.1l.2 1.4 5.7-1h.1l4.8 2.2h.1l2 3 2.8-1h.2l3.7 2.2 2-.3.4-4v-.1l2.7-4.3v-.1h.3l7.8 1 3.2-4-1.7-3.1v-.2l.5-2.7 1.3-4.9-5-3.8-.1-.1-.7-2.5 3.5-3.2-.3-3v-.1l-.5-5.4v-.2l3-3.1.3-4-2.3-7-4.7-3.4h-.1v-.1l-.5-3.4-1.2-1.5Z" fill="#B4C1E0"/>
  <path fill-rule="evenodd" clip-rule="evenodd" d="m269.6 181.7-1.6 2-1.2 2v.1l-5.1 5.1-7.5 5.5-6 1.9-.3 2.3 1.4 3.5.1.2h-.1l-2.7 2.5-.8 3.5-1.9 1.8h-.2l-5.3-.3-1.1 3.2h-.1l-2.6 1.3-.1-.2-2-2.5-3.4 4.1v.1h-5.2l-4.7 4.2.6 2.3 1.7 1.6 4.6 2.5 1.5.4 1.8-.2h.1l7.3 7.3 1.7.6 1.3-.5H240l2 2.3v.1l.2 1.4 5.7-1h.1l4.8 2.2h.1l2 3 2.8-1h.2l3.7 2.2 2-.3.4-4v-.1l2.7-4.3v-.1h.3l7.8 1 3.2-4-1.7-3.1v-.2l.5-2.7 1.3-4.9-5-3.8-.1-.1-.7-2.5 3.5-3.2-.3-3v-.1l-.5-5.4v-.2l3-3.1.3-4-2.3-7-4.7-3.4h-.1v-.1l-.5-3.4-1.2-1.5Z" fill="#B4C1E0"/>
  <path fill-rule="evenodd" clip-rule="evenodd" d="m307.3 156.8-3-.3-4.7 3.2h-.2l-4-.2h-.1v-.1l-1.2-2-6.9 4.6-1.3 3.3h-.1l-7.3 5-8.6 11 1.4 1.7v.1l.5 3.3 4.7 3.3.1.2 2.3 7.1-.3 4.2v.1l-3 3.1.5 5.4.4 3.1v.1l-.1.1-3.5 3.2.7 2 5 4h.2v.2l-1.3 5-.6 2.6 1.7 3 4.3-.4 1.8-2.5 3.4 1.8 2.3.3 1.3-.8h.2l2 .6 2.4-1 1.1-.9h.2l3.9.5 1-2 .2-.3.2.3 2.5 2.7 4.7 2.4 2.4.8.1.2 2.4 6.7 3.3 7.8 7.8 7 5-2 .8-2.7v-.1h.2l3-1.5h.2l3.3.7 3.8-8.4v-.1h.1l4.5-2.6h.2l4.3 1.7 5.6 4.4 9 1h.1v.1l5.9 5 8-3.3H380.4l3.6 3h4.5l5-1.4 1.1-2-5.3-3.7.7-6.6-3-3.4-1.7-.3h-.1v-.1l-3-5-4.4-.3h-.1l-4-4.3-5 2.8h-.1l-6-1.2-5.5-4h-.1l-2.7-5.4-8.4-4.5-5.8-6.2-7.5-.7v-.3l.7-4.3-1.6-2.4v-.1l.3-6.4-2.7-4-10.5-1.7h-.1v-.1l-1.6-1.7h-.1v-.1l.3-4.2-4-3.6-9.2-1.6h-.2v-.2l-2-5.3v-.2l4.3-4.7 1.1-7.5Z" fill="#B4C1E0"/>
  <path fill-rule="evenodd" clip-rule="evenodd" d="m307.3 156.8-3-.3-4.7 3.2h-.2l-4-.2h-.1v-.1l-1.2-2-6.9 4.6-1.3 3.3h-.1l-7.3 5-8.6 11 1.4 1.7v.1l.5 3.3 4.7 3.3.1.2 2.3 7.1-.3 4.2v.1l-3 3.1.5 5.4.4 3.1v.1l-.1.1-3.5 3.2.7 2 5 4h.2v.2l-1.3 5-.6 2.6 1.7 3 4.3-.4 1.8-2.5 3.4 1.8 2.3.3 1.3-.8h.2l2 .6 2.4-1 1.1-.9h.2l3.9.5 1-2 .2-.3.2.3 2.5 2.7 4.7 2.4 2.4.8.1.2 2.4 6.7 3.3 7.8 7.8 7 5-2 .8-2.7v-.1h.2l3-1.5h.2l3.3.7 3.8-8.4v-.1h.1l4.5-2.6h.2l4.3 1.7 5.6 4.4 9 1h.1v.1l5.9 5 8-3.3H380.4l3.6 3h4.5l5-1.4 1.1-2-5.3-3.7.7-6.6-3-3.4-1.7-.3h-.1v-.1l-3-5-4.4-.3h-.1l-4-4.3-5 2.8h-.1l-6-1.2-5.5-4h-.1l-2.7-5.4-8.4-4.5-5.8-6.2-7.5-.7v-.3l.7-4.3-1.6-2.4v-.1l.3-6.4-2.7-4-10.5-1.7h-.1v-.1l-1.6-1.7h-.1v-.1l.3-4.2-4-3.6-9.2-1.6h-.2v-.2l-2-5.3v-.2l4.3-4.7 1.1-7.5Z" fill="#B4C1E0"/>
  <path fill-rule="evenodd" clip-rule="evenodd" d="m131.2 82-1.3.8-1 1.8-.5 6.2v.2l-5.2 1-.5 2v.2H120.7l-.6 1.4v.1l-.8.6 1.5 1.8 2.9 2.4 5.8 2.1h.1l1.9 2 5.7 1 .6-2h.2l1.2-.8H139.6l2.6 2.2v.1l.4 2.4 2.9 2.8 2.8.1h.1l4 4.2.5-1.9-.5-2.3-2-2.4 2.4-2.7v-3l-1.5-3.4v-.2l.7-2.1-1.6-.4h-.2V96l-.2-1.5-3-.4h-.1v-.2l-.8-1.5v-.2l1-1.3V89l-2.3-1-.8 1-.2-.1-1.6-.3v-.1l-1.5-1.5H137.9V87l-1.2-2.6-1.6-.9-3 1-.3.2v-.3l-.6-2.4Z" fill="#B4C1E0"/>
  <path fill-rule="evenodd" clip-rule="evenodd" d="m157.6 120.5 5.3 4 2.3.2h.1l2.4 3.5h.1v.2l-1.8 4.3 3.1 3.4 9.2 1.4h.1l5.8 4.2v.1l3.3 7.3 6.1 4.2 4.5-.5h.2l1.8 2 3.4-2.6-2.6-2.8v-.2l1-1.5v-.2h.2l4 .6 4.6-2.2.3-2.8-2.8-1.7h-.2l1.3-2.5-2.7-1.2-1.9.6h-.2l-.1-.2-1.6-5.4-5.4-.7-.2-.1-3-4-3-2.4-2.9-3-8.1-10.8h-.1v-.2l1.2-4.8 3.9-3.3-2.2-1h-.2l.4-3.5-2.7-.3-2 1.5h-.2l-4-.5v-.1l-1.7-2-1.7-.2-2.7.5-4.4 2.5-3.3 5v.1h-.2l-4.5-.8-2.6 1-2 2.4 1.6 2.1v.1l.6 2.5v.1l-.5 2.1 4.4.4h.3v5.3Z" fill="#B4C1E0"/>
  <path fill-rule="evenodd" clip-rule="evenodd" d="m157.6 120.5 5.3 4 2.3.2h.1l2.4 3.5h.1v.2l-1.8 4.3 3.1 3.4 9.2 1.4h.1l5.8 4.2v.1l3.3 7.3 6.1 4.2 4.5-.5h.2l1.8 2 3.4-2.6-2.6-2.8v-.2l1-1.5v-.2h.2l4 .6 4.6-2.2.3-2.8-2.8-1.7h-.2l1.3-2.5-2.7-1.2-1.9.6h-.2l-.1-.2-1.6-5.4-5.4-.7-.2-.1-3-4-3-2.4-2.9-3-8.1-10.8h-.1v-.2l1.2-4.8 3.9-3.3-2.2-1h-.2l.4-3.5-2.7-.3-2 1.5h-.2l-4-.5v-.1l-1.7-2-1.7-.2-2.7.5-4.4 2.5-3.3 5v.1h-.2l-4.5-.8-2.6 1-2 2.4 1.6 2.1v.1l.6 2.5v.1l-.5 2.1 4.4.4h.3v5.3Z" fill="#B4C1E0"/>
  <path fill-rule="evenodd" clip-rule="evenodd" d="M131.7 69.9H129l-4.7 2.7-2.8 3-5-.8-3.3 4.3h-3.6l-.5 3.5-5.5 2.6-.2 4.6 1.9 2.8-2.7 2.5.3 2.2 3.3 1.2.3 3.3-1.2 1.7h.2l2.3-.3h.2l1 .8 4.4-.3 2-2.3 1.3-3.7 3-2.3.7-1.6v-.1h1.8l.5-2v-.2l5.2-1 .5-6 1-2h.1l1.7-1 2-4.4-1.7-3.3v-.1l.2-3.8Z" fill="#B4C1E0"/>
  <path fill-rule="evenodd" clip-rule="evenodd" d="m158.9 66.3-4.7-.4-6 1.4-.6 4.3.3 2-1.8 1.2-1-3.2-2.2-.4-3.1-3.5-4.6 2.2h-3l-.2 3.8 1.7 3.3v.2l-2 4.5.5 2.3 2.8-1h.2l1.8 1 .1.2 1.2 2.4h2.7l1.4 1.6 1.4.3.9-1 .2.1 2.5 1.1h.2V91h-.1l-.9 1.3.6 1.3 3 .4h.2v.2l.3 1.6 1.7.4h.3l-.8 2.6 1.3 3.3v2.9l2.5-.9h.1l4.4.8 3.2-5 4.6-2.6 2.8-.5 3.7.4 2.1-1.2-3-4.7-2.5-.7v-.2l-.7-3.4h-1.5l-.4 2v.2h-.3l-1.2-.4-.1-.2-.7-1.5-1.2.2-.4 2.4v.3l-.3-.1-1.6-.5h-.1l-.8-2-4.4-.4-.2-.1-1.5-2.7-4.3-.4v-.1l-1.1-1.6.1-.2 8-7.3.5-8.3Z" fill="#B4C1E0"/>
  <path fill-rule="evenodd" clip-rule="evenodd" d="m222 56.5 2-6.6 1.4 2.4-1.2 4.6 1.6 4.4-.1 7 2.5 4.5.2 4.4 10.2 7.3 6.9-.4 5.7-6 2-6.6-1.3-8.4 1.5-11.7-1-4.5-2.9-5.6v-4.1l1.5-.8 1.8 3 2.3-1-1.6-3.8-6.9-5.5-10.5-2-2.3 1.2-5.6 2.3-.2 4-4.3 5-7-.6-2.7 2.6 4.5 7.1v.1l-1.2 3.8 4 2.5h.1v.1l.7 1.3Z" fill="#B4C1E0"/>
  <path fill-rule="evenodd" clip-rule="evenodd" d="m222 56.5 2-6.6 1.4 2.4-1.2 4.6 1.6 4.4-.1 7 2.5 4.5.2 4.4 10.2 7.3 6.9-.4 5.7-6 2-6.6-1.3-8.4 1.5-11.7-1-4.5-2.9-5.6v-4.1l1.5-.8 1.8 3 2.3-1-1.6-3.8-6.9-5.5-10.5-2-2.3 1.2-5.6 2.3-.2 4-4.3 5-7-.6-2.7 2.6 4.5 7.1v.1l-1.2 3.8 4 2.5h.1v.1l.7 1.3Z" fill="#B4C1E0"/>
  <path fill-rule="evenodd" clip-rule="evenodd" d="m206.2 82.3-.1-2.1.6-1.8-1.6-2.6 2-2.7 5.8-5.5 4.5-.8 2.9-3.8 1.6-5.8-.9-1.7-4.2-2.6h-.2l.1-.3 1.3-3.8-4.4-6.9-6.7 6.4-3-.4-4.2 2-2.8-.4-1.4 2.5-1.5 2.1-2.4 1.4 1 2.3-1.7 1.3-5-1.3-2 4.4-1.6 6.8-3.2.9-13.5-3.2-6.2-.4-.2 3.8 3.4-.3 4.4 1h.1v.2l1.6 2.5v.1l-.4 2.9v.1l-1.8 1.5-.1 3.3-.8 2.8v.1l-2.5 1.4-.8 1.5.7 1.8 1.1.3.4-2.2v-.2h.2l1.6-.3h.2v.2l.8 1.5.7.3.5-2v-.1H170.8l.8 3.7 2.3.7 3 4.7.7-1.3V90h.1l2-2.8L186 82h.2l3.3 1h.1v.2l1 2-1 3.1v.1l-2.7 2-4.6 4-1.6 3.6 2.8.3h.3l-.4 3.7 2.2 1 1.8-1.6 2.2.2 1.2-3.5 4.3-3.4-.8-1.6-1-2V91l1.2-2.9 4.2-3.2.5-1.8v-.3l.3.1 2.5 1 1.6.4 2.2-1.8.4-.2Z" fill="#B4C1E0"/>
  <path fill-rule="evenodd" clip-rule="evenodd" d="m262.2 115-5.8 5.8 1.5 2.8v.2l-1.4 2 .5 3.3v.2h-.2l-3.4 1.5H253l-4-3-4-.3h-.3v-.2l-.4-3-9.4-8.4-1.3 1.5 2.4 4.7-1.3 3.8-2.8 2.2 1 1.9v2.3h-.3l-4-.3-3.6 3.6-.4 2.3 3.6 1.9 1.8-1.7 3.9-.8h.2v.2l2 4.6-.2.1-9 5.4-.6 3.4v.1h-.1L223 153h-.2l-3.5-1.8-2.9 1.7-8.6 7.4.6 1.8-.6 5.5 1.2 1 3.6-3 .1-.1h.2l9.4 4.6 3.6-1 2.4-4.3.1-.2h.2l6.5 1.3.1.1 4.3 5.6 5 3.2 7.4 1.5 3.1-1.2h.2l7.5 7 4.8 1.3 10.5-13.4 7.3-5 1.4-3.3v-.1l7.3-4.8.2-.2 1.3 2.4 3.7.2 4.8-3.1v-.1h.1l6.7.6 5.3-3.3h.1l9.7.6 2.8-2.5h.1l4-.8 2.6-3-1-4.7v-.2l2-2.8-1.7-.5-1.4 1.6h-.1l-2.4-.2-3.2 2.3H327.4L324 142l-3 2.6h-.2l-8-.2h-.1l-32.2-26.9-3.4.7h-.1l-14.8-3.1Z" fill="#B4C1E0"/>
  <path fill-rule="evenodd" clip-rule="evenodd" d="m213.1 73.9 1 1.2 1.5-.7-.2-1.7-1-.9-1 1-.3 1.1Z" fill="#B4C1E0"/>
  <path fill-rule="evenodd" clip-rule="evenodd" d="m316.6 88.5 1.9-1 .3-2.8-2.1-.7-.1 4.5Z" fill="#B4C1E0"/>
  <path fill-rule="evenodd" clip-rule="evenodd" d="M341.2 130.8 339 126l-6.2-7.8-5.4-.6-1 2.8-.5 4.3-4 1.7-2-.6-1.7 1.8-2.4-2.2 3.3-2.3.3-2.9-9.9-1.2-4.5-3.9-7.6-.1-2.3-3.7h4.5l2.8-4-5.8-2-3.2 2.9-1.1-2.5-15-5.2-2.1 1.7-2-2.3-8.6 3.6-3.8-4.2 1.6-3.3-.9-3.5 5.2-1L271 95l2.6-3.2.5-6.2-5.5-7-2.5 6-8.9 4.3-1 3.8-4.4 3 .7 8 3.7 6.7 4 .9h.1l2 3.3 14.7 3 3.5-.6h.2l32.2 27 7.8.2 3-2.7.2-.1h.1l3.5 1.2 3.2-2.3 2.4.3 1.4-1.6v-.1h.2l2.2.6 2-2.8-1.5-3.3v-.2h.1l3.7-2.4Z" fill="#B4C1E0"/>
  <path fill-rule="evenodd" clip-rule="evenodd" d="M330.3 116h-3.1l-2-4.1 1-3.5 4-.5.7 4.1-.6 4Z" fill="#B4C1E0"/>
  <path fill-rule="evenodd" clip-rule="evenodd" d="m284.3 92.9 2.1 3.2 5.6.7.9-1.9v-3l-2.7-3.4-4.5 1-1.4 3.4Z" fill="#B4C1E0"/>
  <path fill-rule="evenodd" clip-rule="evenodd" d="m326 101.3 2.5-11.5 1.4-4.4 4.5-3.7 5-1 2.3-2.4-.8-3.3 3.4 2.5h3.3l1-2.2 2.1.4.4-2.3 2.6 1.2.7-2.2 1.7 2.2 1.7-1.7.8-2.7 2.6 2.1 2-1.3 3.6 1.1 3.4-3 24 2 6-2.3 1-3.9-2.1-3-5.9.8-1.2 1.9-9.7-1.8-3.9-3.8-4 1.6-3.5-2-5 2.4-4-.4-2.1 1.4-2.4-3-1.8 5.3-3-.2-.5 2.1-7.6 1.4-2.5-1.3-1.8 1.6 1.9 2.2-3.2 2.3-4.6-2.3-1 3.3-3.4-.5-.4 2.6-5 1.8-2.8-1.3-3.5 2-.6 3.3 2.8 3.3-.3 4.4-3.2 2.5 1.8 5 2.6.6-.1 2.1 2.9 1 1.8 1Z" fill="#B4C1E0"/>
  <path fill-rule="evenodd" clip-rule="evenodd" d="m251.3 96-4.6 3.1-1.6-3.6 2.8-.2-2.8-6.5-5.4.2-5.1-2.3-6.7.3-4.5 8.1-2.5-1.7-2.9-8.7 1.2-6.3H213l-2.2 5.3L213 87l-2.8 2.9-3.9-2.6-.2-4.4h-.1l-2.4 2-.1-.1-1.7-.5-2.3-.8-.5 1.6v.1l-4.2 3.2-1 2.6.9 2 .9 1.7v.2l-.1.1-4.3 3.4-1.3 3.6v.2l-2.4-.2-1.8 1.5-4 3.4-1.1 4.6 8 10.6 2.8 3 3 2.4h.1l3 4 5.4.7h.2v.2l1.6 5.3 1.8-.5h.1l3 1.3.3.1-1.3 2.5 2.7 1.7.2.1-.4 3 3-.2h.2l2.2 3.1v3.5l2.6-1.6H219.5l3.5 1.8 3-1.7.4-3.4v-.1h.2l9-5.4-1.7-4-3.5.6-2 1.9-.2-.1-4-2-.1-.2v-.1l.5-2.6v-.1l3.7-3.7.1-.1h.1l4 .3V130l-1-2-.1-.2.2-.1 2.7-2.1 1.2-3.5-2.4-4.8v-.2l1.6-1.8.2-.2 10 8.9v.1l.4 2.8 4 .3 4 3 3.1-1.3-.4-3.3v-.1l1.4-2-1.6-2.8v-.2l6-5.8-1.8-3-4.1-1v-.1l-4-6.9-.6-7.8Z" fill="#B4C1E0"/>
  <path fill-rule="evenodd" clip-rule="evenodd" d="m400.3 21.4 1.6 1.7 2.5-1.7-1-1.7-1.8.2-1.3 1.5Z" fill="#B4C1E0"/>
  <path fill-rule="evenodd" clip-rule="evenodd" d="m404 23.1 1.1 1.2 2.4-1 1-2.4-1.8-.6-2.8 2.8Z" fill="#B4C1E0"/>
  <path fill-rule="evenodd" clip-rule="evenodd" d="m410.1 23.4 2.1 2.2L417 24l-.6-2.6-3-1.5-3 1.8-.3 1.7Z" fill="#B4C1E0"/>
  <path fill-rule="evenodd" clip-rule="evenodd" d="m415.5 19.4 1.8 1.1 1.5-1.3-1.5-1.6-1.8 1.8Z" fill="#B4C1E0"/>
  <path fill-rule="evenodd" clip-rule="evenodd" d="m424.6 15.2.4 2 2-.5-.5-2.4-2 1Z" fill="#B4C1E0"/>
  <path fill-rule="evenodd" clip-rule="evenodd" d="m418.6 9.8 1 1 1.5-.9-1.9-2-1.1.7.5 1.2Z" fill="#B4C1E0"/>
  <path fill-rule="evenodd" clip-rule="evenodd" d="m412.6 10.4.2 1.5 2 1.6 1.5-1.7-1-2.4-2.7 1Z" fill="#B4C1E0"/>
  <path fill-rule="evenodd" clip-rule="evenodd" d="m408.2 11.5 3.8 4-.9 2.8-4-1.7-2.4-3.3 3.5-1.8Z" fill="#B4C1E0"/>
  <path fill-rule="evenodd" clip-rule="evenodd" d="m418.5 23.8.3 2.3 4.6.4 2.1-2.7-1.2-2.5-2.3 2.5-2.8-1-.7 1Z" fill="#B4C1E0"/>
  <path fill-rule="evenodd" clip-rule="evenodd" d="m405.5 27.6 1 1.7 1.3-1.2-1-1.8-1.3 1.3Z" fill="#B4C1E0"/>
  <path fill-rule="evenodd" clip-rule="evenodd" d="m395.5 15.2 1.5 3.2 2.4-1.7-.9-2.6-3 1.1Z" fill="#B4C1E0"/>
  <path fill-rule="evenodd" clip-rule="evenodd" d="m400.9 14.9.2 1.7 1.3-.6-.8-2-.7.9Z" fill="#B4C1E0"/>
  <path fill-rule="evenodd" clip-rule="evenodd" d="m400 5 1.1 2 1.5-1.1-2-2-.7 1.1Z" fill="#B4C1E0"/>
  <path fill-rule="evenodd" clip-rule="evenodd" d="m387.5 0 .4 2.5 1.8 1.6 2.9.1 1.6 1.5 1.2-1-2-2.1-2 .3-3.9-2.9Z" fill="#B4C1E0"/>
  <path fill-rule="evenodd" clip-rule="evenodd" d="m387.4 6.3-.4 2 1.8 2.2 1.8 2.7.8-1-.3-2.5 2.9-.3 3.4 1.5L400 9l-1.8-2.4-1.6-.8-2 1.1h-2.6l-1.5.5-3-1.1Z" fill="#B4C1E0"/>
  <path fill-rule="evenodd" clip-rule="evenodd" d="m391 14.8-.6 1.3 1.6 1.1.3-1.9-1.3-.5Z" fill="#B4C1E0"/>
  <path fill-rule="evenodd" clip-rule="evenodd" d="m63.2 44.4 7.4 20.2 6.2-2.3 1.6-10.5-2.4-4.3-1.8 4.6-2.6-2-1.6-6.4-3 1.4-3.8-.7Z" fill="#B4C1E0"/>
  <path fill-rule="evenodd" clip-rule="evenodd" d="M82.2 189.1a.5.5 0 0 0-.8.4c0 .3-.3.5-.6.4l-2.7-.3c-.7-.1-1.4.2-1.9.7l-.5.6c-.4.4-1 .7-1.6.7H74c-.7 0-1.3.3-1.7.9l-2 2.7c-.3.4-.8.7-1.3.8l-2.3.5c-.9.3-1.9-.2-2.3-1l-1.5-2.6c-.3-.5-.8-.9-1.4-1l-5.5-1.3c-.7-.1-1.3 0-1.8.4l-.8.6c-1.1 1-1 2.7.1 3.5l3.1 2.2a1.2 1.2 0 1 1-1.3 2l-2.2-1.6a1.8 1.8 0 0 0-2.7 2.2 2 2 0 0 0 1.6 1.2l1.6.2.2.1 2.9 4.2v.3l-2 2.9c-.6.7-.6 1.7 0 2.5l1.9 2.7v.3l-.7 1c-.2.2-.3.5-.3.8l-.3 1.7c0 .5 0 1 .3 1.4l.2.3c.5.8 1.6.9 2.3.3l.6-.6h.3l1.3.6c.9.4 2 .2 2.6-.6l.2-.2h.3l2.2 1 .2.3-.2 2c-.1.8.3 1.6 1 2l1.4.8.2.3-.3 2.5c0 .4 0 .9.2 1.2l.3.6c.4.7 1.1 1.2 2 1.2h1c.6 0 1.3-.3 1.7-.9l.6-.9h.3l4.6.4c.6 0 1.1-.1 1.6-.5l2.5-2.1a1.4 1.4 0 0 0-.6-2.4l-2-.4a.2.2 0 0 1-.2-.2l.1-1.9c0-.4 0-.8-.3-1.2l-2.1-3.5v-.2l1.6-4c.3-.7.2-1.4-.1-2l-1-1.9c-.2 0-.1-.2 0-.3l4.3-1.7h.3l.8.9c.3.4.9.7 1.5.7h.7c.8 0 1.5-.3 1.9-1l1-1.3c.2-.3.3-.8.3-1.2v-4.8h.1l3.4-1.6c.7-.4 1.2-1.1 1.2-2v-3.2c0-1-.8-2-1.9-2.1l-.8-.2c-.5 0-1 0-1.3.2l-2 1h-.3l-2.6-1.9-2.4-1.6Z" fill="#B4C1E0"/>
  <path fill-rule="evenodd" clip-rule="evenodd" d="m106.6 230.6 4.8-1 1-3.3 4.4-1.7 4.4-.6 1.6-.3.4-5.5-2.7-.9-1.1-2 .2-3.3-1.8.5-2-.4h-.3v-.3l.4-2.4.1-.1 2.3-2 .3-3-4.1-4.7-2.6-.8h-.1l-1.7-2.5v-3.4l-3.6-1.7h-.1v-.1l-1.4-3.2-2.1.4h-.1l-4-1-.7 2.7-4.1 1.8v6.8H94l-4.6 2.3v5.2l-2.1 3.2h-3.5v-.2l-1.3-1.4-3.9 1.6L80 212v.2l-2 5 2.4 3.9 6.7 1.4 1-1.7v-.2h.2l2.5.5v.2l.4 3.3 2.6.6 2.5-1 .1-.1h.1l8.1 2.5h.1v.1l1.9 3.9Z" fill="#B4C1E0"/>
  <path fill-rule="evenodd" clip-rule="evenodd" d="m83 258.3 4.3 2 11.8 1-.6-4.5 3-.2 3.5-11.5-1.7-2.7-2.9-1 .7-2.2 4-2.7-2.8-4.6 1.6-.6 2.2-.6-1.8-3.7-7.9-2.4-2.2 1 1 3.8v.1l-2.2 6.7 1.6 3.4v.2l-2.5 5 .4 3.3v.4l-.3-.1-3.4-.7-1.9.5h-.2l-1.1-2-1.3 1.2 1.4 4.2v.1l-.1.1-2.6 1.7-2.3.8 2.4 4Z" fill="#B4C1E0"/>
  <path fill-rule="evenodd" clip-rule="evenodd" d="M73.3 257.7c.3.8 1 1.4 1.8 1.5l2.5.3h1l1.2-.4c1.3-.5 2-2 1.2-3.3l-1-1.5c0-.1 0-.3.2-.3l2.3-.9.4-.2.8-.5c.9-.5 1.2-1.6 1-2.5l-1-2.6.2-.2 1.6-1.5.4.1.2.5c.5.9 1.6 1.3 2.5 1H89c1.5.3 2.9-1 2.7-2.4v-.1l2-4c.3-.7.3-1.3 0-2l-1.1-2.4v-.1l2-6c.2-.5.2-1 0-1.4L94 227c-.2-.7-.8-1.3-1.6-1.5l-1.5-.3a.2.2 0 0 1-.2-.2l-.2-2.4a1.3 1.3 0 0 0-2.5-.5l-.5.9c0 .1-.1.2-.3.1l-5.6-1.1a1 1 0 0 0-.4 2l2.2.4.2.3v2.2l-4 3.3h-.1l-4.3-.4c-.7-.1-1.5.2-2 .8l-.5.8-.2.1h-3.7c-.1 0-.2 0-.3-.2l-1.3-2.5v-.1l.2-1.7c0-.9-.4-1.7-1.1-2.2l-1.4-.7-.1-.3.2-2.3a1.4 1.4 0 0 0-2.5-1l-.5.6h-.3l-1.9-.8a1.6 1.6 0 0 0-2 2.3l.2.3c.4.6 1 .9 1.8.9l.9-.1.2.1.8 1.3c.2.4.6.7 1 .9l1.9.7.2.2.8 2.8.1.3 2.2 4.5v.2l-1 3.4c-.2.5-.1 1 .1 1.5l2 4.4.6 4-.4 3c-.1.6 0 1.2.5 1.7l3.2 3.8.1.1.3 1.2Z" fill="#B4C1E0"/>
  <path fill-rule="evenodd" clip-rule="evenodd" d="m45.3 269.8-1.6 1.3-.1 4 3.3 5.6-.8 5.4-1 2.6 3 4.4 1.8-.5 1.1-1.4 2 1.2 2.2 1L58 292l.7-7 2.9-9.5 7.3-5.4 1.2-6.2-.4-2.8 3.5-2-.7-2.4-3.8-4.5-1.7 1h-.1l-4.6-.6-2.7 1.5.7 1.8v.2h-.1l-2.4 1.1 2.4 4 3 1h.1l.7 3.9-2.6.7h-.1l-2.4-.4-3.6 5.2-.2.2-.2-.2-2.1-2-1.7 1.3-5.8-1Z" fill="#B4C1E0"/>
  <path fill-rule="evenodd" clip-rule="evenodd" d="m45.3 269.8-1.6 1.3-.1 4 3.3 5.6-.8 5.4-1 2.6 3 4.4 1.8-.5 1.1-1.4 2 1.2 2.2 1L58 292l.7-7 2.9-9.5 7.3-5.4 1.2-6.2-.4-2.8 3.5-2-.7-2.4-3.8-4.5-1.7 1h-.1l-4.6-.6-2.7 1.5.7 1.8v.2h-.1l-2.4 1.1 2.4 4 3 1h.1l.7 3.9-2.6.7h-.1l-2.4-.4-3.6 5.2-.2.2-.2-.2-2.1-2-1.7 1.3-5.8-1Z" fill="#B4C1E0"/>
  <path fill-rule="evenodd" clip-rule="evenodd" d="m44.6 264.8.8 2.6.2 2 5.4 1 1.6-1.4.2-.2.2.2 2 2 3.6-5v-.1h.2l2.5.4 2.1-.6-.5-3.2-2.9-.8h-.1v-.1l-3.5-5.8-3-.5-1.6.5 1 6.1v.2l-.1.1-8 2.6Z" fill="#B4C1E0"/>
  <path fill-rule="evenodd" clip-rule="evenodd" d="M43 262v1.2l1.3 1.1 8-2.5-1-5.9-1.5.5-1.7 3.7v.1l-2.2 1.3-2.9.6Z" fill="#B4C1E0"/>
  <path fill-rule="evenodd" clip-rule="evenodd" d="m38 253.2-.2 4.5 5.3 3v.9l2.6-.6 2-1.2 1.7-3.7v-.1h.2l3.2-1-2.2-2.1-1.2 1.5h-.2l-6.2-2.2-4.9 1Z" fill="#B4C1E0"/>
  <path fill-rule="evenodd" clip-rule="evenodd" d="M37 242.5a2.2 2.2 0 0 0-.6 3.2l.6.7c.3.5.4 1 .4 1.5l-.2 3 .1.7.6 1 5-.9h.2l4.6 1.6c.9.3 1.9 0 2.4-.7l.8-1c.4-.5.5-1.2.4-1.8v-.2c-.3-1-1-1.6-2-1.7l-1.3-.1-.2-.1-4.7-5c-.3-.3-.8-.5-1.2-.6l-2.6-.4c-.5 0-1 0-1.4.3l-.9.5Z" fill="#B4C1E0"/>
  <path fill-rule="evenodd" clip-rule="evenodd" d="M31.7 229.8a2.2 2.2 0 0 0-1.5 3.1l1.4 2.7.2 1.2-.2 1.8c0 .5 0 1 .4 1.5l1.4 1.8c.6.8 1.8 1 2.8.5l2.1-1.2h.2l1.6.2c1.3.1 2.4-.8 2.5-2l.1-1.6.1-.2.4-.2c1-.5 1.5-1.8 1-2.8l-.7-1.8c-.4-.9-1.6-1-2.1-.2h-.3l-3.6-.7h-.2l-1-1.6a2.2 2.2 0 0 0-2.2-1l-2.4.5Z" fill="#B4C1E0"/>
  <path fill-rule="evenodd" clip-rule="evenodd" d="M55.9 220.6c-.7-1-2-1.2-3-.6l-.3.2c-.1.1-.3 0-.4 0l-.6-1.5a1.3 1.3 0 0 0-2.6.3l-.1.7-.1.1-.3.2c-.9.7-1 2-.2 2.7v.3l-1 1.3c-.5.7-.5 1.6 0 2.4l.1.4c.1.1 0 .3-.1.3l-2.1.6c-.6.1-1 .4-1.3.9l-.3.4c-.4.6-.4 1.4-.1 2l2.2 5.2-.1.3-1.2.6c-.7.3-1.2 1-1.3 1.8v1.8c0 .6.1 1.2.5 1.6l4 4.1c.3.4.8.6 1.3.7l2.3.2s.2 0 .2.2l.6 3v.2a2 2 0 0 0 .2 2.7l.7.7c.4.3.8.5 1.2.5l2.5.5h.2l.2.4a1.3 1.3 0 0 0 2.3-1l-.3-.7.1-.3 3-1.7h.1l3.8.5c.5.1 1 0 1.4-.2l.2-.1c.6-.3 1-1 1-1.6l.4-2.5v-.6l-.4-3.2-.2-.6-2.3-5 1-3.5c.2-.5.1-1-.1-1.5L65 230l-.5-2c-.2-.6-.7-1.1-1.3-1.4l-1.5-.6h-.2l-.4-.8a2.2 2.2 0 0 0-2-1H58.3l-2.4-3.6Z" fill="#B4C1E0"/>
  <path fill-rule="evenodd" clip-rule="evenodd" d="M26 199.5c0 .3-.2.6-.4.8l-1 .8a1 1 0 0 0-.3 1l.3 1.1.3.6 1.4 1.2c.3.2.4.6.4 1l-.4 2.5v.3l.6 5v.3l-.9 4.7-1.7 7.4c0 .3 0 .6.2.8l.3.5c.2.4.7.6 1.2.5l.6-.2c.5-.2 1 0 1.3.6l.5.8c.2.5.7.7 1.2.6l6-1.3c.1 0 .2 0 .3.2l1.5 2.4c.2.3.4.5.7.5l2.2.5c.4 0 .9-.1 1.1-.5l2.4-3.4c.1-.3.3-.4.6-.5l1-.3c.7-.1 1-1 .7-1.6l-.1-.2v-.3l1.2-1.6c.3-.5.2-1-.1-1.4l-.8-.9a.2.2 0 0 1 0-.3l1.7-1.3c.2-.2.4-.4.4-.7l.3-1.1c0-.1 0-.2.2-.2l2.2-.7c.1 0 .3 0 .3.2l.7 1.3c.2.6 1 .8 1.5.5l.5-.3c.3-.2.5-.5.5-.8l.4-2.5.5-.7a1 1 0 0 0 0-1.2l-2.4-3.4v-.3l2.5-3.5a1 1 0 0 0 0-1.3l-2-2.9a1 1 0 0 0-.8-.4l-2.3-.3-.2-.1-1.3-3.2a1 1 0 0 0-.2-.3l-3.1-3.3a1 1 0 0 0-1.9.6l-.6 2.7c-.1.7-1 1-1.6.7l-1.1-.7a1 1 0 0 0-.5-.2l-4.6-.2a1 1 0 0 0-.8.3l-.7.7a1 1 0 0 1-1.8-.4l-1.8-4.7a1 1 0 0 0-1.7-.4l-2.2 2a1 1 0 0 0-.3.8l-.2 3.7Z" fill="#B4C1E0"/>
  <path fill-rule="evenodd" clip-rule="evenodd" d="m454.7 363.4 11.4 5.7 10.6 3.5 1.4 8.4 7.5 4.8 5.6.4 8.4-3.6 6 2.5 6.4.3 1.4 3 3.7.5 1.7-4.1v-.1h.1l3.7-1.4-3.3-4.3-.2-.2.2-.2 4-2.4-1-4.1v-.3l7.3.7 4.7-2.9h.2l3.9.9 8.1-8.2.1-.1h.1l4.7.2 1.6-2 .1-.1 4.2-1.1 3.3-3.2.8-3.7-3-2.3.3-4h.1l7.5-4.2 2.8-4.9h.2l6.3-1.4v-4.6l-3.3-3.5-4.2-1.2v-.1l-2.5-10.1-2-2.3v-.1l2.5-2.6V308l-2.8 2.5h-.2l-2.2-.5-1.6 4.3-.1.1h-.2l-11.8 1.7h-.2v-.1l-1.7-2.7-2.7-.3-2.4-1.5-1.7 2.9h-.2l-5.6 1.2h-.2l-2.7-1.2-1 2.9v.2H522.8l.2 2.6 3.1 3.1.2.2-.2.1-3.2 3-1 4.7 1.4 4.3.4-.8 1.8-6.5 2.2-3 .1-.1h.2l2.4.6h.2v.2l.1 2.6-1.7 6-.2 5.8.6 3.3v.1l-1.6 3-2.2 1.6-.8 1 .5 2v.2l-1.1 2h-.2l-2.1.4-.4 2.2-3.2 4h-.2l-4.1.8-3 3.1-.1.1-3.2-.6-1.3 4.3-2.6 2.2v.1l-7.7 2.3-1.3 3-.2.1-4.8 1h-.3v-.2l-.5-2.6-4.8-1.5h-.2v-3.6l-3-4.5-4.7-.5h-.1l-8.8-8.2-2.6-4.2-5.2 2.7h-.1l-2.7-.3V354.5l-1.7 1.2.4 2v.2l-.1.1-2.3 2 1.5 3.4Z" fill="#B4C1E0"/>
  <path fill-rule="evenodd" clip-rule="evenodd" d="m454.7 363.4 11.4 5.7 10.6 3.5 1.4 8.4 7.5 4.8 5.6.4 8.4-3.6 6 2.5 6.4.3 1.4 3 3.7.5 1.7-4.1v-.1h.1l3.7-1.4-3.3-4.3-.2-.2.2-.2 4-2.4-1-4.1v-.3l7.3.7 4.7-2.9h.2l3.9.9 8.1-8.2.1-.1h.1l4.7.2 1.6-2 .1-.1 4.2-1.1 3.3-3.2.8-3.7-3-2.3.3-4h.1l7.5-4.2 2.8-4.9h.2l6.3-1.4v-4.6l-3.3-3.5-4.2-1.2v-.1l-2.5-10.1-2-2.3v-.1l2.5-2.6V308l-2.8 2.5h-.2l-2.2-.5-1.6 4.3-.1.1h-.2l-11.8 1.7h-.2v-.1l-1.7-2.7-2.7-.3-2.4-1.5-1.7 2.9h-.2l-5.6 1.2h-.2l-2.7-1.2-1 2.9v.2H522.8l.2 2.6 3.1 3.1.2.2-.2.1-3.2 3-1 4.7 1.4 4.3.4-.8 1.8-6.5 2.2-3 .1-.1h.2l2.4.6h.2v.2l.1 2.6-1.7 6-.2 5.8.6 3.3v.1l-1.6 3-2.2 1.6-.8 1 .5 2v.2l-1.1 2h-.2l-2.1.4-.4 2.2-3.2 4h-.2l-4.1.8-3 3.1-.1.1-3.2-.6-1.3 4.3-2.6 2.2v.1l-7.7 2.3-1.3 3-.2.1-4.8 1h-.3v-.2l-.5-2.6-4.8-1.5h-.2v-3.6l-3-4.5-4.7-.5h-.1l-8.8-8.2-2.6-4.2-5.2 2.7h-.1l-2.7-.3V354.5l-1.7 1.2.4 2v.2l-.1.1-2.3 2 1.5 3.4Z" fill="#B4C1E0"/>
  <path fill-rule="evenodd" clip-rule="evenodd" d="m385.2 375.2 18.6-4.4 6.5.3.9 1.6 9.4 3 .3 4.2 3.4 2 10.1 2.2 4 1 2 2 3.2-.7 3.2-2 2.6-4.7-3-4.3 1-6 2.3-.4.4-2.7 3 .1 1.1-2.8-1.5-3.6V359.7l2.3-2-.3-2v-.2l1.7-1.3-.2-1.4-4.2-.2h-.1l-9.9-8-.9 2.6v.2h-.2l-13-.3-1 3-.1.2-2.7.3v2.4h-.1l-3.7 1.8-.4 2.1v.2h-.2l-2.4.3-4.6 2.9h-.2l-9.7-2.2h-.1l-5.6-4.7-2.8-.5-2.3 4.2v.2h-.2l-7-.3v4.5l3.4 7.5v.2h-.1l-3.2 1.7.3 4.3Z" fill="#B4C1E0"/>
  <path fill-rule="evenodd" clip-rule="evenodd" d="m379.2 349.9 3.2-.8 2.3-.8 4.3-3.2-.7-2.3v-.1l1-2.6-.6-3.5v-.2h.1l2.9-2.8 1.7-3.6-3.6-1.6h-.2v-.2l-.5-2.2v-.2h.1l3.3-3.4-1.2-3.8 1-2.9 4.3-1.4 2.2-1.7-3.4-8 .9-2.6-4.7 1.3h-.2l-5.5-3-6.7.1-2.8 2.5v.1h-.2l-6.8-.7-2 17.1h2.8v.2l.1 3.5 3 3.8h.1v.1l.9 3.2 3 2.4.2.2-.2.2-2.8 2.4 1.8 2.3v.2l-1.3 3.4v.1h-.1l-2.6 1.3-.7 4 5.7.8h.1v.1l1.8 2.3Z" fill="#B4C1E0"/>
  <path fill-rule="evenodd" clip-rule="evenodd" d="M347.8 357.8v4.6l4.2 2.8-.3 4.4 4.4 1.4 1.6 2.3 5.2-2 .7 3.4 2.7 4.8 5 1 1.9-2.9 6.7.5 4.7-2.7-.2-4.7v-.1l.2-.1 3-1.6-3.4-7.2V357l-3.8 2.2-.3.2-.1-.2-2.9-4.3v-.2l1.6-4.6-1.6-2.2-5.5-.7h-.3l-3.5.3h-.2l-2.7-2.5-.4 2.2h-.1l-3.2 3.7-.1.2h-.2l-5-1-4.2.8-2 2 2.5 1.4h.1v.2l.4 3v.2h-4.9Z" fill="#B4C1E0"/>
  <path fill-rule="evenodd" clip-rule="evenodd" d="m316.6 315.1 3.6 31h3.6l3-3.2 2.2 1.2.3 3.6 7.3 4.7 6.2-1.4 3 1.6 1.9 4.7h4.5l-.4-2.5-2.5-1.6-.3-.2.2-.2 2.1-2.2 4.5-1h.1l5 1 3-3.5.6-2.5v-.5l.4.3 3 2.7 3.2-.2.7-4.6h.1l2.7-1.2 1.2-3.2-1.8-2.3-.1-.2.1-.2 2.7-2.4-2.8-2.3h-.1v-.2l-.9-3.1-3-3.8-.1-.1-.1-3.4h-2.5l-3.4 2.4h-.2l-6-1.2-1.9 1.2H355.4l-1.7-1.6-5.7 4.2-.2.1-.2-.2-3.6-4v-.1l-.1-.1-.4-2.9-3-4.5-14.1 3h-.2l-2.8-1.5-1.4.7H321.6l-2-1.5-3 1.2Z" fill="#B4C1E0"/>
  <path fill-rule="evenodd" clip-rule="evenodd" d="m307.4 301.1 7.2 1-3.2 2.5 5 10 3.1-1.3H319.8l2 1.6 1.4-.7.2-.1h.1l2.8 1.6 14.3-3H341l3 4.8v.1l.5 2.9 3.5 3.8 5.7-4.2.1-.1.2.2 1.7 1.5 1.9-1h.2l5.9 1.1 3.3-2.3 2-17.3-2.4-.2-3.7 2.3-.2.1-.2-.2-1.3-2v-.1l1.1-6.5-10-1.4h-.1l-.1-.1-1.5-3.3-5.2-.5h-.2v-.2l-.7-3.6-2.8-4.3-16.8-9.7-.6 5.5-3.6 1.5.6 3.6v.3h-.3l-4.3-.8-3.5 1-2.2 3-.6 9.6-2.9 5Z" fill="#B4C1E0"/>
  <path fill-rule="evenodd" clip-rule="evenodd" d="m282.6 276.3 2 .7-.3 3.4-1.4 1.2.6 2.5-3 2.7.2 2.3 5.9 1.9v3l2.9.5 2.1.7 2 2.6-3.4 2.2-.3 2 3.3-.5 2.7 1.7 2.6-.2 2.2-1.5 6.2-.4 2.9-5 .5-9.5v-.1l2.5-3.3h.1l3.6-1h.1l4 .6-.5-3.4v-.2h.1l3.6-1.6 1.4-13.2-2.2-2.7-.1-.1.1-.2 2.9-2.6v-1.9l-5.1 2.6h-.2l-3.6-.5h-.1l-3.4-2.3-4 .1-4.7-4-2.2-.6h-.4l.2-.4 1.9-2-2.2-2.5-5.1 3.8-.9 4-1.6 1.5.3 1.3 2.8 1.3.1.2.8 2.7v.1l-.9 2.4-1.2 1.5H296l-3.4-1-2.9 2.5-1 3h-.1l-5 3.6-1.1 2Z" fill="#B4C1E0"/>
  <path fill-rule="evenodd" clip-rule="evenodd" d="m383.7 252-3.6-3-8 3.3h-.2l-6-5-9-1.2-5.6-4.4-4.2-1.6-4.2 2.4-4 8.6v.2h-.2l-3.5-.8-2.8 1.3-.8 2.7-5.2 2.2V259l-2.8 2.5 2 2.6-.7 7.8 17 9.8 3 4.5v.1l.6 3.5 5.2.4h.2v.1l1.5 3.4 10.2 1.3h.2l-1.2 7 1.1 1.6 3.6-2.2 3.1.3 6.7.7 2.8-2.5h.2l6.9-.2h.1l5.5 3 4.9-1.4.7-4.4v-.2l5.3-3 .8-2-4-1.7h-.1l-2.9-3.3v-4l5.8-3.8.5-2.5-3.4-.8h-.2v-.2l-3.2-8-13.2-3.3h-.2l.4-3.9 2-2-1.1-6.3Z" fill="#B4C1E0"/>
  <path fill-rule="evenodd" clip-rule="evenodd" d="m394.5 315.5-1.7.5-1 2.6 1.3 3.8v.2l-3.4 3.4.4 2 3.7 1.7.2.1-1.9 4v.1l-2.8 2.7.5 3.5v.1l-1 2.5.7 2.5v.1l-4.4 3.4h-.1l-2.5 1-3.3.6-1.6 4.5 2.7 4 4.5-2.5v.2l6.8.3 2.4-4.5 3 .6 2.5-3.8v-.1h.2l3.7-1 1.4-2 .3-2.8h.1l3.5-1.4.1-2.7-1-4-.3-3.9-2.5-4.6-.1-.1v-.2l1.7-2.5-2.2-1.6h-4l-4.4-.4v-.2l-1.5-6.1Z" fill="#B4C1E0"/>
  <path fill-rule="evenodd" clip-rule="evenodd" d="m408.6 120.4 2 3.2 1.8-.5-.1-4.1-1.6-1-2.1 2.4Z" fill="#B4C1E0"/>
  <path fill-rule="evenodd" clip-rule="evenodd" d="m417.1 102.7 1.1 1.6 1.4-1.1-.3-2.1-1.7.3-.5 1.3Z" fill="#B4C1E0"/>
  <path fill-rule="evenodd" clip-rule="evenodd" d="m470.2 35.9 5.1 1.5-.8-3.9-3.7-.3-.6 2.7Z" fill="#B4C1E0"/>
  <path fill-rule="evenodd" clip-rule="evenodd" d="m473.6 45.6 3.2-3.3-.3-3.3 3-1.4 3-2.3 2.9 3 1.2 4.8.8 2.1-3 1.2-.3 2.5-7.4 2.3-3.3-3.5.2-2.1Z" fill="#B4C1E0"/>
  <path fill-rule="evenodd" clip-rule="evenodd" d="m470.6 49.3 5.2 2.6-1 2.3-2.7 1-3.4-2.7-.4-2.3 2.3-.9Z" fill="#B4C1E0"/>
  <path fill-rule="evenodd" clip-rule="evenodd" d="m474.6 58 3-5.4 7-2.4.8 4.5 1.8-.3.4-1.9 2.8 3.1-.7 3.7-2.6 3.2 1.7 2.3-.8 3.1-2.6 1-4.6-3.7-4.1-4-2.4-1.4.3-1.8Z" fill="#B4C1E0"/>
  <path fill-rule="evenodd" clip-rule="evenodd" d="m491.7 63-1.4 7.3-3.5 4.8.8 4 5.2-3.2 5.2.2 3-2.3 1-5.8-2.6-3.7-2.7 2-1.1-1.5.5-3.4-4.4 1.6Z" fill="#B4C1E0"/>
  <path fill-rule="evenodd" clip-rule="evenodd" d="m505 75.2.2 2 3.7 1.2V77l-3.6-2.6-.3.8Z" fill="#B4C1E0"/>
  <path fill-rule="evenodd" clip-rule="evenodd" d="m474.3 86.8 1.9 1.6 1.6-.7-.9-2.1-2.6 1.2Z" fill="#B4C1E0"/>
  <path fill-rule="evenodd" clip-rule="evenodd" d="m457 82.2 2.3 1.6.4-1.8-1.4-2-1.4.8v1.4Z" fill="#B4C1E0"/>
  <path fill-rule="evenodd" clip-rule="evenodd" d="m471.7 91.7.9 1.1 1.3-1-1.2-1.5-1 1.4Z" fill="#B4C1E0"/>
  <path fill-rule="evenodd" clip-rule="evenodd" d="m426.6 111.9 1.8 1.9 1.4-1-.3-2-1.6-.6-1.3 1.7Z" fill="#B4C1E0"/>
  <path fill-rule="evenodd" clip-rule="evenodd" d="m431 114.5 1 .9.9-1.2-1-1.4-.9 1.7Z" fill="#B4C1E0"/>
  <path fill-rule="evenodd" clip-rule="evenodd" d="m434.4 110 1 .7.7-1-1.5-1.3-.2 1.5Z" fill="#B4C1E0"/>
  <path fill-rule="evenodd" clip-rule="evenodd" d="m436.6 107.4 1.1 1 1.3-1.4-1.7-1.5-1 .6.3 1.3Z" fill="#B4C1E0"/>
  <path fill-rule="evenodd" clip-rule="evenodd" d="m428.9 97.2 1.2 1 2.2-1-1-2-1.7-.6-1.7 1.2 1 1.4Z" fill="#B4C1E0"/>
  <path fill-rule="evenodd" clip-rule="evenodd" d="m433.9 91-.6 1.1.9 1.5 1.3-1 .2-1.3-1.8-.3Z" fill="#B4C1E0"/>
  <path fill-rule="evenodd" clip-rule="evenodd" d="m435.5 44.2-.4 1.5 1.5 1.7 2.3.3.1-2-1.4-2.2-2 .7Z" fill="#B4C1E0"/>
  <path fill-rule="evenodd" clip-rule="evenodd" d="m447.3 33.3 2.2 1 2.5-.4-1.1-3.1-1.7-1.6-1.4 1-.4 1.9v1.2Z" fill="#B4C1E0"/>
  <path fill-rule="evenodd" clip-rule="evenodd" d="m479.4 353-.2-2.5v-.2h.2l2.5-.5-.7-3.6v-.3l3.3-.7.2-.1.1.2 1.9 4.6 6.1-2.6.2-.1.1.2 1.8 2.8 1.5 1.7 2.3-.6 3.4.4 1.3 2.5.1.2-.1.1-6.8 6.5-.1.2-3.6-3H488.2l-2.5-1.9-2.9-2.5-3.2-.6h-.2v-.2Zm38-118-2 1.6-4.2.4-3.7 1.2-.2 3.8.7 2.6v.2l-2.5 4 1.7 3.4v4.9l-3.9 5.4-5.7 2.6 1.7 3.4v.2l-2.6 2.7.8 3.9 4.4 1.8h.1v.2l.4 2.9v.1h-.1l-3.7 3-.4 2.3 2 .8h.2v.2l.7 3V290l-2.8 2.1-1.4 3.4-.1.3-.3-.2-4.4-3v-.1h-.1l-1.8-4.9-4.5 1.4-1 3.8v.1l-10.6 8.7v4.7h-.2l-2.7.8h-.2v-.2l-3-7.8-2.8 2.8v.1h-.2l-9.9-.6-4.6 6.3 3.7 7v.1l-1.2 3.5v.2H448.4l-3 4.3-2 11.8v.2h-.3l-4.2-.9-3 1-.3 2.4 6.5 6.7 10 8.2 4.3.2h.3v.2l.1.7 2.8.4 5.2-2.8.3-.1v.2l2.8 4.3 8.7 8 4.7.5.1.1 3.1 4.7.1 3.4 4.9 1.5h.1v.2l.4 2.4 4.5-.9 1.1-2.6-4.6-.5v-.2l-.9-2v-.3h.2l2.2-1h.1l3-.2 6.3-3.2 2.4-2.8 4.8-3.3 1.3-2.6 3-4 3.6-4.1 3.5-6.7 2.6-5.3-1.7-4.9v-.1l1.1-5 3.2-2.8-3-3h-.1v-.1l-.3-3v-.3h6l1-3 .2-.3.2.1 3 1.3 5.4-1 1.8-3 .1-.3.2.1 2.6 1.7 2.8.3 1.7 2.7 11.5-1.6 1.7-4.4.1-.2 2.4.6 3.2-2.7.4-.4v3.9l6.8 1.7 4.3-2.2.6-4.9-4-3.3v-.2l.3-6.2v-.2l2.6-1.5h.2l5.9.5-4.3-12.3-2.7-2.2-5.4 1.6-.3.1v-.2l-1.4-5.5-8-4-4.1.2-7.8 12.3-4.9 4.3-.2.2-.2-.2-2.8-3.3-2.3 3.2h-.2l-6-.3-4.3 2.4-.2.1-.2-.1-3.4-4.3v-.2l1.7-9.8v-.1l4.3-7.3-4.4-1.7-.1-.2-1.7-4.7v-.1l2.3-6.3-3.5-2.3-.1-.1v-.1l1-6.3-2.3-5.2-2.3 1.2h-.2l-3-.5h-.3l.4-3.6 2.7-1.2-1.7-3Z" fill="#B4C1E0"/>
  <path fill-rule="evenodd" clip-rule="evenodd" d="m479.7 350.7.2 2 3 .6h.2v.1l3 2.5 2.3 1.8h4.7v.1l.1.1 3.2 2.6 6.5-6.2-1.2-2.2-2.9-.3-2.2.6h-.5v-.2l-1.6-1.6v-.1l-1.7-2.7-5.9 2.6h-.2l-.3.2-.1-.3-.1-.2-1.8-4.4-2.6.6.7 3.4v.5h-.2l-.2.1-2.4.4Z" fill="#B4C1E0"/>
  <path fill-rule="evenodd" clip-rule="evenodd" d="m550.8 377 1.6-3v-.2h.5l7.3-.2 2.5-3.8.2-.3.1-.2.3.2.2.3 1.5 1.6 2.1-3.7.1-.1v-.1H567.6l3.8-.3H571.7l4.2 3.1.1.1.1.1v.3l-.9 2.7V373.8h-.4l-2.2.3 3.3 3.6.3.2.2.3-.3.1-.4.1-16 5.3h-.2l-8.4-6.2h-.2l-.2-.2.1-.2.1-.2Zm-33.2 12 2.4.3 1.9 4.4 18.1 3.5 13-5.6 4 .2 1.6-3.6 6.6-4.6 8.4.5 2.3 2.5 3.8-2.7 14.5 3.8 2.7-5.1 5.4-2.8-1.6-5 3.6-13 4.1-3-1.8-6.6-5.3-1 4.5-6.2 7-3.7-5.1-9.2.1-.1 2.3-2.5-3.4-2.3v-6.9l-3.7.5-.1-.2-1.9-4-5 2h-.1l-.2-.1-2.6-3-.1-.2.1-.2 2-2-5.5-4.2v-.1l-6.2-13.7-6-.5-2.3 1.3-.3 6 4.1 3.4v.1l-.8 5.3-4.6 2.4h-.2l-6.8-1.8-2.3 2.4 1.9 2v.1l2.4 10 4 1.1h.1l3.5 3.8h.1v.1l-.1 4.9v.2h-.2l-6.4 1.4-2.8 4.8h-.1l-7.4 4.3-.3 3.3 3 2.3V352.3l-.8 3.9v.1l-3.5 3.3h-.1l-4.1 1.1-1.7 2v.2h-.2l-4.7-.2-8.2 8.2v.1h-.2l-3.9-.9-4.6 2.9h-.1l-6.9-.7 1 4v.1l-.1.1-4 2.4 3.7 4.6-.4.1-3.9 1.5-1.6 3.8Z" fill="#B4C1E0"/>
  <path fill-rule="evenodd" clip-rule="evenodd" d="m550.8 377 1.6-3v-.2h.5l7.3-.2 2.5-3.8.2-.3.1-.2.3.2.2.3 1.5 1.6 2.1-3.7.1-.1v-.1H567.6l3.8-.3H571.7l4.2 3.1.1.1.1.1v.3l-.9 2.7V373.8h-.4l-2.2.3 3.3 3.6.3.2.2.3-.3.1-.4.1-16 5.3h-.2l-8.4-6.2h-.2l-.2-.2.1-.2.1-.2Zm-33.2 12 2.4.3 1.9 4.4 18.1 3.5 13-5.6 4 .2 1.6-3.6 6.6-4.6 8.4.5 2.3 2.5 3.8-2.7 14.5 3.8 2.7-5.1 5.4-2.8-1.6-5 3.6-13 4.1-3-1.8-6.6-5.3-1 4.5-6.2 7-3.7-5.1-9.2.1-.1 2.3-2.5-3.4-2.3v-6.9l-3.7.5-.1-.2-1.9-4-5 2h-.1l-.2-.1-2.6-3-.1-.2.1-.2 2-2-5.5-4.2v-.1l-6.2-13.7-6-.5-2.3 1.3-.3 6 4.1 3.4v.1l-.8 5.3-4.6 2.4h-.2l-6.8-1.8-2.3 2.4 1.9 2v.1l2.4 10 4 1.1h.1l3.5 3.8h.1v.1l-.1 4.9v.2h-.2l-6.4 1.4-2.8 4.8h-.1l-7.4 4.3-.3 3.3 3 2.3V352.3l-.8 3.9v.1l-3.5 3.3h-.1l-4.1 1.1-1.7 2v.2h-.2l-4.7-.2-8.2 8.2v.1h-.2l-3.9-.9-4.6 2.9h-.1l-6.9-.7 1 4v.1l-.1.1-4 2.4 3.7 4.6-.4.1-3.9 1.5-1.6 3.8Z" fill="#B4C1E0"/>
  <path fill-rule="evenodd" clip-rule="evenodd" d="m552.9 374.2-1.6 3 8.2 6 16-5.2-3.7-4-.4-.3h.5l2.7-.3.8-2.7-4-3-3.8.2-2.5 4.3-.2-.3-1.8-1.8-2.6 4h-.2l-7.4.1Z" fill="#B4C1E0"/>
  <path fill-rule="evenodd" clip-rule="evenodd" d="m552.9 374.2-1.6 3 8.2 6 16-5.2-3.7-4-.4-.3h.5l2.7-.3.8-2.7-4-3-3.8.2-2.5 4.3-.2-.3-1.8-1.8-2.6 4h-.2l-7.4.1Z" fill="#B4C1E0"/>
  <path fill-rule="evenodd" clip-rule="evenodd" d="M512.9 234.6h-.2l-2.8-2.5-7-.7.8-3.8v-.1h.1l4.5-4.2 1.5-2.8-2.4-2h-.1l.3-3.5-2-2.6v-.2l1.5-4.5-2.6-2.4.2-.2 4.4-3.6.3-17.6-4-7.2 2.5-.8 6-3.7h.2l3.3.7 1.8-5.3v-.1l1.9-2.1.7-3v-.1h.1l7.4-4.5-2.6-3.6.5-5.3-5.1-8.6-.4-4.2-1.6-2.5v-.2l.4-2.2-3.9 1.3-4.5 2.6-5.9 1-2.6 3.4.7-5.2 12.8-10 7.5-10.3 4-9.4-8-10.5-8.3-1.1-3.3 3.6-3.4.2 3.2-6.4-6.8-1.5 2.6-2.8-3.9-3.7-3.9.9L490 91l1 5.2-6.5-.3v1.6l2 3.5-4.6-1.4-2.6 1.8-5.2-1.5-.4-2.3-7.6-.6-.3 4-9.2.3-6.6 4-4.7-.5-3.8 2.6-2.2 5.7 2.4 5.3-4.6.5-11.6-3-6.9-.9-2.4 3.3-1.3 9.2 4 4.3 1.6 4.9-6-.7-4.3-9.6-3.8-.2v.5l2.6 7 .1.2h-.3l-3.6.2-1.2 4 2.6 6.9-1.2 3.2-.1.1-8.2 2.5-1.3 3.5 4.4 6.8 5.6 2h.1v.2l.6 6.8-.5.9-2.5 4.6h-.2l-5.4.9 1.2 3.7v.1l-2.1 4.5 3.6 5.5v.2l-2 9.2 3 4.7v.1l-2 6.5 4.6 4v.2l.4 4.9v.1l-5 5.3-1 5.1-.1.1-7.7 7.4-.6 6.4 5.2 3.6h.2l-.1.3-1.3 2.3-.1.1-5.2 1.5h-4.4l1.2 6.3v.2l-2.1 2-.4 3.2 13.2 3.4h.1v.1l3.2 8 3.6.8h.2v.3l-.6 2.8v.1l-5.8 3.8v3.6l2.7 3 4.5 1.9-.1.2-1 2.4-5.3 3-.7 4.5v.1l-1 2.8 3.4 8.1v.2L397 315l-2 .7 1.5 6 4 .4h4.2l2.6 2v.1l-1.7 2.6 2.5 4.6v.1l.3 3.8 1 4.1v3.1h-.2l-3.6 1.4-.2 2.5-1.5 2.4h-.1l-3.8 1-2.4 3.7 5.5 4.5 9.5 2.2 4.5-2.9h.1l2.3-.3.4-2v-.2h.1l3.7-1.7v-2.5h.1l2.7-.4 1.1-3.1v-.2h.3l12.9.3.9-2.7-6.5-6.7v-.1l.2-2.9h.2l3.3-1v-.1h.1l4 .8 2-11.6v-.1l3.1-4.3.1-.1h.1l4.4-.2 1.1-3.2-3.7-7v-.2l4.8-6.6h.2l10 .6 3-3 .3-.3v.4l3 8 2.2-.7.1-4.4v-.2l10.6-8.7 1-3.8v-.2l5.4-1.6v.2l1.9 5 4 2.8 1.3-3.2h.1l2.7-2.1-.7-2.8-2.1-.8-.2-.1v-.2l.5-2.6v-.1l3.7-3-.3-2.5-4.4-1.9h-.1v-.2l-.9-4v-.2l2.6-2.7-1.7-3.5v-.2l.1-.1 5.8-2.6 3.7-5.3.1-4.5-1.8-3.4v-.2l2.6-4-.8-2.7.2-4v-.2h.2l4-1.3 4-.3 2-1.6-1.3-1.9-3.1 1.6Z" fill="#B4C1E0"/>
  <path fill-rule="evenodd" clip-rule="evenodd" d="M512.9 234.6h-.2l-2.8-2.5-7-.7.8-3.8v-.1h.1l4.5-4.2 1.5-2.8-2.4-2h-.1l.3-3.5-2-2.6v-.2l1.5-4.5-2.6-2.4.2-.2 4.4-3.6.3-17.6-4-7.2 2.5-.8 6-3.7h.2l3.3.7 1.8-5.3v-.1l1.9-2.1.7-3v-.1h.1l7.4-4.5-2.6-3.6.5-5.3-5.1-8.6-.4-4.2-1.6-2.5v-.2l.4-2.2-3.9 1.3-4.5 2.6-5.9 1-2.6 3.4.7-5.2 12.8-10 7.5-10.3 4-9.4-8-10.5-8.3-1.1-3.3 3.6-3.4.2 3.2-6.4-6.8-1.5 2.6-2.8-3.9-3.7-3.9.9L490 91l1 5.2-6.5-.3v1.6l2 3.5-4.6-1.4-2.6 1.8-5.2-1.5-.4-2.3-7.6-.6-.3 4-9.2.3-6.6 4-4.7-.5-3.8 2.6-2.2 5.7 2.4 5.3-4.6.5-11.6-3-6.9-.9-2.4 3.3-1.3 9.2 4 4.3 1.6 4.9-6-.7-4.3-9.6-3.8-.2v.5l2.6 7 .1.2h-.3l-3.6.2-1.2 4 2.6 6.9-1.2 3.2-.1.1-8.2 2.5-1.3 3.5 4.4 6.8 5.6 2h.1v.2l.6 6.8-.5.9-2.5 4.6h-.2l-5.4.9 1.2 3.7v.1l-2.1 4.5 3.6 5.5v.2l-2 9.2 3 4.7v.1l-2 6.5 4.6 4v.2l.4 4.9v.1l-5 5.3-1 5.1-.1.1-7.7 7.4-.6 6.4 5.2 3.6h.2l-.1.3-1.3 2.3-.1.1-5.2 1.5h-4.4l1.2 6.3v.2l-2.1 2-.4 3.2 13.2 3.4h.1v.1l3.2 8 3.6.8h.2v.3l-.6 2.8v.1l-5.8 3.8v3.6l2.7 3 4.5 1.9-.1.2-1 2.4-5.3 3-.7 4.5v.1l-1 2.8 3.4 8.1v.2L397 315l-2 .7 1.5 6 4 .4h4.2l2.6 2v.1l-1.7 2.6 2.5 4.6v.1l.3 3.8 1 4.1v3.1h-.2l-3.6 1.4-.2 2.5-1.5 2.4h-.1l-3.8 1-2.4 3.7 5.5 4.5 9.5 2.2 4.5-2.9h.1l2.3-.3.4-2v-.2h.1l3.7-1.7v-2.5h.1l2.7-.4 1.1-3.1v-.2h.3l12.9.3.9-2.7-6.5-6.7v-.1l.2-2.9h.2l3.3-1v-.1h.1l4 .8 2-11.6v-.1l3.1-4.3.1-.1h.1l4.4-.2 1.1-3.2-3.7-7v-.2l4.8-6.6h.2l10 .6 3-3 .3-.3v.4l3 8 2.2-.7.1-4.4v-.2l10.6-8.7 1-3.8v-.2l5.4-1.6v.2l1.9 5 4 2.8 1.3-3.2h.1l2.7-2.1-.7-2.8-2.1-.8-.2-.1v-.2l.5-2.6v-.1l3.7-3-.3-2.5-4.4-1.9h-.1v-.2l-.9-4v-.2l2.6-2.7-1.7-3.5v-.2l.1-.1 5.8-2.6 3.7-5.3.1-4.5-1.8-3.4v-.2l2.6-4-.8-2.7.2-4v-.2h.2l4-1.3 4-.3 2-1.6-1.3-1.9-3.1 1.6Z" fill="#B4C1E0"/>
  <path fill-rule="evenodd" clip-rule="evenodd" d="m840.4 262.9.3-13.3-1-6.1-4.1-4.9 1.1-6.3 2.6-1.6-7-9.5.7-6 3.7-3-.5-3.5-6.5-2.6-5.6-12.1 1.8-.9 1.8 3 3.5-1.6-4.7-5.1-2.9 1.1-4.2-3.2-1.8-5.2-4.6-.5-1 3-2.8-.7-7.6-18.8 1.1-5.5 3.9-.4-1.7-10.8 5.5 5L812 141l5.2-4 7.1.6-3-9.8.2-20.2-4.8.8h-.2l-3.2-2-7.6 15.3-.1.1h-.2l-7.5-1-7.2 1.3h-.2l-.1-.2-1.7-6-9.4-.5-2 2.6-.2.1-6.6.7-1.4 3-.1.2h-3.7l-1.5 3.6-4.4.9.3 3.8 5 8.6 3.7 1.1v.2l1.9 6.3H774.4l.1.2 2.5 2.6v.1l.4 4 3.6 2.3 2.9-2-6.3-8.7 2.2-5.1 7.1-1.5-4.2 4.7.5 4 5 4.1 2.5.4-.5 3.7 2.3.8-3.3 10.2 2 4.2-.4 12.3 1.2 8 1.8 8.2-3.4 2.8.6 3.1-1.9 2 3.9 5.1-.1 7.5 5.3 7 6.2 8.2 36 28.3Z" fill="#B4C1E0"/>
  <path fill-rule="evenodd" clip-rule="evenodd" d="M262.6 182.6h-.1l-7.3-7-3 1.2h-.2l-7.7-1.6v-.1l-5-3v-.1l-4.3-5.6-6.2-1.3-2.3 4.1 3.8 6v4.2h-.3l-7.5 2.1-.2 2.3 1.8 1.9.1.1-2.5 2.6-2.2 1.9-3.4 6.2-2.5 2-1.9 3.5-2.7 2.3h-.2l-2.1-.3-.6 4.8 2.3.2h.3l-.4 3.9 5.1.7h.2v3l2.1.7.2.1v.1l.2 1.5v2l.7 1 2-.3 4.8-4.3h5.2l3.5-4.3.3-.3.2.3 2 2.5 2-1 1.1-3.1.1-.2h.2l5.5.4 1.6-1.6.8-3.5v-.1l2.7-2.4-1.4-3.3v-.1l.4-2.7v-.1l6.2-1.9 7.3-5.4 5-5.1 1-1.7-4.7-1.2Z" fill="#B4C1E0"/>
  <path fill-rule="evenodd" clip-rule="evenodd" d="M262.6 182.6h-.1l-7.3-7-3 1.2h-.2l-7.7-1.6v-.1l-5-3v-.1l-4.3-5.6-6.2-1.3-2.3 4.1 3.8 6v4.2h-.3l-7.5 2.1-.2 2.3 1.8 1.9.1.1-2.5 2.6-2.2 1.9-3.4 6.2-2.5 2-1.9 3.5-2.7 2.3h-.2l-2.1-.3-.6 4.8 2.3.2h.3l-.4 3.9 5.1.7h.2v3l2.1.7.2.1v.1l.2 1.5v2l.7 1 2-.3 4.8-4.3h5.2l3.5-4.3.3-.3.2.3 2 2.5 2-1 1.1-3.1.1-.2h.2l5.5.4 1.6-1.6.8-3.5v-.1l2.7-2.4-1.4-3.3v-.1l.4-2.7v-.1l6.2-1.9 7.3-5.4 5-5.1 1-1.7-4.7-1.2Z" fill="#B4C1E0"/>
  <path fill-rule="evenodd" clip-rule="evenodd" d="M26.6 190.7a2.2 2.2 0 0 0 1.7-2.8l-1-3.2c-.3-.7-1-1.3-1.7-1.4l-3.3-.6c-.6-.2-1.2-.6-1.5-1.2l-1-2c-.6-1 0-2.5 1.1-3l1.4-.5c.9-.3 1.4-1.2 1.4-2.2l-.1-1c0-.4 0-.9.3-1.2l.7-1.2c.2-.5.3-1.2.1-1.7l-1.4-4.8v-2c-.1-1-1-2-2-2l-1-.2c-.5 0-1 0-1.3.3l-.5.3c-.6.4-1.5.4-2.1 0l-4.8-2.7c-.2-.2-.5-.2-.7-.3l-4.7-.8a1.4 1.4 0 0 0-1.4 2.3l2 2.4c.4.5.6 1.2.4 1.9l-.3 1c0 .4 0 1 .4 1.3.6.7.5 1.8-.2 2.3l-2.7 1.9c-.5.3-1 .4-1.5.4l-1-.1a1.8 1.8 0 0 0-1.7 2.6l2.1 3.8c.4.6 1.1 1 1.9 1l4.6.2c.6 0 1.2.3 1.6.9l2.2 2.8c.4.5 1 .9 1.8.8h1.5c.4 0 .8 0 1.2.3l1.5 1c.8.4 1.2 1.4 1 2.3-.3.9 0 1.7.6 2.2l2.8 2.6c.5.5 1.1.7 1.8.6l1.8-.3Z" fill="#B4C1E0"/>
</svg>
