<?xml version="1.0"?>
<svg xmlns="http://www.w3.org/2000/svg" xmlns:xlink="http://www.w3.org/1999/xlink" version="1.1" xml:space="preserve">
  <defs>
    <symbol id="email" width="100%" height="100%" viewBox="0 0 16 16" fill="none">
      <path fill-rule="evenodd" clip-rule="evenodd" d="M2.11503 3.4478C1.33398 4.22885 1.33398 5.48592 1.33398 8.00008C1.33398 10.5142 1.33398 11.7713 2.11503 12.5524C2.89608 13.3334 4.15316 13.3334 6.66732 13.3334H9.33398C11.8481 13.3334 13.1052 13.3334 13.8863 12.5524C14.6673 11.7713 14.6673 10.5142 14.6673 8.00008C14.6673 5.48592 14.6673 4.22885 13.8863 3.4478C13.1052 2.66675 11.8481 2.66675 9.33398 2.66675H6.66732C4.15316 2.66675 2.89608 2.66675 2.11503 3.4478ZM12.3848 5.01332C12.5615 5.22546 12.5329 5.54074 12.3207 5.71753L10.8564 6.93779C10.2655 7.43023 9.78657 7.82936 9.36387 8.10123C8.92353 8.38443 8.4947 8.56333 8.00065 8.56333C7.5066 8.56333 7.07777 8.38443 6.63744 8.10123C6.21473 7.82936 5.73579 7.43024 5.14489 6.9378L3.68056 5.71753C3.46842 5.54074 3.43976 5.22546 3.61654 5.01332C3.79332 4.80118 4.1086 4.77252 4.32074 4.9493L5.76001 6.14869C6.38198 6.667 6.8138 7.02569 7.17837 7.26017C7.53128 7.48714 7.7706 7.56333 8.00065 7.56333C8.2307 7.56333 8.47002 7.48714 8.82293 7.26017C9.1875 7.02569 9.61932 6.667 10.2413 6.14869L11.6806 4.9493C11.8927 4.77252 12.208 4.80118 12.3848 5.01332Z" fill="currentColor" />

    </symbol>
    <symbol id="phone" width="100%" height="100%" viewBox="0 0 16 16" fill="none">
      <path d="M10.3708 9.69847L10.0671 10.0181C10.0671 10.0181 9.34542 10.778 7.37541 8.70393C5.40541 6.62989 6.12714 5.87005 6.12714 5.87005L6.31835 5.66874C6.78938 5.17283 6.83379 4.37664 6.42283 3.7954L5.58217 2.60641C5.07352 1.887 4.09064 1.79197 3.50763 2.40576L2.46123 3.50742C2.17215 3.81177 1.97843 4.2063 2.00193 4.64396C2.06202 5.76364 2.54048 8.1727 5.21024 10.9835C8.04143 13.9642 10.6979 14.0826 11.7842 13.9754C12.1278 13.9415 12.4266 13.7562 12.6674 13.5027L13.6144 12.5056C14.2537 11.8326 14.0735 10.6788 13.2556 10.208L11.9819 9.47488C11.4448 9.16576 10.7905 9.25656 10.3708 9.69847Z" fill="currentColor" />
      <path d="M8.84031 1.25338C8.88444 0.98079 9.14213 0.795874 9.41473 0.840006C9.4316 0.843236 9.48589 0.853383 9.51433 0.859718C9.57122 0.872386 9.65057 0.891892 9.74951 0.920709C9.94736 0.978338 10.2238 1.07327 10.5555 1.22536C11.2197 1.52987 12.1036 2.06254 13.0208 2.97974C13.938 3.89694 14.4706 4.78081 14.7751 5.445C14.9272 5.77674 15.0222 6.05314 15.0798 6.251C15.1086 6.34993 15.1281 6.42929 15.1408 6.48617C15.1471 6.51462 15.1518 6.53746 15.155 6.55433L15.1588 6.57513C15.203 6.84772 15.0197 7.11607 14.7471 7.1602C14.4753 7.2042 14.2192 7.02018 14.174 6.74887C14.1726 6.74158 14.1688 6.72201 14.1647 6.70355C14.1565 6.66663 14.1422 6.60808 14.1197 6.53065C14.0746 6.37575 13.9962 6.14553 13.8661 5.86175C13.6062 5.29488 13.1389 4.51209 12.3137 3.68684C11.4884 2.8616 10.7056 2.39427 10.1388 2.13439C9.85497 2.00428 9.62475 1.92593 9.46986 1.88081C9.39243 1.85826 9.2951 1.83592 9.25817 1.82769C8.98686 1.78248 8.7963 1.5252 8.84031 1.25338Z" fill="currentColor" />
      <path fill-rule="evenodd" clip-rule="evenodd" d="M8.99114 3.55303C9.067 3.28751 9.34375 3.13376 9.60926 3.20963L9.4719 3.69039C9.60926 3.20963 9.60926 3.20963 9.60926 3.20963L9.61022 3.2099L9.61125 3.2102L9.61347 3.21085L9.61864 3.21239L9.63183 3.2165C9.64188 3.21971 9.65443 3.2239 9.6694 3.22921C9.69934 3.23983 9.73891 3.25494 9.78745 3.27575C9.88457 3.31737 10.0173 3.38165 10.1803 3.47812C10.5066 3.67125 10.9521 3.99203 11.4754 4.51535C11.9987 5.03866 12.3195 5.48412 12.5126 5.81043C12.6091 5.97343 12.6733 6.10614 12.715 6.20327C12.7358 6.2518 12.7509 6.29138 12.7615 6.32132C12.7668 6.33629 12.771 6.34884 12.7742 6.35889L12.7783 6.37208L12.7799 6.37725L12.7805 6.37947L12.7808 6.38049C12.7808 6.38049 12.7811 6.38145 12.3003 6.51881L12.7811 6.38145C12.857 6.64697 12.7032 6.92371 12.4377 6.99958C12.1744 7.07479 11.9001 6.92429 11.8215 6.66291L11.8191 6.65573C11.8155 6.64571 11.8082 6.62599 11.7958 6.59719C11.7712 6.53963 11.7264 6.44548 11.652 6.31975C11.5034 6.06859 11.2349 5.68909 10.7683 5.22245C10.3016 4.75582 9.92213 4.48735 9.67097 4.3387C9.54524 4.26429 9.45109 4.21956 9.39353 4.19489C9.36473 4.18255 9.34501 4.17519 9.33499 4.17164L9.3278 4.16917C9.06643 4.09059 8.91592 3.81629 8.99114 3.55303Z" fill="currentColor" />

    </symbol>
    <symbol id="menu" width="100%" height="100%" viewBox="0 0 20 21">
      <path fill-rule="evenodd" clip-rule="evenodd" d="M17.2917 6.33325C17.2917 6.67843 17.0119 6.95825 16.6667 6.95825L3.33335 6.95825C2.98818 6.95825 2.70835 6.67843 2.70835 6.33325C2.70835 5.98807 2.98818 5.70825 3.33335 5.70825L16.6667 5.70825C17.0119 5.70825 17.2917 5.98807 17.2917 6.33325Z" fill="currentColor" />
      <path fill-rule="evenodd" clip-rule="evenodd" d="M17.2917 10.5C17.2917 10.8452 17.0119 11.125 16.6667 11.125L3.33335 11.125C2.98818 11.125 2.70835 10.8452 2.70835 10.5C2.70835 10.1548 2.98818 9.875 3.33335 9.875L16.6667 9.875C17.0119 9.875 17.2917 10.1548 17.2917 10.5Z" fill="currentColor" />
      <path fill-rule="evenodd" clip-rule="evenodd" d="M17.2917 14.6667C17.2917 15.0119 17.0119 15.2917 16.6667 15.2917L3.33335 15.2917C2.98818 15.2917 2.70835 15.0119 2.70835 14.6667C2.70835 14.3216 2.98818 14.0417 3.33335 14.0417L16.6667 14.0417C17.0119 14.0417 17.2917 14.3216 17.2917 14.6667Z" fill="currentColor" />

    </symbol>
    <symbol id="arrow-right" width="100%" height="100%" viewBox="0 0 20 20">
      <path fill-rule="evenodd" clip-rule="evenodd" d="M11.2248 4.55806C11.4688 4.31398 11.8646 4.31398 12.1086 4.55806L17.1086 9.55806C17.3527 9.80214 17.3527 10.1979 17.1086 10.4419L12.1086 15.4419C11.8646 15.686 11.4688 15.686 11.2248 15.4419C10.9807 15.1979 10.9807 14.8021 11.2248 14.5581L15.1578 10.625H3.33337C2.9882 10.625 2.70837 10.3452 2.70837 10C2.70837 9.65482 2.9882 9.375 3.33337 9.375H15.1578L11.2248 5.44194C10.9807 5.19786 10.9807 4.80214 11.2248 4.55806Z" fill="currentColor" />

    </symbol>

    <symbol id="arrow-left" width="100%" height="100%" viewBox="0 0 15 10">
      <path d="M2 5L1.29289 4.29289L0.585786 5L1.29289 5.70711L2 5ZM14 6C14.5523 6 15 5.55228 15 5C15 4.44772 14.5523 4 14 4V6ZM5.29289 0.292893L1.29289 4.29289L2.70711 5.70711L6.70711 1.70711L5.29289 0.292893ZM1.29289 5.70711L5.29289 9.70711L6.70711 8.29289L2.70711 4.29289L1.29289 5.70711ZM2 6H14V4H2V6Z" fill="currentColor" />
    </symbol>

    <symbol id="gal-ochka" width="100%" height="100%" viewBox="0 0 16 16">
      <path d="M4.344 13.704C4.344 13.56 4.328 13.496 4.264 13.496L3.896 13.672C3.896 13.592 3.848 13.544 3.768 13.512L3.64 13.496C3.528 13.496 3.48 13.512 3.32 13.608C3.272 13.512 3.208 13.4 3.16 13.304C2.744 12.504 2.312 11.304 2.12 10.776C2.024 10.504 1.928 9.944 1.816 9.096C1.944 9.176 2.04 9.208 2.088 9.208C2.152 9.208 2.232 9.096 2.296 8.872C2.328 8.92 2.392 8.936 2.472 8.936C2.52 8.936 2.584 8.92 2.616 8.872L2.872 8.488L3.16 8.584H3.176C3.208 8.584 3.256 8.536 3.336 8.488C3.416 8.44 3.48 8.408 3.528 8.408L3.576 8.424C3.832 8.552 4.008 8.776 4.088 9.128C4.28 9.944 4.456 10.344 4.664 10.344C4.84 10.344 5.08 10.136 5.336 9.736C5.592 9.336 5.848 8.792 6.136 8.136C6.152 8.264 6.168 8.328 6.2 8.328C6.296 8.328 6.536 7.768 7.128 6.824C8.008 5.4 10.184 2.664 10.744 2.28C11.16 1.992 11.48 1.72 11.704 1.48C11.672 1.64 11.64 1.752 11.64 1.8C11.64 1.848 11.672 1.864 11.704 1.864L12.152 1.64V1.704C12.152 1.784 12.168 1.832 12.216 1.832C12.28 1.832 12.536 1.576 12.568 1.48L12.536 1.704L13.08 1.384L12.952 1.672C13.112 1.56 13.24 1.496 13.32 1.496C13.4 1.496 13.448 1.624 13.448 1.704C13.448 1.832 13.336 2.008 13.16 2.232C12.968 2.488 12.488 2.984 11.048 4.632C10.424 5.336 7.656 9.096 7.128 9.992L6.136 11.672C5.704 12.392 5.432 12.856 5.288 13.032C5.144 13.208 4.968 13.384 4.76 13.544L4.616 13.464L4.488 13.544L4.344 13.704Z" fill="currentColor" />

    </symbol>
    <symbol id="to-right" width="100%" height="100%" viewBox="0 0 12 13">
      <path d="M6.86612 6.75L3.80806 9.80806C3.56398 10.0521 3.56398 10.4479 3.80806 10.6919C4.05214 10.936 4.44786 10.936 4.69194 10.6919L8.19194 7.19194C8.43602 6.94786 8.43602 6.55214 8.19194 6.30806L4.69194 2.80806C4.44786 2.56398 4.05214 2.56398 3.80806 2.80806C3.56398 3.05214 3.56398 3.44786 3.80806 3.69194L6.86612 6.75Z" fill="currentColor" />

    </symbol>
    <symbol id="to-left" width="100%" height="100%" viewBox="0 0 8 14">
      <path d="M2.36337 7.00019L6.84852 2.51504C7.2065 2.15706 7.2065 1.57666 6.84852 1.21868C6.49054 0.8607 5.91014 0.8607 5.55216 1.21868L0.418823 6.35201C0.0608425 6.70999 0.0608425 7.29039 0.418823 7.64838L5.55216 12.7817C5.91014 13.1397 6.49054 13.1397 6.84852 12.7817C7.2065 12.4237 7.2065 11.8433 6.84852 11.4853L2.36337 7.00019Z" fill="currentColor" />
    </symbol>
    <symbol id="play" width="100%" height="100%" viewBox="0 0 24 24">
      <path d="M19.5761 9.35258C21.4746 10.5065 21.4746 13.4935 19.5761 14.6474L8.11276 21.6145C6.26758 22.736 4 21.2763 4 18.9671L4 5.0329C4 2.72368 6.26758 1.26402 8.11276 2.38548L19.5761 9.35258Z" fill="currentColor" />
    </symbol>
    <symbol id="cross" width="100%" height="100%" viewBox="0 0 16 16" fill="none">
      <path d="M1 15L15 1M1 1L15 15" fill="none" stroke="currentColor" stroke-width="2" stroke-linecap="round" stroke-linejoin="round" />
    </symbol>
    <symbol id="circle-cross" width="100%" height="100%" viewBox="0 0 32 32" fill="none">
      <circle cx="16" cy="16.0001" r="13.3333" stroke="currentColor" stroke-width="1.5" />
      <path d="M19.3333 12.6668L12.6666 19.3334M12.6666 12.6667L19.3332 19.3334" stroke="currentColor" stroke-width="1.5" stroke-linecap="round" />
    </symbol>
    <symbol id="star" width="100%" height="100%" viewBox="0 0 16 16" fill="none">
      <path d="M8.00001 11.8331L3.88535 13.9965L4.67135 9.41447L1.33801 6.16981L5.93801 5.50314L7.99535 1.33447L10.0527 5.50314L14.6527 6.16981L11.3193 9.41447L12.1053 13.9965L8.00001 11.8331Z" fill="currentColor" />

    </symbol>
    <symbol id="map-point" width="100%" height="100%" viewBox="0 0 24 24" fill="none">
      <path fill-rule="evenodd" clip-rule="evenodd" d="M12 2C7.58172 2 4 6.00258 4 10.5C4 14.9622 6.55332 19.8124 10.5371 21.6744C11.4657 22.1085 12.5343 22.1085 13.4629 21.6744C17.4467 19.8124 20 14.9622 20 10.5C20 6.00258 16.4183 2 12 2ZM12 12C13.1046 12 14 11.1046 14 10C14 8.89543 13.1046 8 12 8C10.8954 8 10 8.89543 10 10C10 11.1046 10.8954 12 12 12Z" fill="currentColor" />

    </symbol>
    <symbol id="user" width="100%" height="100%" viewBox="0 0 24 24" fill="none">
      <circle cx="12" cy="6" r="4" fill="currentColor" />
      <ellipse cx="12" cy="17" rx="7" ry="4" fill="currentColor" />

    </symbol>
    <symbol id="search" width="100%" height="100%" viewBox="0 0 23 23" fill="none">
      <path d="M20.9459 19.7062L15.1027 13.863C16.0094 12.6907 16.4999 11.2575 16.4999 9.74997C16.4999 7.94548 15.7957 6.25349 14.5222 4.97774C13.2487 3.702 11.5522 3 9.74997 3C7.94773 3 6.25124 3.70425 4.97774 4.97774C3.702 6.25124 3 7.94548 3 9.74997C3 11.5522 3.70425 13.2487 4.97774 14.5222C6.25124 15.7979 7.94548 16.4999 9.74997 16.4999C11.2575 16.4999 12.6885 16.0094 13.8607 15.1049L19.7039 20.9459C19.7211 20.9631 19.7414 20.9767 19.7638 20.9859C19.7862 20.9952 19.8102 21 19.8344 21C19.8587 21 19.8827 20.9952 19.9051 20.9859C19.9274 20.9767 19.9478 20.9631 19.9649 20.9459L20.9459 19.9672C20.9631 19.95 20.9767 19.9297 20.9859 19.9073C20.9952 19.8849 21 19.8609 21 19.8367C21 19.8124 20.9952 19.7884 20.9859 19.766C20.9767 19.7437 20.9631 19.7233 20.9459 19.7062V19.7062ZM13.314 13.314C12.36 14.2657 11.0955 14.7899 9.74997 14.7899C8.40448 14.7899 7.13998 14.2657 6.18599 13.314C5.23424 12.36 4.70999 11.0955 4.70999 9.74997C4.70999 8.40448 5.23424 7.13773 6.18599 6.18599C7.13998 5.23424 8.40448 4.70999 9.74997 4.70999C11.0955 4.70999 12.3622 5.23199 13.314 6.18599C14.2657 7.13998 14.7899 8.40448 14.7899 9.74997C14.7899 11.0955 14.2657 12.3622 13.314 13.314Z" fill="currentColor" />

    </symbol>
    <symbol id="cert" width="100%" height="100%" viewBox="0 0 36 36" fill="none">
      <path fill-rule="evenodd" clip-rule="evenodd" d="M3 18V12C3 7.75736 3 5.63604 4.31802 4.31802C5.63604 3 7.75736 3 12 3H24C28.2426 3 30.364 3 31.682 4.31802C33 5.63604 33 7.75736 33 12V18C33 22.2426 33 24.364 31.682 25.682C30.7124 26.6516 29.3081 26.9079 26.9445 26.9756C26.939 25.8719 26.5555 24.7697 25.7942 23.8763C25.7511 23.8258 25.7251 23.763 25.7198 23.6968C25.5317 21.3396 23.6599 19.4677 21.3027 19.2796C21.2365 19.2744 21.1737 19.2483 21.1231 19.2053C19.3233 17.6715 16.6761 17.6715 14.8763 19.2053C14.8258 19.2483 14.763 19.2744 14.6968 19.2796C12.3396 19.4677 10.4677 21.3396 10.2796 23.6968C10.2744 23.763 10.2483 23.8258 10.2053 23.8763C9.44392 24.7697 9.06049 25.8719 9.05499 26.9756C6.69165 26.9078 5.28752 26.6515 4.31802 25.682C3 24.364 3 22.2426 3 18ZM12.375 9C12.375 8.37868 12.8787 7.875 13.5 7.875H22.5C23.1213 7.875 23.625 8.37868 23.625 9C23.625 9.62132 23.1213 10.125 22.5 10.125H13.5C12.8787 10.125 12.375 9.62132 12.375 9ZM10.5 13.125C9.87868 13.125 9.375 13.6287 9.375 14.25C9.375 14.8713 9.87868 15.375 10.5 15.375H25.5C26.1213 15.375 26.625 14.8713 26.625 14.25C26.625 13.6287 26.1213 13.125 25.5 13.125H10.5Z" fill="currentColor" />
      <path fill-rule="evenodd" clip-rule="evenodd" d="M19.6637 20.9178C18.7049 20.1006 17.2946 20.1006 16.3357 20.9178C15.9248 21.2679 15.4139 21.4796 14.8758 21.5225C13.62 21.6227 12.6227 22.62 12.5225 23.8758C12.4796 24.4139 12.2679 24.9248 11.9178 25.3357C11.1006 26.2946 11.1006 27.7049 11.9178 28.6637C12.2679 29.0746 12.4796 29.5855 12.5225 30.1237C12.6227 31.3795 13.62 32.3767 14.8758 32.4769C15.4139 32.5199 15.9248 32.7315 16.3357 33.0817C17.2946 33.8988 18.7049 33.8988 19.6637 33.0817C20.0746 32.7315 20.5855 32.5199 21.1237 32.4769C22.3795 32.3767 23.3767 31.3795 23.4769 30.1237C23.5199 29.5855 23.7315 29.0746 24.0817 28.6637C24.8988 27.7049 24.8988 26.2946 24.0817 25.3357C23.7315 24.9248 23.5199 24.4139 23.4769 23.8758C23.3767 22.62 22.3795 21.6227 21.1237 21.5225C20.5855 21.4796 20.0746 21.2679 19.6637 20.9178ZM21.0176 26.3224C21.4718 25.8985 21.4964 25.1866 21.0724 24.7324C20.6485 24.2782 19.9366 24.2536 19.4824 24.6776L17.0357 26.9611L16.5176 26.4776C16.0634 26.0536 15.3515 26.0782 14.9276 26.5324C14.5036 26.9866 14.5282 27.6985 14.9824 28.1224L16.2681 29.3224C16.7003 29.7259 17.3711 29.7259 17.8033 29.3224L21.0176 26.3224Z" fill="currentColor" />

    </symbol>
    <symbol id="map-routing" width="100%" height="100%" viewBox="0 0 36 36" fill="none">
      <path fill-rule="evenodd" clip-rule="evenodd" d="M27.75 21C24.8505 21 22.5 23.1875 22.5 25.886C22.5 28.5633 24.1756 31.6874 26.79 32.8047C27.3994 33.0651 28.1006 33.0651 28.7101 32.8047C31.3244 31.6874 33 28.5633 33 25.886C33 23.1875 30.6495 21 27.75 21ZM27.75 27.75C28.5784 27.75 29.25 27.0784 29.25 26.25C29.25 25.4216 28.5784 24.75 27.75 24.75C26.9216 24.75 26.25 25.4216 26.25 26.25C26.25 27.0784 26.9216 27.75 27.75 27.75Z" fill="currentColor" />
      <path fill-rule="evenodd" clip-rule="evenodd" d="M8.25 3C5.35051 3 3 5.18753 3 7.88598C3 10.5633 4.67562 13.6874 7.28995 14.8047C7.89939 15.0651 8.60061 15.0651 9.21005 14.8047C11.8244 13.6874 13.5 10.5633 13.5 7.88598C13.5 5.18753 11.1495 3 8.25 3ZM8.25 9.75C9.07843 9.75 9.75 9.07843 9.75 8.25C9.75 7.42157 9.07843 6.75 8.25 6.75C7.42157 6.75 6.75 7.42157 6.75 8.25C6.75 9.07843 7.42157 9.75 8.25 9.75Z" fill="currentColor" />
      <path fill-rule="evenodd" clip-rule="evenodd" d="M16.875 7.5C16.875 6.87868 17.3787 6.375 18 6.375H24.1979C28.3247 6.375 29.8941 11.7645 26.4125 13.9801L10.7956 23.9181C9.21298 24.9252 9.92637 27.375 11.8022 27.375H15.284L14.9545 27.0455C14.5152 26.6062 14.5152 25.8938 14.9545 25.4545C15.3939 25.0152 16.1062 25.0152 16.5455 25.4545L18.7955 27.7045C19.2349 28.1438 19.2349 28.8562 18.7955 29.2955L16.5455 31.5455C16.1062 31.9848 15.3939 31.9848 14.9545 31.5455C14.5152 31.1062 14.5152 30.3938 14.9545 29.9545L15.284 29.625H11.8022C7.67534 29.625 6.10595 24.2355 9.5876 22.0199L25.2045 12.0819C26.7871 11.0748 26.0737 8.625 24.1979 8.625H18C17.3787 8.625 16.875 8.12132 16.875 7.5Z" fill="currentColor" />

    </symbol>
    <symbol id="star" width="100%" height="100%" viewBox="0 0 36 36" fill="none">
      <path d="M13.7297 8.11256C15.6297 4.70419 16.5797 3 18 3C19.4203 3 20.3703 4.70419 22.2703 8.11256L22.7618 8.99435C23.3017 9.9629 23.5717 10.4472 23.9926 10.7667C24.4135 11.0862 24.9377 11.2049 25.9862 11.4421L26.9407 11.658C30.6302 12.4928 32.475 12.9102 32.9139 14.3216C33.3528 15.733 32.0951 17.2036 29.5799 20.1449L28.9291 20.9058C28.2144 21.7417 27.857 22.1596 27.6962 22.6766C27.5354 23.1936 27.5895 23.7512 27.6975 24.8663L27.7959 25.8816C28.1762 29.8059 28.3663 31.7681 27.2173 32.6403C26.0682 33.5126 24.341 32.7173 20.8865 31.1268L19.9928 30.7153C19.0111 30.2633 18.5203 30.0373 18 30.0373C17.4797 30.0373 16.9889 30.2633 16.0072 30.7153L15.1135 31.1268C11.659 32.7173 9.93176 33.5126 8.78272 32.6403C7.63368 31.7681 7.82382 29.8059 8.20409 25.8816L8.30248 24.8663C8.41054 23.7512 8.46457 23.1936 8.30379 22.6766C8.14302 22.1596 7.78564 21.7417 7.07088 20.9058L6.42015 20.1449C3.90487 17.2036 2.64724 15.733 3.08613 14.3216C3.52503 12.9102 5.36979 12.4928 9.0593 11.658L10.0138 11.4421C11.0623 11.2049 11.5865 11.0862 12.0074 10.7667C12.4283 10.4472 12.6983 9.9629 13.2382 8.99435L13.7297 8.11256Z" fill="currentColor" />

    </symbol>
    <symbol id="settings" width="100%" height="100%" viewBox="0 0 36 36" fill="none">
      <path fill-rule="evenodd" clip-rule="evenodd" d="M21.4182 3.22836C20.8627 3 20.1585 3 18.75 3C17.3415 3 16.6373 3 16.0818 3.22836C15.3411 3.53284 14.7526 4.11687 14.4458 4.85195C14.3058 5.18751 14.251 5.57775 14.2295 6.14699C14.198 6.98352 13.7657 7.75784 13.0352 8.1764C12.3048 8.59495 11.413 8.57931 10.6672 8.18814C10.1598 7.92195 9.79183 7.77393 9.42898 7.72652C8.63413 7.62267 7.83027 7.83644 7.19423 8.3208C6.71721 8.68407 6.36509 9.28935 5.66085 10.4999C4.95662 11.7104 4.6045 12.3157 4.52602 12.9074C4.42138 13.6962 4.63677 14.494 5.12482 15.1252C5.34758 15.4133 5.66066 15.6555 6.14656 15.9585C6.86087 16.404 7.32048 17.1628 7.32044 18C7.32039 18.8372 6.8608 19.5959 6.14655 20.0413C5.66057 20.3443 5.34746 20.5865 5.12467 20.8747C4.63662 21.5059 4.42123 22.3037 4.52587 23.0925C4.60436 23.6842 4.95647 24.2894 5.66071 25.5C6.36494 26.7106 6.71706 27.3158 7.19409 27.6791C7.83012 28.1635 8.63399 28.3772 9.42884 28.2734C9.79166 28.226 10.1596 28.078 10.667 27.8118C11.4128 27.4206 12.3047 27.405 13.0352 27.8236C13.7657 28.2421 14.198 29.0165 14.2295 29.8531C14.251 30.4223 14.3058 30.8125 14.4458 31.1481C14.7526 31.8831 15.3411 32.4672 16.0818 32.7716C16.6373 33 17.3415 33 18.75 33C20.1585 33 20.8627 33 21.4182 32.7716C22.1589 32.4672 22.7474 31.8831 23.0542 31.1481C23.1942 30.8125 23.249 30.4222 23.2705 29.853C23.302 29.0165 23.7342 28.2421 24.4647 27.8236C25.1952 27.4049 26.0871 27.4205 26.8329 27.8117C27.3403 28.0779 27.7082 28.2259 28.071 28.2733C28.8659 28.3771 29.6697 28.1634 30.3058 27.679C30.7828 27.3157 31.1349 26.7104 31.8391 25.4999C32.5434 24.2893 32.8955 23.6841 32.974 23.0924C33.0786 22.3036 32.8632 21.5058 32.3752 20.8746C32.1524 20.5864 31.8393 20.3442 31.3534 20.0412C30.6391 19.5958 30.1795 18.837 30.1796 17.9999C30.1796 17.1628 30.6392 16.4041 31.3534 15.9588C31.8394 15.6557 32.1525 15.4135 32.3753 15.1253C32.8634 14.4941 33.0788 13.6963 32.9741 12.9075C32.8956 12.3158 32.5435 11.7106 31.8393 10.5C31.1351 9.28945 30.7829 8.68417 30.3059 8.3209C29.6699 7.83654 28.866 7.62277 28.0712 7.72663C27.7083 7.77403 27.3404 7.92204 26.833 8.1882C26.0872 8.57939 25.1953 8.59503 24.4648 8.17644C23.7343 7.75786 23.302 6.98349 23.2705 6.14691C23.249 5.57772 23.1942 5.1875 23.0542 4.85195C22.7474 4.11687 22.1589 3.53284 21.4182 3.22836ZM18.75 22.5C21.2542 22.5 23.2843 20.4853 23.2843 18C23.2843 15.5147 21.2542 13.5 18.75 13.5C16.2458 13.5 14.2157 15.5147 14.2157 18C14.2157 20.4853 16.2458 22.5 18.75 22.5Z" fill="currentColor" />

    </symbol>
    <symbol id="circle-plus" width="100%" height="100%" viewBox="0 0 16 16" fill="none">
      <path fill-rule="evenodd" clip-rule="evenodd" d="M8.00004 14.6666C11.6819 14.6666 14.6667 11.6818 14.6667 7.99992C14.6667 4.31802 11.6819 1.33325 8.00004 1.33325C4.31814 1.33325 1.33337 4.31802 1.33337 7.99992C1.33337 11.6818 4.31814 14.6666 8.00004 14.6666ZM8.50004 5.99992C8.50004 5.72378 8.27618 5.49992 8.00004 5.49992C7.7239 5.49992 7.50004 5.72378 7.50004 5.99992L7.50004 7.49993H6.00004C5.7239 7.49993 5.50004 7.72379 5.50004 7.99993C5.50004 8.27608 5.7239 8.49993 6.00004 8.49993H7.50004V9.99992C7.50004 10.2761 7.7239 10.4999 8.00004 10.4999C8.27618 10.4999 8.50004 10.2761 8.50004 9.99992L8.50004 8.49993H10C10.2762 8.49993 10.5 8.27608 10.5 7.99993C10.5 7.72379 10.2762 7.49993 10 7.49993H8.50004V5.99992Z" fill="currentColor" />
    </symbol>
    <symbol id="circle-minus" width="100%" height="100%" viewBox="0 0 24 24" fill="none">
      <path fill-rule="evenodd" clip-rule="evenodd" d="M22 12C22 17.5228 17.5228 22 12 22C6.47715 22 2 17.5228 2 12C2 6.47715 6.47715 2 12 2C17.5228 2 22 6.47715 22 12ZM15.75 12C15.75 12.4142 15.4142 12.75 15 12.75H9C8.58579 12.75 8.25 12.4142 8.25 12C8.25 11.5858 8.58579 11.25 9 11.25H15C15.4142 11.25 15.75 11.5858 15.75 12Z" fill="currentColor" />
    </symbol>
    <symbol id="wallet" width="100%" height="100%" viewBox="0 0 24 24" fill="none">
      <path fill-rule="evenodd" clip-rule="evenodd" d="M21.1009 8.00353C21.0442 7.99996 20.9825 7.99998 20.9186 8L20.9026 8.00001H18.3941C16.3264 8.00001 14.5572 9.62757 14.5572 11.75C14.5572 13.8724 16.3264 15.5 18.3941 15.5H20.9026L20.9186 15.5C20.9825 15.5 21.0442 15.5001 21.1009 15.4965C21.9408 15.4434 22.6835 14.7862 22.746 13.8682C22.7501 13.808 22.75 13.7431 22.75 13.683L22.75 13.6667V9.83334L22.75 9.81702C22.75 9.75688 22.7501 9.69199 22.746 9.6318C22.6835 8.71381 21.9408 8.05657 21.1009 8.00353ZM18.1717 12.75C18.704 12.75 19.1355 12.3023 19.1355 11.75C19.1355 11.1977 18.704 10.75 18.1717 10.75C17.6394 10.75 17.2078 11.1977 17.2078 11.75C17.2078 12.3023 17.6394 12.75 18.1717 12.75Z" fill="currentColor" />
      <path fill-rule="evenodd" clip-rule="evenodd" d="M20.9179 17C21.067 16.9961 21.1799 17.1342 21.1394 17.2778C20.9387 17.9902 20.62 18.5975 20.1088 19.1088C19.3604 19.8571 18.4114 20.1892 17.239 20.3469C16.0998 20.5 14.6442 20.5 12.8064 20.5H10.6936C8.85583 20.5 7.40019 20.5 6.26098 20.3469C5.08856 20.1892 4.13961 19.8571 3.39124 19.1088C2.64288 18.3604 2.31076 17.4114 2.15314 16.239C1.99997 15.0998 1.99998 13.6442 2 11.8064V11.6936C1.99998 9.85583 1.99997 8.40019 2.15314 7.26098C2.31076 6.08856 2.64288 5.13961 3.39124 4.39124C4.13961 3.64288 5.08856 3.31076 6.26098 3.15314C7.40019 2.99997 8.85582 2.99998 10.6936 3L12.8064 3C14.6442 2.99998 16.0998 2.99997 17.239 3.15314C18.4114 3.31076 19.3604 3.64288 20.1088 4.39124C20.62 4.90252 20.9386 5.50974 21.1394 6.22218C21.1799 6.36575 21.067 6.50387 20.9179 6.5L18.394 6.50001C15.5574 6.50001 13.0571 8.74091 13.0571 11.75C13.0571 14.7591 15.5574 17 18.394 17L20.9179 17ZM7 15.5C6.58579 15.5 6.25 15.1642 6.25 14.75V8.75C6.25 8.33579 6.58579 8 7 8C7.41421 8 7.75 8.33579 7.75 8.75V14.75C7.75 15.1642 7.41421 15.5 7 15.5Z" fill="currentColor" />
    </symbol>
    <symbol id="timer" width="100%" height="100%" viewBox="0 0 24 24" fill="none">
      <path fill-rule="evenodd" clip-rule="evenodd" d="M12 22.75C16.9706 22.75 21 18.7206 21 13.75C21 8.77944 16.9706 4.75 12 4.75C7.02944 4.75 3 8.77944 3 13.75C3 18.7206 7.02944 22.75 12 22.75ZM12 9C12.4142 9 12.75 9.33579 12.75 9.75V13.75C12.75 14.1642 12.4142 14.5 12 14.5C11.5858 14.5 11.25 14.1642 11.25 13.75V9.75C11.25 9.33579 11.5858 9 12 9Z" fill="currentColor" />
      <path fill-rule="evenodd" clip-rule="evenodd" d="M9.25 2.75C9.25 2.33579 9.58579 2 10 2H14C14.4142 2 14.75 2.33579 14.75 2.75C14.75 3.16421 14.4142 3.5 14 3.5H10C9.58579 3.5 9.25 3.16421 9.25 2.75Z" fill="currentColor" />
    </symbol>
    <symbol id="settings-alt" width="100%" height="100%" viewBox="0 0 24 24" fill="none">
      <path fill-rule="evenodd" clip-rule="evenodd" d="M12 2C10.8862 2 9.8718 2.6007 7.84308 3.80211L7.15692 4.20846C5.1282 5.40987 4.11384 6.01057 3.55692 7C3 7.98943 3 9.19084 3 11.5937V12.4063C3 14.8092 3 16.0106 3.55692 17C4.11384 17.9894 5.1282 18.5901 7.15692 19.7915L7.84308 20.1979C9.8718 21.3993 10.8862 22 12 22C13.1138 22 14.1282 21.3993 16.1569 20.1979L16.8431 19.7915C18.8718 18.5901 19.8862 17.9894 20.4431 17C21 16.0106 21 14.8092 21 12.4063V11.5937C21 9.19084 21 7.98943 20.4431 7C19.8862 6.01057 18.8718 5.40987 16.8431 4.20846L16.1569 3.80211C14.1282 2.6007 13.1138 2 12 2ZM8.25 12C8.25 9.92893 9.92893 8.25 12 8.25C14.0711 8.25 15.75 9.92893 15.75 12C15.75 14.0711 14.0711 15.75 12 15.75C9.92893 15.75 8.25 14.0711 8.25 12Z" fill="currentColor" />
    </symbol>
    <symbol id="grid" width="100%" height="100%" viewBox="0 0 24 24" fill="none">
      <path d="M13 15.4C13 13.3258 13 12.2887 13.659 11.6444C14.318 11 15.3787 11 17.5 11C19.6213 11 20.682 11 21.341 11.6444C22 12.2887 22 13.3258 22 15.4V17.6C22 19.6742 22 20.7113 21.341 21.3556C20.682 22 19.6213 22 17.5 22C15.3787 22 14.318 22 13.659 21.3556C13 20.7113 13 19.6742 13 17.6V15.4Z" fill="currentColor" />
      <path d="M2 8.6C2 10.6742 2 11.7113 2.65901 12.3556C3.31802 13 4.37868 13 6.5 13C8.62132 13 9.68198 13 10.341 12.3556C11 11.7113 11 10.6742 11 8.6V6.4C11 4.32582 11 3.28873 10.341 2.64437C9.68198 2 8.62132 2 6.5 2C4.37868 2 3.31802 2 2.65901 2.64437C2 3.28873 2 4.32582 2 6.4V8.6Z" fill="currentColor" />
      <path d="M13 5.5C13 4.4128 13 3.8692 13.1713 3.44041C13.3996 2.86867 13.8376 2.41443 14.389 2.17761C14.8024 2 15.3266 2 16.375 2H18.625C19.6734 2 20.1976 2 20.611 2.17761C21.1624 2.41443 21.6004 2.86867 21.8287 3.44041C22 3.8692 22 4.4128 22 5.5C22 6.5872 22 7.1308 21.8287 7.55959C21.6004 8.13133 21.1624 8.58557 20.611 8.82239C20.1976 9 19.6734 9 18.625 9H16.375C15.3266 9 14.8024 9 14.389 8.82239C13.8376 8.58557 13.3996 8.13133 13.1713 7.55959C13 7.1308 13 6.5872 13 5.5Z" fill="currentColor" />
      <path d="M2 18.5C2 19.5872 2 20.1308 2.17127 20.5596C2.39963 21.1313 2.83765 21.5856 3.38896 21.8224C3.80245 22 4.32663 22 5.375 22H7.625C8.67337 22 9.19755 22 9.61104 21.8224C10.1624 21.5856 10.6004 21.1313 10.8287 20.5596C11 20.1308 11 19.5872 11 18.5C11 17.4128 11 16.8692 10.8287 16.4404C10.6004 15.8687 10.1624 15.4144 9.61104 15.1776C9.19755 15 8.67337 15 7.625 15H5.375C4.32663 15 3.80245 15 3.38896 15.1776C2.83765 15.4144 2.39963 15.8687 2.17127 16.4404C2 16.8692 2 17.4128 2 18.5Z" fill="currentColor" />
    </symbol>
    <symbol id="stak" width="100%" height="100%" viewBox="0 0 24 24" fill="none">
      <path d="M7.92969 5.09614C9.67554 4.40956 10.717 4 12 4C13.283 4 14.3245 4.40956 16.0703 5.09613L18.8326 6.18212C19.7206 6.53121 20.4398 6.81396 20.9335 7.06835C21.1834 7.1971 21.4254 7.34307 21.6121 7.51903C21.8039 7.69982 22 7.97401 22 8.34286C22 8.7117 21.8039 8.98589 21.6121 9.16669C21.4254 9.34265 21.1834 9.48861 20.9335 9.61736C20.4398 9.87176 19.7206 10.1545 18.8326 10.5036L16.0703 11.5896C14.3244 12.2762 13.283 12.6857 12 12.6857C10.717 12.6857 9.67554 12.2762 7.9297 11.5896L5.16739 10.5036C4.27941 10.1545 3.56019 9.87176 3.06648 9.61736C2.81662 9.48861 2.57456 9.34265 2.38791 9.16669C2.19614 8.98589 2 8.7117 2 8.34286C2 7.97401 2.19614 7.69982 2.38791 7.51903C2.57456 7.34307 2.81662 7.1971 3.06648 7.06835C3.56019 6.81395 4.27941 6.53121 5.1674 6.18212L7.92969 5.09614Z" fill="currentColor" />
      <path fill-rule="evenodd" clip-rule="evenodd" d="M3.16328 11.4893C3.16328 11.4893 3.16328 11.4893 3.16328 11.4893L3.16198 11.4882L3.16522 11.491C3.16932 11.4944 3.17695 11.5009 3.18811 11.51C3.21045 11.5284 3.2469 11.5576 3.29748 11.596C3.39864 11.6729 3.55618 11.7863 3.77004 11.9227C4.19781 12.1953 4.85041 12.559 5.72779 12.904L8.34031 13.9311C10.2239 14.6716 11.0136 14.9714 12 14.9714C12.9864 14.9714 13.7761 14.6716 15.6597 13.9311L18.2722 12.904C19.1496 12.559 19.8022 12.1953 20.2299 11.9227C20.4438 11.7863 20.6014 11.6729 20.7025 11.596C20.7531 11.5576 20.7895 11.5284 20.8119 11.51C20.823 11.5009 20.8307 11.4944 20.8348 11.491L20.8367 11.4893C20.8372 11.4889 20.8377 11.4884 20.8382 11.488C21.1251 11.2368 21.5649 11.2608 21.8217 11.5421C22.079 11.824 22.055 12.2575 21.7682 12.5104L21.3023 12C21.7682 12.5104 21.7683 12.5103 21.7682 12.5104L21.7669 12.5116L21.7653 12.513L21.761 12.5167L21.7482 12.5277C21.7379 12.5365 21.7239 12.5483 21.7062 12.5628C21.6708 12.5918 21.6206 12.6319 21.5557 12.6812C21.426 12.7797 21.2372 12.9152 20.9892 13.0733C20.4933 13.3894 19.7604 13.796 18.7904 14.1773L16.1779 15.2044C16.1417 15.2186 16.1059 15.2327 16.0703 15.2467C14.3245 15.9333 13.283 16.3429 12 16.3429C10.717 16.3429 9.67554 15.9333 7.9297 15.2467C7.89412 15.2327 7.85826 15.2186 7.8221 15.2044L5.20957 14.1773C4.23961 13.796 3.50671 13.3894 3.01081 13.0733C2.76284 12.9152 2.574 12.7797 2.44425 12.6812C2.37936 12.6319 2.32923 12.5918 2.29383 12.5628C2.27613 12.5483 2.26211 12.5365 2.25177 12.5277L2.23903 12.5167L2.23472 12.513L2.23309 12.5116L2.23209 12.5107C2.23194 12.5106 2.2318 12.5104 2.69767 12L2.23209 12.5107C1.94527 12.2578 1.92104 11.824 2.17834 11.5421C2.43512 11.2608 2.87511 11.2369 3.16198 11.4882M3.16328 11.4893C3.16328 11.4893 3.16328 11.4893 3.16328 11.4893ZM3.16182 15.1452C2.87496 14.8939 2.43512 14.9179 2.17834 15.1993L3.16182 15.1452ZM3.16182 15.1452L3.16522 15.1481C3.16932 15.1516 3.17695 15.158 3.18811 15.1672C3.21045 15.1855 3.2469 15.2147 3.29748 15.2532C3.39864 15.33 3.55618 15.4435 3.77004 15.5798C4.19781 15.8525 4.85041 16.2162 5.72779 16.5611L8.34031 17.5882C10.2239 18.3287 11.0136 18.6286 12 18.6286C12.9864 18.6286 13.7761 18.3287 15.6597 17.5882L18.2722 16.5611C19.1496 16.2162 19.8022 15.8525 20.2299 15.5798C20.4438 15.4435 20.6014 15.33 20.7025 15.2532C20.7531 15.2147 20.7895 15.1855 20.8119 15.1672C20.823 15.158 20.8307 15.1516 20.8348 15.1481L20.8367 15.1465C20.8372 15.146 20.8377 15.1456 20.8382 15.1451C21.1251 14.8939 21.5649 14.9179 21.8217 15.1993C22.079 15.4812 22.055 15.9147 21.7682 16.1676L21.3178 15.6741C21.7682 16.1676 21.7683 16.1674 21.7682 16.1676L21.7669 16.1687L21.7653 16.1701L21.761 16.1739L21.7482 16.1848C21.7379 16.1936 21.7239 16.2054 21.7062 16.2199C21.6708 16.249 21.6206 16.289 21.5557 16.3383C21.426 16.4369 21.2372 16.5724 20.9892 16.7304C20.4933 17.0465 19.7604 17.4531 18.7904 17.8345L16.1779 18.8616C16.1417 18.8758 16.1059 18.8899 16.0703 18.9039C14.3245 19.5904 13.283 20 12 20C10.717 20 9.67554 19.5904 7.9297 18.9039C7.89412 18.8899 7.85826 18.8758 7.8221 18.8616L5.20957 17.8345C4.23961 17.4531 3.50671 17.0465 3.01081 16.7304C2.76284 16.5724 2.574 16.4369 2.44425 16.3383C2.37936 16.289 2.32923 16.249 2.29383 16.2199C2.27613 16.2054 2.26211 16.1936 2.25177 16.1848L2.23903 16.1739L2.23472 16.1701L2.23309 16.1687L2.23209 16.1678C2.23194 16.1677 2.2318 16.1676 2.69767 15.6571L2.23209 16.1678C1.94527 15.9149 1.92104 15.4812 2.17834 15.1993" fill="currentColor" />
    </symbol>
    <symbol id="shield-warning" width="100%" height="100%" viewBox="0 0 32 32" fill="none">
      <path fill-rule="evenodd" clip-rule="evenodd" d="M4 13.889C4 9.62551 4 7.49379 4.50335 6.77663C5.00671 6.05947 7.0111 5.37336 11.0199 4.00114L11.7836 3.7397C13.8733 3.0244 14.9181 2.66675 16 2.66675C17.0819 2.66675 18.1267 3.0244 20.2164 3.7397L20.9801 4.00114C24.9889 5.37336 26.9933 6.05947 27.4966 6.77663C28 7.49379 28 9.62551 28 13.889V15.9886C28 23.506 22.348 27.1541 18.8019 28.7031C17.84 29.1233 17.359 29.3334 16 29.3334C14.641 29.3334 14.16 29.1233 13.1981 28.7031C9.65195 27.1541 4 23.506 4 15.9886V13.889ZM16 9.66675C16.5523 9.66675 17 10.1145 17 10.6667V16.0001C17 16.5524 16.5523 17.0001 16 17.0001C15.4477 17.0001 15 16.5524 15 16.0001V10.6667C15 10.1145 15.4477 9.66675 16 9.66675ZM16 21.3334C16.7364 21.3334 17.3333 20.7365 17.3333 20.0001C17.3333 19.2637 16.7364 18.6667 16 18.6667C15.2636 18.6667 14.6667 19.2637 14.6667 20.0001C14.6667 20.7365 15.2636 21.3334 16 21.3334Z" fill="currentColor" />
    </symbol>
    <symbol id="fire" width="100%" height="100%" viewBox="0 0 32 32" fill="none">
      <path d="M17.1098 29.0685C21.2778 28.2331 26.6667 25.2348 26.6667 17.4816C26.6667 10.4262 21.5022 5.72799 17.7887 3.56921C16.9647 3.09018 16 3.72016 16 4.6733V7.11128C16 9.03376 15.1917 12.5429 12.9458 14.0025C11.7991 14.7477 10.5607 13.6323 10.4213 12.2719L10.3069 11.1548C10.1739 9.85613 8.85122 9.06775 7.81327 9.85955C5.94862 11.282 4 13.7729 4 17.4816C4 26.9631 11.0519 29.3335 14.5778 29.3335C14.7829 29.3335 14.9984 29.3274 15.2228 29.3145C13.4817 29.1656 10.6667 28.0855 10.6667 24.5924C10.6667 21.86 12.6601 20.0114 14.1747 19.1129C14.582 18.8712 15.0588 19.185 15.0588 19.6586V20.4442C15.0588 21.0455 15.2913 21.9853 15.8448 22.6286C16.4712 23.3566 17.3906 22.594 17.4647 21.6365C17.4881 21.3344 17.7919 21.142 18.0534 21.2948C18.9085 21.7946 20 22.8621 20 24.5924C20 27.3231 18.4947 28.5792 17.1098 29.0685Z" fill="currentColor" />
    </symbol>
    <symbol id="earthquake" width="100%" height="100%" viewBox="0 0 32 33" fill="none">
      <path d="M9.25879 1L10.7282 11.0286L5.13081 5.76219L7.88666 14.2245L2.85465 13.7583L5.50173 18.3425H10.3389L9.56409 15.7358L11.457 16.7611L11.5358 13.4482L14.5333 16.919L15.4799 11.6342L16.6631 15.7358L20.528 13.0539L19.3448 16.9978L23.0521 15.4992L20.9716 18.3427H26.4121L28.9138 14.0937L25.4637 14.5544L26.8478 8.83302L22.0778 12.1245L25.3333 4.59708L18.9226 8.06144L18.097 1.26989L14.6257 8.32359L12.4363 2.43378L11.19 3.65738L9.25886 1.00007L9.25879 1ZM13.1106 18.4729L9.8757 20.8213L11.2541 22.674L2.70382 23.7995L3.27052 28.2771L3.23647 28.4783L0 29.8329V33H2.31662L5.48665 29.8901L4.22954 24.8672L7.34863 24.4567L7.57464 28.1539L7.68804 28.2044L10.359 30.413L9.13966 32.9999H12.7866L13.1775 29.001L8.77898 27.2383L8.59908 24.292L13.5412 23.6414L11.6445 21.0915L15.2515 18.4727H13.1106L13.1106 18.4729ZM17.1572 18.4729L20.5037 22.406L15.4808 24.8027L15.1877 24.8176L18.7271 29.0534L16.6564 33H21.5046L21.3487 28.0597L17.7393 25.1187L21.6905 23.2332L26.6319 24.395L23.5944 29.2553L26.3541 32.9645L26.3669 33H31.0673L25.7832 29.29L26.7558 26.8927L31.9961 28.9623V26.6331L27.3563 25.6091L28.6292 23.5725L21.7771 21.9616L18.8088 18.4728H17.1572L17.1572 18.4729Z" fill="currentColor" />
    </symbol>
    <symbol id="benzene-ring" width="100%" height="100%" viewBox="0 0 32 32" fill="none">
      <path fill-rule="evenodd" clip-rule="evenodd" d="M13.3056 7.17241C14.6206 6.3908 15.278 6 15.9999 6C16.7219 6 17.3793 6.3908 18.6942 7.17241L22.639 9.51723C23.5796 10.0764 24.1838 10.4355 24.5837 10.8303L28.752 7.85293C29.2015 7.53192 29.826 7.63602 30.147 8.08543C30.468 8.53484 30.3639 9.15939 29.9145 9.4804L25.3096 12.7696C25.3333 13.1881 25.3333 13.6914 25.3333 14.3218V19.0115C25.3333 20.5747 25.3333 21.3563 24.9723 22C24.6113 22.6437 23.9539 23.0345 22.639 23.8161L18.6942 26.1609C17.3793 26.9425 16.7219 27.3333 15.9999 27.3333C15.278 27.3333 14.6206 26.9425 13.3056 26.1609L9.36091 23.8161C8.51311 23.3122 7.93863 22.9707 7.5407 22.6191L3.22131 25.4987C2.76178 25.8051 2.14091 25.6809 1.83456 25.2214C1.52821 24.7618 1.65238 24.141 2.11191 23.8346L6.70477 20.7727C6.66661 20.315 6.66661 19.7506 6.66661 19.0115V14.3218C6.66661 13.5827 6.66661 13.0183 6.70477 12.5606L2.11191 9.49872C1.65238 9.19236 1.52821 8.5715 1.83456 8.11197C2.14091 7.65244 2.76178 7.52826 3.22131 7.83462L7.5407 10.7142C7.93863 10.3627 8.51311 10.0212 9.36091 9.51723L13.3056 7.17241ZM22.1923 19.488C22.475 19.9624 22.3197 20.5762 21.8453 20.859L16.5119 24.0378C16.0375 24.3205 15.4237 24.1651 15.1409 23.6907C14.8582 23.2163 15.0136 22.6025 15.488 22.3198L20.8213 19.141C21.2957 18.8582 21.9095 19.0136 22.1923 19.488Z" fill="currentColor" />
    </symbol>
    <symbol id="cloud-bolt" width="100%" height="100%" viewBox="0 0 32 32" fill="none">
      <path d="M12.8348 23.2862L14.3659 21.2133C15.3556 19.8733 15.8504 19.2033 16.3121 19.3449C16.7738 19.4865 16.7738 20.3082 16.7738 21.9517V22.1067C16.7738 22.6994 16.7738 22.9958 16.9631 23.1817L16.9731 23.1913C17.1664 23.3733 17.4747 23.3733 18.0912 23.3733C19.2006 23.3733 19.7554 23.3733 19.9428 23.71C19.9459 23.7156 19.949 23.7212 19.9519 23.7269C20.1289 24.0688 19.8077 24.5037 19.1653 25.3734L17.6342 27.4463C16.6445 28.7863 16.1497 29.4563 15.688 29.3147C15.2263 29.1731 15.2263 28.3513 15.2264 26.7079L15.2264 26.553C15.2264 25.9602 15.2264 25.6638 15.0371 25.4779L15.0271 25.4683C14.8337 25.2863 14.5255 25.2863 13.909 25.2863C12.7995 25.2863 12.2448 25.2863 12.0573 24.9496C12.0542 24.944 12.0512 24.9384 12.0483 24.9327C11.8713 24.5908 12.1925 24.156 12.8348 23.2862Z" fill="currentColor" />
      <path d="M10.1035 24.0149C10.1823 23.7388 10.2898 23.515 10.369 23.3663C10.5792 22.9713 10.9006 22.5369 11.1705 22.1719L12.8247 19.9323C13.2601 19.3425 13.6984 18.7487 14.0958 18.3354C14.3863 18.0334 15.4247 16.9793 16.898 17.4311C18.4155 17.8964 18.6423 19.4035 18.6981 19.8175C18.7579 20.262 18.7706 20.8109 18.7731 21.3752C19.073 21.3811 19.3741 21.3958 19.6396 21.433C20.0858 21.4954 21.1156 21.7044 21.6899 22.7356C21.7029 22.7589 21.7155 22.7824 21.7277 22.8061C21.9478 23.2314 22.0141 23.6423 22 24.0097C26.0756 23.8611 29.3334 20.5469 29.3334 16.4802C29.3334 13.1821 27.1907 10.379 24.2069 9.35794C23.7829 5.59362 20.5546 2.66663 16.635 2.66663C12.4271 2.66663 9.01595 6.04002 9.01595 10.2013C9.01595 11.1217 9.18283 12.0035 9.48829 12.8189C9.13008 12.7493 8.75986 12.7129 8.38103 12.7129C5.22512 12.7129 2.66675 15.2429 2.66675 18.3639C2.66675 21.4848 5.22512 24.0149 8.38103 24.0149H10.1035Z" fill="currentColor" />
    </symbol>
    <symbol id="hourglass" width="100%" height="100%" viewBox="0 0 32 32" fill="none">
      <path d="M12.8348 23.2862L14.3659 21.2133C15.3556 19.8733 15.8504 19.2033 16.3121 19.3449C16.7738 19.4865 16.7738 20.3082 16.7738 21.9517V22.1067C16.7738 22.6994 16.7738 22.9958 16.9631 23.1817L16.9731 23.1913C17.1664 23.3733 17.4747 23.3733 18.0912 23.3733C19.2006 23.3733 19.7554 23.3733 19.9428 23.71C19.9459 23.7156 19.949 23.7212 19.9519 23.7269C20.1289 24.0688 19.8077 24.5037 19.1653 25.3734L17.6342 27.4463C16.6445 28.7863 16.1497 29.4563 15.688 29.3147C15.2263 29.1731 15.2263 28.3513 15.2264 26.7079L15.2264 26.553C15.2264 25.9602 15.2264 25.6638 15.0371 25.4779L15.0271 25.4683C14.8337 25.2863 14.5255 25.2863 13.909 25.2863C12.7995 25.2863 12.2448 25.2863 12.0573 24.9496C12.0542 24.944 12.0512 24.9384 12.0483 24.9327C11.8713 24.5908 12.1925 24.156 12.8348 23.2862Z" fill="currentColor" />
      <path d="M10.1035 24.0149C10.1823 23.7388 10.2898 23.515 10.369 23.3663C10.5792 22.9713 10.9006 22.5369 11.1705 22.1719L12.8247 19.9323C13.2601 19.3425 13.6984 18.7487 14.0958 18.3354C14.3863 18.0334 15.4247 16.9793 16.898 17.4311C18.4155 17.8964 18.6423 19.4035 18.6981 19.8175C18.7579 20.262 18.7706 20.8109 18.7731 21.3752C19.073 21.3811 19.3741 21.3958 19.6396 21.433C20.0858 21.4954 21.1156 21.7044 21.6899 22.7356C21.7029 22.7589 21.7155 22.7824 21.7277 22.8061C21.9478 23.2314 22.0141 23.6423 22 24.0097C26.0756 23.8611 29.3334 20.5469 29.3334 16.4802C29.3334 13.1821 27.1907 10.379 24.2069 9.35794C23.7829 5.59362 20.5546 2.66663 16.635 2.66663C12.4271 2.66663 9.01595 6.04002 9.01595 10.2013C9.01595 11.1217 9.18283 12.0035 9.48829 12.8189C9.13008 12.7493 8.75986 12.7129 8.38103 12.7129C5.22512 12.7129 2.66675 15.2429 2.66675 18.3639C2.66675 21.4848 5.22512 24.0149 8.38103 24.0149H10.1035Z" fill="currentColor" />
    </symbol>
    <symbol id="doc" width="100%" height="100%" viewBox="0 0 16 16" fill="none">
      <path fill-rule="evenodd" clip-rule="evenodd" d="M9.33301 14.6666H6.66634C4.15218 14.6666 2.89511 14.6666 2.11406 13.8855C1.33301 13.1045 1.33301 11.8474 1.33301 9.33325V6.66658C1.33301 4.15243 1.33301 2.89535 2.11406 2.1143C2.89511 1.33325 4.1588 1.33325 6.6862 1.33325C7.09021 1.33325 7.41394 1.33325 7.68635 1.34436C7.67738 1.39765 7.67268 1.452 7.6725 1.50696L7.66634 3.39656C7.66628 4.12797 7.66623 4.77435 7.73628 5.29536C7.81221 5.8601 7.98654 6.42476 8.44739 6.88561C8.90824 7.34645 9.4729 7.52079 10.0376 7.59672C10.5587 7.66677 11.205 7.66672 11.9364 7.66666L11.9997 7.66666H14.6379C14.6663 8.02283 14.6663 8.45998 14.6663 9.04185V9.33325C14.6663 11.8474 14.6663 13.1045 13.8853 13.8855C13.1042 14.6666 11.8472 14.6666 9.33301 14.6666Z" fill="currentColor" />
      <path d="M12.9008 5.07769L10.2616 2.70242C9.50973 2.02571 9.13378 1.68735 8.67249 1.51034L8.66634 3.33332C8.66634 4.90467 8.66634 5.69035 9.1545 6.1785C9.64265 6.66666 10.4283 6.66666 11.9997 6.66666H14.3864C14.1447 6.19717 13.7119 5.80768 12.9008 5.07769Z" fill="currentColor" />
    </symbol>
    <symbol id="calendar" width="100%" height="100%" viewBox="0 0 20 20" fill="none">
      <path d="M6.45866 2.08325C6.45866 1.73807 6.17884 1.45825 5.83366 1.45825C5.48848 1.45825 5.20866 1.73807 5.20866 2.08325V3.3993C4.00922 3.49535 3.2218 3.73106 2.6433 4.30956C2.0648 4.88806 1.82909 5.67548 1.73304 6.87492H18.2676C18.1716 5.67548 17.9358 4.88806 17.3573 4.30956C16.7788 3.73106 15.9914 3.49535 14.792 3.3993V2.08325C14.792 1.73807 14.5122 1.45825 14.167 1.45825C13.8218 1.45825 13.542 1.73807 13.542 2.08325V3.344C12.9876 3.33325 12.3662 3.33325 11.667 3.33325H8.33366C7.63446 3.33325 7.01305 3.33325 6.45866 3.344V2.08325Z" fill="currentColor" />
      <path fill-rule="evenodd" clip-rule="evenodd" d="M18.3337 9.99992V11.6666C18.3337 14.8093 18.3337 16.3806 17.3573 17.3569C16.381 18.3333 14.8097 18.3333 11.667 18.3333H8.33366C5.19096 18.3333 3.61961 18.3333 2.6433 17.3569C1.66699 16.3806 1.66699 14.8093 1.66699 11.6666V9.99992C1.66699 9.30072 1.66699 8.67931 1.67774 8.12492H18.3229C18.3337 8.67931 18.3337 9.30072 18.3337 9.99992ZM13.7503 14.9999C14.4407 14.9999 15.0003 14.4403 15.0003 13.7499C15.0003 13.0596 14.4407 12.4999 13.7503 12.4999C13.06 12.4999 12.5003 13.0596 12.5003 13.7499C12.5003 14.4403 13.06 14.9999 13.7503 14.9999Z" fill="currentColor" />
    </symbol>
    <symbol id="filter" width="100%" height="100%" viewBox="0 0 21 20" fill="none">
      <path d="M9.66699 6.66675L17.167 6.66675" stroke="currentColor" stroke-width="2" stroke-linecap="round" />
      <path d="M3.83301 13.3333L12.1663 13.3333" stroke="currentColor" stroke-width="2" stroke-linecap="round" />
      <ellipse cx="6.33301" cy="6.66675" rx="2.5" ry="2.5" transform="rotate(90 6.33301 6.66675)" stroke="currentColor" stroke-width="2" stroke-linecap="round" />
      <ellipse cx="14.667" cy="13.3333" rx="2.5" ry="2.5" transform="rotate(90 14.667 13.3333)" stroke="currentColor" stroke-width="2" stroke-linecap="round" />

    </symbol>
    <symbol id="box" width="100%" height="100%" viewBox="0 0 32 32" fill="none">
      <path d="M23.4363 5.90877L20.7696 4.50937C18.4288 3.28096 17.2584 2.66675 15.9993 2.66675C14.7403 2.66675 13.5699 3.28096 11.2291 4.50937L10.8001 4.73448L22.6975 11.533L28.0531 8.85518C27.1915 7.87941 25.8013 7.14987 23.4363 5.90877Z" fill="currentColor" />
      <path d="M28.9972 10.6192L23.666 13.2848V17.3334C23.666 17.8857 23.2183 18.3334 22.666 18.3334C22.1137 18.3334 21.666 17.8857 21.666 17.3334V14.2848L16.9993 16.6181V29.2054C17.9566 28.967 19.0457 28.3955 20.7696 27.4908L23.4363 26.0914C26.3052 24.5859 27.7396 23.8331 28.5362 22.4804C29.3327 21.1278 29.3327 19.4445 29.3327 16.0781V15.9221C29.3327 13.3986 29.3327 11.8208 28.9972 10.6192Z" fill="currentColor" />
      <path d="M14.9993 29.2054V16.6181L3.00153 10.6192C2.66602 11.8208 2.66602 13.3986 2.66602 15.9221V16.0781C2.66602 19.4445 2.66602 21.1278 3.46254 22.4804C4.25907 23.8331 5.69351 24.5859 8.56238 26.0914L11.2291 27.4908C12.953 28.3955 14.0421 28.967 14.9993 29.2054Z" fill="currentColor" />
      <path d="M3.94561 8.85518L15.9993 14.882L20.5475 12.6079L8.69877 5.83721L8.56241 5.90877C6.19741 7.14987 4.80722 7.87941 3.94561 8.85518Z" fill="currentColor" />

    </symbol>
    <symbol id="verified-check" width="100%" height="100%" viewBox="0 0 32 32" fill="none">
      <path fill-rule="evenodd" clip-rule="evenodd" d="M12.7892 4.26711C12.4645 4.54382 12.3022 4.68218 12.1288 4.7984C11.7313 5.0648 11.2849 5.2497 10.8155 5.34238C10.6107 5.38281 10.3981 5.39978 9.97279 5.43371C8.90428 5.51898 8.37002 5.56162 7.92429 5.71905C6.89336 6.08319 6.08246 6.89409 5.71832 7.92502C5.56088 8.37075 5.51825 8.90501 5.43298 9.97352C5.39904 10.3988 5.38208 10.6114 5.34165 10.8162C5.24897 11.2856 5.06407 11.732 4.79767 12.1295C4.68145 12.3029 4.54309 12.4652 4.26638 12.79C3.57113 13.6058 3.22349 14.0137 3.01964 14.4402C2.54814 15.4267 2.54814 16.5735 3.01964 17.5599C3.22349 17.9864 3.57112 18.3944 4.26638 19.2102C4.54306 19.5349 4.68146 19.6973 4.79767 19.8707C5.06407 20.2681 5.24897 20.7145 5.34165 21.1839C5.38208 21.3887 5.39904 21.6014 5.43298 22.0266C5.51825 23.0952 5.56088 23.6294 5.71832 24.0751C6.08246 25.1061 6.89336 25.917 7.92429 26.2811C8.37002 26.4385 8.90428 26.4812 9.97279 26.5664C10.3981 26.6004 10.6107 26.6174 10.8155 26.6578C11.2849 26.7505 11.7313 26.9354 12.1288 27.2018C12.3022 27.318 12.4645 27.4563 12.7892 27.733C13.6051 28.4283 14.013 28.7759 14.4395 28.9798C15.426 29.4513 16.5727 29.4513 17.5592 28.9798C17.9857 28.7759 18.3936 28.4283 19.2095 27.733C19.5342 27.4563 19.6965 27.318 19.8699 27.2018C20.2674 26.9354 20.7138 26.7505 21.1832 26.6578C21.388 26.6174 21.6006 26.6004 22.0259 26.5664C23.0944 26.4812 23.6287 26.4385 24.0744 26.2811C25.1053 25.917 25.9162 25.1061 26.2804 24.0751C26.4378 23.6294 26.4804 23.0952 26.5657 22.0266C26.5997 21.6014 26.6166 21.3887 26.6571 21.1839C26.7497 20.7145 26.9346 20.2681 27.201 19.8707C27.3172 19.6973 27.4556 19.5349 27.7323 19.2102C28.4276 18.3944 28.7752 17.9864 28.9791 17.5599C29.4506 16.5735 29.4506 15.4267 28.9791 14.4402C28.7752 14.0137 28.4276 13.6058 27.7323 12.79C27.4556 12.4652 27.3172 12.3029 27.201 12.1295C26.9346 11.732 26.7497 11.2856 26.6571 10.8162C26.6166 10.6114 26.5997 10.3988 26.5657 9.97352C26.4804 8.90501 26.4378 8.37075 26.2804 7.92502C25.9162 6.89409 25.1053 6.08319 24.0744 5.71905C23.6287 5.56162 23.0944 5.51898 22.0259 5.43371C21.6006 5.39978 21.388 5.38281 21.1832 5.34238C20.7138 5.2497 20.2674 5.0648 19.8699 4.7984C19.6965 4.68218 19.5342 4.54383 19.2095 4.26711C18.3936 3.57185 17.9857 3.22422 17.5592 3.02037C16.5727 2.54887 15.426 2.54887 14.4395 3.02037C14.013 3.22422 13.6051 3.57186 12.7892 4.26711ZM21.8307 13.1509C22.2544 12.7272 22.2544 12.0401 21.8307 11.6163C21.4069 11.1925 20.7198 11.1925 20.296 11.6163L13.829 18.0833L11.7026 15.9569C11.2789 15.5331 10.5918 15.5331 10.168 15.9569C9.74422 16.3807 9.74422 17.0677 10.168 17.4915L13.0617 20.3852C13.4855 20.809 14.1726 20.809 14.5964 20.3852L21.8307 13.1509Z" fill="currentColor" />

    </symbol>
    <symbol id="streets-navigation" width="100%" height="100%" viewBox="0 0 32 32" fill="none">
      <path d="M19.3327 2.66675H12.666C9.17778 2.66675 7.07751 2.66675 5.62178 3.27687L18.5402 12.6721L27.0281 3.61838C25.5567 2.66675 23.378 2.66675 19.3327 2.66675Z" fill="currentColor" />
      <path d="M28.4294 5.04795L20.1419 13.8879L28.3813 20.3618C29.3327 18.8903 29.3327 16.7117 29.3327 12.6667C29.3327 8.69105 29.3327 6.51835 28.4294 5.04795Z" fill="currentColor" />
      <path d="M2.66602 12.6667C2.66602 17.0501 2.66602 19.2417 3.87663 20.7168C4.09825 20.9869 4.34587 21.2345 4.61592 21.4561C5.43697 22.13 6.47999 22.4287 7.99935 22.5612C8.80974 22.6319 9.75567 22.6552 10.8757 22.6629L11.6345 21.1451L11.6959 21.0222C12.2044 20.0046 12.6817 19.0494 13.159 18.3654C13.647 17.6661 14.5316 16.6667 15.9993 16.6667C17.4671 16.6667 18.3517 17.6661 18.8397 18.3654C19.317 19.0494 19.7943 20.0046 20.3028 21.0222L20.3642 21.1451L21.123 22.6629C22.243 22.6552 23.189 22.6319 23.9993 22.5612C25.2575 22.4515 26.189 22.2278 26.9383 21.7715L18.0628 14.7979L3.94744 4.53216C3.92355 4.56007 3.89994 4.58824 3.87663 4.61665C2.66602 6.09178 2.66602 8.28344 2.66602 12.6667Z" fill="currentColor" />
      <path d="M20.3557 25.6009L18.5753 22.0394C17.4513 19.791 16.8893 18.6667 15.9994 18.6667C15.1094 18.6667 14.5474 19.791 13.4234 22.0394L11.643 25.6009C10.9605 26.9661 10.6192 27.6488 10.6712 28.0785C10.7462 28.6994 11.2132 29.2009 11.8271 29.3197C12.252 29.402 12.957 29.1099 14.3669 28.5258C14.8885 28.3097 15.1493 28.2016 15.4166 28.1464C15.801 28.0669 16.1977 28.0669 16.5821 28.1464C16.8494 28.2016 17.1102 28.3097 17.6318 28.5258C19.0417 29.1099 19.7467 29.402 20.1716 29.3197C20.7855 29.2009 21.2525 28.6994 21.3275 28.0785C21.3794 27.6488 21.0382 26.9661 20.3557 25.6009Z" fill="currentColor" />

    </symbol>
    <symbol id="circle-arrow-right" width="100%" height="100%" viewBox="0 0 32 32" fill="none">
      <path fill-rule="evenodd" clip-rule="evenodd" d="M15.9993 3.66675C9.18784 3.66675 3.66602 9.18857 3.66602 16.0001C3.66602 22.8116 9.18784 28.3334 15.9993 28.3334C22.8109 28.3334 28.3327 22.8116 28.3327 16.0001C28.3327 9.18857 22.8109 3.66675 15.9993 3.66675ZM1.66602 16.0001C1.66602 8.084 8.08327 1.66675 15.9993 1.66675C23.9154 1.66675 30.3327 8.084 30.3327 16.0001C30.3327 23.9162 23.9154 30.3334 15.9993 30.3334C8.08327 30.3334 1.66602 23.9162 1.66602 16.0001ZM16.6256 11.293C17.0161 10.9024 17.6493 10.9024 18.0398 11.293L22.0398 15.293C22.4303 15.6835 22.4303 16.3167 22.0398 16.7072L18.0398 20.7072C17.6493 21.0977 17.0161 21.0977 16.6256 20.7072C16.2351 20.3167 16.2351 19.6835 16.6256 19.293L18.9185 17.0001H10.666C10.1137 17.0001 9.66602 16.5524 9.66602 16.0001C9.66602 15.4478 10.1137 15.0001 10.666 15.0001H18.9185L16.6256 12.7072C16.2351 12.3167 16.2351 11.6835 16.6256 11.293Z" fill="currentColor" />

    </symbol>
    <symbol id="circle-check" width="100%" height="100%" viewBox="0 0 32 32" fill="none">
      <path d="M21.3731 13.3739C21.7636 12.9833 21.7636 12.3502 21.3731 11.9596C20.9826 11.5691 20.3494 11.5691 19.9589 11.9596L13.9993 17.9192L12.0398 15.9596C11.6493 15.5691 11.0161 15.5691 10.6256 15.9596C10.2351 16.3502 10.2351 16.9833 10.6256 17.3739L13.2922 20.0405C13.6828 20.431 14.3159 20.431 14.7065 20.0405L21.3731 13.3739Z" fill="currentColor" />
      <path fill-rule="evenodd" clip-rule="evenodd" d="M15.9993 1.66675C8.08327 1.66675 1.66602 8.084 1.66602 16.0001C1.66602 23.9162 8.08327 30.3334 15.9993 30.3334C23.9154 30.3334 30.3327 23.9162 30.3327 16.0001C30.3327 8.084 23.9154 1.66675 15.9993 1.66675ZM3.66602 16.0001C3.66602 9.18857 9.18784 3.66675 15.9993 3.66675C22.8109 3.66675 28.3327 9.18857 28.3327 16.0001C28.3327 22.8116 22.8109 28.3334 15.9993 28.3334C9.18784 28.3334 3.66602 22.8116 3.66602 16.0001Z" fill="currentColor" />

    </symbol>
    <symbol id="clock" width="100%" height="100%" viewBox="0 0 16 16" fill="none">
      <path d="M14.6673 7.99992C14.6673 11.6818 11.6825 14.6666 8.00065 14.6666C4.31875 14.6666 1.33398 11.6818 1.33398 7.99992C1.33398 4.31802 4.31875 1.33325 8.00065 1.33325C11.6825 1.33325 14.6673 4.31802 14.6673 7.99992Z" fill="currentColor" />
      <path fill-rule="evenodd" clip-rule="evenodd" d="M8.00065 4.83325C8.27679 4.83325 8.50065 5.05711 8.50065 5.33325V7.79281L10.0209 9.31303C10.2161 9.50829 10.2161 9.82488 10.0209 10.0201C9.82561 10.2154 9.50903 10.2154 9.31376 10.0201L7.6471 8.35347C7.55333 8.2597 7.50065 8.13253 7.50065 7.99992V5.33325C7.50065 5.05711 7.72451 4.83325 8.00065 4.83325Z" fill="white" />


    </symbol>
    <symbol id="user-heart" width="100%" height="100%" viewBox="0 0 36 36" fill="none">
      <circle cx="18" cy="9" r="6" fill="currentColor" />
      <path fill-rule="evenodd" clip-rule="evenodd" d="M20.2688 32.2312C21.0377 33 22.2751 33 24.75 33C27.2249 33 28.4623 33 29.2312 32.2312C30 31.4623 30 30.2249 30 27.75C30 25.2751 30 24.0377 29.2312 23.2688C28.4623 22.5 27.2249 22.5 24.75 22.5C22.2751 22.5 21.0377 22.5 20.2688 23.2688C19.5 24.0377 19.5 25.2751 19.5 27.75C19.5 30.2249 19.5 31.4623 20.2688 32.2312ZM23.2899 29.9647C22.2368 29.2106 21 28.325 21 26.7897C21 25.0948 23.0626 23.8928 24.75 25.5222C26.4374 23.8928 28.5 25.0948 28.5 26.7897C28.5 28.325 27.2632 29.2106 26.2101 29.9647C26.1007 30.0431 25.9932 30.12 25.8893 30.1961C25.5 30.4814 25.125 30.75 24.75 30.75C24.375 30.75 24 30.4814 23.6107 30.1961C23.5068 30.12 23.3993 30.0431 23.2899 29.9647Z" fill="currentColor" />
      <path d="M23.1221 20.2611C21.6069 19.7763 19.8599 19.5 18 19.5C12.201 19.5 7.5 22.1863 7.5 25.5C7.5 28.7108 11.9137 31.3326 17.4632 31.4923C17.4225 31.3028 17.391 31.1148 17.3662 30.9301C17.2497 30.0635 17.2498 29.0048 17.25 27.8789V27.621C17.2498 26.4952 17.2497 25.4364 17.3662 24.5698C17.4958 23.6055 17.8057 22.55 18.6779 21.6778C19.55 20.8057 20.6056 20.4958 21.5699 20.3661C22.0378 20.3032 22.5618 20.2743 23.1221 20.2611Z" fill="currentColor" />

    </symbol>
    <symbol id="chat" width="100%" height="100%" viewBox="0 0 36 36" fill="none">
      <path d="M33 12.75C33 7.36522 28.6348 3 23.25 3C20.1257 3 17.3446 4.47345 15.5603 6.76081C23.1706 7.05504 29.25 13.3176 29.25 21C29.25 21.1655 29.2472 21.3303 29.2416 21.4944L29.74 21.6277C31.1895 22.0156 32.5156 20.6895 32.1277 19.24L31.9367 18.5259C31.7823 17.9491 31.8751 17.3397 32.1232 16.7966C32.6862 15.564 33 14.1936 33 12.75Z" fill="currentColor" />
      <path fill-rule="evenodd" clip-rule="evenodd" d="M27 21C27 27.6274 21.6274 33 15 33C13.1467 33 11.3916 32.5799 9.82463 31.8297C9.28606 31.5719 8.6759 31.4813 8.09908 31.6357L6.26002 32.1277C4.81052 32.5156 3.48443 31.1895 3.87227 29.74L4.36433 27.9009C4.51867 27.3241 4.42814 26.7139 4.1703 26.1754C3.42011 24.6084 3 22.8533 3 21C3 14.3726 8.37258 9 15 9C21.6274 9 27 14.3726 27 21ZM9.75 22.5C10.5784 22.5 11.25 21.8284 11.25 21C11.25 20.1716 10.5784 19.5 9.75 19.5C8.92157 19.5 8.25 20.1716 8.25 21C8.25 21.8284 8.92157 22.5 9.75 22.5ZM15 22.5C15.8284 22.5 16.5 21.8284 16.5 21C16.5 20.1716 15.8284 19.5 15 19.5C14.1716 19.5 13.5 20.1716 13.5 21C13.5 21.8284 14.1716 22.5 15 22.5ZM20.25 22.5C21.0784 22.5 21.75 21.8284 21.75 21C21.75 20.1716 21.0784 19.5 20.25 19.5C19.4216 19.5 18.75 20.1716 18.75 21C18.75 21.8284 19.4216 22.5 20.25 22.5Z" fill="currentColor" />

    </symbol>
    <symbol id="graph-up" width="100%" height="100%" viewBox="0 0 36 36" fill="none">
      <path fill-rule="evenodd" clip-rule="evenodd" d="M5.1967 5.1967C3 7.3934 3 10.9289 3 18C3 25.0711 3 28.6066 5.1967 30.8033C7.3934 33 10.9289 33 18 33C25.0711 33 28.6066 33 30.8033 30.8033C33 28.6066 33 25.0711 33 18C33 10.9289 33 7.3934 30.8033 5.1967C28.6066 3 25.0711 3 18 3C10.9289 3 7.3934 3 5.1967 5.1967ZM20.625 15C20.625 15.6213 21.1287 16.125 21.75 16.125H22.784L19.7652 19.1438C19.6187 19.2903 19.3813 19.2903 19.2348 19.1438L16.8562 16.7652C15.831 15.74 14.169 15.74 13.1438 16.7652L9.7045 20.2045C9.26517 20.6438 9.26517 21.3562 9.7045 21.7955C10.1438 22.2348 10.8562 22.2348 11.2955 21.7955L14.7348 18.3562C14.8813 18.2097 15.1187 18.2097 15.2652 18.3562L17.6438 20.7348C18.669 21.76 20.331 21.76 21.3562 20.7348L24.375 17.716V18.75C24.375 19.3713 24.8787 19.875 25.5 19.875C26.1213 19.875 26.625 19.3713 26.625 18.75V15C26.625 14.3787 26.1213 13.875 25.5 13.875H21.75C21.1287 13.875 20.625 14.3787 20.625 15Z" fill="currentColor" />

    </symbol>
    <symbol id="chart" width="100%" height="100%" viewBox="0 0 36 36" fill="none">
      <path d="M25.9393 3.43934C25.5 3.87868 25.5 4.58579 25.5 6V25.5C25.5 26.9142 25.5 27.6213 25.9393 28.0607C26.3787 28.5 27.0858 28.5 28.5 28.5C29.9142 28.5 30.6213 28.5 31.0607 28.0607C31.5 27.6213 31.5 26.9142 31.5 25.5V6C31.5 4.58579 31.5 3.87868 31.0607 3.43934C30.6213 3 29.9142 3 28.5 3C27.0858 3 26.3787 3 25.9393 3.43934Z" fill="currentColor" />
      <path d="M15 10.5C15 9.08579 15 8.37868 15.4393 7.93934C15.8787 7.5 16.5858 7.5 18 7.5C19.4142 7.5 20.1213 7.5 20.5607 7.93934C21 8.37868 21 9.08579 21 10.5V25.5C21 26.9142 21 27.6213 20.5607 28.0607C20.1213 28.5 19.4142 28.5 18 28.5C16.5858 28.5 15.8787 28.5 15.4393 28.0607C15 27.6213 15 26.9142 15 25.5V10.5Z" fill="currentColor" />
      <path d="M4.93934 13.9393C4.5 14.3787 4.5 15.0858 4.5 16.5V25.5C4.5 26.9142 4.5 27.6213 4.93934 28.0607C5.37868 28.5 6.08579 28.5 7.5 28.5C8.91421 28.5 9.62132 28.5 10.0607 28.0607C10.5 27.6213 10.5 26.9142 10.5 25.5V16.5C10.5 15.0858 10.5 14.3787 10.0607 13.9393C9.62132 13.5 8.91421 13.5 7.5 13.5C6.08579 13.5 5.37868 13.5 4.93934 13.9393Z" fill="currentColor" />
      <path d="M4.5 31.875C3.87868 31.875 3.375 32.3787 3.375 33C3.375 33.6213 3.87868 34.125 4.5 34.125H31.5C32.1213 34.125 32.625 33.6213 32.625 33C32.625 32.3787 32.1213 31.875 31.5 31.875H4.5Z" fill="currentColor" />

    </symbol>
    <symbol id="medal-star" width="100%" height="100%" viewBox="0 0 36 36" fill="none">
      <path fill-rule="evenodd" clip-rule="evenodd" d="M20.1542 8.67466C18.8114 7.94243 17.1885 7.94243 15.8456 8.67466L8.6543 12.5959C7.20833 13.3844 6.30859 14.8998 6.30859 16.5467V23.9532C6.30859 25.6002 7.20833 27.1156 8.6543 27.904L15.8456 31.8253C17.1885 32.5575 18.8114 32.5575 20.1542 31.8253L27.3456 27.904C28.7915 27.1156 29.6913 25.6002 29.6913 23.9532V16.5468C29.6913 14.8998 28.7915 13.3844 27.3456 12.5959L20.1542 8.67466ZM18.0002 15.75C17.5742 15.75 17.2892 16.2613 16.7192 17.2838L16.5717 17.5483C16.4097 17.8389 16.3287 17.9842 16.2025 18.08C16.0762 18.1759 15.9189 18.2115 15.6044 18.2826L15.318 18.3474C14.2112 18.5978 13.6578 18.7231 13.5261 19.1465C13.3944 19.5699 13.7717 20.0111 14.5263 20.8935L14.7215 21.1217C14.9359 21.3725 15.0431 21.4979 15.0914 21.653C15.1396 21.8081 15.1234 21.9754 15.091 22.3099L15.0615 22.6145C14.9474 23.7918 14.8903 24.3804 15.2351 24.6421C15.5798 24.9038 16.0979 24.6652 17.1343 24.188L17.4024 24.0646C17.6969 23.929 17.8442 23.8612 18.0002 23.8612C18.1563 23.8612 18.3036 23.929 18.5981 24.0646L18.8662 24.188C19.9025 24.6652 20.4207 24.9038 20.7654 24.6421C21.1101 24.3804 21.0531 23.7918 20.939 22.6145L20.9095 22.3099C20.8771 21.9754 20.8609 21.8081 20.9091 21.653C20.9573 21.4979 21.0646 21.3725 21.279 21.1218L21.4742 20.8935C22.2288 20.0111 22.6061 19.5699 22.4744 19.1465C22.3427 18.7231 21.7893 18.5978 20.6825 18.3474L20.3961 18.2826C20.0816 18.2115 19.9243 18.1759 19.798 18.08C19.6717 17.9842 19.5908 17.8389 19.4288 17.5483L19.2813 17.2838C18.7113 16.2613 18.4263 15.75 18.0002 15.75Z" fill="currentColor" />
      <path d="M16.5 3H19.5C22.3284 3 23.7426 3 24.6213 3.87868C25.5 4.75736 25.5 6.17157 25.5 9V9.02696L21.2311 6.69925C19.2168 5.6009 16.7826 5.6009 14.7683 6.69925L10.5 9.02662V9C10.5 6.17157 10.5 4.75736 11.3787 3.87868C12.2574 3 13.6716 3 16.5 3Z" fill="currentColor" />

    </symbol>
    <symbol id="shield-user" width="100%" height="100%" viewBox="0 0 36 36" fill="none">
      <path fill-rule="evenodd" clip-rule="evenodd" d="M4.5 15.625C4.5 10.8286 4.5 8.43042 5.06627 7.62361C5.63255 6.81681 7.88749 6.04494 12.3974 4.50119L13.2566 4.20708C15.6075 3.40236 16.7829 3 18 3C19.2171 3 20.3925 3.40236 22.7434 4.20708L23.6026 4.50119C28.1125 6.04494 30.3675 6.81681 30.9337 7.62361C31.5 8.43042 31.5 10.8286 31.5 15.625V17.987C31.5 26.4442 25.1416 30.5482 21.1522 32.2909C20.07 32.7636 19.5289 33 18 33C16.4711 33 15.93 32.7636 14.8478 32.2909C10.8584 30.5482 4.5 26.4442 4.5 17.987V15.625ZM21 13.5C21 15.1569 19.6569 16.5 18 16.5C16.3431 16.5 15 15.1569 15 13.5C15 11.8431 16.3431 10.5 18 10.5C19.6569 10.5 21 11.8431 21 13.5ZM18 25.5C24 25.5 24 24.1569 24 22.5C24 20.8431 21.3137 19.5 18 19.5C14.6863 19.5 12 20.8431 12 22.5C12 24.1569 12 25.5 18 25.5Z" fill="currentColor" />

    </symbol>
    <symbol id="heart" width="100%" height="100%" viewBox="0 0 36 36" fill="none">
      <path d="M3 13.7055C3 20.9999 9.02914 24.887 13.4426 28.3662C15 29.5939 16.5 30.7499 18 30.7499C19.5 30.7499 21 29.5939 22.5574 28.3662C26.9709 24.887 33 20.9999 33 13.7055C33 6.41112 24.7498 1.23807 18 8.25083C11.2502 1.23807 3 6.41112 3 13.7055Z" fill="currentColor" />

    </symbol>
    <!--  -->
    <!--  -->
    <!--  -->
  </defs>
</svg>