<?xml version="1.0"?>
<svg xmlns="http://www.w3.org/2000/svg" xmlns:xlink="http://www.w3.org/1999/xlink" version="1.1" xml:space="preserve">
  <defs>
    <symbol id="email" width="100%" height="100%" viewBox="0 0 56 56" fill="none">
      <path d="M4.66675 28.0002C4.66675 19.2006 4.66675 14.8008 7.40042 12.0672C10.1341 9.3335 14.5339 9.3335 23.3334 9.3335H32.6667C41.4663 9.3335 45.8661 9.3335 48.5997 12.0672C51.3334 14.8008 51.3334 19.2006 51.3334 28.0002C51.3334 36.7997 51.3334 41.1995 48.5997 43.9332C45.8661 46.6668 41.4663 46.6668 32.6667 46.6668H23.3334C14.5339 46.6668 10.1341 46.6668 7.40042 43.9332C4.66675 41.1995 4.66675 36.7997 4.66675 28.0002Z" stroke="currentColor" stroke-width="2" />
      <path d="M14 18.6665L19.0374 22.8644C23.3229 26.4356 25.4657 28.2212 28 28.2212C30.5343 28.2212 32.6771 26.4356 36.9626 22.8644L42 18.6665" stroke="currentColor" stroke-width="2" stroke-linecap="round" />

    </symbol>
    <symbol id="phone" width="100%" height="100%" viewBox="0 0 56 56" fill="none">
      <path d="M31.5001 4.66699C31.5001 4.66699 36.9448 5.16197 43.8745 12.0916C50.8041 19.0213 51.2991 24.466 51.2991 24.466" stroke="currentColor" stroke-width="2" stroke-linecap="round" />
      <path d="M33.1498 12.9165C33.1498 12.9165 35.4597 13.5765 38.9245 17.0413C42.3893 20.5061 43.0493 22.816 43.0493 22.816" stroke="currentColor" stroke-width="2" stroke-linecap="round" />
      <path d="M35.235 35.0635L34.5099 34.3748L35.235 35.0635ZM36.2977 33.9446L37.0228 34.6333L36.2977 33.9446ZM41.9366 33.1621L41.4377 34.0288L41.9366 33.1621ZM46.3944 35.728L45.8956 36.5946L46.3944 35.728ZM47.6506 43.7697L48.3756 44.4584L47.6506 43.7697ZM44.336 47.2593L43.6109 46.5707L44.336 47.2593ZM41.2446 48.9139L41.3429 49.9091L41.2446 48.9139ZM18.2358 38.4421L18.9609 37.7534L18.2358 38.4421ZM7.00674 16.2539L6.00817 16.3074L6.00818 16.3074L7.00674 16.2539ZM22.1142 19.8406L22.8393 20.5293L22.1142 19.8406ZM22.4799 13.2839L23.2964 12.7066L22.4799 13.2839ZM19.5376 9.12244L18.7211 9.69975V9.69975L19.5376 9.12244ZM12.2767 8.42016L13.0018 9.10885L12.2767 8.42016ZM8.61431 12.276L7.88926 11.5873L7.88926 11.5873L8.61431 12.276ZM25.8139 30.4638L26.539 29.7751L25.8139 30.4638ZM35.9601 35.7522L37.0228 34.6333L35.5727 33.256L34.5099 34.3748L35.9601 35.7522ZM41.4377 34.0288L45.8956 36.5946L46.8933 34.8613L42.4354 32.2954L41.4377 34.0288ZM46.9255 43.081L43.6109 46.5707L45.061 47.948L48.3756 44.4584L46.9255 43.081ZM41.1464 47.9187C37.6036 48.2684 28.6266 47.9296 18.9609 37.7534L17.5108 39.1308C27.6634 49.8196 37.2816 50.3099 41.3429 49.9091L41.1464 47.9187ZM18.9609 37.7534C9.78809 28.0962 8.2035 19.8929 8.0053 16.2003L6.00818 16.3074C6.23066 20.4526 7.99525 29.1127 17.5108 39.1308L18.9609 37.7534ZM22.17 21.2339L22.8393 20.5293L21.3892 19.1519L20.7199 19.8565L22.17 21.2339ZM23.2964 12.7066L20.3541 8.54512L18.7211 9.69975L21.6634 13.8612L23.2964 12.7066ZM11.5517 7.73148L7.88926 11.5873L9.33937 12.9647L13.0018 9.10885L11.5517 7.73148ZM21.445 20.5452C20.7199 19.8565 20.719 19.8575 20.7181 19.8585C20.7177 19.8588 20.7168 19.8598 20.7161 19.8605C20.7148 19.8619 20.7135 19.8633 20.7121 19.8648C20.7094 19.8678 20.7065 19.8709 20.7034 19.8743C20.6973 19.881 20.6906 19.8885 20.6834 19.8968C20.669 19.9134 20.6524 19.9332 20.6341 19.9562C20.5976 20.0024 20.5543 20.0617 20.5076 20.1346C20.414 20.2809 20.3076 20.4811 20.2159 20.7389C20.0303 21.2604 19.9163 21.9849 20.0544 22.9273C20.3274 24.7906 21.5749 27.4529 25.0889 31.1525L26.539 29.7751C23.158 26.2155 22.221 23.9185 22.0333 22.6373C21.941 22.0074 22.0276 21.6133 22.1001 21.4094C22.1375 21.3044 22.1746 21.2402 22.1922 21.2126C22.2011 21.1987 22.2053 21.1938 22.2024 21.1974C22.201 21.1992 22.1978 21.2032 22.1925 21.2093C22.1898 21.2123 22.1867 21.2159 22.1829 21.22C22.1811 21.222 22.1791 21.2242 22.1769 21.2265C22.1758 21.2277 22.1747 21.2289 22.1736 21.2301C22.173 21.2307 22.1721 21.2317 22.1718 21.232C22.1709 21.2329 22.17 21.2339 21.445 20.5452ZM25.0889 31.1525C28.5969 34.8457 31.1398 36.1789 32.9498 36.4729C33.8702 36.6223 34.5838 36.4992 35.0995 36.2958C35.3532 36.1958 35.5493 36.0801 35.6915 35.9792C35.7625 35.9289 35.8199 35.8823 35.8644 35.8433C35.8866 35.8238 35.9057 35.8062 35.9216 35.7908C35.9295 35.7832 35.9367 35.7761 35.9431 35.7696C35.9463 35.7664 35.9493 35.7633 35.9522 35.7604C35.9536 35.7589 35.9549 35.7575 35.9563 35.7561C35.9569 35.7555 35.9579 35.7545 35.9582 35.7541C35.9591 35.7531 35.9601 35.7522 35.235 35.0635C34.5099 34.3748 34.5109 34.3738 34.5118 34.3729C34.512 34.3726 34.5129 34.3716 34.5135 34.371C34.5147 34.3698 34.5158 34.3687 34.5169 34.3675C34.5191 34.3653 34.5212 34.3631 34.5232 34.3611C34.5271 34.3572 34.5305 34.3538 34.5335 34.3509C34.5394 34.3452 34.5434 34.3416 34.5455 34.3398C34.5496 34.3362 34.546 34.3397 34.5345 34.3479C34.5116 34.3641 34.4565 34.3995 34.3657 34.4353C34.1922 34.5037 33.8434 34.5918 33.2704 34.4987C32.0937 34.3076 29.926 33.341 26.539 29.7751L25.0889 31.1525ZM20.3541 8.54512C18.2397 5.55457 14.0611 5.08953 11.5517 7.73148L13.0018 9.10885C14.5734 7.45423 17.275 7.65443 18.7211 9.69975L20.3541 8.54512ZM8.0053 16.2003C7.94149 15.0114 8.4639 13.8864 9.33937 12.9647L7.88926 11.5873C6.74117 12.796 5.90755 14.4327 6.00817 16.3074L8.0053 16.2003ZM43.6109 46.5707C42.8776 47.3426 42.0401 47.8305 41.1464 47.9187L41.3429 49.9091C42.8543 49.7599 44.1087 48.9507 45.061 47.948L43.6109 46.5707ZM22.8393 20.5293C24.8359 18.4272 24.9938 15.1073 23.2964 12.7066L21.6634 13.8612C22.8427 15.5292 22.6898 17.7826 21.3892 19.1519L22.8393 20.5293ZM45.8956 36.5946C48.2169 37.9308 48.7015 41.2113 46.9255 43.081L48.3756 44.4584C51.0745 41.617 50.2974 36.8206 46.8933 34.8613L45.8956 36.5946ZM37.0228 34.6333C38.1663 33.4294 39.9486 33.1716 41.4377 34.0288L42.4354 32.2954C40.1652 30.9887 37.3673 31.3665 35.5727 33.256L37.0228 34.6333Z" fill="currentColor" />

    </symbol>
    <symbol id="menu" width="100%" height="100%" viewBox="0 0 20 21">
      <path fill-rule="evenodd" clip-rule="evenodd" d="M17.2917 6.33325C17.2917 6.67843 17.0119 6.95825 16.6667 6.95825L3.33335 6.95825C2.98818 6.95825 2.70835 6.67843 2.70835 6.33325C2.70835 5.98807 2.98818 5.70825 3.33335 5.70825L16.6667 5.70825C17.0119 5.70825 17.2917 5.98807 17.2917 6.33325Z" fill="currentColor" />
      <path fill-rule="evenodd" clip-rule="evenodd" d="M17.2917 10.5C17.2917 10.8452 17.0119 11.125 16.6667 11.125L3.33335 11.125C2.98818 11.125 2.70835 10.8452 2.70835 10.5C2.70835 10.1548 2.98818 9.875 3.33335 9.875L16.6667 9.875C17.0119 9.875 17.2917 10.1548 17.2917 10.5Z" fill="currentColor" />
      <path fill-rule="evenodd" clip-rule="evenodd" d="M17.2917 14.6667C17.2917 15.0119 17.0119 15.2917 16.6667 15.2917L3.33335 15.2917C2.98818 15.2917 2.70835 15.0119 2.70835 14.6667C2.70835 14.3216 2.98818 14.0417 3.33335 14.0417L16.6667 14.0417C17.0119 14.0417 17.2917 14.3216 17.2917 14.6667Z" fill="currentColor" />

    </symbol>
    <symbol id="arrow-right" width="100%" height="100%" viewBox="0 0 20 20">
      <path fill-rule="evenodd" clip-rule="evenodd" d="M11.2248 4.55806C11.4688 4.31398 11.8646 4.31398 12.1086 4.55806L17.1086 9.55806C17.3527 9.80214 17.3527 10.1979 17.1086 10.4419L12.1086 15.4419C11.8646 15.686 11.4688 15.686 11.2248 15.4419C10.9807 15.1979 10.9807 14.8021 11.2248 14.5581L15.1578 10.625H3.33337C2.9882 10.625 2.70837 10.3452 2.70837 10C2.70837 9.65482 2.9882 9.375 3.33337 9.375H15.1578L11.2248 5.44194C10.9807 5.19786 10.9807 4.80214 11.2248 4.55806Z" fill="currentColor" />

    </symbol>

    <symbol id="arrow-left" width="100%" height="100%" viewBox="0 0 15 10">
      <path d="M2 5L1.29289 4.29289L0.585786 5L1.29289 5.70711L2 5ZM14 6C14.5523 6 15 5.55228 15 5C15 4.44772 14.5523 4 14 4V6ZM5.29289 0.292893L1.29289 4.29289L2.70711 5.70711L6.70711 1.70711L5.29289 0.292893ZM1.29289 5.70711L5.29289 9.70711L6.70711 8.29289L2.70711 4.29289L1.29289 5.70711ZM2 6H14V4H2V6Z" fill="currentColor" />
    </symbol>

    <symbol id="gal-ochka" width="100%" height="100%" viewBox="0 0 16 16">
      <path d="M4.344 13.704C4.344 13.56 4.328 13.496 4.264 13.496L3.896 13.672C3.896 13.592 3.848 13.544 3.768 13.512L3.64 13.496C3.528 13.496 3.48 13.512 3.32 13.608C3.272 13.512 3.208 13.4 3.16 13.304C2.744 12.504 2.312 11.304 2.12 10.776C2.024 10.504 1.928 9.944 1.816 9.096C1.944 9.176 2.04 9.208 2.088 9.208C2.152 9.208 2.232 9.096 2.296 8.872C2.328 8.92 2.392 8.936 2.472 8.936C2.52 8.936 2.584 8.92 2.616 8.872L2.872 8.488L3.16 8.584H3.176C3.208 8.584 3.256 8.536 3.336 8.488C3.416 8.44 3.48 8.408 3.528 8.408L3.576 8.424C3.832 8.552 4.008 8.776 4.088 9.128C4.28 9.944 4.456 10.344 4.664 10.344C4.84 10.344 5.08 10.136 5.336 9.736C5.592 9.336 5.848 8.792 6.136 8.136C6.152 8.264 6.168 8.328 6.2 8.328C6.296 8.328 6.536 7.768 7.128 6.824C8.008 5.4 10.184 2.664 10.744 2.28C11.16 1.992 11.48 1.72 11.704 1.48C11.672 1.64 11.64 1.752 11.64 1.8C11.64 1.848 11.672 1.864 11.704 1.864L12.152 1.64V1.704C12.152 1.784 12.168 1.832 12.216 1.832C12.28 1.832 12.536 1.576 12.568 1.48L12.536 1.704L13.08 1.384L12.952 1.672C13.112 1.56 13.24 1.496 13.32 1.496C13.4 1.496 13.448 1.624 13.448 1.704C13.448 1.832 13.336 2.008 13.16 2.232C12.968 2.488 12.488 2.984 11.048 4.632C10.424 5.336 7.656 9.096 7.128 9.992L6.136 11.672C5.704 12.392 5.432 12.856 5.288 13.032C5.144 13.208 4.968 13.384 4.76 13.544L4.616 13.464L4.488 13.544L4.344 13.704Z" fill="currentColor" />

    </symbol>
    <symbol id="to-right" width="100%" height="100%" viewBox="0 0 12 13">
      <path d="M6.86612 6.75L3.80806 9.80806C3.56398 10.0521 3.56398 10.4479 3.80806 10.6919C4.05214 10.936 4.44786 10.936 4.69194 10.6919L8.19194 7.19194C8.43602 6.94786 8.43602 6.55214 8.19194 6.30806L4.69194 2.80806C4.44786 2.56398 4.05214 2.56398 3.80806 2.80806C3.56398 3.05214 3.56398 3.44786 3.80806 3.69194L6.86612 6.75Z" fill="currentColor" />

    </symbol>
    <symbol id="to-left" width="100%" height="100%" viewBox="0 0 8 14">
      <path d="M2.36337 7.00019L6.84852 2.51504C7.2065 2.15706 7.2065 1.57666 6.84852 1.21868C6.49054 0.8607 5.91014 0.8607 5.55216 1.21868L0.418823 6.35201C0.0608425 6.70999 0.0608425 7.29039 0.418823 7.64838L5.55216 12.7817C5.91014 13.1397 6.49054 13.1397 6.84852 12.7817C7.2065 12.4237 7.2065 11.8433 6.84852 11.4853L2.36337 7.00019Z" fill="currentColor" />
    </symbol>
    <symbol id="play" width="100%" height="100%" viewBox="0 0 24 24">
      <path d="M19.5761 9.35258C21.4746 10.5065 21.4746 13.4935 19.5761 14.6474L8.11276 21.6145C6.26758 22.736 4 21.2763 4 18.9671L4 5.0329C4 2.72368 6.26758 1.26402 8.11276 2.38548L19.5761 9.35258Z" fill="currentColor" />
    </symbol>
    <symbol id="cross" width="100%" height="100%" viewBox="0 0 16 16">
      <path d="M1 15L15 1M1 1L15 15" fill="none" stroke="currentColor" stroke-width="2" stroke-linecap="round" stroke-linejoin="round" />
    </symbol>
    <symbol id="star" width="100%" height="100%" viewBox="0 0 16 16" fill="none">
      <path d="M8.00001 11.8331L3.88535 13.9965L4.67135 9.41447L1.33801 6.16981L5.93801 5.50314L7.99535 1.33447L10.0527 5.50314L14.6527 6.16981L11.3193 9.41447L12.1053 13.9965L8.00001 11.8331Z" fill="currentColor" />

    </symbol>
    <symbol id="map-point" width="100%" height="100%" viewBox="0 0 24 24" fill="none">
      <path fill-rule="evenodd" clip-rule="evenodd" d="M12 2C7.58172 2 4 6.00258 4 10.5C4 14.9622 6.55332 19.8124 10.5371 21.6744C11.4657 22.1085 12.5343 22.1085 13.4629 21.6744C17.4467 19.8124 20 14.9622 20 10.5C20 6.00258 16.4183 2 12 2ZM12 12C13.1046 12 14 11.1046 14 10C14 8.89543 13.1046 8 12 8C10.8954 8 10 8.89543 10 10C10 11.1046 10.8954 12 12 12Z" fill="currentColor" />

    </symbol>
    <symbol id="user" width="100%" height="100%" viewBox="0 0 24 24" fill="none">
      <circle cx="12" cy="6" r="4" fill="currentColor" />
      <ellipse cx="12" cy="17" rx="7" ry="4" fill="currentColor" />

    </symbol>
    <symbol id="search" width="100%" height="100%" viewBox="0 0 23 23" fill="none">
      <path d="M20.9459 19.7062L15.1027 13.863C16.0094 12.6907 16.4999 11.2575 16.4999 9.74997C16.4999 7.94548 15.7957 6.25349 14.5222 4.97774C13.2487 3.702 11.5522 3 9.74997 3C7.94773 3 6.25124 3.70425 4.97774 4.97774C3.702 6.25124 3 7.94548 3 9.74997C3 11.5522 3.70425 13.2487 4.97774 14.5222C6.25124 15.7979 7.94548 16.4999 9.74997 16.4999C11.2575 16.4999 12.6885 16.0094 13.8607 15.1049L19.7039 20.9459C19.7211 20.9631 19.7414 20.9767 19.7638 20.9859C19.7862 20.9952 19.8102 21 19.8344 21C19.8587 21 19.8827 20.9952 19.9051 20.9859C19.9274 20.9767 19.9478 20.9631 19.9649 20.9459L20.9459 19.9672C20.9631 19.95 20.9767 19.9297 20.9859 19.9073C20.9952 19.8849 21 19.8609 21 19.8367C21 19.8124 20.9952 19.7884 20.9859 19.766C20.9767 19.7437 20.9631 19.7233 20.9459 19.7062V19.7062ZM13.314 13.314C12.36 14.2657 11.0955 14.7899 9.74997 14.7899C8.40448 14.7899 7.13998 14.2657 6.18599 13.314C5.23424 12.36 4.70999 11.0955 4.70999 9.74997C4.70999 8.40448 5.23424 7.13773 6.18599 6.18599C7.13998 5.23424 8.40448 4.70999 9.74997 4.70999C11.0955 4.70999 12.3622 5.23199 13.314 6.18599C14.2657 7.13998 14.7899 8.40448 14.7899 9.74997C14.7899 11.0955 14.2657 12.3622 13.314 13.314Z" fill="currentColor" />

    </symbol>
    <symbol id="cert" width="100%" height="100%" viewBox="0 0 36 36" fill="none">
      <path fill-rule="evenodd" clip-rule="evenodd" d="M3 18V12C3 7.75736 3 5.63604 4.31802 4.31802C5.63604 3 7.75736 3 12 3H24C28.2426 3 30.364 3 31.682 4.31802C33 5.63604 33 7.75736 33 12V18C33 22.2426 33 24.364 31.682 25.682C30.7124 26.6516 29.3081 26.9079 26.9445 26.9756C26.939 25.8719 26.5555 24.7697 25.7942 23.8763C25.7511 23.8258 25.7251 23.763 25.7198 23.6968C25.5317 21.3396 23.6599 19.4677 21.3027 19.2796C21.2365 19.2744 21.1737 19.2483 21.1231 19.2053C19.3233 17.6715 16.6761 17.6715 14.8763 19.2053C14.8258 19.2483 14.763 19.2744 14.6968 19.2796C12.3396 19.4677 10.4677 21.3396 10.2796 23.6968C10.2744 23.763 10.2483 23.8258 10.2053 23.8763C9.44392 24.7697 9.06049 25.8719 9.05499 26.9756C6.69165 26.9078 5.28752 26.6515 4.31802 25.682C3 24.364 3 22.2426 3 18ZM12.375 9C12.375 8.37868 12.8787 7.875 13.5 7.875H22.5C23.1213 7.875 23.625 8.37868 23.625 9C23.625 9.62132 23.1213 10.125 22.5 10.125H13.5C12.8787 10.125 12.375 9.62132 12.375 9ZM10.5 13.125C9.87868 13.125 9.375 13.6287 9.375 14.25C9.375 14.8713 9.87868 15.375 10.5 15.375H25.5C26.1213 15.375 26.625 14.8713 26.625 14.25C26.625 13.6287 26.1213 13.125 25.5 13.125H10.5Z" fill="currentColor" />
      <path fill-rule="evenodd" clip-rule="evenodd" d="M19.6637 20.9178C18.7049 20.1006 17.2946 20.1006 16.3357 20.9178C15.9248 21.2679 15.4139 21.4796 14.8758 21.5225C13.62 21.6227 12.6227 22.62 12.5225 23.8758C12.4796 24.4139 12.2679 24.9248 11.9178 25.3357C11.1006 26.2946 11.1006 27.7049 11.9178 28.6637C12.2679 29.0746 12.4796 29.5855 12.5225 30.1237C12.6227 31.3795 13.62 32.3767 14.8758 32.4769C15.4139 32.5199 15.9248 32.7315 16.3357 33.0817C17.2946 33.8988 18.7049 33.8988 19.6637 33.0817C20.0746 32.7315 20.5855 32.5199 21.1237 32.4769C22.3795 32.3767 23.3767 31.3795 23.4769 30.1237C23.5199 29.5855 23.7315 29.0746 24.0817 28.6637C24.8988 27.7049 24.8988 26.2946 24.0817 25.3357C23.7315 24.9248 23.5199 24.4139 23.4769 23.8758C23.3767 22.62 22.3795 21.6227 21.1237 21.5225C20.5855 21.4796 20.0746 21.2679 19.6637 20.9178ZM21.0176 26.3224C21.4718 25.8985 21.4964 25.1866 21.0724 24.7324C20.6485 24.2782 19.9366 24.2536 19.4824 24.6776L17.0357 26.9611L16.5176 26.4776C16.0634 26.0536 15.3515 26.0782 14.9276 26.5324C14.5036 26.9866 14.5282 27.6985 14.9824 28.1224L16.2681 29.3224C16.7003 29.7259 17.3711 29.7259 17.8033 29.3224L21.0176 26.3224Z" fill="currentColor" />

    </symbol>
    <symbol id="map-routing" width="100%" height="100%" viewBox="0 0 36 36" fill="none">
      <path fill-rule="evenodd" clip-rule="evenodd" d="M27.75 21C24.8505 21 22.5 23.1875 22.5 25.886C22.5 28.5633 24.1756 31.6874 26.79 32.8047C27.3994 33.0651 28.1006 33.0651 28.7101 32.8047C31.3244 31.6874 33 28.5633 33 25.886C33 23.1875 30.6495 21 27.75 21ZM27.75 27.75C28.5784 27.75 29.25 27.0784 29.25 26.25C29.25 25.4216 28.5784 24.75 27.75 24.75C26.9216 24.75 26.25 25.4216 26.25 26.25C26.25 27.0784 26.9216 27.75 27.75 27.75Z" fill="currentColor" />
      <path fill-rule="evenodd" clip-rule="evenodd" d="M8.25 3C5.35051 3 3 5.18753 3 7.88598C3 10.5633 4.67562 13.6874 7.28995 14.8047C7.89939 15.0651 8.60061 15.0651 9.21005 14.8047C11.8244 13.6874 13.5 10.5633 13.5 7.88598C13.5 5.18753 11.1495 3 8.25 3ZM8.25 9.75C9.07843 9.75 9.75 9.07843 9.75 8.25C9.75 7.42157 9.07843 6.75 8.25 6.75C7.42157 6.75 6.75 7.42157 6.75 8.25C6.75 9.07843 7.42157 9.75 8.25 9.75Z" fill="currentColor" />
      <path fill-rule="evenodd" clip-rule="evenodd" d="M16.875 7.5C16.875 6.87868 17.3787 6.375 18 6.375H24.1979C28.3247 6.375 29.8941 11.7645 26.4125 13.9801L10.7956 23.9181C9.21298 24.9252 9.92637 27.375 11.8022 27.375H15.284L14.9545 27.0455C14.5152 26.6062 14.5152 25.8938 14.9545 25.4545C15.3939 25.0152 16.1062 25.0152 16.5455 25.4545L18.7955 27.7045C19.2349 28.1438 19.2349 28.8562 18.7955 29.2955L16.5455 31.5455C16.1062 31.9848 15.3939 31.9848 14.9545 31.5455C14.5152 31.1062 14.5152 30.3938 14.9545 29.9545L15.284 29.625H11.8022C7.67534 29.625 6.10595 24.2355 9.5876 22.0199L25.2045 12.0819C26.7871 11.0748 26.0737 8.625 24.1979 8.625H18C17.3787 8.625 16.875 8.12132 16.875 7.5Z" fill="currentColor" />

    </symbol>
    <symbol id="star" width="100%" height="100%" viewBox="0 0 36 36" fill="none">
      <path d="M13.7297 8.11256C15.6297 4.70419 16.5797 3 18 3C19.4203 3 20.3703 4.70419 22.2703 8.11256L22.7618 8.99435C23.3017 9.9629 23.5717 10.4472 23.9926 10.7667C24.4135 11.0862 24.9377 11.2049 25.9862 11.4421L26.9407 11.658C30.6302 12.4928 32.475 12.9102 32.9139 14.3216C33.3528 15.733 32.0951 17.2036 29.5799 20.1449L28.9291 20.9058C28.2144 21.7417 27.857 22.1596 27.6962 22.6766C27.5354 23.1936 27.5895 23.7512 27.6975 24.8663L27.7959 25.8816C28.1762 29.8059 28.3663 31.7681 27.2173 32.6403C26.0682 33.5126 24.341 32.7173 20.8865 31.1268L19.9928 30.7153C19.0111 30.2633 18.5203 30.0373 18 30.0373C17.4797 30.0373 16.9889 30.2633 16.0072 30.7153L15.1135 31.1268C11.659 32.7173 9.93176 33.5126 8.78272 32.6403C7.63368 31.7681 7.82382 29.8059 8.20409 25.8816L8.30248 24.8663C8.41054 23.7512 8.46457 23.1936 8.30379 22.6766C8.14302 22.1596 7.78564 21.7417 7.07088 20.9058L6.42015 20.1449C3.90487 17.2036 2.64724 15.733 3.08613 14.3216C3.52503 12.9102 5.36979 12.4928 9.0593 11.658L10.0138 11.4421C11.0623 11.2049 11.5865 11.0862 12.0074 10.7667C12.4283 10.4472 12.6983 9.9629 13.2382 8.99435L13.7297 8.11256Z" fill="currentColor" />

    </symbol>
    <symbol id="settings" width="100%" height="100%" viewBox="0 0 36 36" fill="none">
      <path fill-rule="evenodd" clip-rule="evenodd" d="M21.4182 3.22836C20.8627 3 20.1585 3 18.75 3C17.3415 3 16.6373 3 16.0818 3.22836C15.3411 3.53284 14.7526 4.11687 14.4458 4.85195C14.3058 5.18751 14.251 5.57775 14.2295 6.14699C14.198 6.98352 13.7657 7.75784 13.0352 8.1764C12.3048 8.59495 11.413 8.57931 10.6672 8.18814C10.1598 7.92195 9.79183 7.77393 9.42898 7.72652C8.63413 7.62267 7.83027 7.83644 7.19423 8.3208C6.71721 8.68407 6.36509 9.28935 5.66085 10.4999C4.95662 11.7104 4.6045 12.3157 4.52602 12.9074C4.42138 13.6962 4.63677 14.494 5.12482 15.1252C5.34758 15.4133 5.66066 15.6555 6.14656 15.9585C6.86087 16.404 7.32048 17.1628 7.32044 18C7.32039 18.8372 6.8608 19.5959 6.14655 20.0413C5.66057 20.3443 5.34746 20.5865 5.12467 20.8747C4.63662 21.5059 4.42123 22.3037 4.52587 23.0925C4.60436 23.6842 4.95647 24.2894 5.66071 25.5C6.36494 26.7106 6.71706 27.3158 7.19409 27.6791C7.83012 28.1635 8.63399 28.3772 9.42884 28.2734C9.79166 28.226 10.1596 28.078 10.667 27.8118C11.4128 27.4206 12.3047 27.405 13.0352 27.8236C13.7657 28.2421 14.198 29.0165 14.2295 29.8531C14.251 30.4223 14.3058 30.8125 14.4458 31.1481C14.7526 31.8831 15.3411 32.4672 16.0818 32.7716C16.6373 33 17.3415 33 18.75 33C20.1585 33 20.8627 33 21.4182 32.7716C22.1589 32.4672 22.7474 31.8831 23.0542 31.1481C23.1942 30.8125 23.249 30.4222 23.2705 29.853C23.302 29.0165 23.7342 28.2421 24.4647 27.8236C25.1952 27.4049 26.0871 27.4205 26.8329 27.8117C27.3403 28.0779 27.7082 28.2259 28.071 28.2733C28.8659 28.3771 29.6697 28.1634 30.3058 27.679C30.7828 27.3157 31.1349 26.7104 31.8391 25.4999C32.5434 24.2893 32.8955 23.6841 32.974 23.0924C33.0786 22.3036 32.8632 21.5058 32.3752 20.8746C32.1524 20.5864 31.8393 20.3442 31.3534 20.0412C30.6391 19.5958 30.1795 18.837 30.1796 17.9999C30.1796 17.1628 30.6392 16.4041 31.3534 15.9588C31.8394 15.6557 32.1525 15.4135 32.3753 15.1253C32.8634 14.4941 33.0788 13.6963 32.9741 12.9075C32.8956 12.3158 32.5435 11.7106 31.8393 10.5C31.1351 9.28945 30.7829 8.68417 30.3059 8.3209C29.6699 7.83654 28.866 7.62277 28.0712 7.72663C27.7083 7.77403 27.3404 7.92204 26.833 8.1882C26.0872 8.57939 25.1953 8.59503 24.4648 8.17644C23.7343 7.75786 23.302 6.98349 23.2705 6.14691C23.249 5.57772 23.1942 5.1875 23.0542 4.85195C22.7474 4.11687 22.1589 3.53284 21.4182 3.22836ZM18.75 22.5C21.2542 22.5 23.2843 20.4853 23.2843 18C23.2843 15.5147 21.2542 13.5 18.75 13.5C16.2458 13.5 14.2157 15.5147 14.2157 18C14.2157 20.4853 16.2458 22.5 18.75 22.5Z" fill="currentColor" />

    </symbol>
    <symbol id="circle-plus" width="100%" height="100%" viewBox="0 0 16 16" fill="none">
      <path fill-rule="evenodd" clip-rule="evenodd" d="M8.00004 14.6666C11.6819 14.6666 14.6667 11.6818 14.6667 7.99992C14.6667 4.31802 11.6819 1.33325 8.00004 1.33325C4.31814 1.33325 1.33337 4.31802 1.33337 7.99992C1.33337 11.6818 4.31814 14.6666 8.00004 14.6666ZM8.50004 5.99992C8.50004 5.72378 8.27618 5.49992 8.00004 5.49992C7.7239 5.49992 7.50004 5.72378 7.50004 5.99992L7.50004 7.49993H6.00004C5.7239 7.49993 5.50004 7.72379 5.50004 7.99993C5.50004 8.27608 5.7239 8.49993 6.00004 8.49993H7.50004V9.99992C7.50004 10.2761 7.7239 10.4999 8.00004 10.4999C8.27618 10.4999 8.50004 10.2761 8.50004 9.99992L8.50004 8.49993H10C10.2762 8.49993 10.5 8.27608 10.5 7.99993C10.5 7.72379 10.2762 7.49993 10 7.49993H8.50004V5.99992Z" fill="currentColor" />
    </symbol>

    <!--  -->
    <!--  -->
    <!--  -->
  </defs>
</svg>