<svg width="375" height="353" viewBox="0 0 375 353" fill="none" xmlns="http://www.w3.org/2000/svg">
  <path fill-rule="evenodd" clip-rule="evenodd" d="m576 73.5-.8 1.5 1.3 1 1.8-.7-.4-2-2 .2Z" fill="url(#a)"/>
  <path fill-rule="evenodd" clip-rule="evenodd" d="m432.8 100.1 2.5 2.3 1.4-1.7.5-1.5-1.3-1-1.8-.4-1.3 2.3Z" fill="url(#b)"/>
  <path fill-rule="evenodd" clip-rule="evenodd" d="m427 105.4.8 1.1 3.1-1.4-.5-1.7-1.8-.3-1.2 1.4-.4 1Z" fill="url(#c)"/>
  <path fill-rule="evenodd" clip-rule="evenodd" d="m495.2 86.6 4.4 1v2l-1.8.4-2-1.4-.6-2Z" fill="url(#d)"/>
  <path fill-rule="evenodd" clip-rule="evenodd" d="m507.7 80.9.4 3.4 1.8.2.7-3L509 80l-1.2 1Z" fill="url(#e)"/>
  <path fill-rule="evenodd" clip-rule="evenodd" d="M511.4 84.1 511 88l4.7-.4 4.5-1.6-1.1-3.3-2.8-.6-2.1-.7-1.8 2-1 .8Z" fill="url(#f)"/>
  <path fill-rule="evenodd" clip-rule="evenodd" d="m515.1 63 1.1 2.9 8.7 1 3-4.1-1.3-3.5-2 1.7-3.6-.7-1.1 1.5-2-.2-.4 1.8-2.4-.4Z" fill="url(#g)"/>
  <path fill-rule="evenodd" clip-rule="evenodd" d="m513.2 49-.8 2 1.7.5.9-1.6-1.8-.9Z" fill="url(#h)"/>
  <path fill-rule="evenodd" clip-rule="evenodd" d="m506.7 66.2 1.7 3 3.7 1.2.5-4-1-2.2-4.4-.7-2.5 1.3-3.6-1-.5 2.3 2 2.3-1.4 1.1-3.1-3H494l-.6 3v3.3L495 75l.5 2.6L499 79h3.6v-3.4l2.5.5 2.3-2.8 2.3.7 1.7-1.5L510 71l-3.3-1.2-2.4-3.3 2.3-.3Z" fill="url(#i)"/>
  <path fill-rule="evenodd" clip-rule="evenodd" d="m488.8 72 .3 2.5 2 2.8 1.6-.4-1.4-3.2-2.5-1.7Z" fill="url(#j)"/>
  <path fill-rule="evenodd" clip-rule="evenodd" d="m590 77.2-1.4 2-6.7 2.7-4.2-4.6-4.5-1-7 3.4-5 4.7-2.2 5.1-3.1.6-3.5-2.1h-3.6l-2.1 2-1.5-1.5-1.7 1.4L542 88l2.9-2.3-6.2-1-3.9 2.5 1.3 6.5-3.9 2.8.5-4.8-2.4-.3-2.6 1.8-.4-2.5 4-2.7-3.9-.2-11.9 4.2 2 2.8-3.6 2.5 1 2.3 2.5-.8-.1 3.2 2.4 3.3-4.3.5-1.5 1.5 1 2.7-3.6.2-4.5-1.8-1.9 4.7-7.7-2.1-1.1 10.8-5.4-1.5-7.8-8.1 3.3-1.7-4.4-7.8-3.2-1.9-5.2 1.1-5.5-2.6-1.6 8-10.7 3.1-3.7-2.9.8-1.9-10.5-1.2-3.1 3.2-1 2.2-.3-3.4-1.8-1.9-2.5 2-3.4 1.2-.3 2 1.2 2v.1l.4 3.5 4.3 7-.5 4.4 2.3 3.1v.2h-.1L431 134l-.6 2.4v.1l-1.6 1.8-1.5 4.5v.1h-.3l-2.7-.6-5 3-1.6.6 3 5.5v.1l-.2 14.6v.1h-.1l-3.5 3 2 1.8-1.3 4 1.7 2-.3 2.9 2 1.6.2.1v.2l-1.4 2.5-3.7 3.4-.6 2.7 5.4.5 2.2 2 2.7-1.2.2-.1v.1l1.3 1.8v.2l1.6 2.8.1.2h-.2l-2.2 1-.2 2.4 2.3.4 2-1 .3-.2v.2l2 4.6-.7 5.1 2.8 2h.2v.2l-2 5.2 1.3 3.8 3.8 1.5h.2l-.1.2-3.6 6.2-1.5 8 2.7 3.3 3.4-2h.1l5 .3 2-2.7.1-.2.2.2 2.4 2.7 3.8-3.3 6.5-10.2v-.1h.1l3.7-.2 6.8 3.4v.1l1.1 4.4 4.4-1.3h.2l2.4 2 3.7 10.5 5 11.2 4-2 4.2-1h.2l2.8 2.7 1.8-1.2.1-.2.2.2 2.2 2.3 2.4-1.8h.2l5.5.7h.1l3.3 3 7-1.7h.2l2.1 2 9.9-3h.1l2.7.9 3-.8-.1-2v-.2h.1l7.7-2.8-1.3-5v-.2l2.7-2.2-.7-2.5-4.4-3.4h-.1v-.2l3-4.2-4.3-3.4-.1-.2.1-.1 2.4-2.1 1-10h.2l9.3-2.2.7-3.8v-.2h.2l5.4.3 1.5-3 .2-3.2v-.1l2.8-.9-1.3-6.6-3.3-2.7h-.1l3.2-7.7-2.4-8.5v-.2l2.2-2h.2l6 2.7 4.1-.4 1.7-2.2h.2l4.8-.2 1.1-2.8-6.3-16.2v-.1l1.2-3.7v-.1h.1l5.7-3-1.6-3.8v-.2l5.7-4H591.3l3-2.5 1-4.7-2.8-2.8v-.1l.1-3.2-1.6-2.9v-.2l2.5-1.8-2.1-3-.1-.1 6.6-4.6 2.9-.8 2.2-2.5-3-7.7-4.7-.5-3.5-2h-.1l-1.5-4.9v-.2l8.4-7.4.5-4-9.1-8Z" fill="url(#k)"/>
  <path fill-rule="evenodd" clip-rule="evenodd" d="m607.3 24.6 4.4 6 1.2-.8 2-6.3 2-2.8-1.6-2.5h-4.6l-3 3.4-.4 3Z" fill="url(#l)"/>
  <path fill-rule="evenodd" clip-rule="evenodd" d="m678.1 88.3.2-11.9-3.3-2.2 8.7-4.4-.7-3.7-15.1-2.8-2.1 2.1-4.2-.1-.8 3-3.3-.6.4-4.2 4-.8 1.8-2.8v-7.7l-1.5-.7-2 .9.3-2.8-3.7.9-2.2-2.9 1.4-4 2.7 2.7 1.9-1.1 2.2 2.9 1.9-3.1v-4l3-1.8 4.8 1 8.7-5-1.7-2.3 4 1 .2-3.7-4.4.3-1-2.8-5.8-1.7 2.6-2.4-2.8-2.4 3-1.5-3-4.6-10.4 4.4-1 4.3-3 3 6.3 3.2-3.8 1-10.3-3.7-13.1 6.3-19.5 7.5-5.7 7 .2 2.4-3.4.5-5.2 3.5 3 4.2 3-.5 4.3 2.8-1 4.2h-4.1l-3 1.2-5.4-4-.8 7-6.4 3.5-2.8 4 9.2 8h.1l-.4 4.5h-.1l-8.3 7.4 1.3 4.7 3.5 1.8 4.9.5v.2l1.5 3.8 3 .8h.2v.1l1.6 3.5 4.4-1.4h.2l3.7 1.6 3.2-2.2h.1l4.7.1 3.7-3-.2-3.2v-.2h.1l3.6-.7 1.2-3h3.2l1.1-2.5v-.1h.2l5.5-.7 1.6-2.2h.2l8.1.4h.2v.1l1.4 5 5.7-1 6.2.8 6.3-12.8.1-.2.2.2 2.8 1.7 4-.6Z" fill="url(#m)"/>
  <path fill-rule="evenodd" clip-rule="evenodd" d="m678.1 88.3.2-11.9-3.3-2.2 8.7-4.4-.7-3.7-15.1-2.8-2.1 2.1-4.2-.1-.8 3-3.3-.6.4-4.2 4-.8 1.8-2.8v-7.7l-1.5-.7-2 .9.3-2.8-3.7.9-2.2-2.9 1.4-4 2.7 2.7 1.9-1.1 2.2 2.9 1.9-3.1v-4l3-1.8 4.8 1 8.7-5-1.7-2.3 4 1 .2-3.7-4.4.3-1-2.8-5.8-1.7 2.6-2.4-2.8-2.4 3-1.5-3-4.6-10.4 4.4-1 4.3-3 3 6.3 3.2-3.8 1-10.3-3.7-13.1 6.3-19.5 7.5-5.7 7 .2 2.4-3.4.5-5.2 3.5 3 4.2 3-.5 4.3 2.8-1 4.2h-4.1l-3 1.2-5.4-4-.8 7-6.4 3.5-2.8 4 9.2 8h.1l-.4 4.5h-.1l-8.3 7.4 1.3 4.7 3.5 1.8 4.9.5v.2l1.5 3.8 3 .8h.2v.1l1.6 3.5 4.4-1.4h.2l3.7 1.6 3.2-2.2h.1l4.7.1 3.7-3-.2-3.2v-.2h.1l3.6-.7 1.2-3h3.2l1.1-2.5v-.1h.2l5.5-.7 1.6-2.2h.2l8.1.4h.2v.1l1.4 5 5.7-1 6.2.8 6.3-12.8.1-.2.2.2 2.8 1.7 4-.6Z" fill="url(#n)"/>
  <path fill-rule="evenodd" clip-rule="evenodd" d="m709.6 151.6 1.6 1.8 3.8-2.3-1.5-.5-3.9 1Z" fill="url(#o)"/>
  <path fill-rule="evenodd" clip-rule="evenodd" d="m687 220.9.2 1.3 1.7 1.2 1-1.9-.8-1.6-2 1Z" fill="url(#p)"/>
  <path fill-rule="evenodd" clip-rule="evenodd" d="m692.8 219-.4 1.2 1.9 1 1-1-1.6-1.8-.9.6Z" fill="url(#q)"/>
  <path fill-rule="evenodd" clip-rule="evenodd" d="m691.4 221.6-1 4.9 1.8 2.7 2-.6.1-5-1.3-1.5-1.6-.5Z" fill="url(#r)"/>
  <path fill-rule="evenodd" clip-rule="evenodd" d="m693.2 233-.5 1.8.7 1.9 2.6-.8.5-1.2-3.3-1.8Z" fill="url(#s)"/>
  <path fill-rule="evenodd" clip-rule="evenodd" d="m694.8 247.9-1 1.5 1.1 2 1.8-1.3-.8-2-1-.2Z" fill="url(#t)"/>
  <path fill-rule="evenodd" clip-rule="evenodd" d="m694 257.1.8 1.6 1.3-.3.6-2.3-1.7-.5-1 1.5Z" fill="url(#u)"/>
  <path fill-rule="evenodd" clip-rule="evenodd" d="m694.7 261-1.5 1.2.8 2.9 3.3-.5-.8-3-1.8-.6Z" fill="url(#v)"/>
  <path fill-rule="evenodd" clip-rule="evenodd" d="m691.4 272.1-1.8 1.3-.5 6.5v1.5l1.6.2 1.8-3.6v-3.7l-1-2.2Z" fill="url(#w)"/>
  <path fill-rule="evenodd" clip-rule="evenodd" d="m685.3 284 1.7.2.3 2.1-1.4 1.7-1.9 2-.4 2.3-.7 2.9-.6 2.2-.7-.4-.2-4 .3-4.8 2.3-1.8 1.3-.8v-1.7Z" fill="url(#x)"/>
  <path fill-rule="evenodd" clip-rule="evenodd" d="m676.5 309 .9-.3.9-5.6 1.1-1 .4-1.4-1-.8-1.8.6-1 .5.6 2.6-.7 3.1.6 2.2Z" fill="url(#y)"/>
  <path fill-rule="evenodd" clip-rule="evenodd" d="m683.4 304 .4 1.2 1.8-.3-.2-1.8-.8-1.3-1 .8-.2 1.4Z" fill="url(#z)"/>
  <path fill-rule="evenodd" clip-rule="evenodd" d="m668.3 135.9-1.8 3.6 4.6 6 1.5-7.7-2.6-1.5-1.7-.4Z" fill="url(#A)"/>
  <path fill-rule="evenodd" clip-rule="evenodd" d="m700.5 153.6 1.1 2 5 1.3 2.2-.8-1-2.1-3.7-.8-3.6.4Z" fill="url(#B)"/>
  <path fill-rule="evenodd" clip-rule="evenodd" d="m603.2 186.3 3.3-1.5 2.2-1.5 3-.3-.4-5.6 5.2-1 4.3-2.8 3.6.3-3 3.3 2.3 2.3 4-3.5 1.7-6 3.4-1 3-2.9-2.5-2.2-2.8 2.5-2.3-2.5.5-11.2-1.5-6.8 1.2-4.8 4.9-5.3 2.4.2 1.5-3.2 4.3 7 3.5-.2.5-2.4-.3-5-.5-3.5-3.1-2-.1-.1v-.1l-.3-3.2-2-2-3.5-.2h-.1v-.1l-1.6-5.3-3-.9-4.1-7-3.7 2.9h-.1l-4.7-.1-3.2 2.2h-.2l-3.8-1.6-4.5 1.4-.2.1v-.2l-1.8-3.6-2.6-.6 1.4 3.7-2.5 2.7-2.9.8-6.2 4.4 2.2 3.1-.1.1-2.5 1.8 1.5 2.8-.1 3.1 2.7 2.9v.1l-1 5-3 2.6h-4.8l-5.4 3.9 1.6 3.8v.2l-5.9 3-1.1 3.6 6.2 16 3.8-1.8h.2l8 3.4v.1l.5 4.4v.1l-2.3 3.1 1.1 3 3.5-2 4.4.4v.1l1.8 3.6Z" fill="url(#C)"/>
  <path fill-rule="evenodd" clip-rule="evenodd" d="m603.2 186.3 3.3-1.5 2.2-1.5 3-.3-.4-5.6 5.2-1 4.3-2.8 3.6.3-3 3.3 2.3 2.3 4-3.5 1.7-6 3.4-1 3-2.9-2.5-2.2-2.8 2.5-2.3-2.5.5-11.2-1.5-6.8 1.2-4.8 4.9-5.3 2.4.2 1.5-3.2 4.3 7 3.5-.2.5-2.4-.3-5-.5-3.5-3.1-2-.1-.1v-.1l-.3-3.2-2-2-3.5-.2h-.1v-.1l-1.6-5.3-3-.9-4.1-7-3.7 2.9h-.1l-4.7-.1-3.2 2.2h-.2l-3.8-1.6-4.5 1.4-.2.1v-.2l-1.8-3.6-2.6-.6 1.4 3.7-2.5 2.7-2.9.8-6.2 4.4 2.2 3.1-.1.1-2.5 1.8 1.5 2.8-.1 3.1 2.7 2.9v.1l-1 5-3 2.6h-4.8l-5.4 3.9 1.6 3.8v.2l-5.9 3-1.1 3.6 6.2 16 3.8-1.8h.2l8 3.4v.1l.5 4.4v.1l-2.3 3.1 1.1 3 3.5-2 4.4.4v.1l1.8 3.6Z" fill="url(#D)"/>
  <path fill-rule="evenodd" clip-rule="evenodd" d="m595.7 318-1.8 12.5 2 4.2-9.5-.3-3.8 6 7.8 9.4v3.2l5.2-3.8 8.3 1 6.5-4 4.3-6.3 3.6-18.1 3.5-9.4-.4-11.4-2.3-.9h-.2v-.2l-.3-2.7-3.6-3-4.8 2.6 2.4 2.9 4.1.8h.2v.2l-1.6 6v.2h-.2l-3-.2v4l-4.6 2.3h-.1l-7-.3-2 2 1 2.7.1.2h-.2l-3.6.4Z" fill="url(#E)"/>
  <path fill-rule="evenodd" clip-rule="evenodd" d="m593.2 304 2.6 5-1.5 3.3 1.3 5.3 3.3-.4-1-2.5v-.2l2.2-2.2h.2l7 .3 4.4-2.1v-4.3h.2l3 .2 1.5-5.6-4-.7h-.1l-2.6-3.3-.1-.2h.2l5-2.9H615.2l3.9 3.2v.2l.3 2.7 2 .8 2.5-12.7-1.1-4.1-5.3-13.5-2-2.7-1-9.2-1-3-.4-.6-4.8-2.5-1.5-2.1 1.8-2.7-3.6-1.7-7.6-2.2-6.3 2.3-3 8.3-2.1-3.3-3.3 3.2-1.7-6.8-5.4 2.3-4.2-1 .6-3.8 7-12.4 2.7-12.8 2.3-6.1-.9-5.3 2.4-4.5-.3-5 12.7-9.5 3.7 1 .4-1.2-.8-1.6 1.7-.9-1.7-3.5-4-.4-3.8 2.1v-.2l-1.4-3.3v-.1l2.3-3.2-.4-4.1-7.7-3.3-3.9 1.9-1.2 2.9h-.2l-4.8.2-1.7 2.2h-.1l-4.3.5-6-2.7-2 1.8 2.4 8.4v.1l-3 7.5 3.2 2.7 1.3 7-.1.1-2.7.9-.2 3.1-1.6 3.2v.1h-.2l-5.3-.2-.7 3.7-.2.1-9.2 2.3-1 9.8h-.1l-2.3 2 4.2 3.4.2.1-3 4.3 4.2 3.3.9 2.8v.1l-2.8 2.3 1.3 4.8 7.6-2.8h.1l.1.1 2.2 2.7v.2l-4.3 6.8v3.7h-.1l-2.8 1.2-.2 2.9 6.1.6v.1l2.4 4.1 3 .1 5.3-3.6 1-3 .1-.2 3.8.4 1.4-2v-.1h.2l2.6.7.1.1 1.7 7.1v.2h-.1l-1.7 1.4h-.1l-6 .3 1.1 3v.2l-2.6 2.2-1 3v.1l-3.9 3.5 1.3 1.8.1.2-2.7 2.8-.4 3.5 6 3.6 4.3 7 3.5-2.4h.1l6.7.8h.1l2.8 2.6 9.7-2-.2.4-1.3 3.5Z" fill="url(#F)"/>
  <path fill-rule="evenodd" clip-rule="evenodd" d="m567.1 307.2 3 5.4 3.3 3.4 8.2-2.7 1.4-3 6.5-5.4 3.3-1 1.2-3.2-9 1.9h-.2l-2.8-2.7-6.5-.8-3.6 2.5-4.8 5.6Z" fill="url(#G)"/>
  <path fill-rule="evenodd" clip-rule="evenodd" d="m506.4 281.3 8.3-3 5.8 2.7 7.3-.3 9.6 10.9 11.8 14.1 5.4-1.4 3 1.8 2.5-.9 4.2 1.8h2.4l4.8-5.5-4.3-7.1-6-3.6-.2-.1.5-4 2.6-2.6-1.3-1.9-.1-.1.1-.1 4-3.5.9-3v-.1l2.6-2.1-1.2-3.2-.1-.3h.3l6.1-.3 1.6-1.2-1.6-6.9-2.2-.6-1.4 2v.1l-3.8-.4-1 3h-.1l-5.4 3.8h-.1l-3.3-.1h-.1v-.1l-2.4-4.1-6.2-.7v-.2l.1-3.1v-.2h.2l2.8-1.2v-3.5l4.2-6.8-2-2.4-15.3 5.6.2 2v.3h-.2l-3.3.8-2.7-.9-10 3.1h-.2l-2-2-7.1 1.6h-.2l-3.3-3-5.4-.7-2.5 1.9-.2.1-.1-.1-2.2-2.4-1.8 1.2H498l-2.8-2.7-4 1-4 2 4.4 3.4.2.1-.2.2-1.6 1.6 2 2.3 4.2-1.6.1-.1.1.2 1.6 3.3 3-.3h.3v.2l-.1 5.6 3 2v.2l-2 2.1 4.1 7.4Z" fill="url(#H)"/>
  <path fill-rule="evenodd" clip-rule="evenodd" d="m506.4 281.3 8.3-3 5.8 2.7 7.3-.3 9.6 10.9 11.8 14.1 5.4-1.4 3 1.8 2.5-.9 4.2 1.8h2.4l4.8-5.5-4.3-7.1-6-3.6-.2-.1.5-4 2.6-2.6-1.3-1.9-.1-.1.1-.1 4-3.5.9-3v-.1l2.6-2.1-1.2-3.2-.1-.3h.3l6.1-.3 1.6-1.2-1.6-6.9-2.2-.6-1.4 2v.1l-3.8-.4-1 3h-.1l-5.4 3.8h-.1l-3.3-.1h-.1v-.1l-2.4-4.1-6.2-.7v-.2l.1-3.1v-.2h.2l2.8-1.2v-3.5l4.2-6.8-2-2.4-15.3 5.6.2 2v.3h-.2l-3.3.8-2.7-.9-10 3.1h-.2l-2-2-7.1 1.6h-.2l-3.3-3-5.4-.7-2.5 1.9-.2.1-.1-.1-2.2-2.4-1.8 1.2H498l-2.8-2.7-4 1-4 2 4.4 3.4.2.1-.2.2-1.6 1.6 2 2.3 4.2-1.6.1-.1.1.2 1.6 3.3 3-.3h.3v.2l-.1 5.6 3 2v.2l-2 2.1 4.1 7.4Z" fill="url(#I)"/>
  <path fill-rule="evenodd" clip-rule="evenodd" d="m613.4 255.3-.1-.4 6.4 4.2 1.6 5.6 3 4.4 3.3 6.5 2.5 4.7 3 2.7.8 3 .7 2.5 4 2.3v4l3.8 5.5.8-4.4-.2-3.4 3.4.1 1.3-.4 3 1.8-2-5.2-3.8-.4-3.7-2-4.2-3.5-2.1-7.2-1.2-4.6 3.7-1.5 6.5.4-13.6-10.8-9.3-9.7-3.9-8.8-6-4.9-2.6-3.9-2.2.7-.7 2 3.6 2.9 1.7 3.1-1.3 1.3-1.8-.6-.8 2.4 3.4 3 2.9 8.2-.3-.1.4.5Z" fill="url(#J)"/>
  <path fill-rule="evenodd" clip-rule="evenodd" d="m67.2 149.4.7 1.8-.5 4L70 157l2 1.5 2.1-1 .1-.1 3 .5 3.3-1.5.6-2.2v-.2h.3l3.4.9 2-.4h.1v.1l1.2 2.8 3 1.3.7-.5.6-3.2-1.9-1.6v-2.2l-1.1-1.3-2-1.6.1-.1.6-3.2-3.6-3.2-.2-2.3-1.4-.8-.1-.1.1-1.5-.4-1-2.2-.4-.5.8v.1H78.6l-.6-.8h-1l-1.5 1-.3 2.3-1 1.1.7.6v1.5h-.2l-1.6-.3-.7 1 .2 2.2h-.1l-5.4 4.2Z" fill="url(#K)"/>
  <path fill-rule="evenodd" clip-rule="evenodd" d="m62 126.8-2 1.8-.9 1 .2 1.7 1.7 1-.5 2.4 4 3-.3 4.8L67 149l5.2-4-.2-2v-.1l1-1.3h.1l1.5.2v-.8l-.7-.6-.2-.2L75 139l.3-2.3-2.9-3.3-3-1h-.1l-2.1-1.7H67l-.4-2-1.1-.2-1.3.5H64l-2.2-2.2Z" fill="url(#L)"/>
  <path fill-rule="evenodd" clip-rule="evenodd" d="m66 116.6-2 .6-1 1.6-1.4.2-.4 2.1 1.9 1.3-1 4 2.2 2.1 1.1-.4 1.6.4.4 2 2 1.5 3.1 1h.1l2.8 3.4 1.6-1v-.1l1.3.1v.1l.6.8h.7l.4-.8-1.2-2v-1.8l-1.5-.6v-.2l-.4-1 .1-1.5-.6-1 .3-3.2-4.4-6.7-6.2-.9Z" fill="url(#M)"/>
  <path fill-rule="evenodd" clip-rule="evenodd" d="m74.7 103-3.1-.6-2.1-2.3.4-2-2.1-.6-1.6 2.8-5 3.1.1 2.5 2.4.1 1.7 1.6.4 3.1H68l2.4.7-.2 1.5-3.4 3.4 5.7.8L80 113l-.4-1v-1.2h.1l1-.8 1.3-.5v-1l-1.5-.2-.8.5h-.2l-1.3-.8v-.1l-.7-1.5V105l.1-.1.9-1.1-3.4-.6H75l-.3-.3Z" fill="url(#N)"/>
  <path fill-rule="evenodd" clip-rule="evenodd" d="m86.7 85.7-.6.8-4 1.7-2.3 2.7-2.5 3.8-.6 3.2.4 2-1.7 1.5-.2 1.4 3.6.6 1.6-.4 3 .3 1.6-1.2h.2l2.1.3h.2v.2l.6 3 .8-.4h.1l1.6.4h.1l.7 1.2h4.1l2.7-1.2 3-3.3.3-1-1.7-2.3v-2l-4.6-1.3H95l-2-1.8H93l-2.5-5.6-.7-2.2-.8-.5-1.9.2-.4-.1Z" fill="url(#O)"/>
  <path fill-rule="evenodd" clip-rule="evenodd" d="M72.8 117.4 77 124l-.3 3.2.6 1-.1 1.6.3.8 1.5.6 2.3.4.8-1.1h.1l4.8-3 .8-3.3-1.8-1.8v-.1l-.8-2v-.1l.5-3.5-5.5-3.5-7.5 4Z" fill="url(#P)"/>
  <path fill-rule="evenodd" clip-rule="evenodd" d="m87.2 128-4.6 2.8-1 1.2v.1h-.1l-2.3-.3v1.6l1.2 2 2.3.3h.2v.1l.6 1.2-.2 1.4 1.4.8h.1v.1l.2 2.2 3.4 3.2 2-.6.6-1-.1-1.8-.5-1v-.2l1-1.3h.1l3.4-1.1 2-1.4.3-2-.3-1.4-1.6-1.4v-.1l-.4-1.5-1.6-.3-2.7.8h-.1l-1.9-.4-1.4-2Z" fill="url(#Q)"/>
  <path fill-rule="evenodd" clip-rule="evenodd" d="M97.4 136v.4L95 138l-3.4 1.1-.8 1 .4 1.1.1 2-.7 1.2h-.1l-2 .7-.5 3 1.7 1.5 1.2 1.3v2.2l1.8 1.6 2.8-.1 6-2.2.8-.8.5-4.4 1-3 2.7-2.6-1.7-2.3-1.3.6-1.1.2h-.2l-1.5-1v-.1l-1.2-2.6-2.2-.3Z" fill="url(#R)"/>
  <path fill-rule="evenodd" clip-rule="evenodd" d="M97.4 136v.4L95 138l-3.4 1.1-.8 1 .4 1.1.1 2-.7 1.2h-.1l-2 .7-.5 3 1.7 1.5 1.2 1.3v2.2l1.8 1.6 2.8-.1 6-2.2.8-.8.5-4.4 1-3 2.7-2.6-1.7-2.3-1.3.6-1.1.2h-.2l-1.5-1v-.1l-1.2-2.6-2.2-.3Z" fill="url(#S)"/>
  <path fill-rule="evenodd" clip-rule="evenodd" d="m86.2 116.8-.4 3.4.7 2 1.8 2v.1l-.8 3.4 1.4 2 1.6.3 2.7-.8 1.7.3.2-.9 1.4-1.4L99 125l.2-1.5 1.6-1.2v-2.7l-1.6-1.2-.6-1.5-3.6-.2-.9.8-.1.1h-.2l-2.9-2.1-.8-.4-3.9 1.6Z" fill="url(#T)"/>
  <path fill-rule="evenodd" clip-rule="evenodd" d="m86.2 116.8-.4 3.4.7 2 1.8 2v.1l-.8 3.4 1.4 2 1.6.3 2.7-.8 1.7.3.2-.9 1.4-1.4L99 125l.2-1.5 1.6-1.2v-2.7l-1.6-1.2-.6-1.5-3.6-.2-.9.8-.1.1h-.2l-2.9-2.1-.8-.4-3.9 1.6Z" fill="url(#U)"/>
  <path fill-rule="evenodd" clip-rule="evenodd" d="m99.3 125.4-2.5 2-1.3 1.4-.2 1 .4 1.4 1.6 1.5.3 1.5v.1l-.1 1.4 2.3.3h.1v.2l1.3 2.6 1.3.9 1-.2 1.3-.6H105.1l2 2.6 1.4.6 1.3.1 4.8-3.2 2.6-1.3-.4-1.5-.7-2.4-3.8-7.6-2.7-.4-1 .7H108.2l-1-.8-1-.8-.6.3h-.1l-2 .3h-.1l-1-.6-.9.6h-.1l-2.2-.1Z" fill="url(#V)"/>
  <path fill-rule="evenodd" clip-rule="evenodd" d="m98.6 116.6.8-.7 1.2-1.3.3-3.4-1.5-1-1.2-2v-.1l-.1-2-2.4 1.1H91v-.1l-.7-1.1-1.4-.4-1 .4-.3.1v-.2l-.6-3.1-1.9-.3-1.7 1.2-3-.3-1.5.4-1 1.3v1.2l.5 1.4 1 .7.8-.5h.2l1.8.3v.2l.1 1.2v.1h-.1l-1.4.7-.8.6-.1 1 .5 1 5.5 3.5 4-1.7h.2l1 .4 2.7 2 1-.8 3.7.2Z" fill="url(#W)"/>
  <path fill-rule="evenodd" clip-rule="evenodd" d="m98.5 105.9.1 2 1 2 1.7 1v.1l-.3 3.7-1.3 1.4-.7.7.5 1.5 1.6 1.1.1.1v3l-1.6 1.3-.1 1.2 2 .1.8-.6h.2l1.1.6 1.9-.2.7-.5h.2l1.1 1 1 .7.9-.7 3 .4 1.2-1.4 1-1.9-.7-.6-1.1-1.7v-.1l-.7-3v-.1l1-2.1 2.6-2.4 1.6-1 .5-1.6-1.7-2.2-4.5-.5-4.6-3.5v-.2l.2-1.7-.5-.3-.6.4-4.3.1-.1.4-3.2 3.5Z" fill="url(#X)"/>
  <path fill-rule="evenodd" clip-rule="evenodd" d="m98.5 105.9.1 2 1 2 1.7 1v.1l-.3 3.7-1.3 1.4-.7.7.5 1.5 1.6 1.1.1.1v3l-1.6 1.3-.1 1.2 2 .1.8-.6h.2l1.1.6 1.9-.2.7-.5h.2l1.1 1 1 .7.9-.7 3 .4 1.2-1.4 1-1.9-.7-.6-1.1-1.7v-.1l-.7-3v-.1l1-2.1 2.6-2.4 1.6-1 .5-1.6-1.7-2.2-4.5-.5-4.6-3.5v-.2l.2-1.7-.5-.3-.6.4-4.3.1-.1.4-3.2 3.5Z" fill="url(#Y)"/>
  <path fill-rule="evenodd" clip-rule="evenodd" d="m117.3 112-1.3.8-2.6 2.3-1 2 .8 2.9 1 1.6.8.7V122.6l-1 2-1.3 1.4 3.7 7.5 3.3-1.4 4 .3 4.5-2-.6-2.5-3.7-5.5-2-1-1.5-1.9v-.2l1.4-1.4.7-1.8-1-1-2.2 1.4-.2.1v-.1l-2-2.3.2-2.2Z" fill="url(#Z)"/>
  <path fill-rule="evenodd" clip-rule="evenodd" d="m122.6 115.7.3.3v.2l-.7 2-1.3 1.2 1.3 1.6 2 1.1 3.8 5.6v.1l.7 2.5 1.4-.1 1.1-1.3H134.2v.1l1 1 1.7-.7 1-5.2-2.4-1.6h-.1V120.2l-1-1.1-2 .4-6-3.8h-3.7Z" fill="url(#aa)"/>
  <path fill-rule="evenodd" clip-rule="evenodd" d="m128.9 116.8 3.5 2.2 2-.4.2.1 1.2 1.3V122.3l2.5 1.6-1.1 5.4 7.6.8 1-.4 2.6.3h.2v.1l.5 2 2 1 1.6 1.8 3-2.3.2-.1 6.9.9.5-4v-.1l.1-.1 1.5-1.2-1.4-1.6-3.7.5h-.1l-5.2-3.6v-.1l-2.7-6-4.7-3.4-7.6-1.1-2.7 1.4h-.2l-3-.2-1 1.2-3.7 1.7Z" fill="url(#ab)"/>
  <path fill-rule="evenodd" clip-rule="evenodd" d="m128.9 116.8 3.5 2.2 2-.4.2.1 1.2 1.3V122.3l2.5 1.6-1.1 5.4 7.6.8 1-.4 2.6.3h.2v.1l.5 2 2 1 1.6 1.8 3-2.3.2-.1 6.9.9.5-4v-.1l.1-.1 1.5-1.2-1.4-1.6-3.7.5h-.1l-5.2-3.6v-.1l-2.7-6-4.7-3.4-7.6-1.1-2.7 1.4h-.2l-3-.2-1 1.2-3.7 1.7Z" fill="url(#ac)"/>
  <path fill-rule="evenodd" clip-rule="evenodd" d="m118.1 109.6 3.4-1-.3-1.5 1.6-5.1v-.2h.2l2.8.5 4-2.9-.1-3.9-3.5-.3v.2l-3.9-4H120l-.1-.1-2.5-2.4h-.1v-.1l-.3-2-1.9-1.6-.8.5-.5 1.7-.1.2-5.2-1h-.1l-1.6-1.6-4.8-1.8-2.5-2-1.3-1.5-1.4 1.1-1.1 3-1.8 2h-.1l-3.5.3.6 2 2.4 5.5 2 1.7 4.7 1.3h.1v.2l.1 2 1.7 2.4v.4h4l.6-.5.1-.1h.2l.8.6h.1v.2l-.3 1.7 4.4 3.3 4.5.5h.1l1.7 2.3Z" fill="url(#ad)"/>
  <path fill-rule="evenodd" clip-rule="evenodd" d="m139.2 112.4-2.6-2.8v-.2l1.5-3.6-1.8-2.6h-1.9v-.1l-4.5-3.3-3.9 2.9h-.2l-2.7-.5-1.4 4.9.3 1.6v.2h-.2l-3.6 1.1-.5 1.6v2.5l1.5 2 2.5-1.5.1.1.5.6H126.5l2 1.2 3.9-1.7 1-1.2v-.1h.2l3 .2 2.6-1.3Z" fill="url(#ae)"/>
  <path fill-rule="evenodd" clip-rule="evenodd" d="m125.8 189.1-.4 2.5 1 3.3 1.7-.2 1.3-.8 2.3 1.3-.3 1.5-.8 1.3.7 1 2.2 1 .6 3.1.6 3.9-1.3 2.2.8 2 2.8-1.1 1.1.4.7 1.7.2 2.9 1.6 1.4 2.3-1.1 2 .3 3.4 1.9-.3 1.6.7 1.4 1.8.5 1.7-1.4 1.4 1.7 2 1.4-.8 3 .3 1.8 1.8 2.4 1.7.7 1.8-.8 1.4.6.8 2 4.1 1.8 2-1.1 2.1-2.3-2.5-7-.3-.3-.6-2.3h.1l2-1.2.5-1.1-.7-2-4.4-1.7-2.2.3-1.4 2.3v.1l-3-.5v-.1l-2.3-2.6-4.6-1.5-.1-.1-.8-2v-.2l2-1.6-1-1.3v-.1l.2-1.1v-.2h.1l1.8-.3.4-2.6-2.4-.2-1.2.6-.3.2v-.3l-.1-3.2v-.2h.1l1.2-.3.3-1.9-1-1.2v-.2l.6-4.4-1.1-1.8.5-6-1-2.7v-.1l.9-2.4-1.5-1.9v.3l-1.2 2.5-.8 1.2h-.1l-5.2 2.1-1.4 2h-.2l-3.4.7h-1.8l-3.8 2.5h-.1l-5-.1-.2.1Z" fill="url(#af)"/>
  <path fill-rule="evenodd" clip-rule="evenodd" d="m125.8 189.1-.4 2.5 1 3.3 1.7-.2 1.3-.8 2.3 1.3-.3 1.5-.8 1.3.7 1 2.2 1 .6 3.1.6 3.9-1.3 2.2.8 2 2.8-1.1 1.1.4.7 1.7.2 2.9 1.6 1.4 2.3-1.1 2 .3 3.4 1.9-.3 1.6.7 1.4 1.8.5 1.7-1.4 1.4 1.7 2 1.4-.8 3 .3 1.8 1.8 2.4 1.7.7 1.8-.8 1.4.6.8 2 4.1 1.8 2-1.1 2.1-2.3-2.5-7-.3-.3-.6-2.3h.1l2-1.2.5-1.1-.7-2-4.4-1.7-2.2.3-1.4 2.3v.1l-3-.5v-.1l-2.3-2.6-4.6-1.5-.1-.1-.8-2v-.2l2-1.6-1-1.3v-.1l.2-1.1v-.2h.1l1.8-.3.4-2.6-2.4-.2-1.2.6-.3.2v-.3l-.1-3.2v-.2h.1l1.2-.3.3-1.9-1-1.2v-.2l.6-4.4-1.1-1.8.5-6-1-2.7v-.1l.9-2.4-1.5-1.9v.3l-1.2 2.5-.8 1.2h-.1l-5.2 2.1-1.4 2h-.2l-3.4.7h-1.8l-3.8 2.5h-.1l-5-.1-.2.1Z" fill="url(#ag)"/>
  <path fill-rule="evenodd" clip-rule="evenodd" d="m101.8 184.7 2 2.2-.5 2.1-.7 1.7 1 2.3 2.7-.8 1.5-2.3 1.6-1.3 3.5 1 2.2-1.3h1.4l1 1h3.5l2.7-.3 1.9-.2v-.1l.3-1.5V186l-1.6-2.6v-.1l.6-2.9-1.8-2.5v-.1l-.5-2.8v-1.5l-1.5-.7-4.7-3v-.2l.1-2.5-4.7-1.3-4.8-3.4h-.1l.2-1.7-.6-1.2-2.5-.5-.1-.1-3-5.8-5.1 1.9-3 .1-.5 3.3v.1l-1 .6v2.6l1.3 2 2.1.6h.1l3.5 4h.1l-.3 2.9-2 1.7-.3 1.7 1.4.2 1.7-.5h.3l-.2 3.2.8 1.4 2.2.7h.2v.2l-.4 5Z" fill="url(#ah)"/>
  <path fill-rule="evenodd" clip-rule="evenodd" d="M123.1 173.5v1.5l.4 2.7 1.8 2.6v.1l-.6 2.9 1.5 2.5v.1l.1 1.3-.2 1.4 4.8.2 3.8-2.5h1.9l3.4-.7 1.4-2 5.2-2 .8-1.1 1.1-2.6.4-1.2-2-3.5-1-1-1.2.6-1 .1h-.2v-.1l-1.8-2.9-.6.4-2.8 2.2-1.6.7h-.1l-1.8-.7h-.1l-2.6-2.7-1.8-1.5h-4.8l-1.3 1.5-.1.7.9.5h.1v.2l-.5 1.8-.2.1-1.3.4Z" fill="url(#ai)"/>
  <path fill-rule="evenodd" clip-rule="evenodd" d="M123.1 173.5v1.5l.4 2.7 1.8 2.6v.1l-.6 2.9 1.5 2.5v.1l.1 1.3-.2 1.4 4.8.2 3.8-2.5h1.9l3.4-.7 1.4-2 5.2-2 .8-1.1 1.1-2.6.4-1.2-2-3.5-1-1-1.2.6-1 .1h-.2v-.1l-1.8-2.9-.6.4-2.8 2.2-1.6.7h-.1l-1.8-.7h-.1l-2.6-2.7-1.8-1.5h-4.8l-1.3 1.5-.1.7.9.5h.1v.2l-.5 1.8-.2.1-1.3.4Z" fill="url(#aj)"/>
  <path fill-rule="evenodd" clip-rule="evenodd" d="m117 167-.2 2.5 4.5 3 1.6.6 1.3-.3.4-1.6-.9-.5v-.2l.1-.8v-.1l1.5-1.6h3.2v-.1h2l1.9 1.6 2.5 2.7 1.7.5 1.4-.6 2.8-2.1.7-.4-1.6-2.4-.1-.1.1-.1.9-.8v-1.9l-3.7-.6h-.1l-1.8-3.1-2.7-.4h-.1v-.2l-.8-2.4-2.6-3.5-.4.4-.8 2.4-.8.9-.1.1h-.2l-4.3-2-.4 4.5h-.1l-1 1 .6 1.6v.1l-.5 1v.1l-4 2.8Z" fill="url(#ak)"/>
  <path fill-rule="evenodd" clip-rule="evenodd" d="M109.7 142.6h-1.3v-.1l-1.4-.6-2.8 2.5-.8 2.8-.6 4.5v.1l-1 1-.6.2 3 5.6 2.5.5.1.1.7 1.4-.2 1.6 4.7 3.2 4.7 1.3 4-2.8.4-.9-.7-1.7v-.1l1.1-1 .5-4.4-1.7-.3h-.1v-.1l-1-2.6-2.7-.8-1 .7-.2.1-.1-.2-1.5-2.8v-3.1l-3-.4v-.1l-1-3.6Z" fill="url(#al)"/>
  <path fill-rule="evenodd" clip-rule="evenodd" d="m117.4 138-2.5 1.3-4.8 3.2 1 3.5 3.1.3V149.6l1.2 2.6 1-.6 3 .8h.1v.2l1 2.5 1.5.3h.3l4.5 2 .6-.7.8-2.4.7-.7 1-1.4.3-1-1.2-.8h-.1v-1.5l-.8-.5-.5.6v.1h-.2l-3.1-.2-.5 1-.2-.1-1.5-.4h-.1v-.2l-1.4-3V141.7l-3.2-3.8Z" fill="url(#am)"/>
  <path fill-rule="evenodd" clip-rule="evenodd" d="m130.6 151.2-.2 1.2-1.1 1.4 2.7 3.7.3 1 2.3-.3h3l.5-2.2.2-.1 1.6-.7 3.1-.4.6-2.3-.4-4.3-5.6-2.3-3.4.5-.6 3.2-.1.1-3 1.5Z" fill="url(#an)"/>
  <path fill-rule="evenodd" clip-rule="evenodd" d="m116.6 133.9.6 2.2.4 1.6 3.3 3.9V146l1.4 3 1.3.3.4-.7v-.1h.2l3.1.2.6-.7v-.1h.3l1 .8V150.1l1.2.8 2.8-1.5.6-3.2v-.2h.2l3.4-.5.7-4.9h.2l3 .2 1.8-1H143.4l3 2.3 3-3.3.3.1 2.8 2.4 2.2-.6 1-1-1.5-2.4-3.4-3.9-2-1v-.2l-.6-1.9-2.2-.3-1 .5h-.2l-7.8-.8-2 .7h-.2l-1-1-2.3-.1-1.2 1.2h-.1l-1.6.2-4.8 2-4-.2-3.2 1.4Z" fill="url(#ao)"/>
  <path fill-rule="evenodd" clip-rule="evenodd" d="m116.6 133.9.6 2.2.4 1.6 3.3 3.9V146l1.4 3 1.3.3.4-.7v-.1h.2l3.1.2.6-.7v-.1h.3l1 .8V150.1l1.2.8 2.8-1.5.6-3.2v-.2h.2l3.4-.5.7-4.9h.2l3 .2 1.8-1H143.4l3 2.3 3-3.3.3.1 2.8 2.4 2.2-.6 1-1-1.5-2.4-3.4-3.9-2-1v-.2l-.6-1.9-2.2-.3-1 .5h-.2l-7.8-.8-2 .7h-.2l-1-1-2.3-.1-1.2 1.2h-.1l-1.6.2-4.8 2-4-.2-3.2 1.4Z" fill="url(#ap)"/>
  <path fill-rule="evenodd" clip-rule="evenodd" d="m146.2 142.4-3-2.2-1.7 1h-.1l-2.9-.1-.6 4.4 5.7 2.5.4 4.5-.5 2.2 1.6-.4 5-.1 3.4 1.4 1 1.9 1.9-1.4.3-3.6-.6-1.8-2.1-2.7-6-1.7-1.4-1.2v-.2l-.4-2.5Z" fill="url(#aq)"/>
  <path fill-rule="evenodd" clip-rule="evenodd" d="m156.4 156.7-1.9 1.2-.2.2v-.2l-1-2-3.3-1.3-4.8.1-1.8.5h-.2l-3.2.4-1.5.6-.5 2.2v.1H134.6l-2.3.4.3.9 2.6.4h.1l1.9 3.1 4 .7V166.3l-.1.1-.9.8 1.6 2.2v.1l1.8 3h.8l1.3-.7.2-.1.1.1 1 1.1h.1l2.2 3.7v.2l-.2.5 1.7 2.3v.2l-.8 2.3 1 2.6h.5l.9-1.5 1.1-1.8.1-.1h.1l1.6.2h.1l2 1.5.6-.6-.1-2.2-1.4-1.6v-.2l.5-2.1v-.2l4.2.9 3.3-.7.6-2.4-1-.2h-.2v-.1l-.7-1v-.1l2-1v-.6l-1.4-.3h-.1v-.2l-.2-.9v-.1l1-1.4-.4-.4-3 1.1h-.1l-3.4-1h-.1l-1.2-2.3-.6-2.8.6-6Z" fill="url(#ar)"/>
  <path fill-rule="evenodd" clip-rule="evenodd" d="m156.5 164 .3 1.2 1.1 2.2 3.2 1 3-1.2h.2l.8.7h.1v.2l-1.1 1.4v.7l1.6.4h.2v.2l-.3.8v.1l-1.8 1 .5.6 1.2.3 2 .2 2.2-1.5.5-4.3v-.2h.3l1.8.3 2.2-1.8 1.5-2.8 2-1.7 2.8-5-1-.8-1.2-1.6-1.7.1h-.1l-2.1-2.2-3.5-.5-.2 1.1-.3 1.6-.1.1-2.7 1.7h-.2l-2-1-1.5-.3-2.1 5.2h-.2l-3.4.2-2 3.6Z" fill="url(#as)"/>
  <path fill-rule="evenodd" clip-rule="evenodd" d="m170 172.6-2.3 1.6-2-.2-.8 2.6-.1.1-3.5.7-3.8-.8-.5 1.8 1.3 1.6.2 2.5v.1l-.8.8-.1.2-.2-.2-2-1.5-1.5-.2-1 1.7-1 1.7H151l-.6 5.7 1 1.8h.1v.1l-.6 4.4 1 1.3v.1l-.3 2v.2l-1.3.3v2.7l1-.5h.1l2.8.2h.2l-.5 3.2v.2h-.2l-1.7.3-.2.9 1.1 1.3.1.2-2.2 1.7.8 1.7 4.5 1.5 2.3 2.7 2.5.5 1.3-2.3h.2l2.2-.4.5-1.8.5-1.8v-.2h.2l2.8-.3.5-2v-.1l2.7-3.4h.1l4-1.7h.2l1.9 1.1.9.1 1-2.2v-.1l2-.4 1.2-.6-1.3-1.6-1 .2-1.4.6h-.1l-6-2.6-1.4-1.2v-.1l-1.3-3.6v-.1l1-2 3.2-1.4 1.7.3h.1l1.1 1.8v.1l-.1 2.6 1 1 1.6-.4h.1l1.4.2h.1l.9.8 2 2.2 1-.4.9-1.3-1.2-1.8v-1.5l1.6-2.3.5-2-1-.2h-.1l-3.8-2.1-1.6-1.5-.5-2-1.7.3h-.1v-.1l-.7-1v-.1l-.1-1.7-.2-1-1.8-.6h-.1V176.5l-4.2-.7h-.2l.3-3.1-1.8-.2Z" fill="url(#at)"/>
  <path fill-rule="evenodd" clip-rule="evenodd" d="m186.7 139.8-3 1h-.2l-7.7-3.8-3 2.5-.2.2-.1-.2-1.2-1v-.1l.4-4.7-.5-1.5v-.2l7.2-6.1v-3l-1.6-2.3-2.6.1-3.9 1.9h-.1l-3.3-.5-.5 1 2 2.3.2.2-.2.1-3 2.5h-.1l-1.6 1.3-.5 4.1v.2h-.3l-7-.9-3 2.4 1.6 1.8 1.7 2.6.1.1-.1.1-1.2 1.1h-.1l-2.5.8h-.1l-2.8-2.4-2.8 3 .3 2.4 1.2 1.2 6 1.6 2.2 2.9.7 2-.3 3.7v.1l-.6 6.3.2.7 1.8-3.2v-.1h.2l3.4-.2 2.1-5.2v-.1h.2l1.8.3 1.9 1 2.5-1.5.3-1.5.2-1.3v-.2h.3l3.7.6h.1l2 2.2h2l1.2 1.6 1 .8 1.9-1.6 1.6-1.6-1.5-1.5.2-2.4h.1l6.3-1.8v-3l-3-4.8Z" fill="url(#au)"/>
  <path fill-rule="evenodd" clip-rule="evenodd" d="m326.3 93.8 1.5.3.5-1-1-1.2-1.3.3.3 1.6Z" fill="url(#av)"/>
  <path fill-rule="evenodd" clip-rule="evenodd" d="m330.6 102 1.8 1 2-.2-.6-2.8-2.5 1-.7 1Z" fill="url(#aw)"/>
  <path fill-rule="evenodd" clip-rule="evenodd" d="m334.9 103.9-2.3-.1-1.6 3.7-3.5-3.6-1.4 3.2 3.6 4.6-.1 3.6-6.7-7 .2-3.9 3.4-3.2 1.1-5.7-1.3.4-2 3.7-2.4 1.7-2.5.4-2.7 3-.8 8.6-6.5 7.7-.2 5.1 5.8.6 4.2 5.8-.6 5-3.7 3.5.7 1.8 2.5 1.7-5 .6-1-5 4.4-5.7-1.1-4.7-5.6-1.3-3.4 2.4-1 6.4-5.7 4.4-5 1.1-3.5 3-10.2-7.5.4-3 6.9 3.9 4-1 6.4-3 5-7.4-.2-4.3 8.6-14.9 1.1-2.6-.4-3.7 5-3.6 1.6-5.6-3.1-4.8h3.7l-.1-4.3-3.6-.6-.6 3 .6 1.9L314 87l-3.7 2.1-4.6 4.5-3.6 2.6-5 .6-2.7 2 2.2 3.4-3.3 4.3-3.9.7-.3 1.6 3 3.6-1.4 3 .3 2 1.1 1.8-4.6 3.2-1.2-2.2-.7-4.8-3.7-7.2-2.8 1.7 1.2 2.7v.2l-3.7 5 .8 3.8v.1l-2.3 2.8h-.1l-3.3.6-2.3 2.1h-.2l-8-.4-4.3 2.7h-.1l-2.6-.3-1 6.3v.1l-3.5 3.8 1.6 4.2 7.6 1.4 3.4 3 .1.1v.1l-.2 3.5 1.1 1.2 8.7 1.4h.1l2.4 3.5v.1l-.2 5.3 1.3 2v.1l-.5 3.5 5.9.6 4.8 5 7 3.8v.1l2.3 4.4 4.5 3.2 4.7 1 4.3-2.3.1-.1.1.1 3.3 3.6 3.7.2.1.1 2.4 4.1 1.4.3h.1l2.4 2.8 6.2-6 .8-4.1v-.1l4.2-4.3-.3-3.9-4-3.4.1-.2 1.6-5.4-2.3-3.8v-.1l1.6-7.6-3-4.6v-.2l1.8-3.7-1-3.2-.2-.2 4.9-.7 2.3-4.3-.4-5.4-4.6-1.6-3.8-5.8v-.2l1.2-3.1.1-.1 6.7-2 1-2.4-2.2-5.6v-.1l1-3.5v-.2l3-.1-2-5.5v-.5Z" fill="url(#ax)"/>
  <path fill-rule="evenodd" clip-rule="evenodd" d="m225.3 222.4 3.2.3 2.3 4.5 2 .5h.1l1-1.8 4.1-3 .9-2.4v-.1l2.6-2.1h.2l2.8.8.8-1 .7-2-.6-2-2.3-1.1h-.1v-.2l-.3-1.2v-.2l1.4-1.2.7-3.3 4.5-3.4h.2l2.2 2.4.1.2-.1.1-1.4 1.5 1.5.5h.1l3.8 3.2H259l2.9 1.8 2.8.4 4.2-2-6.5-5.7-2.7-6.6-2-5.5-1.8-.6-4-2-1.9-2-.8 1.4v.1l-3.4-.5-.9.8-2.2.8h-.1l-1.6-.5-1 .6h-.1l-2.2-.1-2.5-1.4-1.3 1.9h-.2l-3.7.3-2.7 3.6h-.2l-6.5-.8-2.2 3.3-.2 3.4v.2h-.2l-1.8.3-.8 2.7 1 3.3h.1l.4 2.2 2.6 1.1h.1l2.3 2.5V216.7l3.3 3.5v.1l.1 2Z" fill="url(#ay)"/>
  <path fill-rule="evenodd" clip-rule="evenodd" d="m194.9 215.4 6.3 2 3.5 2.6 2.4-1.3 3 2 10.6 3 4.2-1.3v-2l-3.5-3.5v-.1l.1-2.2-2.2-2.3-2.7-1.1h-.1v-.2l-.4-2.3-1.2-3.4v-.1l1-2.7-3-1.7-2.4.8h-.2l-1.7-2.5-3.9-1.7-4.6.8v1.2l-.4 4h-.1l-6.6 3.7-.4 2.1 4.4 3.1.1.1v.2l-2.2 2.8Z" fill="url(#az)"/>
  <path fill-rule="evenodd" clip-rule="evenodd" d="m168.3 223.3 1.5-1.5 4.4.2.7-3 2.1-.8 2.2.4 2.5 2.2 1.7-1.3-1.6-3.2-.6-3.1 2.4-2 2-.3 2.7 3.4 6.2 1 2-2.8-4.3-3v-.2l.4-2.3v-.1l6.7-3.7.5-3.8-.3-2.7-1.5-1.6-1 .4h-.1l-1.6-.5-6-6H188l-.6 2.1-1.6 2.3v1.3l1.2 1.8.1.1v.2l-1 1.4h-.1l-1.5.6v-.1l-2.1-2.3-.8-.7-1.3-.2-1.6.5h-.2l-1.3-1.2v-.2l.1-2.7-1-1.5-1.4-.3-3 1.3-.8 1.8 1.2 3.4 1.2 1.2 5.8 2.5 1.4-.5 1.2-.4.1.1 1.7 2-.2.2-1.3.8h-.1l-2 .4-1 2.4-1.3-.2-1.8-1-3.9 1.5-2.6 3.3-.5 2.1v.2h-.2l-2.8.3-.5 1.7-.5 1.8 4.4 1.8h.1l.8 2.1v.2l-.6 1.2v.1h-.1l-1.8 1.1.4 1.8Z" fill="url(#aA)"/>
  <path fill-rule="evenodd" clip-rule="evenodd" d="m222.6 149.9-1.4 1.7-1 1.6-4.2 4.3-6 4.5h-.1l-5 1.5-.2 2 1.2 2.9v.2l-2.3 2-.7 2.8v.1l-1.5 1.4h-.2l-4.4-.2-.9 2.6-2.2 1h-.1l-1.6-2.1-2.8 3.4h-4.3l-3.9 3.5.4 1.9 1.5 1.4 3.8 2 1.2.3 1.5-.2 6.1 6 1.4.6 1-.5H198.3l1.7 2 .1 1.2 4.7-.8h.2l4 1.8 1.6 2.4 2.3-.8h.2l3.1 1.8 1.7-.2.2-3.4 2.3-3.5v-.1h.2l6.5.9 2.6-3.5-1.4-2.5v-.1l.5-2.3 1-4-4.2-3.1v-.1l-.6-2v-.1l3-2.6-.4-2.6-.4-4.4v-.1l2.5-2.7.3-3.2-2-5.8-3.9-2.8v-.1l-.4-2.8-1-1.2Z" fill="url(#aB)"/>
  <path fill-rule="evenodd" clip-rule="evenodd" d="m222.6 149.9-1.4 1.7-1 1.6-4.2 4.3-6 4.5h-.1l-5 1.5-.2 2 1.2 2.9v.2l-2.3 2-.7 2.8v.1l-1.5 1.4h-.2l-4.4-.2-.9 2.6-2.2 1h-.1l-1.6-2.1-2.8 3.4h-4.3l-3.9 3.5.4 1.9 1.5 1.4 3.8 2 1.2.3 1.5-.2 6.1 6 1.4.6 1-.5H198.3l1.7 2 .1 1.2 4.7-.8h.2l4 1.8 1.6 2.4 2.3-.8h.2l3.1 1.8 1.7-.2.2-3.4 2.3-3.5v-.1h.2l6.5.9 2.6-3.5-1.4-2.5v-.1l.5-2.3 1-4-4.2-3.1v-.1l-.6-2v-.1l3-2.6-.4-2.6-.4-4.4v-.1l2.5-2.7.3-3.2-2-5.8-3.9-2.8v-.1l-.4-2.8-1-1.2Z" fill="url(#aC)"/>
  <path fill-rule="evenodd" clip-rule="evenodd" d="m253.7 129.3-2.5-.2-3.9 2.6h-.1l-3.3-.2h-.1l-1-1.7-5.7 3.8-1 2.7h-.1v.1l-6 4-7.2 9.1 1.2 1.4v.1l.4 2.8 3.9 2.7v.1l2 5.9-.3 3.4v.1l-2.4 2.6.4 4.4.3 2.6v.1h-.1l-2.8 2.7.5 1.7 4.2 3.2.1.1v.1l-1.1 4.1-.5 2.2 1.4 2.4 3.6-.2 1.5-2.1 2.7 1.5 2 .2 1-.7h.2l1.6.5 2-.8 1-.7v-.1h.1l3.2.5.9-1.6.1-.3.2.2 2 2.3 3.9 2 2 .6.1.1 2 5.6 2.7 6.5 6.5 5.6 4-1.6.8-2.2v-.1l2.6-1.2h.1l2.7.6 3.2-7h.1l3.7-2.2h.2l3.5 1.4 4.6 3.6 7.5 1h.1l4.8 4 6.6-2.6h.2l3 2.5h3.7l4.2-1.2 1-1.7-4.5-3 .6-5.4-2.4-2.9-1.5-.2-.1-.1-2.4-4-3.6-.4h-.1l-3.3-3.5-4.1 2.3h-.2l-4.9-1-4.6-3.3-2.3-4.5-7-3.7-4.7-5-6.2-.7v-.2l.6-3.6-1.3-2 .2-5.3-2.2-3.4-8.7-1.3h-.1l-1.3-1.4v-.1l.2-3.5-3.3-3-7.6-1.3h-.1v-.2l-1.8-4.4v-.2l3.7-3.8.8-6.2Z" fill="url(#aD)"/>
  <path fill-rule="evenodd" clip-rule="evenodd" d="m253.7 129.3-2.5-.2-3.9 2.6h-.1l-3.3-.2h-.1l-1-1.7-5.7 3.8-1 2.7h-.1v.1l-6 4-7.2 9.1 1.2 1.4v.1l.4 2.8 3.9 2.7v.1l2 5.9-.3 3.4v.1l-2.4 2.6.4 4.4.3 2.6v.1h-.1l-2.8 2.7.5 1.7 4.2 3.2.1.1v.1l-1.1 4.1-.5 2.2 1.4 2.4 3.6-.2 1.5-2.1 2.7 1.5 2 .2 1-.7h.2l1.6.5 2-.8 1-.7v-.1h.1l3.2.5.9-1.6.1-.3.2.2 2 2.3 3.9 2 2 .6.1.1 2 5.6 2.7 6.5 6.5 5.6 4-1.6.8-2.2v-.1l2.6-1.2h.1l2.7.6 3.2-7h.1l3.7-2.2h.2l3.5 1.4 4.6 3.6 7.5 1h.1l4.8 4 6.6-2.6h.2l3 2.5h3.7l4.2-1.2 1-1.7-4.5-3 .6-5.4-2.4-2.9-1.5-.2-.1-.1-2.4-4-3.6-.4h-.1l-3.3-3.5-4.1 2.3h-.2l-4.9-1-4.6-3.3-2.3-4.5-7-3.7-4.7-5-6.2-.7v-.2l.6-3.6-1.3-2 .2-5.3-2.2-3.4-8.7-1.3h-.1l-1.3-1.4v-.1l.2-3.5-3.3-3-7.6-1.3h-.1v-.2l-1.8-4.4v-.2l3.7-3.8.8-6.2Z" fill="url(#aE)"/>
  <path fill-rule="evenodd" clip-rule="evenodd" d="m108.3 67.6-1 .7-.9 1.5-.4 5v.2l-4.3.8-.4 1.8v.1h-1.5l-.5 1.2-.7.5 1.2 1.5 2.4 2 4.8 1.7 1.6 1.6 4.8 1 .5-1.7v-.1l1.1-.6H115.3l2.1 1.8v.1l.3 2 2.4 2.2 2.3.2h.1l3.4 3.4.3-1.5-.4-2-1.6-2 2-2.1v-2.6l-1.2-2.7v-.2l.5-1.7-1.3-.4h-.2v-.1l-.2-1.3-2.4-.3h-.1v-.1l-.7-1.3V76l.8-1v-1.5l-1.8-.8-.7.7h-.2l-1.3-.3-1.3-1.3H114l-1-2.2-1.4-.7-2.4.8-.3.1v-.2l-.5-2Z" fill="url(#aF)"/>
  <path fill-rule="evenodd" clip-rule="evenodd" d="m130.2 99.4 4.3 3.3 1.9.1 2 3h.2v.1l-1.5 3.5 2.5 2.9 7.6 1.1h.1l4.8 3.5 2.7 6 5 3.6 3.8-.5h.1l1.5 1.7 2.8-2.2-2.2-2.3.1-.1.7-1.3.1-.1h.2l3.3.5 3.8-1.8.2-2.3-2.3-1.4-.2-.1 1-2-2.1-1-1.6.5h-.2v-.2l-1.4-4.5-4.4-.5-.1-.1-2.6-3.4-2.5-1.9-2.3-2.5-6.7-8.8-.1-.1V92l1-4 3.2-2.7-1.8-.8h-.1l.3-3-2.3-.2-1.7 1.2v.1h-.2L144 82h-.1l-1.4-1.7-1.4-.2-2.2.5-3.7 2-2.7 4.1v.2h-.2l-3.7-.7-2.1.8-1.7 2 1.4 1.7v.1l.4 2v.1l-.3 1.8 3.6.3h.2v4.3Z" fill="url(#aG)"/>
  <path fill-rule="evenodd" clip-rule="evenodd" d="m130.2 99.4 4.3 3.3 1.9.1 2 3h.2v.1l-1.5 3.5 2.5 2.9 7.6 1.1h.1l4.8 3.5 2.7 6 5 3.6 3.8-.5h.1l1.5 1.7 2.8-2.2-2.2-2.3.1-.1.7-1.3.1-.1h.2l3.3.5 3.8-1.8.2-2.3-2.3-1.4-.2-.1 1-2-2.1-1-1.6.5h-.2v-.2l-1.4-4.5-4.4-.5-.1-.1-2.6-3.4-2.5-1.9-2.3-2.5-6.7-8.8-.1-.1V92l1-4 3.2-2.7-1.8-.8h-.1l.3-3-2.3-.2-1.7 1.2v.1h-.2L144 82h-.1l-1.4-1.7-1.4-.2-2.2.5-3.7 2-2.7 4.1v.2h-.2l-3.7-.7-2.1.8-1.7 2 1.4 1.7v.1l.4 2v.1l-.3 1.8 3.6.3h.2v4.3Z" fill="url(#aH)"/>
  <path fill-rule="evenodd" clip-rule="evenodd" d="M108.7 57.6h-2.2l-3.9 2.3-2.3 2.4-4-.6-2.9 3.5h-2.9l-.4 3-4.5 2.1-.2 3.8 1.5 2.2-2.2 2.1.3 1.9 2.7 1L88 84l-1 1.4h.1l1.9-.3h.1l1 .7 3.6-.3 1.6-1.9 1-3h.1l2.5-2 .5-1.2v-.1h1.5l.4-1.7v-.1l4.3-.8.4-5 .9-1.6 1.4-1 1.7-3.5-1.4-2.7v-.1l.1-3.2Z" fill="url(#aI)"/>
  <path fill-rule="evenodd" clip-rule="evenodd" d="m131.2 54.7-3.9-.3-4.9 1.1-.6 3.6.3 1.6-1.5 1-.8-2.6-1.8-.3-2.6-3-3.8 1.8h-2.4l-.2 3.2 1.4 2.7v.2l-1.7 3.6.4 2 2.4-.8h.2l1.4.8.1.1 1 2h2.1l1.3 1.3 1.1.3.8-.8h.1l2.1 1h.1V75.1l-.7 1 .5 1.1 2.4.3h.2v.2l.2 1.3 1.5.3h.2l-.7 2.2 1.1 2.7v2.4l2-.7h.1l3.7.6 2.6-4v-.1l3.8-2.1 2.3-.5 3.1.4 1.7-1-2.5-4-2-.5v-.1l-.6-2.9h-1.2l-.4 1.7v.2h-.3l-.9-.4-.1-.1-.6-1.2-1 .1-.3 2v.2h-.3l-1.3-.5-.7-1.6-3.6-.3h-.1v-.1l-1.3-2.2-3.6-.4-1-1.4.2-.1 6.6-6 .4-7Z" fill="url(#aJ)"/>
  <path fill-rule="evenodd" clip-rule="evenodd" d="M183.3 46.6 185 41l1.2 2-1 3.8 1.4 3.7-.2 5.7 2 3.8.3 3.6 8.4 6 5.7-.4 4.7-4.8L209 59l-1.1-7 1.2-9.6-.7-3.7-2.5-4.6v-3.4l1.3-.6 1.5 2.4 1.8-.9-1.3-3-5.7-4.6-8.7-1.7-1.8 1-4.7 2-.2 3.2-3.5 4.2-5.9-.5-2.2 2 3.8 6-1 3.2 3.4 2v.1l.5 1Z" fill="url(#aK)"/>
  <path fill-rule="evenodd" clip-rule="evenodd" d="M183.3 46.6 185 41l1.2 2-1 3.8 1.4 3.7-.2 5.7 2 3.8.3 3.6 8.4 6 5.7-.4 4.7-4.8L209 59l-1.1-7 1.2-9.6-.7-3.7-2.5-4.6v-3.4l1.3-.6 1.5 2.4 1.8-.9-1.3-3-5.7-4.6-8.7-1.7-1.8 1-4.7 2-.2 3.2-3.5 4.2-5.9-.5-2.2 2 3.8 6-1 3.2 3.4 2v.1l.5 1Z" fill="url(#aL)"/>
  <path fill-rule="evenodd" clip-rule="evenodd" d="M170.2 68V66l.4-1.5-1.2-2 1.6-2.3 4.8-4.5 3.7-.7 2.4-3.1 1.3-4.8-.7-1.5-3.5-2-.1-.1v-.2l1-3.2-3.6-5.6-5.5 5.3-2.5-.4-3.5 1.7-2.2-.4-1.2 2.1-1.2 1.7-2 1.1.8 2-1.4 1-4.2-1-1.5 3.6-1.4 5.6-2.7.7-11.1-2.6-5.1-.3-.2 3 2.8-.1h.1l3.6.8.1.1 1.3 2.1v.1l-.3 2.4-.1.1-1.4 1.2-.1 2.7-.7 2.3v.1l-2 1.2-.7 1.2.6 1.5 1 .3.2-1.9v-.1h.2l1.3-.3h.2v.2l.6 1.3.6.2.4-1.6v-.2H141l.7 3.1 1.8.5v.1l2.6 3.8.5-1 .1-3.4v-.1l1.6-2.3 5.2-4.3H153.8l2.6.9h.1l.8 1.7v.1l-.7 2.6-2.3 1.7-3.8 3.2-1.3 3 2.3.3h.2l-.3 3 1.8.8 1.5-1.3 1.8.2 1-2.9 3.6-2.8-.7-1.3-.8-1.7V75l1-2.4v-.1L164 70l.5-1.5v-.2h.2l2.1.8 1.3.4 1.8-1.5h.3Z" fill="url(#aM)"/>
  <path fill-rule="evenodd" clip-rule="evenodd" d="m216.5 95-4.8 4.6 1.2 2.3v.2l-1.1 1.6.4 2.8v.1l-.1.1-3 1.2h-.1l-3.3-2.5-3.4-.2h-.2v-.2l-.3-2.4-7.8-7-1 1.2 1.9 3.9-1 3.1v.1l-2.3 1.7.7 1.6v1.9h-.2l-3.3-.2-3 2.9-.3 2 3 1.5 1.5-1.4 3.2-.6h.2l1.6 4h-.2l-7.4 4.4-.5 2.9-2.7 1.6h-.2l-2.9-1.5-2.3 1.4-7.2 6 .5 1.6-.4 4.5 1 .9 2.9-2.5.1-.1h.1l7.9 3.8 3-.9 2-3.5v-.2h.1l5.4 1.1.1.1 3.6 4.7 4.1 2.5 6 1.3 2.6-1h.2l6.2 5.9 4 1 8.6-11.1 6-4 1.2-2.8v-.1l6-4 .2-.2 1 2 3.1.2 4-2.6 5.6.5 4.4-2.7h.1l8 .4 2.3-2 3.3-.7 2.2-2.5-.9-3.9v-.1l1.8-2.3-1.5-.4-1.1 1.3h-.1l-2-.2-2.7 1.9h-.2l-2.8-1-2.5 2.3h-.1l-6.7-.2-26.6-22.2-2.9.6-12.2-2.6Z" fill="url(#aN)"/>
  <path fill-rule="evenodd" clip-rule="evenodd" d="m176 61 .8 1 1.2-.7-.2-1.3-.8-.8-.8.9-.2.8Z" fill="url(#aO)"/>
  <path fill-rule="evenodd" clip-rule="evenodd" d="m261.4 73 1.6-.9.2-2.2-1.7-.6-.1 3.7Z" fill="url(#aP)"/>
  <path fill-rule="evenodd" clip-rule="evenodd" d="m281.7 108-1.8-4.1-5.2-6.4-4.3-.5-.9 2.3-.5 3.6-3.3 1.4-1.7-.5-1.3 1.5-2-1.9 2.8-1.9.2-2.4-8.2-1-3.7-3.2h-6.3l-1.9-3.1h3.8l2.3-3.3-4.8-1.6-2.6 2.3-1-2-12.3-4.3-1.8 1.4-1.7-1.9-7 3-3.2-3.5 1.3-2.7-.7-3 4.3-.8 3.5 3 2.2-2.7.4-5-4.5-5.8-2 5-7.4 3.4-1 3.2-3.5 2.4.6 6.6 3 5.5 3.3.8h.1l1.6 2.7 12.2 2.6 2.9-.6h.1l26.6 22.2 6.5.2 2.5-2.2h.2l2.9 1 2.7-2 1.9.2 1.1-1.3H276.4l1.7.5 1.8-2.3-1.3-2.8v-.2l3-1.9Z" fill="url(#aQ)"/>
  <path fill-rule="evenodd" clip-rule="evenodd" d="M272.7 95.7h-2.6l-1.6-3.4.8-2.9 3.3-.4.6 3.4-.5 3.3Z" fill="url(#aR)"/>
  <path fill-rule="evenodd" clip-rule="evenodd" d="m234.7 76.6 1.8 2.7 4.6.6.7-1.6v-2.5l-2.2-2.8-3.7.8-1.2 2.8Z" fill="url(#aS)"/>
  <path fill-rule="evenodd" clip-rule="evenodd" d="m269.1 83.5 2.1-9.5 1.2-3.5 3.7-3.1 4.2-.8 1.8-2-.6-2.8 2.8 2.1h2.7l.8-1.8 1.8.3.3-1.8 2 1 .7-2 1.4 1.9 1.4-1.4.7-2.2 2 1.7 1.7-1 3 .9 2.9-2.5 19.7 1.7 5-2 .9-3.1-1.8-2.5-4.9.6-1 1.6-8-1.5-3.2-3.2-3.2 1.3-3-1.5-4.2 2-3.2-.4-1.8 1-1.9-2.3-1.5 4.3-2.5-.1-.4 1.7-6.3 1.2-2-1.1-1.5 1.3 1.5 1.9-2.6 1.8-3.8-1.9-.8 2.7-2.8-.4-.4 2.1-4 1.5-2.4-1-3 1.6-.3 2.8 2.3 2.7-.3 3.6-2.7 2 1.5 4.2 2.1.4v1.8l2.4.8 1.5 1Z" fill="url(#aT)"/>
  <path fill-rule="evenodd" clip-rule="evenodd" d="m207.5 79.2-3.8 2.6-1.3-3 2.3-.2-2.3-5.4-4.5.2-4.2-1.9-5.5.2-3.7 6.7-2.1-1.4L180 70l1-5.3H176L174 69l2 2.7-2.4 2.4-3.2-2-.1-3.8h-.2l-1.9 1.7h-.1l-1.4-.5-1.9-.7-.4 1.4v.1l-3.5 2.6-.9 2.2.8 1.6.7 1.4.1.2h-.1l-3.6 2.9-1 3-2-.1-1.5 1.2-3.3 2.9-1 3.8 6.7 8.7 2.3 2.5 2.5 2 2.6 3.3 4.4.6h.1v.1l1.4 4.4 1.5-.5 2.6 1.2h.2l-1.1 2.1 2.3 1.4-.2 2.5 2.5-.1h.1l1.9 2.6v2.8l2-1.3H181.3l3 1.5 2.3-1.4.5-2.8v-.1l7.4-4.5-1.3-3.3-2.9.6-1.6 1.5h-.2l-3.2-1.8h-.2v-.2l.4-2.1v-.1l3.1-3v-.2h.2l3.2.3v-1.4l-.8-1.7v-.2l2.4-1.7 1-3-2-3.8v-.2l1.3-1.5.2-.2 8.2 7.3v.1l.3 2.4 3.3.2h.1l3.2 2.5 2.6-1.1-.4-2.7v-.1l1.2-1.6-1.3-2.3v-.2l5-4.8-1.5-2.6-3.4-.7v-.1l-3.2-5.6-.6-6.5Z" fill="url(#aU)"/>
  <path fill-rule="evenodd" clip-rule="evenodd" d="m330.5 17.6 1.3 1.4 2.1-1.3-.8-1.5-1.5.2-1.1 1.2Z" fill="url(#aV)"/>
  <path fill-rule="evenodd" clip-rule="evenodd" d="m333.5 19 1 1 2-.7.7-2-1.4-.5-2.3 2.3Z" fill="url(#aW)"/>
  <path fill-rule="evenodd" clip-rule="evenodd" d="m338.6 19.3 1.7 1.8 4-1.3-.5-2.1-2.5-1.3-2.4 1.5-.3 1.4Z" fill="url(#aX)"/>
  <path fill-rule="evenodd" clip-rule="evenodd" d="m343 16 1.6 1 1.2-1.1-1.2-1.4L343 16Z" fill="url(#aY)"/>
  <path fill-rule="evenodd" clip-rule="evenodd" d="m350.6 12.5.3 1.7 1.7-.4-.4-2-1.6.7Z" fill="url(#aZ)"/>
  <path fill-rule="evenodd" clip-rule="evenodd" d="m345.6 8 .8.9 1.3-.7-1.6-1.7-1 .6.5 1Z" fill="url(#ba)"/>
  <path fill-rule="evenodd" clip-rule="evenodd" d="m340.7 8.5.1 1.3 1.7 1.3 1.2-1.4-.8-2-2.2.8Z" fill="url(#bb)"/>
  <path fill-rule="evenodd" clip-rule="evenodd" d="m337 9.5 3.1 3.2-.7 2.4-3.2-1.4-2-2.7 2.8-1.5Z" fill="url(#bc)"/>
  <path fill-rule="evenodd" clip-rule="evenodd" d="m345.6 19.6.2 2 3.8.3 1.7-2.2-1-2.1-1.8 2-2.4-.8-.5.8Z" fill="url(#bd)"/>
  <path fill-rule="evenodd" clip-rule="evenodd" d="m334.8 22.8.9 1.4 1-1-.8-1.5-1 1Z" fill="url(#be)"/>
  <path fill-rule="evenodd" clip-rule="evenodd" d="m326.5 12.6 1.3 2.5 2-1.4-.8-2-2.5.9Z" fill="url(#bf)"/>
  <path fill-rule="evenodd" clip-rule="evenodd" d="m331 12.3.2 1.4 1-.5-.6-1.7-.6.8Z" fill="url(#bg)"/>
  <path fill-rule="evenodd" clip-rule="evenodd" d="m330.2 4.1 1 1.7 1.2-1-1.7-1.6-.5 1Z" fill="url(#bh)"/>
  <path fill-rule="evenodd" clip-rule="evenodd" d="m320 0 .3 2 1.5 1.4h2.3l1.3 1.3 1-.9-1.6-1.7-1.7.3L320 0Z" fill="url(#bi)"/>
  <path fill-rule="evenodd" clip-rule="evenodd" d="m319.9 5.2-.4 1.7 1.5 1.8 1.5 2.2.7-.9-.3-2 2.4-.2L328 9l2.1-1.6-1.5-2-1.4-.6-1.6.9h-2l-1.4.4-2.4-1Z" fill="url(#bj)"/>
  <path fill-rule="evenodd" clip-rule="evenodd" d="m322.8 12.2-.4 1.1 1.2.9.3-1.6-1-.4Z" fill="url(#bk)"/>
  <path fill-rule="evenodd" clip-rule="evenodd" d="m52.2 36.6 6 16.6 5.2-1.8 1.3-8.7-2-3.6-1.4 3.9-2.2-1.6-1.3-5.4-2.5 1.2-3.1-.6Z" fill="url(#bl)"/>
  <path fill-rule="evenodd" clip-rule="evenodd" d="M67.9 156a.4.4 0 0 0-.7.3c0 .2-.3.4-.5.4l-2.2-.3c-.6-.1-1.2.1-1.6.5l-.4.5c-.3.4-.8.6-1.3.6H61c-.6 0-1 .3-1.4.8l-1.7 2.2c-.2.3-.6.5-1 .6l-1.9.5c-.8.2-1.6-.2-2-.9l-1.2-2c-.2-.5-.6-.8-1.1-1l-4.6-1c-.5-.1-1 0-1.5.4l-.6.4c-1 .8-.9 2.2.1 3l2.6 1.7a1 1 0 1 1-1.2 1.6l-1.7-1.3a1.5 1.5 0 0 0-2.3 1.9c.2.6.7 1 1.3 1l1.4.1.1.1 2.4 3.5v.2l-1.7 2.4c-.4.6-.4 1.4 0 2l1.6 2.3v.3l-.5.7c-.2.2-.3.5-.3.7l-.2 1.4c-.1.4 0 .9.2 1.2l.2.2c.4.7 1.3.8 1.9.3l.5-.5h.3l1 .5c.7.3 1.6.1 2.2-.5v-.2h.3l1.9 1 .1.1-.2 1.6c0 .7.3 1.4 1 1.7l1 .7c.2 0 .2 0 .2.2l-.2 2c0 .4 0 .8.2 1l.2.6c.3.6 1 1 1.6 1h.8c.6 0 1.1-.3 1.5-.8l.5-.7.2-.1 3.8.4c.5 0 1-.1 1.3-.4l2.1-1.8a1.1 1.1 0 0 0-.5-2l-1.6-.3a.2.2 0 0 1-.2-.2v-1.5c0-.3 0-.7-.2-1l-1.8-2.9v-.2l1.4-3.3c.2-.5.2-1 0-1.5l-1-1.6.1-.3 3.6-1.4h.2l.6.7c.3.4.8.6 1.3.6h.6c.6 0 1.2-.2 1.5-.7l.8-1.2c.2-.3.3-.6.3-1v-3.9h.1l2.8-1.4c.6-.3 1-.9 1-1.6v-2.6c0-1-.7-1.7-1.6-1.8l-.7-.1c-.3 0-.7 0-1 .2l-1.7.8H72l-2.1-1.6-2-1.3Z" fill="url(#bm)"/>
  <path fill-rule="evenodd" clip-rule="evenodd" d="m88 190.2 4-.8.9-2.8 3.5-1.4 3.7-.4 1.3-.3.4-4.6-2.3-.6v-.1l-1-1.6.2-2.8-1.4.4h-.1l-1.6-.3h-.3v-.2l.4-2 2-1.7.2-2.5-3.4-3.8-2.1-.7-.1-.1-1.4-2V159l-3-1.4-.1-.1-1-2.7-1.8.4h-.1l-3.3-.8-.6 2.2-3.4 1.5v5.6l-3.9 1.9v4.3l-1.7 2.6v.1h-.2l-2.6-.1-.2-.1-1-1.2-3.2 1.3 1.3 2.2v.2l-1.7 4.1 2 3.2 5.5 1.2.8-1.4v-.2h.2l2 .4v.2l.4 2.8 2.2.5 2-1h.2l6.7 2v.1h.1l1.5 3.3Z" fill="url(#bn)"/>
  <path fill-rule="evenodd" clip-rule="evenodd" d="m68.6 213 3.5 1.7 9.7.8-.4-3.7 2.4-.1 2.9-9.6-1.4-2.2-2.4-.8.6-1.8 3.2-2.3-2.3-3.7 1.4-.5 1.8-.5-1.4-3-6.6-2-1.9.8 1 3.1v.1l-2 5.5 1.4 2.8v.2l-2 4.1.3 2.7v.3h-.3l-2.8-.6-1.5.4h-.2l-1-1.6-1 1 1.2 3.4v.1l-.1.1-2.2 1.3-2 .8 2.1 3.3Z" fill="url(#bo)"/>
  <path fill-rule="evenodd" clip-rule="evenodd" d="M60.5 212.5c.2.7.8 1.2 1.5 1.3l2 .2h.8l1-.3a1.8 1.8 0 0 0 1-2.7l-.7-1.3v-.2h.1l2-.8.2-.1.7-.4c.7-.4 1-1.3.8-2.1l-.7-2.1v-.2l1.4-1.2h.3l.2.4c.4.8 1.3 1.1 2 .9h.4c1.2.2 2.3-.8 2.1-2l1.7-3.4c.2-.5.2-1 0-1.6l-1-2v-.1l1.7-5c.2-.3.2-.7 0-1l-.4-1.6c-.2-.7-.7-1.1-1.3-1.3l-1.2-.3-.2-.1-.2-2a1 1 0 0 0-2-.4l-.4.7c0 .1-.2.2-.3.1l-4.6-1a.8.8 0 0 0-.4 1.7l1.9.4.1.2v1.8l-3.2 2.7s-.1.1-.2 0l-3.5-.3c-.6 0-1.2.2-1.6.7l-.5.7H56.6l-1.1-2.2.1-1.5c.1-.7-.2-1.4-.9-1.7l-1.1-.7-.1-.2.2-2a1.2 1.2 0 0 0-2-.8l-.5.6h-.3l-1.5-.7a1.3 1.3 0 0 0-1.7 2l.2.2c.3.4.9.7 1.5.7H50.3l.6 1c.2.4.5.7 1 .8l1.4.6.2.1.6 2.4.1.2 1.8 3.7v.2l-.8 2.8c-.1.4 0 .8.1 1.2l1.7 3.7.5 3.3-.4 2.4c0 .5 0 1 .4 1.4l2.7 3.2.3 1Z" fill="url(#bp)"/>
  <path fill-rule="evenodd" clip-rule="evenodd" d="m37.4 222.5-1.3 1-.1 3.3 2.7 4.7-.7 4.5-.8 2 2.5 3.7 1.5-.3 1-1.3 1.6 1 1.8.8 2.3-1 .6-5.8 2.3-8 6-4.3 1.1-5.1-.3-2.4 2.8-1.6-.5-2-3.2-3.7-1.4.8h-.1l-3.8-.5-2.2 1.3.6 1.4v.2h-.1l-2 1 2 3.3 2.5.7h.1l.6 3.3-2.2.6h-.1l-2-.4-3 4.3v.2l-.3-.2-1.7-1.7-1.4 1.1-4.8-.9Z" fill="url(#bq)"/>
  <path fill-rule="evenodd" clip-rule="evenodd" d="m37.4 222.5-1.3 1-.1 3.3 2.7 4.7-.7 4.5-.8 2 2.5 3.7 1.5-.3 1-1.3 1.6 1 1.8.8 2.3-1 .6-5.8 2.3-8 6-4.3 1.1-5.1-.3-2.4 2.8-1.6-.5-2-3.2-3.7-1.4.8h-.1l-3.8-.5-2.2 1.3.6 1.4v.2h-.1l-2 1 2 3.3 2.5.7h.1l.6 3.3-2.2.6h-.1l-2-.4-3 4.3v.2l-.3-.2-1.7-1.7-1.4 1.1-4.8-.9Z" fill="url(#br)"/>
  <path fill-rule="evenodd" clip-rule="evenodd" d="m36.8 218.4.6 2.1.2 1.7 4.5.8 1.3-1.1.2-.2.1.2 1.8 1.7 2.9-4.2v-.1h.2l2 .4 1.8-.5-.5-2.7-2.4-.6v-.1l-3-4.8-2.5-.4-1.3.4 1 5v.2h-.2l-6.7 2.2Z" fill="url(#bs)"/>
  <path fill-rule="evenodd" clip-rule="evenodd" d="M35.5 216.1v1l1.1 1 6.6-2.2-.9-4.8-1.2.3-1.4 3.1v.1l-1.8 1-2.4.5Z" fill="url(#bt)"/>
  <path fill-rule="evenodd" clip-rule="evenodd" d="m31.4 208.8-.2 3.8 4.4 2.5v.6l2.1-.4 1.7-1 1.4-3.1.1-.1 2.7-.8-1.8-1.8-1 1.3h-.2l-5-1.8-4.1.8h-.1Z" fill="url(#bu)"/>
  <path fill-rule="evenodd" clip-rule="evenodd" d="M30.6 200c-1 .5-1.2 1.8-.6 2.7l.5.5c.3.4.4.8.4 1.3l-.2 2.5.1.5.5.9 4.2-.8h.1l3.8 1.3c.7.3 1.5 0 2-.6l.6-.8c.3-.4.5-1 .3-1.5v-.1c-.2-.8-.8-1.4-1.6-1.4l-1-.2h-.2l-4-4c-.2-.4-.6-.6-1-.6l-2-.3c-.5 0-.9 0-1.2.2l-.7.4Z" fill="url(#bv)"/>
  <path fill-rule="evenodd" clip-rule="evenodd" d="M26.2 189.6A1.8 1.8 0 0 0 25 192l1 2.2c.2.3.3.7.2 1l-.1 1.5c0 .4 0 .9.4 1.3l1 1.4c.6.7 1.6.9 2.4.4l1.8-1 1.4.2c1 .1 2-.7 2-1.7l.2-1.3v-.2l.4-.1c.9-.4 1.2-1.5.9-2.3l-.7-1.5a1 1 0 0 0-1.7-.2l-.2.1-3-.6-.2-.1-.8-1.2c-.4-.7-1.1-1-1.9-.8l-1.9.4Z" fill="url(#bw)"/>
  <path fill-rule="evenodd" clip-rule="evenodd" d="M46.1 182c-.5-.8-1.6-1-2.4-.5l-.2.1c-.2.1-.3 0-.4 0l-.5-1.2a1.1 1.1 0 0 0-2.1.2l-.2.6v.1l-.3.2c-.7.5-.8 1.6-.2 2.2.1 0 .1.2 0 .2l-.7 1.1c-.4.6-.5 1.3-.1 2l.2.3-.1.3-1.8.4c-.4.1-.8.4-1 .8l-.3.3c-.3.5-.4 1.1-.1 1.7l1.8 4.3v.2l-1 .5c-.7.3-1 .8-1 1.5l-.2 1.4c0 .5.2 1 .5 1.4l3.3 3.4c.3.3.7.5 1.1.5l1.8.2c.1 0 .2 0 .2.2l.6 2.5v.1c-.6.7-.5 1.7.1 2.2l.6.6c.3.3.6.4 1 .5l2 .3.2.1.2.3a1 1 0 0 0 1.8-1l-.2-.4.1-.2 2.4-1.5h.2l3.1.5c.4 0 .8 0 1.2-.3h.1c.5-.3.8-.8.9-1.3l.3-2v-.6l-.4-2.6-.1-.5-1.9-4v-.2l.8-2.8c.1-.4 0-.9-.1-1.3l-1.5-3.1-.5-1.6c-.1-.6-.5-1-1-1.2l-1.3-.5h-.1l-.3-.6c-.4-.6-1-1-1.7-.9h-.8l-2-3Z" fill="url(#bx)"/>
  <path fill-rule="evenodd" clip-rule="evenodd" d="M21.4 164.5c0 .3-.1.5-.3.7l-.7.6c-.3.3-.4.6-.3 1l.2.8c0 .2.2.3.3.5l1.1 1c.2.1.4.4.3.7l-.3 2.1v.3l.5 4.1v.3l-.7 3.8-1.4 6.2v.7l.3.3c.2.4.7.6 1 .4l.6-.1c.4-.1.9 0 1 .4l.4.8c.2.3.6.5 1 .5l5-1.1h.2l1.3 2.1c.1.2.3.4.6.4l1.8.4c.3 0 .7 0 1-.4l1.8-2.8.6-.4.8-.2c.6-.2.9-.8.6-1.3l-.1-.2v-.2l1-1.4c.2-.4.2-.9-.1-1.2l-.7-.7v-.3l1.5-1 .3-.6.2-1h.1l1.9-.6h.3l.5 1.2c.2.5.8.7 1.3.4l.4-.3c.2-.1.3-.3.4-.6l.3-2v-.1l.4-.5c.2-.3.2-.7 0-1l-2-2.9v-.2l2-2.9c.3-.3.3-.7 0-1l-1.6-2.4a.9.9 0 0 0-.6-.4l-2-.2v-.1l-1.2-2.6a1 1 0 0 0-.1-.3l-2.6-2.7a.9.9 0 0 0-1.5.5l-.5 2.2c-.1.6-.8.9-1.3.6l-1-.6a.9.9 0 0 0-.4-.1l-3.8-.2c-.2 0-.5 0-.7.2l-.5.6a.9.9 0 0 1-1.5-.3l-1.5-4a.9.9 0 0 0-1.4-.2l-1.8 1.7c-.2.1-.2.3-.3.6v3Z" fill="url(#by)"/>
  <path fill-rule="evenodd" clip-rule="evenodd" d="m375.4 299.7 9.4 4.8 8.8 2.8 1.1 7 6.2 3.9 4.7.3 7-3 4.8 2.1 5.4.3 1.1 2.4 3 .4 1.4-3.3v-.1h.1l3.1-1.2-2.8-3.5-.1-.2.2-.1 3.3-2-.8-3.4-.1-.3 6.1.7 3.9-2.4h.1l3.2.7 6.7-6.8h4.1l1.3-1.6 3.5-1 2.8-2.6.6-3-2.4-2h-.1l.3-3.2 6.2-3.5 2.4-4 .1-.1 5.2-1.1.1-3.8-2.8-2.9-3.5-1-2-8.4-1.7-1.8v-.2l2.1-2.1V254l-2.3 2-.1.1h-.1l-1.8-.5-1.4 3.6-.1.1-9.8 1.4h-.2l-1.4-2.3-2.2-.2-2-1.3-1.4 2.4h-.1l-4.7 1h-.1l-2.3-1-.8 2.4v.1h-4.9l.2 2.2 2.6 2.5.1.2-.1.1-2.7 2.4-.9 4 1.2 3.5.3-.6 1.6-5.4v-.1l1.8-2.4h.2l2 .4h.1v.2l.2 2v.1l-1.5 4.9-.1 4.8.5 2.8-1.4 2.6-1.8 1.2-.6.9.4 1.7v.1l-1 1.6v.1l-1.8.2-.3 1.9-2.7 3.2v.1h-.1l-3.5.6-2.5 2.6v.1l-2.6-.5-1 3.5h-.1v.1l-2.1 1.8h-.1l-6.3 1.9-1 2.5h-.2l-4 .9h-.3v-.2l-.3-2.1-4-1.2h-.2v-3l-2.5-3.8-3.9-.4-7.3-6.7-2.2-3.4-4.2 2.2h-.1l-2.3-.3v.6l-1.3 1 .2 1.8v.2l-1.9 1.6 1.2 2.8Z" fill="url(#bz)"/>
  <path fill-rule="evenodd" clip-rule="evenodd" d="m375.4 299.7 9.4 4.8 8.8 2.8 1.1 7 6.2 3.9 4.7.3 7-3 4.8 2.1 5.4.3 1.1 2.4 3 .4 1.4-3.3v-.1h.1l3.1-1.2-2.8-3.5-.1-.2.2-.1 3.3-2-.8-3.4-.1-.3 6.1.7 3.9-2.4h.1l3.2.7 6.7-6.8h4.1l1.3-1.6 3.5-1 2.8-2.6.6-3-2.4-2h-.1l.3-3.2 6.2-3.5 2.4-4 .1-.1 5.2-1.1.1-3.8-2.8-2.9-3.5-1-2-8.4-1.7-1.8v-.2l2.1-2.1V254l-2.3 2-.1.1h-.1l-1.8-.5-1.4 3.6-.1.1-9.8 1.4h-.2l-1.4-2.3-2.2-.2-2-1.3-1.4 2.4h-.1l-4.7 1h-.1l-2.3-1-.8 2.4v.1h-4.9l.2 2.2 2.6 2.5.1.2-.1.1-2.7 2.4-.9 4 1.2 3.5.3-.6 1.6-5.4v-.1l1.8-2.4h.2l2 .4h.1v.2l.2 2v.1l-1.5 4.9-.1 4.8.5 2.8-1.4 2.6-1.8 1.2-.6.9.4 1.7v.1l-1 1.6v.1l-1.8.2-.3 1.9-2.7 3.2v.1h-.1l-3.5.6-2.5 2.6v.1l-2.6-.5-1 3.5h-.1v.1l-2.1 1.8h-.1l-6.3 1.9-1 2.5h-.2l-4 .9h-.3v-.2l-.3-2.1-4-1.2h-.2v-3l-2.5-3.8-3.9-.4-7.3-6.7-2.2-3.4-4.2 2.2h-.1l-2.3-.3v.6l-1.3 1 .2 1.8v.2l-1.9 1.6 1.2 2.8Z" fill="url(#bA)"/>
  <path fill-rule="evenodd" clip-rule="evenodd" d="m318 309.5 15.4-3.7 5.3.2.8 1.4 7.8 2.5.2 3.4 2.9 1.7 8.3 1.8 3.3.8 1.5 1.7 2.8-.6 2.6-1.7 2.2-3.8-2.6-3.6.9-5 1.9-.3.3-2.2 2.5.1 1-2.3-1.3-3-.1-.2h.1l1.9-1.7-.3-1.7v-.2l1.4-1-.1-1.2-3.5-.1h-.1l-8.1-6.6-.8 2.1v.2h-.2l-10.7-.3-.9 2.6-2.3.4v2l-3.1 1.4-.3 1.8v.1h-.2l-2 .3-3.8 2.3h-.1l-8-1.8h-.1l-4.7-3.8-2.3-.4-1.8 3.5h-.2l-5.8-.2v3.8l2.8 6.1v.2h-.1l-2.6 1.4.2 3.6Z" fill="url(#bB)"/>
  <path fill-rule="evenodd" clip-rule="evenodd" d="m313 288.5 2.7-.5 2-.7 3.4-2.7-.5-2 .8-2-.4-3v-.1l2.4-2.4 1.4-2.9-3-1.3h-.1v-.2l-.4-1.9v-.1l2.8-2.8-1-3.1v-.1l.8-2.3 3.6-1.2 1.7-1.3-2.7-6.6v-.1l.7-2.1-3.8 1h-.2l-4.6-2.4h-5.5l-2.3 2.2h-.2l-5.6-.6-1.6 14.2h2.3v3l2.6 3.1v.1l.7 2.6 2.5 2 .1.2-.1.2-2.3 2 1.5 1.8v.2l-1 2.8h-.1v.1l-2.2 1-.6 3.4 4.7.6h.1v.1l1.4 1.8Z" fill="url(#bC)"/>
  <path fill-rule="evenodd" clip-rule="evenodd" d="M287.1 295.1v3.8l3.5 2.3-.2 3.7 3.6 1.1 1.3 1.9 4.4-1.6.5 2.8 2.2 4 4.1.8 1.6-2.5 5.5.4 4-2.2-.2-3.8v-.2h.1l2.5-1.3-2.8-6v-3.7l-3.2 1.8H313.7l-2.3-3.6v-.2l1.3-3.8-1.3-1.8-4.6-.6h-.2l-3 .3-2.3-2-.4 1.7v.1l-2.7 3v.1h-.2l-4.2-.8-3.5.7-1.5 1.6 2 1.2v.1l.4 2.5v.2h-4.1Z" fill="url(#bD)"/>
  <path fill-rule="evenodd" clip-rule="evenodd" d="m261.4 259.9 3 25.6h3l2.3-2.7 2 1 .2 3 6 3.9 5.1-1.2 2.6 1.3 1.5 3.9h3.7l-.3-2.1-2.1-1.3-.3-.1.2-.2 1.8-1.8 3.7-.8 4.1.8 2.6-3 .4-2v-.4l.4.3 2.4 2.2 2.7-.2.6-3.7 2.2-1.1 1-2.6-1.4-2h-.1l.1-.2 2.2-2-2.3-2h-.1l-.7-2.6-2.5-3.2-.1-.1v-2.8h-2.1l-2.8 2h-.2l-4.9-1-1.6 1H293.4l-1.4-1.3-4.7 3.4-.1.2-.2-.2-3-3.4-.4-2.5-2.4-3.7-11.7 2.5h-.2l-2.3-1.3-1.2.6h-.2l-1.7-1.2-2.5 1Z" fill="url(#bE)"/>
  <path fill-rule="evenodd" clip-rule="evenodd" d="m253.8 248.4 6 .7-2.7 2.1 4.2 8.3 2.5-1 .1-.1h.1l1.7 1.3 1.2-.6h.2l2.3 1.2 11.8-2.4h.2l2.6 4 .4 2.4 2.8 3.2 4.7-3.5h.2l1.5 1.4 1.6-1h.1l4.9 1 2.7-1.8 1.7-14.4-2-.2-3 2h-.3v-.1l-1.1-1.6v-.1l.9-5.4-8.3-1.1h-.1v-.1l-1.3-2.8-4.3-.3h-.2v-.2l-.5-3-2.4-3.6-13.8-8-.5 4.6h-.1l-2.9 1.2.5 3v.3h-.3l-3.5-.7-2.9.8-1.9 2.5-.4 7.9-2.4 4Z" fill="url(#bF)"/>
  <path fill-rule="evenodd" clip-rule="evenodd" d="m233.3 227.8 1.6.7-.2 2.8-1.1 1 .5 2-2.6 2.2.3 2 4.8 1.5v2.5l2.4.4 1.8.6 1.6 2.1-2.8 1.8-.2 1.7 2.7-.4 2.2 1.4 2.1-.2 1.9-1.2 5-.4 2.5-4 .4-8 2-2.7h.2l3-.9 3.3.6-.4-2.9v-.1l3-1.3 1.2-11-1.8-2.1-.1-.2h.1l2.4-2.3V212l-4.2 2.1h-.1l-3-.4h-.1l-2.8-1.9-3.3.1-4-3.2-1.8-.6h-.3l.2-.3 1.5-1.6-1.8-2.1-4.2 3-.7 3.4-1.3 1.2.2 1 2.3 1.2.1.1.6 2.2v.1l-.7 2-1 1.2v.1h-.2l-2.8-.8-2.4 2-.9 2.4v.1l-4.2 3-.9 1.6Z" fill="url(#bG)"/>
  <path fill-rule="evenodd" clip-rule="evenodd" d="m316.8 207.8-3-2.4-6.5 2.7h-.2l-5-4.2-7.4-.9-4.7-3.6-3.4-1.4-3.5 2-3.2 7-.1.2h-.2l-2.8-.6-2.4 1.1-.6 2.2-4.3 1.8V213.6l-2.4 2.2 1.8 2v.1l-.7 6.4 14 8.1h.1l2.5 3.8.5 2.9 4.3.3.1.1 1.3 2.8 8.3 1.1h.3l-1 5.7.9 1.4 2.9-1.8 2.6.2 5.5.6 2.3-2 .1-.1 5.8-.2 4.6 2.5 4-1.1.6-3.7.1-.1 4.3-2.4.7-1.7-3.4-1.4-2.4-2.8V233.2l4.8-3.1.4-2-2.8-.7h-.2v-.2l-2.6-6.5-10.9-2.8h-.2l.4-3.2 1.7-1.6-1-5.3Z" fill="url(#bH)"/>
  <path fill-rule="evenodd" clip-rule="evenodd" d="m325.7 260.2-1.4.4-.8 2.2 1 3.1v.1l-2.8 2.9.4 1.6 3 1.4.2.1-1.6 3.3-2.3 2.3.4 3-.8 2 .6 2v.2l-3.7 2.8-2 .7h-.1l-2.7.6-1.3 3.7 2.2 3.3 3.7-2v.1l5.6.3 2-3.7 2.5.4 2-3v-.2h.2l3-.7 1.2-1.8.2-2.3h.2l2.9-1v-2.3l-.8-3.4-.2-3.1-2.2-3.8v-.2l1.4-2.1-1.8-1.4h-3.3l-3.6-.3v-.2l-1.3-5Z" fill="url(#bI)"/>
  <path fill-rule="evenodd" clip-rule="evenodd" d="m337.3 99.3 1.7 2.6 1.5-.4v-3.4l-1.4-.8-1.8 2Z" fill="url(#bJ)"/>
  <path fill-rule="evenodd" clip-rule="evenodd" d="m344.4 84.7.9 1.3 1.2-1-.3-1.6-1.4.2-.4 1.1Z" fill="url(#bK)"/>
  <path fill-rule="evenodd" clip-rule="evenodd" d="m388.2 29.6 4.3 1.2-.7-3.1-3-.3-.6 2.2Z" fill="url(#bL)"/>
  <path fill-rule="evenodd" clip-rule="evenodd" d="m391 37.6 2.7-2.7-.3-2.7 2.4-1.2 2.6-1.9 2.3 2.4 1 4 .7 1.8-2.5 1-.2 2-6.1 2-2.8-3 .2-1.7Z" fill="url(#bM)"/>
  <path fill-rule="evenodd" clip-rule="evenodd" d="m388.5 40.7 4.4 2-.9 2-2.2.9-2.8-2.3-.3-2 1.8-.6Z" fill="url(#bN)"/>
  <path fill-rule="evenodd" clip-rule="evenodd" d="m391.8 47.8 2.5-4.4 5.8-2 .7 3.7 1.4-.3.4-1.5L405 46l-.5 3-2.2 2.6 1.4 2-.7 2.5-2.1.8-3.9-3-3.3-3.4-2-1 .2-1.6Z" fill="url(#bO)"/>
  <path fill-rule="evenodd" clip-rule="evenodd" d="m406 52-1.2 6-2.8 4 .6 3.2 4.3-2.6 4.3.2 2.4-1.9.8-4.8-2-3.1-2.3 1.7-1-1.2.5-2.9L406 52Z" fill="url(#bP)"/>
  <path fill-rule="evenodd" clip-rule="evenodd" d="m417 62 .1 1.6 3.1 1v-1.1l-3-2.2-.3.7Z" fill="url(#bQ)"/>
  <path fill-rule="evenodd" clip-rule="evenodd" d="m391.6 71.6 1.6 1.3 1.3-.5-.7-1.8-2.2 1Z" fill="url(#bR)"/>
  <path fill-rule="evenodd" clip-rule="evenodd" d="m377.3 67.8 2 1.3.3-1.5-1.3-1.6-1 .7v1.1Z" fill="url(#bS)"/>
  <path fill-rule="evenodd" clip-rule="evenodd" d="m389.5 75.7.7.8 1-.7-1-1.3-.7 1.2Z" fill="url(#bT)"/>
  <path fill-rule="evenodd" clip-rule="evenodd" d="m352.2 92.3 1.5 1.5 1.1-.8-.2-1.6-1.3-.5-1.1 1.4Z" fill="url(#bU)"/>
  <path fill-rule="evenodd" clip-rule="evenodd" d="m355.9 94.5.8.7.7-1-.9-1.2-.6 1.5Z" fill="url(#bV)"/>
  <path fill-rule="evenodd" clip-rule="evenodd" d="m358.6 90.6.9.7.6-.9-1.3-1-.2 1.2Z" fill="url(#bW)"/>
  <path fill-rule="evenodd" clip-rule="evenodd" d="m360.5 88.6.9.8 1-1.2-1.3-1.2-1 .5.4 1Z" fill="url(#bX)"/>
  <path fill-rule="evenodd" clip-rule="evenodd" d="m354 80.1 1.1.9 1.8-.8-.8-1.6-1.4-.6-1.5 1 .9 1.1Z" fill="url(#bY)"/>
  <path fill-rule="evenodd" clip-rule="evenodd" d="m358.2 75-.5 1 .8 1.2 1-.8.2-1-1.5-.3Z" fill="url(#bZ)"/>
  <path fill-rule="evenodd" clip-rule="evenodd" d="m359.6 36.4-.4 1.3 1.3 1.4 1.9.3v-1.7l-1-1.8-1.8.5Z" fill="url(#ca)"/>
  <path fill-rule="evenodd" clip-rule="evenodd" d="m369.3 27.5 1.8.7 2-.3-.9-2.5L371 24l-1.2.8-.3 1.6v1Z" fill="url(#cb)"/>
  <path fill-rule="evenodd" clip-rule="evenodd" d="m395.8 291.2-.2-2v-.3h.2l2.1-.4-.6-3v-.2l2.7-.6h.2v.1l1.6 3.8 5-2.2h.3v.1l1.5 2.4 1.3 1.3 1.9-.4 2.7.2v.1l1.1 2 .1.2-5.7 5.5-.1.1-3-2.4h-3.7l-.1-.1-2-1.5-2.5-2-2.6-.6h-.2v-.1Zm31.4-97.4-1.6 1.4h-.1l-3.4.3-3.1 1-.2 3 .6 2.3v.1l-2 3.4 1.4 2.7v4l-3.2 4.5h-.1l-4.7 2.1 1.4 2.8v.2l-2.1 2.2.6 3.2 3.7 1.6v.1l.4 2.4-.1.1-3 2.5-.4 1.9 1.7.6h.1v.2l.7 2.5v.1l-.1.1-2.3 1.7-1.2 2.9v.2l-.3-.2-3.6-2.5v-.1l-1.5-4-3.8 1.2-.8 3.1v.1l-8.7 7.2V252.6h-.2l-2.2.6h-.2v-.1l-2.5-6.5-2.3 2.4h-.2l-8.1-.5-3.8 5.2 3 5.7v.2l-1 2.8v.2H370.2l-2.4 3.5-1.7 9.8v.2h-.3l-3.4-.8-2.6.9-.2 1.9 5.4 5.6 8.3 6.7 3.6.2h.1v.1l.1.6 2.3.3 4.4-2.3h.2l2.3 3.6 7.2 6.7 3.9.4 2.6 3.9v.1l.1 2.8 4 1.1h.1v.2l.4 2 3.7-.7 1-2.2-4-.4v-.1l-.6-1.8-.1-.1.2-.1 1.9-.8 2.5-.1 5.2-2.7 2-2.3 4-2.7 1-2.2 2.5-3.2 3-3.5 2.8-5.4 2.2-4.4-1.4-4v-.1l.9-4.1v-.1l2.6-2.3-2.5-2.4v-.1l-.2-2.5v-.2h.2l4.7-.1.9-2.5v-.2h.3l2.4 1.2 4.5-1 1.4-2.4.1-.2.2.1 2.1 1.4 2.4.2v.1l1.4 2.2 9.5-1.4 1.4-3.6v-.2l2 .6 2.7-2.3.3-.3v3.2l5.6 1.4 3.5-1.8.6-4-3.3-2.7v-.2l.2-5.1v-.2l2.2-1.2h.1l4.9.3-3.6-10-2.2-1.9-4.5 1.4h-.2v-.2l-1.1-4.5-6.6-3.3-3.4.2-6.5 10.1-4 3.6-.2.1-.1-.1-2.3-2.7-2 2.6h-.2l-4.9-.3-3.6 2-.1.1-.1-.1-2.9-3.5v-.2l1.4-8.1 3.6-6-3.6-1.5h-.1v-.1l-1.4-4 1.9-5.2-2.9-1.9h-.1v-.2l.8-5.1-1.9-4.3-1.9 1h-.1l-2.6-.5h-.2l.3-2.9h.1l2.2-1-1.4-2.6Z" fill="url(#cc)"/>
  <path fill-rule="evenodd" clip-rule="evenodd" d="m396 289.3.2 1.7 2.5.4h.1l.1.1 2.4 2 2 1.5h3.7l.2.1 2.7 2.3 5.3-5.2-1-1.8-2.3-.2-2 .4h-.2l-.2-.1-1.2-1.4-1.4-2.2-4.9 2-.2.2h-.2v-.2l-.2-.2-1.4-3.6-2.2.5.5 2.8v.2l.1.2h-.2l-.2.1-2 .4Z" fill="url(#cd)"/>
  <path fill-rule="evenodd" clip-rule="evenodd" d="m454.8 310.9 1.3-2.5.1-.2h6.3l2-3.2.2-.2.2-.2.2.2.1.2 1.3 1.3 1.7-3 .1-.1v-.1h.2l3.2-.3h.2v.1l3.5 2.5v.1h.2v.3l-.8 2.3v.2h-.3l-1.8.3 2.7 2.9.2.2.2.2-.3.1-.3.1-13.1 4.4h-.2l-7-5.1-.2-.1-.1-.1v-.2l.2-.1Zm-27.4 9.9 2 .3 1.5 3.6 15 2.9 10.7-4.7 3.2.3 1.4-3 5.4-3.8 7 .4 1.8 2 3.2-2.2 12 3.2 2.2-4.3 4.4-2.2-1.3-4.2 3-10.6 3.4-2.6-1.5-5.4-4.3-1 3.7-5 5.8-3-4.3-7.6.1-.1 2-2-2.9-2v-5.6l-3 .4-.1-.2-1.6-3.3-4 1.6-.2.1-.1-.1-2.2-2.5-.1-.2v-.1l1.7-1.7-4.5-3.5-5-11.3-5-.4-2 1-.2 5 3.4 2.8v.1l-.7 4.4-3.8 1.9h-.1l-5.7-1.4-1.9 2 1.6 1.6 2 8.3 3.3 1 3 3v4.3h-.2l-5.3 1.2-2.3 4h-.1l-6 3.5-.4 2.7 2.5 2v.1l-.6 3.3-3 2.8-3.4 1-1.4 1.6h-4l-6.8 6.7v.1h-.2l-3.2-.8-3.8 2.4-5.8-.5.8 3.2v.2l-3.3 2 3 3.8h-.3l-3.2 1.3-1.3 3.2Z" fill="url(#ce)"/>
  <path fill-rule="evenodd" clip-rule="evenodd" d="m454.8 310.9 1.3-2.5.1-.2h6.3l2-3.2.2-.2.2-.2.2.2.1.2 1.3 1.3 1.7-3 .1-.1v-.1h.2l3.2-.3h.2v.1l3.5 2.5v.1h.2v.3l-.8 2.3v.2h-.3l-1.8.3 2.7 2.9.2.2.2.2-.3.1-.3.1-13.1 4.4h-.2l-7-5.1-.2-.1-.1-.1v-.2l.2-.1Zm-27.4 9.9 2 .3 1.5 3.6 15 2.9 10.7-4.7 3.2.3 1.4-3 5.4-3.8 7 .4 1.8 2 3.2-2.2 12 3.2 2.2-4.3 4.4-2.2-1.3-4.2 3-10.6 3.4-2.6-1.5-5.4-4.3-1 3.7-5 5.8-3-4.3-7.6.1-.1 2-2-2.9-2v-5.6l-3 .4-.1-.2-1.6-3.3-4 1.6-.2.1-.1-.1-2.2-2.5-.1-.2v-.1l1.7-1.7-4.5-3.5-5-11.3-5-.4-2 1-.2 5 3.4 2.8v.1l-.7 4.4-3.8 1.9h-.1l-5.7-1.4-1.9 2 1.6 1.6 2 8.3 3.3 1 3 3v4.3h-.2l-5.3 1.2-2.3 4h-.1l-6 3.5-.4 2.7 2.5 2v.1l-.6 3.3-3 2.8-3.4 1-1.4 1.6h-4l-6.8 6.7v.1h-.2l-3.2-.8-3.8 2.4-5.8-.5.8 3.2v.2l-3.3 2 3 3.8h-.3l-3.2 1.3-1.3 3.2Z" fill="url(#cf)"/>
  <path fill-rule="evenodd" clip-rule="evenodd" d="m456.5 308.6-1.4 2.5 6.8 5 13.2-4.4-3-3.2-.3-.3h.4l2.2-.3.7-2.2-3.4-2.5-3 .3-2.1 3.5-.2-.2-1.5-1.6-2 3.3h-.2l-6.2.1Z" fill="url(#cg)"/>
  <path fill-rule="evenodd" clip-rule="evenodd" d="m456.5 308.6-1.4 2.5 6.8 5 13.2-4.4-3-3.2-.3-.3h.4l2.2-.3.7-2.2-3.4-2.5-3 .3-2.1 3.5-.2-.2-1.5-1.6-2 3.3h-.2l-6.2.1Z" fill="url(#ch)"/>
  <path fill-rule="evenodd" clip-rule="evenodd" d="M423.4 193.5h-.1l-2.3-2-5.8-.7.7-3.1v-.1l3.8-3.4 1.2-2.4-2-1.6.2-2.9-1.6-2-.1-.2 1.3-3.8-2.2-2 .2-.1 3.6-3 .3-14.5-3.3-6 2-.6 5-3 .1-.1h.1l2.7.6 1.5-4.4 1.5-1.8.6-2.5.1-.1 6.1-3.6-2.1-3 .4-4.4-4.2-7v-.1l-.4-3.5-1.3-2v-.1l.3-2-3.2 1.2-3.7 2.1-4.8.8-2.2 2.8.6-4.3 10.5-8.3 6.3-8.4 3.2-7.7-6.5-8.7-7-.9-2.7 3-2.8.1 2.7-5.3-5.6-1.2 2-2.3-3-3-3.3.7-5.7 6.4.7 4.2-5.3-.2v1.3l1.6 2.9-3.7-1.2-2.1 1.5-4.3-1.2-.4-1.9-6.2-.5-.3 3.3-7.6.2-5.4 3.3-4-.3-3 2-1.9 4.8 2 4.3-3.8.5-9.6-2.5-5.6-.7-2 2.7-1.1 7.5 3.2 3.6 1.4 4-5-.5-3.5-8h-3.1v.3l2.1 5.7.1.3h-.3l-3 .1-1 3.3 2.2 5.7-1 2.6v.1l-6.8 2-1.1 3 3.6 5.6 4.6 1.6h.2v.2l.4 5.6-.4.7-2 3.8h-.1l-.1.1-4.4.6 1 3v.2l-1.8 3.7 3 4.6v.1l-1.7 7.6 2.5 4-1.7 5.4 3.8 3.3v.1l.4 4v.1l-4.2 4.4-.8 4.2v.1l-6.4 6.1-.6 5.2 4.4 3 .1.1v.2l-1 1.8-.1.1h-.1l-4.3 1.3h-3.6l1 5.2v.1h-.1l-1.7 1.7-.3 2.6 10.9 2.8h.1v.1l2.6 6.6 3 .7h.2v.2l-.5 2.3v.1h-.1l-4.7 3.2v3l2.2 2.4 3.7 1.6v.2l-.9 1.9-4.3 2.5-.6 3.7v.1l-.8 2.3 2.7 6.7.1.1-.1.1-2 1.4-1.5.6 1.2 5 3.3.3h3.4l2.2 1.6-.1.1-1.4 2.2 2.1 3.8.3 3.2.8 3.3v2.6h-.2l-3 1.1-.1 2.1-1.2 2h-.2l-3 .8-2 3 4.5 3.8 7.8 1.8 3.8-2.4 2-.2.2-1.7v-.1h.2l3-1.5v-2h.1l2.2-.4 1-2.5v-.2h.2l10.6.3.8-2.2-5.4-5.6.2-2.4h.1l2.8-1 3.3.7 1.7-9.6 2.6-3.6v-.1h.1l3.6-.1 1-2.7-3.1-5.7v-.2l4-5.4v-.1h.1l8.2.5 2.5-2.5.3-.2v.3l2.5 6.6 1.8-.5V248.7h.2l8.7-7.2.8-3.2 4.4-1.5v.2l1.6 4.1 3.3 2.4 1-2.6.1-.1 2.3-1.7-.6-2.3-1.8-.7h-.1v-.2l.4-2.1v-.1l3-2.5-.2-2.1-3.6-1.5h-.1v-.2l-.7-3.4v-.1l2.1-2.2-1.4-2.9v-.2h.1l4.8-2.2 3-4.4.1-3.7-1.4-2.7v-.2l2-3.4-.6-2.1v-.1l.2-3.3v-.1h.1l3.3-1 3.4-.4 1.6-1.3-1-1.5-2.7 1.3Z" fill="url(#ci)"/>
  <path fill-rule="evenodd" clip-rule="evenodd" d="M423.4 193.5h-.1l-2.3-2-5.8-.7.7-3.1v-.1l3.8-3.4 1.2-2.4-2-1.6.2-2.9-1.6-2-.1-.2 1.3-3.8-2.2-2 .2-.1 3.6-3 .3-14.5-3.3-6 2-.6 5-3 .1-.1h.1l2.7.6 1.5-4.4 1.5-1.8.6-2.5.1-.1 6.1-3.6-2.1-3 .4-4.4-4.2-7v-.1l-.4-3.5-1.3-2v-.1l.3-2-3.2 1.2-3.7 2.1-4.8.8-2.2 2.8.6-4.3 10.5-8.3 6.3-8.4 3.2-7.7-6.5-8.7-7-.9-2.7 3-2.8.1 2.7-5.3-5.6-1.2 2-2.3-3-3-3.3.7-5.7 6.4.7 4.2-5.3-.2v1.3l1.6 2.9-3.7-1.2-2.1 1.5-4.3-1.2-.4-1.9-6.2-.5-.3 3.3-7.6.2-5.4 3.3-4-.3-3 2-1.9 4.8 2 4.3-3.8.5-9.6-2.5-5.6-.7-2 2.7-1.1 7.5 3.2 3.6 1.4 4-5-.5-3.5-8h-3.1v.3l2.1 5.7.1.3h-.3l-3 .1-1 3.3 2.2 5.7-1 2.6v.1l-6.8 2-1.1 3 3.6 5.6 4.6 1.6h.2v.2l.4 5.6-.4.7-2 3.8h-.1l-.1.1-4.4.6 1 3v.2l-1.8 3.7 3 4.6v.1l-1.7 7.6 2.5 4-1.7 5.4 3.8 3.3v.1l.4 4v.1l-4.2 4.4-.8 4.2v.1l-6.4 6.1-.6 5.2 4.4 3 .1.1v.2l-1 1.8-.1.1h-.1l-4.3 1.3h-3.6l1 5.2v.1h-.1l-1.7 1.7-.3 2.6 10.9 2.8h.1v.1l2.6 6.6 3 .7h.2v.2l-.5 2.3v.1h-.1l-4.7 3.2v3l2.2 2.4 3.7 1.6v.2l-.9 1.9-4.3 2.5-.6 3.7v.1l-.8 2.3 2.7 6.7.1.1-.1.1-2 1.4-1.5.6 1.2 5 3.3.3h3.4l2.2 1.6-.1.1-1.4 2.2 2.1 3.8.3 3.2.8 3.3v2.6h-.2l-3 1.1-.1 2.1-1.2 2h-.2l-3 .8-2 3 4.5 3.8 7.8 1.8 3.8-2.4 2-.2.2-1.7v-.1h.2l3-1.5v-2h.1l2.2-.4 1-2.5v-.2h.2l10.6.3.8-2.2-5.4-5.6.2-2.4h.1l2.8-1 3.3.7 1.7-9.6 2.6-3.6v-.1h.1l3.6-.1 1-2.7-3.1-5.7v-.2l4-5.4v-.1h.1l8.2.5 2.5-2.5.3-.2v.3l2.5 6.6 1.8-.5V248.7h.2l8.7-7.2.8-3.2 4.4-1.5v.2l1.6 4.1 3.3 2.4 1-2.6.1-.1 2.3-1.7-.6-2.3-1.8-.7h-.1v-.2l.4-2.1v-.1l3-2.5-.2-2.1-3.6-1.5h-.1v-.2l-.7-3.4v-.1l2.1-2.2-1.4-2.9v-.2h.1l4.8-2.2 3-4.4.1-3.7-1.4-2.7v-.2l2-3.4-.6-2.1v-.1l.2-3.3v-.1h.1l3.3-1 3.4-.4 1.6-1.3-1-1.5-2.7 1.3Z" fill="url(#cj)"/>
  <path fill-rule="evenodd" clip-rule="evenodd" d="m693.9 216.8.2-10.9-.8-5.1-3.4-4 1-5.2 2-1.3-5.8-7.9.6-5 3.1-2.4-.4-3-5.4-2-4.6-10 1.5-.7 1.5 2.4 2.9-1.3-3.9-4.2-2.4 1-3.5-2.7-1.5-4.3-3.8-.4-.7 2.4-2.4-.5-6.3-15.5 1-4.6 3.1-.3-1.4-8.9 4.6 4.2 1.2-10.4 4.3-3.3 6 .5-2.6-8 .1-16.7-3.9.6h-.1l-2.7-1.7-6.3 12.7v.1h-.2l-6.2-.8-6 1h-.2v-.1l-1.4-5-7.8-.4-1.6 2.1v.1h-.1l-5.5.6-1.2 2.5v.2h-3.2l-1.2 2.9-3.6.7.3 3.2 4.1 7 3 1v.1l1.6 5.2 3.4.1h.1l2.1 2.3.4 3.3 3 2 2.3-1.7-5.2-7.2 1.9-4.2 5.8-1.2-3.4 3.9.3 3.3 4.2 3.4 2 .3-.4 3 2 .6-2.8 8.5 1.7 3.4-.4 10.2 1 6.6 1.5 6.7-2.8 2.4.5 2.5-1.6 1.6 3.2 4.3v6.2l4.3 5.7 5.2 6.8 29.7 23.3Z" fill="url(#ck)"/>
  <path fill-rule="evenodd" clip-rule="evenodd" d="M216.8 150.6h-.1l-6-5.7-2.5 1h-.1l-6.4-1.4-4.1-2.6-3.6-4.7-5-1-2 3.4 3.2 4.9-.1 3.3v.1h-.2l-6.2 1.8-.2 2 1.5 1.4.1.2-2 2.1-1.9 1.5-2.8 5.1v.1l-2 1.7-1.6 2.8-2.3 1.9h-.1l-1.8-.3-.4 4 1.9.2h.2l-.3 3.2 4.2.6h.2v2.5l1.7.6h.1v.1l.2 1.2v1.6l.6.9 1.7-.2 4-3.6h4.1l3-3.6.2-.2.2.2 1.6 2.2 1.7-.9 1-2.6v-.1h.2l4.5.3 1.3-1.3.7-2.9v-.1l2.2-2-1.2-2.7.4-2.3 5-1.6 6.1-4.5 4.2-4.2.8-1.4-4-1Z" fill="url(#cl)"/>
  <path fill-rule="evenodd" clip-rule="evenodd" d="M216.8 150.6h-.1l-6-5.7-2.5 1h-.1l-6.4-1.4-4.1-2.6-3.6-4.7-5-1-2 3.4 3.2 4.9-.1 3.3v.1h-.2l-6.2 1.8-.2 2 1.5 1.4.1.2-2 2.1-1.9 1.5-2.8 5.1v.1l-2 1.7-1.6 2.8-2.3 1.9h-.1l-1.8-.3-.4 4 1.9.2h.2l-.3 3.2 4.2.6h.2v2.5l1.7.6h.1v.1l.2 1.2v1.6l.6.9 1.7-.2 4-3.6h4.1l3-3.6.2-.2.2.2 1.6 2.2 1.7-.9 1-2.6v-.1h.2l4.5.3 1.3-1.3.7-2.9v-.1l2.2-2-1.2-2.7.4-2.3 5-1.6 6.1-4.5 4.2-4.2.8-1.4-4-1Z" fill="url(#cm)"/>
  <path fill-rule="evenodd" clip-rule="evenodd" d="M22 157.3a1.8 1.8 0 0 0 1.4-2.4l-1-2.6c-.1-.6-.7-1-1.3-1.1l-2.7-.5c-.5-.1-1-.5-1.2-1l-.9-1.6c-.5-1 0-2 1-2.5l1.1-.4c.7-.3 1.2-1 1.1-1.8v-.9c0-.3 0-.7.2-1l.6-1c.2-.4.3-1 .1-1.4l-1.1-3.9-.1-.4v-1.3c0-.9-.8-1.6-1.6-1.7h-.8c-.4-.1-.8 0-1.2.2l-.3.2c-.5.3-1.2.3-1.8 0l-4-2.2-.5-.2-4-.8a1.2 1.2 0 0 0-1 2l1.6 2c.3.4.5 1 .3 1.5l-.2.8c0 .4 0 .8.3 1.2.6.5.5 1.4-.2 1.8L3.6 140c-.3.2-.8.3-1.2.3l-.8-.1a1.5 1.5 0 0 0-1.4 2.2l1.7 3c.3.6 1 1 1.5 1l3.8.1c.6 0 1 .3 1.4.7l1.8 2.3c.3.5.9.8 1.5.7H13c.4 0 .7 0 1 .3l1.2.7c.7.4 1 1.2.8 2-.1.7 0 1.3.5 1.8L19 157c.4.3 1 .5 1.5.4l1.5-.2Z" fill="url(#cn)"/>
  <defs>
    <linearGradient id="a" x1="357.5" y1="0" x2="357.5" y2="353" gradientUnits="userSpaceOnUse">
      <stop offset=".1" stop-color="#16418A"/>
      <stop offset=".8" stop-color="#2D73EB"/>
    </linearGradient>
    <linearGradient id="b" x1="357.5" y1="0" x2="357.5" y2="353" gradientUnits="userSpaceOnUse">
      <stop offset=".1" stop-color="#16418A"/>
      <stop offset=".8" stop-color="#2D73EB"/>
    </linearGradient>
    <linearGradient id="c" x1="357.5" y1="0" x2="357.5" y2="353" gradientUnits="userSpaceOnUse">
      <stop offset=".1" stop-color="#16418A"/>
      <stop offset=".8" stop-color="#2D73EB"/>
    </linearGradient>
    <linearGradient id="d" x1="357.5" y1="0" x2="357.5" y2="353" gradientUnits="userSpaceOnUse">
      <stop offset=".1" stop-color="#16418A"/>
      <stop offset=".8" stop-color="#2D73EB"/>
    </linearGradient>
    <linearGradient id="e" x1="357.5" y1="0" x2="357.5" y2="353" gradientUnits="userSpaceOnUse">
      <stop offset=".1" stop-color="#16418A"/>
      <stop offset=".8" stop-color="#2D73EB"/>
    </linearGradient>
    <linearGradient id="f" x1="357.5" y1="0" x2="357.5" y2="353" gradientUnits="userSpaceOnUse">
      <stop offset=".1" stop-color="#16418A"/>
      <stop offset=".8" stop-color="#2D73EB"/>
    </linearGradient>
    <linearGradient id="g" x1="357.5" y1="0" x2="357.5" y2="353" gradientUnits="userSpaceOnUse">
      <stop offset=".1" stop-color="#16418A"/>
      <stop offset=".8" stop-color="#2D73EB"/>
    </linearGradient>
    <linearGradient id="h" x1="357.5" y1="0" x2="357.5" y2="353" gradientUnits="userSpaceOnUse">
      <stop offset=".1" stop-color="#16418A"/>
      <stop offset=".8" stop-color="#2D73EB"/>
    </linearGradient>
    <linearGradient id="i" x1="357.5" y1="0" x2="357.5" y2="353" gradientUnits="userSpaceOnUse">
      <stop offset=".1" stop-color="#16418A"/>
      <stop offset=".8" stop-color="#2D73EB"/>
    </linearGradient>
    <linearGradient id="j" x1="357.5" y1="0" x2="357.5" y2="353" gradientUnits="userSpaceOnUse">
      <stop offset=".1" stop-color="#16418A"/>
      <stop offset=".8" stop-color="#2D73EB"/>
    </linearGradient>
    <linearGradient id="k" x1="357.5" y1="0" x2="357.5" y2="353" gradientUnits="userSpaceOnUse">
      <stop offset=".1" stop-color="#16418A"/>
      <stop offset=".8" stop-color="#2D73EB"/>
    </linearGradient>
    <linearGradient id="l" x1="357.5" y1="0" x2="357.5" y2="353" gradientUnits="userSpaceOnUse">
      <stop offset=".1" stop-color="#16418A"/>
      <stop offset=".8" stop-color="#2D73EB"/>
    </linearGradient>
    <linearGradient id="m" x1="357.5" y1="0" x2="357.5" y2="353" gradientUnits="userSpaceOnUse">
      <stop offset=".1" stop-color="#16418A"/>
      <stop offset=".8" stop-color="#2D73EB"/>
    </linearGradient>
    <linearGradient id="n" x1="357.5" y1="0" x2="357.5" y2="353" gradientUnits="userSpaceOnUse">
      <stop offset=".1" stop-color="#16418A"/>
      <stop offset=".8" stop-color="#2D73EB"/>
    </linearGradient>
    <linearGradient id="o" x1="357.5" y1="0" x2="357.5" y2="353" gradientUnits="userSpaceOnUse">
      <stop offset=".1" stop-color="#16418A"/>
      <stop offset=".8" stop-color="#2D73EB"/>
    </linearGradient>
    <linearGradient id="p" x1="357.5" y1="0" x2="357.5" y2="353" gradientUnits="userSpaceOnUse">
      <stop offset=".1" stop-color="#16418A"/>
      <stop offset=".8" stop-color="#2D73EB"/>
    </linearGradient>
    <linearGradient id="q" x1="357.5" y1="0" x2="357.5" y2="353" gradientUnits="userSpaceOnUse">
      <stop offset=".1" stop-color="#16418A"/>
      <stop offset=".8" stop-color="#2D73EB"/>
    </linearGradient>
    <linearGradient id="r" x1="357.5" y1="0" x2="357.5" y2="353" gradientUnits="userSpaceOnUse">
      <stop offset=".1" stop-color="#16418A"/>
      <stop offset=".8" stop-color="#2D73EB"/>
    </linearGradient>
    <linearGradient id="s" x1="357.5" y1="0" x2="357.5" y2="353" gradientUnits="userSpaceOnUse">
      <stop offset=".1" stop-color="#16418A"/>
      <stop offset=".8" stop-color="#2D73EB"/>
    </linearGradient>
    <linearGradient id="t" x1="357.5" y1="0" x2="357.5" y2="353" gradientUnits="userSpaceOnUse">
      <stop offset=".1" stop-color="#16418A"/>
      <stop offset=".8" stop-color="#2D73EB"/>
    </linearGradient>
    <linearGradient id="u" x1="357.5" y1="0" x2="357.5" y2="353" gradientUnits="userSpaceOnUse">
      <stop offset=".1" stop-color="#16418A"/>
      <stop offset=".8" stop-color="#2D73EB"/>
    </linearGradient>
    <linearGradient id="v" x1="357.5" y1="0" x2="357.5" y2="353" gradientUnits="userSpaceOnUse">
      <stop offset=".1" stop-color="#16418A"/>
      <stop offset=".8" stop-color="#2D73EB"/>
    </linearGradient>
    <linearGradient id="w" x1="357.5" y1="0" x2="357.5" y2="353" gradientUnits="userSpaceOnUse">
      <stop offset=".1" stop-color="#16418A"/>
      <stop offset=".8" stop-color="#2D73EB"/>
    </linearGradient>
    <linearGradient id="x" x1="357.5" y1="0" x2="357.5" y2="353" gradientUnits="userSpaceOnUse">
      <stop offset=".1" stop-color="#16418A"/>
      <stop offset=".8" stop-color="#2D73EB"/>
    </linearGradient>
    <linearGradient id="y" x1="357.5" y1="0" x2="357.5" y2="353" gradientUnits="userSpaceOnUse">
      <stop offset=".1" stop-color="#16418A"/>
      <stop offset=".8" stop-color="#2D73EB"/>
    </linearGradient>
    <linearGradient id="z" x1="357.5" y1="0" x2="357.5" y2="353" gradientUnits="userSpaceOnUse">
      <stop offset=".1" stop-color="#16418A"/>
      <stop offset=".8" stop-color="#2D73EB"/>
    </linearGradient>
    <linearGradient id="A" x1="357.5" y1="0" x2="357.5" y2="353" gradientUnits="userSpaceOnUse">
      <stop offset=".1" stop-color="#16418A"/>
      <stop offset=".8" stop-color="#2D73EB"/>
    </linearGradient>
    <linearGradient id="B" x1="357.5" y1="0" x2="357.5" y2="353" gradientUnits="userSpaceOnUse">
      <stop offset=".1" stop-color="#16418A"/>
      <stop offset=".8" stop-color="#2D73EB"/>
    </linearGradient>
    <linearGradient id="C" x1="357.5" y1="0" x2="357.5" y2="353" gradientUnits="userSpaceOnUse">
      <stop offset=".1" stop-color="#16418A"/>
      <stop offset=".8" stop-color="#2D73EB"/>
    </linearGradient>
    <linearGradient id="D" x1="357.5" y1="0" x2="357.5" y2="353" gradientUnits="userSpaceOnUse">
      <stop offset=".1" stop-color="#16418A"/>
      <stop offset=".8" stop-color="#2D73EB"/>
    </linearGradient>
    <linearGradient id="E" x1="357.5" y1="0" x2="357.5" y2="353" gradientUnits="userSpaceOnUse">
      <stop offset=".1" stop-color="#16418A"/>
      <stop offset=".8" stop-color="#2D73EB"/>
    </linearGradient>
    <linearGradient id="F" x1="357.5" y1="0" x2="357.5" y2="353" gradientUnits="userSpaceOnUse">
      <stop offset=".1" stop-color="#16418A"/>
      <stop offset=".8" stop-color="#2D73EB"/>
    </linearGradient>
    <linearGradient id="G" x1="357.5" y1="0" x2="357.5" y2="353" gradientUnits="userSpaceOnUse">
      <stop offset=".1" stop-color="#16418A"/>
      <stop offset=".8" stop-color="#2D73EB"/>
    </linearGradient>
    <linearGradient id="H" x1="357.5" y1="0" x2="357.5" y2="353" gradientUnits="userSpaceOnUse">
      <stop offset=".1" stop-color="#16418A"/>
      <stop offset=".8" stop-color="#2D73EB"/>
    </linearGradient>
    <linearGradient id="I" x1="357.5" y1="0" x2="357.5" y2="353" gradientUnits="userSpaceOnUse">
      <stop offset=".1" stop-color="#16418A"/>
      <stop offset=".8" stop-color="#2D73EB"/>
    </linearGradient>
    <linearGradient id="J" x1="357.5" y1="0" x2="357.5" y2="353" gradientUnits="userSpaceOnUse">
      <stop offset=".1" stop-color="#16418A"/>
      <stop offset=".8" stop-color="#2D73EB"/>
    </linearGradient>
    <linearGradient id="K" x1="357.5" y1="0" x2="357.5" y2="353" gradientUnits="userSpaceOnUse">
      <stop offset=".1" stop-color="#16418A"/>
      <stop offset=".8" stop-color="#2D73EB"/>
    </linearGradient>
    <linearGradient id="L" x1="357.5" y1="0" x2="357.5" y2="353" gradientUnits="userSpaceOnUse">
      <stop offset=".1" stop-color="#16418A"/>
      <stop offset=".8" stop-color="#2D73EB"/>
    </linearGradient>
    <linearGradient id="M" x1="357.5" y1="0" x2="357.5" y2="353" gradientUnits="userSpaceOnUse">
      <stop offset=".1" stop-color="#16418A"/>
      <stop offset=".8" stop-color="#2D73EB"/>
    </linearGradient>
    <linearGradient id="N" x1="357.5" y1="0" x2="357.5" y2="353" gradientUnits="userSpaceOnUse">
      <stop offset=".1" stop-color="#16418A"/>
      <stop offset=".8" stop-color="#2D73EB"/>
    </linearGradient>
    <linearGradient id="O" x1="357.5" y1="0" x2="357.5" y2="353" gradientUnits="userSpaceOnUse">
      <stop offset=".1" stop-color="#16418A"/>
      <stop offset=".8" stop-color="#2D73EB"/>
    </linearGradient>
    <linearGradient id="P" x1="357.5" y1="0" x2="357.5" y2="353" gradientUnits="userSpaceOnUse">
      <stop offset=".1" stop-color="#16418A"/>
      <stop offset=".8" stop-color="#2D73EB"/>
    </linearGradient>
    <linearGradient id="Q" x1="357.5" y1="0" x2="357.5" y2="353" gradientUnits="userSpaceOnUse">
      <stop offset=".1" stop-color="#16418A"/>
      <stop offset=".8" stop-color="#2D73EB"/>
    </linearGradient>
    <linearGradient id="R" x1="357.5" y1="0" x2="357.5" y2="353" gradientUnits="userSpaceOnUse">
      <stop offset=".1" stop-color="#16418A"/>
      <stop offset=".8" stop-color="#2D73EB"/>
    </linearGradient>
    <linearGradient id="S" x1="357.5" y1="0" x2="357.5" y2="353" gradientUnits="userSpaceOnUse">
      <stop offset=".1" stop-color="#16418A"/>
      <stop offset=".8" stop-color="#2D73EB"/>
    </linearGradient>
    <linearGradient id="T" x1="357.5" y1="0" x2="357.5" y2="353" gradientUnits="userSpaceOnUse">
      <stop offset=".1" stop-color="#16418A"/>
      <stop offset=".8" stop-color="#2D73EB"/>
    </linearGradient>
    <linearGradient id="U" x1="357.5" y1="0" x2="357.5" y2="353" gradientUnits="userSpaceOnUse">
      <stop offset=".1" stop-color="#16418A"/>
      <stop offset=".8" stop-color="#2D73EB"/>
    </linearGradient>
    <linearGradient id="V" x1="357.5" y1="0" x2="357.5" y2="353" gradientUnits="userSpaceOnUse">
      <stop offset=".1" stop-color="#16418A"/>
      <stop offset=".8" stop-color="#2D73EB"/>
    </linearGradient>
    <linearGradient id="W" x1="357.5" y1="0" x2="357.5" y2="353" gradientUnits="userSpaceOnUse">
      <stop offset=".1" stop-color="#16418A"/>
      <stop offset=".8" stop-color="#2D73EB"/>
    </linearGradient>
    <linearGradient id="X" x1="357.5" y1="0" x2="357.5" y2="353" gradientUnits="userSpaceOnUse">
      <stop offset=".1" stop-color="#16418A"/>
      <stop offset=".8" stop-color="#2D73EB"/>
    </linearGradient>
    <linearGradient id="Y" x1="357.5" y1="0" x2="357.5" y2="353" gradientUnits="userSpaceOnUse">
      <stop offset=".1" stop-color="#16418A"/>
      <stop offset=".8" stop-color="#2D73EB"/>
    </linearGradient>
    <linearGradient id="Z" x1="357.5" y1="0" x2="357.5" y2="353" gradientUnits="userSpaceOnUse">
      <stop offset=".1" stop-color="#16418A"/>
      <stop offset=".8" stop-color="#2D73EB"/>
    </linearGradient>
    <linearGradient id="aa" x1="357.5" y1="0" x2="357.5" y2="353" gradientUnits="userSpaceOnUse">
      <stop offset=".1" stop-color="#16418A"/>
      <stop offset=".8" stop-color="#2D73EB"/>
    </linearGradient>
    <linearGradient id="ab" x1="357.5" y1="0" x2="357.5" y2="353" gradientUnits="userSpaceOnUse">
      <stop offset=".1" stop-color="#16418A"/>
      <stop offset=".8" stop-color="#2D73EB"/>
    </linearGradient>
    <linearGradient id="ac" x1="357.5" y1="0" x2="357.5" y2="353" gradientUnits="userSpaceOnUse">
      <stop offset=".1" stop-color="#16418A"/>
      <stop offset=".8" stop-color="#2D73EB"/>
    </linearGradient>
    <linearGradient id="ad" x1="357.5" y1="0" x2="357.5" y2="353" gradientUnits="userSpaceOnUse">
      <stop offset=".1" stop-color="#16418A"/>
      <stop offset=".8" stop-color="#2D73EB"/>
    </linearGradient>
    <linearGradient id="ae" x1="357.5" y1="0" x2="357.5" y2="353" gradientUnits="userSpaceOnUse">
      <stop offset=".1" stop-color="#16418A"/>
      <stop offset=".8" stop-color="#2D73EB"/>
    </linearGradient>
    <linearGradient id="af" x1="357.5" y1="0" x2="357.5" y2="353" gradientUnits="userSpaceOnUse">
      <stop offset=".1" stop-color="#16418A"/>
      <stop offset=".8" stop-color="#2D73EB"/>
    </linearGradient>
    <linearGradient id="ag" x1="357.5" y1="0" x2="357.5" y2="353" gradientUnits="userSpaceOnUse">
      <stop offset=".1" stop-color="#16418A"/>
      <stop offset=".8" stop-color="#2D73EB"/>
    </linearGradient>
    <linearGradient id="ah" x1="357.5" y1="0" x2="357.5" y2="353" gradientUnits="userSpaceOnUse">
      <stop offset=".1" stop-color="#16418A"/>
      <stop offset=".8" stop-color="#2D73EB"/>
    </linearGradient>
    <linearGradient id="ai" x1="357.5" y1="0" x2="357.5" y2="353" gradientUnits="userSpaceOnUse">
      <stop offset=".1" stop-color="#16418A"/>
      <stop offset=".8" stop-color="#2D73EB"/>
    </linearGradient>
    <linearGradient id="aj" x1="357.5" y1="0" x2="357.5" y2="353" gradientUnits="userSpaceOnUse">
      <stop offset=".1" stop-color="#16418A"/>
      <stop offset=".8" stop-color="#2D73EB"/>
    </linearGradient>
    <linearGradient id="ak" x1="357.5" y1="0" x2="357.5" y2="353" gradientUnits="userSpaceOnUse">
      <stop offset=".1" stop-color="#16418A"/>
      <stop offset=".8" stop-color="#2D73EB"/>
    </linearGradient>
    <linearGradient id="al" x1="357.5" y1="0" x2="357.5" y2="353" gradientUnits="userSpaceOnUse">
      <stop offset=".1" stop-color="#16418A"/>
      <stop offset=".8" stop-color="#2D73EB"/>
    </linearGradient>
    <linearGradient id="am" x1="357.5" y1="0" x2="357.5" y2="353" gradientUnits="userSpaceOnUse">
      <stop offset=".1" stop-color="#16418A"/>
      <stop offset=".8" stop-color="#2D73EB"/>
    </linearGradient>
    <linearGradient id="an" x1="357.5" y1="0" x2="357.5" y2="353" gradientUnits="userSpaceOnUse">
      <stop offset=".1" stop-color="#16418A"/>
      <stop offset=".8" stop-color="#2D73EB"/>
    </linearGradient>
    <linearGradient id="ao" x1="357.5" y1="0" x2="357.5" y2="353" gradientUnits="userSpaceOnUse">
      <stop offset=".1" stop-color="#16418A"/>
      <stop offset=".8" stop-color="#2D73EB"/>
    </linearGradient>
    <linearGradient id="ap" x1="357.5" y1="0" x2="357.5" y2="353" gradientUnits="userSpaceOnUse">
      <stop offset=".1" stop-color="#16418A"/>
      <stop offset=".8" stop-color="#2D73EB"/>
    </linearGradient>
    <linearGradient id="aq" x1="357.5" y1="0" x2="357.5" y2="353" gradientUnits="userSpaceOnUse">
      <stop offset=".1" stop-color="#16418A"/>
      <stop offset=".8" stop-color="#2D73EB"/>
    </linearGradient>
    <linearGradient id="ar" x1="357.5" y1="0" x2="357.5" y2="353" gradientUnits="userSpaceOnUse">
      <stop offset=".1" stop-color="#16418A"/>
      <stop offset=".8" stop-color="#2D73EB"/>
    </linearGradient>
    <linearGradient id="as" x1="357.5" y1="0" x2="357.5" y2="353" gradientUnits="userSpaceOnUse">
      <stop offset=".1" stop-color="#16418A"/>
      <stop offset=".8" stop-color="#2D73EB"/>
    </linearGradient>
    <linearGradient id="at" x1="357.5" y1="0" x2="357.5" y2="353" gradientUnits="userSpaceOnUse">
      <stop offset=".1" stop-color="#16418A"/>
      <stop offset=".8" stop-color="#2D73EB"/>
    </linearGradient>
    <linearGradient id="au" x1="357.5" y1="0" x2="357.5" y2="353" gradientUnits="userSpaceOnUse">
      <stop offset=".1" stop-color="#16418A"/>
      <stop offset=".8" stop-color="#2D73EB"/>
    </linearGradient>
    <linearGradient id="av" x1="357.5" y1="0" x2="357.5" y2="353" gradientUnits="userSpaceOnUse">
      <stop offset=".1" stop-color="#16418A"/>
      <stop offset=".8" stop-color="#2D73EB"/>
    </linearGradient>
    <linearGradient id="aw" x1="357.5" y1="0" x2="357.5" y2="353" gradientUnits="userSpaceOnUse">
      <stop offset=".1" stop-color="#16418A"/>
      <stop offset=".8" stop-color="#2D73EB"/>
    </linearGradient>
    <linearGradient id="ax" x1="357.5" y1="0" x2="357.5" y2="353" gradientUnits="userSpaceOnUse">
      <stop offset=".1" stop-color="#16418A"/>
      <stop offset=".8" stop-color="#2D73EB"/>
    </linearGradient>
    <linearGradient id="ay" x1="357.5" y1="0" x2="357.5" y2="353" gradientUnits="userSpaceOnUse">
      <stop offset=".1" stop-color="#16418A"/>
      <stop offset=".8" stop-color="#2D73EB"/>
    </linearGradient>
    <linearGradient id="az" x1="357.5" y1="0" x2="357.5" y2="353" gradientUnits="userSpaceOnUse">
      <stop offset=".1" stop-color="#16418A"/>
      <stop offset=".8" stop-color="#2D73EB"/>
    </linearGradient>
    <linearGradient id="aA" x1="357.5" y1="0" x2="357.5" y2="353" gradientUnits="userSpaceOnUse">
      <stop offset=".1" stop-color="#16418A"/>
      <stop offset=".8" stop-color="#2D73EB"/>
    </linearGradient>
    <linearGradient id="aB" x1="357.5" y1="0" x2="357.5" y2="353" gradientUnits="userSpaceOnUse">
      <stop offset=".1" stop-color="#16418A"/>
      <stop offset=".8" stop-color="#2D73EB"/>
    </linearGradient>
    <linearGradient id="aC" x1="357.5" y1="0" x2="357.5" y2="353" gradientUnits="userSpaceOnUse">
      <stop offset=".1" stop-color="#16418A"/>
      <stop offset=".8" stop-color="#2D73EB"/>
    </linearGradient>
    <linearGradient id="aD" x1="357.5" y1="0" x2="357.5" y2="353" gradientUnits="userSpaceOnUse">
      <stop offset=".1" stop-color="#16418A"/>
      <stop offset=".8" stop-color="#2D73EB"/>
    </linearGradient>
    <linearGradient id="aE" x1="357.5" y1="0" x2="357.5" y2="353" gradientUnits="userSpaceOnUse">
      <stop offset=".1" stop-color="#16418A"/>
      <stop offset=".8" stop-color="#2D73EB"/>
    </linearGradient>
    <linearGradient id="aF" x1="357.5" y1="0" x2="357.5" y2="353" gradientUnits="userSpaceOnUse">
      <stop offset=".1" stop-color="#16418A"/>
      <stop offset=".8" stop-color="#2D73EB"/>
    </linearGradient>
    <linearGradient id="aG" x1="357.5" y1="0" x2="357.5" y2="353" gradientUnits="userSpaceOnUse">
      <stop offset=".1" stop-color="#16418A"/>
      <stop offset=".8" stop-color="#2D73EB"/>
    </linearGradient>
    <linearGradient id="aH" x1="357.5" y1="0" x2="357.5" y2="353" gradientUnits="userSpaceOnUse">
      <stop offset=".1" stop-color="#16418A"/>
      <stop offset=".8" stop-color="#2D73EB"/>
    </linearGradient>
    <linearGradient id="aI" x1="357.5" y1="0" x2="357.5" y2="353" gradientUnits="userSpaceOnUse">
      <stop offset=".1" stop-color="#16418A"/>
      <stop offset=".8" stop-color="#2D73EB"/>
    </linearGradient>
    <linearGradient id="aJ" x1="357.5" y1="0" x2="357.5" y2="353" gradientUnits="userSpaceOnUse">
      <stop offset=".1" stop-color="#16418A"/>
      <stop offset=".8" stop-color="#2D73EB"/>
    </linearGradient>
    <linearGradient id="aK" x1="357.5" y1="0" x2="357.5" y2="353" gradientUnits="userSpaceOnUse">
      <stop offset=".1" stop-color="#16418A"/>
      <stop offset=".8" stop-color="#2D73EB"/>
    </linearGradient>
    <linearGradient id="aL" x1="357.5" y1="0" x2="357.5" y2="353" gradientUnits="userSpaceOnUse">
      <stop offset=".1" stop-color="#16418A"/>
      <stop offset=".8" stop-color="#2D73EB"/>
    </linearGradient>
    <linearGradient id="aM" x1="357.5" y1="0" x2="357.5" y2="353" gradientUnits="userSpaceOnUse">
      <stop offset=".1" stop-color="#16418A"/>
      <stop offset=".8" stop-color="#2D73EB"/>
    </linearGradient>
    <linearGradient id="aN" x1="357.5" y1="0" x2="357.5" y2="353" gradientUnits="userSpaceOnUse">
      <stop offset=".1" stop-color="#16418A"/>
      <stop offset=".8" stop-color="#2D73EB"/>
    </linearGradient>
    <linearGradient id="aO" x1="357.5" y1="0" x2="357.5" y2="353" gradientUnits="userSpaceOnUse">
      <stop offset=".1" stop-color="#16418A"/>
      <stop offset=".8" stop-color="#2D73EB"/>
    </linearGradient>
    <linearGradient id="aP" x1="357.5" y1="0" x2="357.5" y2="353" gradientUnits="userSpaceOnUse">
      <stop offset=".1" stop-color="#16418A"/>
      <stop offset=".8" stop-color="#2D73EB"/>
    </linearGradient>
    <linearGradient id="aQ" x1="357.5" y1="0" x2="357.5" y2="353" gradientUnits="userSpaceOnUse">
      <stop offset=".1" stop-color="#16418A"/>
      <stop offset=".8" stop-color="#2D73EB"/>
    </linearGradient>
    <linearGradient id="aR" x1="357.5" y1="0" x2="357.5" y2="353" gradientUnits="userSpaceOnUse">
      <stop offset=".1" stop-color="#16418A"/>
      <stop offset=".8" stop-color="#2D73EB"/>
    </linearGradient>
    <linearGradient id="aS" x1="357.5" y1="0" x2="357.5" y2="353" gradientUnits="userSpaceOnUse">
      <stop offset=".1" stop-color="#16418A"/>
      <stop offset=".8" stop-color="#2D73EB"/>
    </linearGradient>
    <linearGradient id="aT" x1="357.5" y1="0" x2="357.5" y2="353" gradientUnits="userSpaceOnUse">
      <stop offset=".1" stop-color="#16418A"/>
      <stop offset=".8" stop-color="#2D73EB"/>
    </linearGradient>
    <linearGradient id="aU" x1="357.5" y1="0" x2="357.5" y2="353" gradientUnits="userSpaceOnUse">
      <stop offset=".1" stop-color="#16418A"/>
      <stop offset=".8" stop-color="#2D73EB"/>
    </linearGradient>
    <linearGradient id="aV" x1="357.5" y1="0" x2="357.5" y2="353" gradientUnits="userSpaceOnUse">
      <stop offset=".1" stop-color="#16418A"/>
      <stop offset=".8" stop-color="#2D73EB"/>
    </linearGradient>
    <linearGradient id="aW" x1="357.5" y1="0" x2="357.5" y2="353" gradientUnits="userSpaceOnUse">
      <stop offset=".1" stop-color="#16418A"/>
      <stop offset=".8" stop-color="#2D73EB"/>
    </linearGradient>
    <linearGradient id="aX" x1="357.5" y1="0" x2="357.5" y2="353" gradientUnits="userSpaceOnUse">
      <stop offset=".1" stop-color="#16418A"/>
      <stop offset=".8" stop-color="#2D73EB"/>
    </linearGradient>
    <linearGradient id="aY" x1="357.5" y1="0" x2="357.5" y2="353" gradientUnits="userSpaceOnUse">
      <stop offset=".1" stop-color="#16418A"/>
      <stop offset=".8" stop-color="#2D73EB"/>
    </linearGradient>
    <linearGradient id="aZ" x1="357.5" y1="0" x2="357.5" y2="353" gradientUnits="userSpaceOnUse">
      <stop offset=".1" stop-color="#16418A"/>
      <stop offset=".8" stop-color="#2D73EB"/>
    </linearGradient>
    <linearGradient id="ba" x1="357.5" y1="0" x2="357.5" y2="353" gradientUnits="userSpaceOnUse">
      <stop offset=".1" stop-color="#16418A"/>
      <stop offset=".8" stop-color="#2D73EB"/>
    </linearGradient>
    <linearGradient id="bb" x1="357.5" y1="0" x2="357.5" y2="353" gradientUnits="userSpaceOnUse">
      <stop offset=".1" stop-color="#16418A"/>
      <stop offset=".8" stop-color="#2D73EB"/>
    </linearGradient>
    <linearGradient id="bc" x1="357.5" y1="0" x2="357.5" y2="353" gradientUnits="userSpaceOnUse">
      <stop offset=".1" stop-color="#16418A"/>
      <stop offset=".8" stop-color="#2D73EB"/>
    </linearGradient>
    <linearGradient id="bd" x1="357.5" y1="0" x2="357.5" y2="353" gradientUnits="userSpaceOnUse">
      <stop offset=".1" stop-color="#16418A"/>
      <stop offset=".8" stop-color="#2D73EB"/>
    </linearGradient>
    <linearGradient id="be" x1="357.5" y1="0" x2="357.5" y2="353" gradientUnits="userSpaceOnUse">
      <stop offset=".1" stop-color="#16418A"/>
      <stop offset=".8" stop-color="#2D73EB"/>
    </linearGradient>
    <linearGradient id="bf" x1="357.5" y1="0" x2="357.5" y2="353" gradientUnits="userSpaceOnUse">
      <stop offset=".1" stop-color="#16418A"/>
      <stop offset=".8" stop-color="#2D73EB"/>
    </linearGradient>
    <linearGradient id="bg" x1="357.5" y1="0" x2="357.5" y2="353" gradientUnits="userSpaceOnUse">
      <stop offset=".1" stop-color="#16418A"/>
      <stop offset=".8" stop-color="#2D73EB"/>
    </linearGradient>
    <linearGradient id="bh" x1="357.5" y1="0" x2="357.5" y2="353" gradientUnits="userSpaceOnUse">
      <stop offset=".1" stop-color="#16418A"/>
      <stop offset=".8" stop-color="#2D73EB"/>
    </linearGradient>
    <linearGradient id="bi" x1="357.5" y1="0" x2="357.5" y2="353" gradientUnits="userSpaceOnUse">
      <stop offset=".1" stop-color="#16418A"/>
      <stop offset=".8" stop-color="#2D73EB"/>
    </linearGradient>
    <linearGradient id="bj" x1="357.5" y1="0" x2="357.5" y2="353" gradientUnits="userSpaceOnUse">
      <stop offset=".1" stop-color="#16418A"/>
      <stop offset=".8" stop-color="#2D73EB"/>
    </linearGradient>
    <linearGradient id="bk" x1="357.5" y1="0" x2="357.5" y2="353" gradientUnits="userSpaceOnUse">
      <stop offset=".1" stop-color="#16418A"/>
      <stop offset=".8" stop-color="#2D73EB"/>
    </linearGradient>
    <linearGradient id="bl" x1="357.5" y1="0" x2="357.5" y2="353" gradientUnits="userSpaceOnUse">
      <stop offset=".1" stop-color="#16418A"/>
      <stop offset=".8" stop-color="#2D73EB"/>
    </linearGradient>
    <linearGradient id="bm" x1="357.5" y1="0" x2="357.5" y2="353" gradientUnits="userSpaceOnUse">
      <stop offset=".1" stop-color="#16418A"/>
      <stop offset=".8" stop-color="#2D73EB"/>
    </linearGradient>
    <linearGradient id="bn" x1="357.5" y1="0" x2="357.5" y2="353" gradientUnits="userSpaceOnUse">
      <stop offset=".1" stop-color="#16418A"/>
      <stop offset=".8" stop-color="#2D73EB"/>
    </linearGradient>
    <linearGradient id="bo" x1="357.5" y1="0" x2="357.5" y2="353" gradientUnits="userSpaceOnUse">
      <stop offset=".1" stop-color="#16418A"/>
      <stop offset=".8" stop-color="#2D73EB"/>
    </linearGradient>
    <linearGradient id="bp" x1="357.5" y1="0" x2="357.5" y2="353" gradientUnits="userSpaceOnUse">
      <stop offset=".1" stop-color="#16418A"/>
      <stop offset=".8" stop-color="#2D73EB"/>
    </linearGradient>
    <linearGradient id="bq" x1="357.5" y1="0" x2="357.5" y2="353" gradientUnits="userSpaceOnUse">
      <stop offset=".1" stop-color="#16418A"/>
      <stop offset=".8" stop-color="#2D73EB"/>
    </linearGradient>
    <linearGradient id="br" x1="357.5" y1="0" x2="357.5" y2="353" gradientUnits="userSpaceOnUse">
      <stop offset=".1" stop-color="#16418A"/>
      <stop offset=".8" stop-color="#2D73EB"/>
    </linearGradient>
    <linearGradient id="bs" x1="357.5" y1="0" x2="357.5" y2="353" gradientUnits="userSpaceOnUse">
      <stop offset=".1" stop-color="#16418A"/>
      <stop offset=".8" stop-color="#2D73EB"/>
    </linearGradient>
    <linearGradient id="bt" x1="357.5" y1="0" x2="357.5" y2="353" gradientUnits="userSpaceOnUse">
      <stop offset=".1" stop-color="#16418A"/>
      <stop offset=".8" stop-color="#2D73EB"/>
    </linearGradient>
    <linearGradient id="bu" x1="357.5" y1="0" x2="357.5" y2="353" gradientUnits="userSpaceOnUse">
      <stop offset=".1" stop-color="#16418A"/>
      <stop offset=".8" stop-color="#2D73EB"/>
    </linearGradient>
    <linearGradient id="bv" x1="357.5" y1="0" x2="357.5" y2="353" gradientUnits="userSpaceOnUse">
      <stop offset=".1" stop-color="#16418A"/>
      <stop offset=".8" stop-color="#2D73EB"/>
    </linearGradient>
    <linearGradient id="bw" x1="357.5" y1="0" x2="357.5" y2="353" gradientUnits="userSpaceOnUse">
      <stop offset=".1" stop-color="#16418A"/>
      <stop offset=".8" stop-color="#2D73EB"/>
    </linearGradient>
    <linearGradient id="bx" x1="357.5" y1="0" x2="357.5" y2="353" gradientUnits="userSpaceOnUse">
      <stop offset=".1" stop-color="#16418A"/>
      <stop offset=".8" stop-color="#2D73EB"/>
    </linearGradient>
    <linearGradient id="by" x1="357.5" y1="0" x2="357.5" y2="353" gradientUnits="userSpaceOnUse">
      <stop offset=".1" stop-color="#16418A"/>
      <stop offset=".8" stop-color="#2D73EB"/>
    </linearGradient>
    <linearGradient id="bz" x1="357.5" y1="0" x2="357.5" y2="353" gradientUnits="userSpaceOnUse">
      <stop offset=".1" stop-color="#16418A"/>
      <stop offset=".8" stop-color="#2D73EB"/>
    </linearGradient>
    <linearGradient id="bA" x1="357.5" y1="0" x2="357.5" y2="353" gradientUnits="userSpaceOnUse">
      <stop offset=".1" stop-color="#16418A"/>
      <stop offset=".8" stop-color="#2D73EB"/>
    </linearGradient>
    <linearGradient id="bB" x1="357.5" y1="0" x2="357.5" y2="353" gradientUnits="userSpaceOnUse">
      <stop offset=".1" stop-color="#16418A"/>
      <stop offset=".8" stop-color="#2D73EB"/>
    </linearGradient>
    <linearGradient id="bC" x1="357.5" y1="0" x2="357.5" y2="353" gradientUnits="userSpaceOnUse">
      <stop offset=".1" stop-color="#16418A"/>
      <stop offset=".8" stop-color="#2D73EB"/>
    </linearGradient>
    <linearGradient id="bD" x1="357.5" y1="0" x2="357.5" y2="353" gradientUnits="userSpaceOnUse">
      <stop offset=".1" stop-color="#16418A"/>
      <stop offset=".8" stop-color="#2D73EB"/>
    </linearGradient>
    <linearGradient id="bE" x1="357.5" y1="0" x2="357.5" y2="353" gradientUnits="userSpaceOnUse">
      <stop offset=".1" stop-color="#16418A"/>
      <stop offset=".8" stop-color="#2D73EB"/>
    </linearGradient>
    <linearGradient id="bF" x1="357.5" y1="0" x2="357.5" y2="353" gradientUnits="userSpaceOnUse">
      <stop offset=".1" stop-color="#16418A"/>
      <stop offset=".8" stop-color="#2D73EB"/>
    </linearGradient>
    <linearGradient id="bG" x1="357.5" y1="0" x2="357.5" y2="353" gradientUnits="userSpaceOnUse">
      <stop offset=".1" stop-color="#16418A"/>
      <stop offset=".8" stop-color="#2D73EB"/>
    </linearGradient>
    <linearGradient id="bH" x1="357.5" y1="0" x2="357.5" y2="353" gradientUnits="userSpaceOnUse">
      <stop offset=".1" stop-color="#16418A"/>
      <stop offset=".8" stop-color="#2D73EB"/>
    </linearGradient>
    <linearGradient id="bI" x1="357.5" y1="0" x2="357.5" y2="353" gradientUnits="userSpaceOnUse">
      <stop offset=".1" stop-color="#16418A"/>
      <stop offset=".8" stop-color="#2D73EB"/>
    </linearGradient>
    <linearGradient id="bJ" x1="357.5" y1="0" x2="357.5" y2="353" gradientUnits="userSpaceOnUse">
      <stop offset=".1" stop-color="#16418A"/>
      <stop offset=".8" stop-color="#2D73EB"/>
    </linearGradient>
    <linearGradient id="bK" x1="357.5" y1="0" x2="357.5" y2="353" gradientUnits="userSpaceOnUse">
      <stop offset=".1" stop-color="#16418A"/>
      <stop offset=".8" stop-color="#2D73EB"/>
    </linearGradient>
    <linearGradient id="bL" x1="357.5" y1="0" x2="357.5" y2="353" gradientUnits="userSpaceOnUse">
      <stop offset=".1" stop-color="#16418A"/>
      <stop offset=".8" stop-color="#2D73EB"/>
    </linearGradient>
    <linearGradient id="bM" x1="357.5" y1="0" x2="357.5" y2="353" gradientUnits="userSpaceOnUse">
      <stop offset=".1" stop-color="#16418A"/>
      <stop offset=".8" stop-color="#2D73EB"/>
    </linearGradient>
    <linearGradient id="bN" x1="357.5" y1="0" x2="357.5" y2="353" gradientUnits="userSpaceOnUse">
      <stop offset=".1" stop-color="#16418A"/>
      <stop offset=".8" stop-color="#2D73EB"/>
    </linearGradient>
    <linearGradient id="bO" x1="357.5" y1="0" x2="357.5" y2="353" gradientUnits="userSpaceOnUse">
      <stop offset=".1" stop-color="#16418A"/>
      <stop offset=".8" stop-color="#2D73EB"/>
    </linearGradient>
    <linearGradient id="bP" x1="357.5" y1="0" x2="357.5" y2="353" gradientUnits="userSpaceOnUse">
      <stop offset=".1" stop-color="#16418A"/>
      <stop offset=".8" stop-color="#2D73EB"/>
    </linearGradient>
    <linearGradient id="bQ" x1="357.5" y1="0" x2="357.5" y2="353" gradientUnits="userSpaceOnUse">
      <stop offset=".1" stop-color="#16418A"/>
      <stop offset=".8" stop-color="#2D73EB"/>
    </linearGradient>
    <linearGradient id="bR" x1="357.5" y1="0" x2="357.5" y2="353" gradientUnits="userSpaceOnUse">
      <stop offset=".1" stop-color="#16418A"/>
      <stop offset=".8" stop-color="#2D73EB"/>
    </linearGradient>
    <linearGradient id="bS" x1="357.5" y1="0" x2="357.5" y2="353" gradientUnits="userSpaceOnUse">
      <stop offset=".1" stop-color="#16418A"/>
      <stop offset=".8" stop-color="#2D73EB"/>
    </linearGradient>
    <linearGradient id="bT" x1="357.5" y1="0" x2="357.5" y2="353" gradientUnits="userSpaceOnUse">
      <stop offset=".1" stop-color="#16418A"/>
      <stop offset=".8" stop-color="#2D73EB"/>
    </linearGradient>
    <linearGradient id="bU" x1="357.5" y1="0" x2="357.5" y2="353" gradientUnits="userSpaceOnUse">
      <stop offset=".1" stop-color="#16418A"/>
      <stop offset=".8" stop-color="#2D73EB"/>
    </linearGradient>
    <linearGradient id="bV" x1="357.5" y1="0" x2="357.5" y2="353" gradientUnits="userSpaceOnUse">
      <stop offset=".1" stop-color="#16418A"/>
      <stop offset=".8" stop-color="#2D73EB"/>
    </linearGradient>
    <linearGradient id="bW" x1="357.5" y1="0" x2="357.5" y2="353" gradientUnits="userSpaceOnUse">
      <stop offset=".1" stop-color="#16418A"/>
      <stop offset=".8" stop-color="#2D73EB"/>
    </linearGradient>
    <linearGradient id="bX" x1="357.5" y1="0" x2="357.5" y2="353" gradientUnits="userSpaceOnUse">
      <stop offset=".1" stop-color="#16418A"/>
      <stop offset=".8" stop-color="#2D73EB"/>
    </linearGradient>
    <linearGradient id="bY" x1="357.5" y1="0" x2="357.5" y2="353" gradientUnits="userSpaceOnUse">
      <stop offset=".1" stop-color="#16418A"/>
      <stop offset=".8" stop-color="#2D73EB"/>
    </linearGradient>
    <linearGradient id="bZ" x1="357.5" y1="0" x2="357.5" y2="353" gradientUnits="userSpaceOnUse">
      <stop offset=".1" stop-color="#16418A"/>
      <stop offset=".8" stop-color="#2D73EB"/>
    </linearGradient>
    <linearGradient id="ca" x1="357.5" y1="0" x2="357.5" y2="353" gradientUnits="userSpaceOnUse">
      <stop offset=".1" stop-color="#16418A"/>
      <stop offset=".8" stop-color="#2D73EB"/>
    </linearGradient>
    <linearGradient id="cb" x1="357.5" y1="0" x2="357.5" y2="353" gradientUnits="userSpaceOnUse">
      <stop offset=".1" stop-color="#16418A"/>
      <stop offset=".8" stop-color="#2D73EB"/>
    </linearGradient>
    <linearGradient id="cc" x1="357.5" y1="0" x2="357.5" y2="353" gradientUnits="userSpaceOnUse">
      <stop offset=".1" stop-color="#16418A"/>
      <stop offset=".8" stop-color="#2D73EB"/>
    </linearGradient>
    <linearGradient id="cd" x1="357.5" y1="0" x2="357.5" y2="353" gradientUnits="userSpaceOnUse">
      <stop offset=".1" stop-color="#16418A"/>
      <stop offset=".8" stop-color="#2D73EB"/>
    </linearGradient>
    <linearGradient id="ce" x1="357.5" y1="0" x2="357.5" y2="353" gradientUnits="userSpaceOnUse">
      <stop offset=".1" stop-color="#16418A"/>
      <stop offset=".8" stop-color="#2D73EB"/>
    </linearGradient>
    <linearGradient id="cf" x1="357.5" y1="0" x2="357.5" y2="353" gradientUnits="userSpaceOnUse">
      <stop offset=".1" stop-color="#16418A"/>
      <stop offset=".8" stop-color="#2D73EB"/>
    </linearGradient>
    <linearGradient id="cg" x1="357.5" y1="0" x2="357.5" y2="353" gradientUnits="userSpaceOnUse">
      <stop offset=".1" stop-color="#16418A"/>
      <stop offset=".8" stop-color="#2D73EB"/>
    </linearGradient>
    <linearGradient id="ch" x1="357.5" y1="0" x2="357.5" y2="353" gradientUnits="userSpaceOnUse">
      <stop offset=".1" stop-color="#16418A"/>
      <stop offset=".8" stop-color="#2D73EB"/>
    </linearGradient>
    <linearGradient id="ci" x1="357.5" y1="0" x2="357.5" y2="353" gradientUnits="userSpaceOnUse">
      <stop offset=".1" stop-color="#16418A"/>
      <stop offset=".8" stop-color="#2D73EB"/>
    </linearGradient>
    <linearGradient id="cj" x1="357.5" y1="0" x2="357.5" y2="353" gradientUnits="userSpaceOnUse">
      <stop offset=".1" stop-color="#16418A"/>
      <stop offset=".8" stop-color="#2D73EB"/>
    </linearGradient>
    <linearGradient id="ck" x1="357.5" y1="0" x2="357.5" y2="353" gradientUnits="userSpaceOnUse">
      <stop offset=".1" stop-color="#16418A"/>
      <stop offset=".8" stop-color="#2D73EB"/>
    </linearGradient>
    <linearGradient id="cl" x1="357.5" y1="0" x2="357.5" y2="353" gradientUnits="userSpaceOnUse">
      <stop offset=".1" stop-color="#16418A"/>
      <stop offset=".8" stop-color="#2D73EB"/>
    </linearGradient>
    <linearGradient id="cm" x1="357.5" y1="0" x2="357.5" y2="353" gradientUnits="userSpaceOnUse">
      <stop offset=".1" stop-color="#16418A"/>
      <stop offset=".8" stop-color="#2D73EB"/>
    </linearGradient>
    <linearGradient id="cn" x1="357.5" y1="0" x2="357.5" y2="353" gradientUnits="userSpaceOnUse">
      <stop offset=".1" stop-color="#16418A"/>
      <stop offset=".8" stop-color="#2D73EB"/>
    </linearGradient>
  </defs>
</svg>
