<svg width="82" height="49" viewBox="0 0 82 49" fill="none" xmlns="http://www.w3.org/2000/svg">
<path d="M19.2635 0.382914V48.7511C19.2635 48.8756 19.3725 49.0001 19.5126 49.0001H61.5994C61.6772 49.0001 61.7706 48.9379 61.7706 48.8289V0.414039C61.7706 0.289539 61.6616 0.165039 61.5216 0.165039H19.4348C19.3881 0.165039 19.3258 0.336227 19.2635 0.382914Z" fill="#092342"/>
<path d="M19.2635 0.336609V48.8909L19.3886 49.0001H61.7706V0.336609L61.6925 0.165039H19.4198C19.3261 0.165039 19.2635 0.243025 19.2635 0.336609Z" fill="#77A7D9"/>
<path d="M20.2756 0.165039V49.0001H61.7706V0.165039H20.2756Z" fill="#064A70"/>
<path d="M22.2997 10.3388V3.21704H59.7464V10.3388H22.2997Z" fill="url(#paint0_linear_455_2178)"/>
<path d="M59.7464 38.8259V45.9477H22.2997V38.8259H59.7464Z" fill="url(#paint1_linear_455_2178)"/>
<path d="M51.6498 3.21704H58.7343V44.9303H51.6498V3.21704Z" fill="url(#paint2_linear_455_2178)"/>
<path d="M30.3963 3.21704H23.3118V44.9303H30.3963V3.21704Z" fill="url(#paint3_linear_455_2178)"/>
<g opacity="0.15">
<mask id="mask0_455_2178" style="mask-type:luminance" maskUnits="userSpaceOnUse" x="20" y="0" width="42" height="49">
<path d="M61.8473 0.265625H20.1217V48.4932H61.8473V0.265625Z" fill="white"/>
</mask>
<g mask="url(#mask0_455_2178)">
<path d="M54.1674 0.265625L5.88135 48.7901" stroke="#0F3658" stroke-miterlimit="10"/>
<path d="M54.8514 0.265625L6.58093 48.7901" stroke="#0F3658" stroke-miterlimit="10"/>
<path d="M55.5511 0.265625L7.26501 48.7901" stroke="#0F3658" stroke-miterlimit="10"/>
<path d="M56.2351 0.265625L7.9646 48.7901" stroke="#0F3658" stroke-miterlimit="10"/>
<path d="M56.9346 0.265625L8.64856 48.7901" stroke="#0F3658" stroke-miterlimit="10"/>
<path d="M57.6342 0.265625L9.36365 48.7901" stroke="#0F3658" stroke-miterlimit="10"/>
<path d="M58.3338 0.265625L10.0477 48.7901" stroke="#0F3658" stroke-miterlimit="10"/>
<path d="M59.0178 0.265625L10.7628 48.7901" stroke="#0F3658" stroke-miterlimit="10"/>
<path d="M59.733 0.265625L11.4469 48.7901" stroke="#0F3658" stroke-miterlimit="10"/>
<path d="M60.417 0.265625L12.1154 48.7901" stroke="#0F3658" stroke-miterlimit="10"/>
<path d="M61.101 0.265625L12.8304 48.7901" stroke="#0F3658" stroke-miterlimit="10"/>
<path d="M61.8006 0.265625L13.5145 48.7901" stroke="#0F3658" stroke-miterlimit="10"/>
<path d="M63.8838 0.265625L15.6133 48.7901" stroke="#0F3658" stroke-miterlimit="10"/>
<path d="M66.6665 0.265625L18.396 48.7901" stroke="#0F3658" stroke-miterlimit="10"/>
<path d="M69.4493 0.265625L21.1477 48.7901" stroke="#0F3658" stroke-miterlimit="10"/>
<path d="M72.232 0.265625L23.9459 48.7901" stroke="#0F3658" stroke-miterlimit="10"/>
<path d="M43.052 0.265625L-5.23401 48.7901" stroke="#0F3658" stroke-miterlimit="10"/>
<path d="M43.7361 0.265625L-4.54993 48.7901" stroke="#0F3658" stroke-miterlimit="10"/>
<path d="M44.4201 0.265625L-3.83484 48.7901" stroke="#0F3658" stroke-miterlimit="10"/>
<path d="M45.1352 0.265625L-3.15088 48.7901" stroke="#0F3658" stroke-miterlimit="10"/>
<path d="M45.8192 0.265625L-2.45129 48.7901" stroke="#0F3658" stroke-miterlimit="10"/>
<path d="M46.5344 0.265625L-1.76721 48.7901" stroke="#0F3658" stroke-miterlimit="10"/>
<path d="M47.2184 0.265625L-1.06763 48.7901" stroke="#0F3658" stroke-miterlimit="10"/>
<path d="M47.9024 0.265625L-0.383667 48.7901" stroke="#0F3658" stroke-miterlimit="10"/>
<path d="M48.602 0.265625L0.331543 48.7901" stroke="#0F3658" stroke-miterlimit="10"/>
<path d="M49.3017 0.265625L1.01562 48.7901" stroke="#0F3658" stroke-miterlimit="10"/>
<path d="M49.9855 0.265625L1.73059 48.7901" stroke="#0F3658" stroke-miterlimit="10"/>
<path d="M50.7006 0.265625L2.41455 48.7901" stroke="#0F3658" stroke-miterlimit="10"/>
<path d="M51.3847 0.265625L3.08313 48.7901" stroke="#0F3658" stroke-miterlimit="10"/>
<path d="M52.0843 0.265625L3.79822 48.7901" stroke="#0F3658" stroke-miterlimit="10"/>
<path d="M52.7684 0.265625L4.4823 48.7901" stroke="#0F3658" stroke-miterlimit="10"/>
<path d="M53.4524 0.265625L5.18188 48.7901" stroke="#0F3658" stroke-miterlimit="10"/>
<path d="M31.9367 0.265625L-17.4531 48.7901" stroke="#0F3658" stroke-miterlimit="10"/>
<path d="M32.6362 0.265625L-16.7537 48.7901" stroke="#0F3658" stroke-miterlimit="10"/>
<path d="M33.3201 0.265625L-16.0542 48.7901" stroke="#0F3658" stroke-miterlimit="10"/>
<path d="M34.0198 0.265625L-15.3545 48.7901" stroke="#0F3658" stroke-miterlimit="10"/>
<path d="M34.7039 0.265625L-14.6704 48.7901" stroke="#0F3658" stroke-miterlimit="10"/>
<path d="M35.3879 0.265625L-13.9553 48.7901" stroke="#0F3658" stroke-miterlimit="10"/>
<path d="M36.1029 0.265625L-13.2714 48.7901" stroke="#0F3658" stroke-miterlimit="10"/>
<path d="M36.7869 0.265625L-12.5874 48.7901" stroke="#0F3658" stroke-miterlimit="10"/>
<path d="M37.5021 0.265625L-11.8877 48.7901" stroke="#0F3658" stroke-miterlimit="10"/>
<path d="M38.1862 0.265625L-11.1881 48.7901" stroke="#0F3658" stroke-miterlimit="10"/>
<path d="M38.8701 0.265625L-10.4886 48.7901" stroke="#0F3658" stroke-miterlimit="10"/>
<path d="M39.5698 0.265625L-9.78894 48.7901" stroke="#0F3658" stroke-miterlimit="10"/>
<path d="M40.2694 0.265625L-9.10486 48.7901" stroke="#0F3658" stroke-miterlimit="10"/>
<path d="M40.9688 0.265625L-7.31726 48.7901" stroke="#0F3658" stroke-miterlimit="10"/>
<path d="M41.6685 0.265625L-6.61755 48.7901" stroke="#0F3658" stroke-miterlimit="10"/>
<path d="M42.3523 0.265625L-5.93372 48.7901" stroke="#0F3658" stroke-miterlimit="10"/>
<path d="M20.8212 0.265625L-28.5531 48.7901" stroke="#0F3658" stroke-miterlimit="10"/>
<path d="M21.5051 0.265625L-27.8691 48.7901" stroke="#0F3658" stroke-miterlimit="10"/>
<path d="M22.2047 0.265625L-27.1696 48.7901" stroke="#0F3658" stroke-miterlimit="10"/>
<path d="M22.9044 0.265625L-26.4698 48.7901" stroke="#0F3658" stroke-miterlimit="10"/>
<path d="M23.6039 0.265625L-25.7859 48.7901" stroke="#0F3658" stroke-miterlimit="10"/>
<path d="M24.288 0.265625L-25.0863 48.7901" stroke="#0F3658" stroke-miterlimit="10"/>
<path d="M24.9876 0.265625L-24.3867 48.7901" stroke="#0F3658" stroke-miterlimit="10"/>
<path d="M25.6715 0.265625L-23.7028 48.7901" stroke="#0F3658" stroke-miterlimit="10"/>
<path d="M26.3711 0.265625L-22.9877 48.7901" stroke="#0F3658" stroke-miterlimit="10"/>
<path d="M27.0707 0.265625L-22.3036 48.7901" stroke="#0F3658" stroke-miterlimit="10"/>
<path d="M27.7548 0.265625L-21.6195 48.7901" stroke="#0F3658" stroke-miterlimit="10"/>
<path d="M28.4699 0.265625L-20.9199 48.7901" stroke="#0F3658" stroke-miterlimit="10"/>
<path d="M29.1538 0.265625L-20.2205 48.7901" stroke="#0F3658" stroke-miterlimit="10"/>
<path d="M29.8379 0.265625L-19.5209 48.7901" stroke="#0F3658" stroke-miterlimit="10"/>
<path d="M30.5375 0.265625L-18.8368 48.7901" stroke="#0F3658" stroke-miterlimit="10"/>
<path d="M31.2371 0.265625L-18.1372 48.7901" stroke="#0F3658" stroke-miterlimit="10"/>
<path d="M90.9805 0.265625L42.6945 48.7901" stroke="#0F3658" stroke-miterlimit="10"/>
<path d="M92.3641 0.265625L44.0936 48.7901" stroke="#0F3658" stroke-miterlimit="10"/>
<path d="M93.7477 0.265625L45.4772 48.7901" stroke="#0F3658" stroke-miterlimit="10"/>
<path d="M95.1468 0.265625L46.8763 48.7901" stroke="#0F3658" stroke-miterlimit="10"/>
<path d="M96.5306 0.265625L48.2445 48.7901" stroke="#0F3658" stroke-miterlimit="10"/>
<path d="M96.8414 0.265625L49.6436 48.7901" stroke="#0F3658" stroke-miterlimit="10"/>
<path d="M98.225 0.265625L51.0272 48.7901" stroke="#0F3658" stroke-miterlimit="10"/>
<path d="M99.6086 0.265625L52.4108 48.7901" stroke="#0F3658" stroke-miterlimit="10"/>
<path d="M101.008 0.265625L53.8098 48.7901" stroke="#0F3658" stroke-miterlimit="10"/>
<path d="M102.391 0.265625L55.209 48.7901" stroke="#0F3658" stroke-miterlimit="10"/>
<path d="M104.475 0.265625L57.2922 48.7901" stroke="#0F3658" stroke-miterlimit="10"/>
<path d="M107.257 0.265625L60.0594 48.7901" stroke="#0F3658" stroke-miterlimit="10"/>
<path d="M103.775 0.265625L56.5927 48.7901" stroke="#0F3658" stroke-miterlimit="10"/>
<path d="M105.174 0.265625L57.9763 48.7901" stroke="#0F3658" stroke-miterlimit="10"/>
<path d="M106.573 0.265625L59.3754 48.7901" stroke="#0F3658" stroke-miterlimit="10"/>
<path d="M107.957 0.265625L60.759 48.7901" stroke="#0F3658" stroke-miterlimit="10"/>
<path d="M68.7652 0.265625L20.4636 48.7901" stroke="#0F3658" stroke-miterlimit="10"/>
<path d="M70.1177 0.265625L21.8628 48.7901" stroke="#0F3658" stroke-miterlimit="10"/>
<path d="M71.5168 0.265625L23.2463 48.7901" stroke="#0F3658" stroke-miterlimit="10"/>
<path d="M72.916 0.265625L24.6455 48.7901" stroke="#0F3658" stroke-miterlimit="10"/>
<path d="M74.2997 0.265625L26.0292 48.7901" stroke="#0F3658" stroke-miterlimit="10"/>
<path d="M75.6833 0.265625L27.4283 48.7901" stroke="#0F3658" stroke-miterlimit="10"/>
<path d="M77.0823 0.265625L28.7963 48.7901" stroke="#0F3658" stroke-miterlimit="10"/>
<path d="M78.4814 0.265625L30.1798 48.7901" stroke="#0F3658" stroke-miterlimit="10"/>
<path d="M79.865 0.265625L31.579 48.7901" stroke="#0F3658" stroke-miterlimit="10"/>
<path d="M81.2487 0.265625L32.9781 48.7901" stroke="#0F3658" stroke-miterlimit="10"/>
<path d="M82.6479 0.265625L34.3463 48.7901" stroke="#0F3658" stroke-miterlimit="10"/>
<path d="M84.0314 0.265625L35.7454 48.7901" stroke="#0F3658" stroke-miterlimit="10"/>
<path d="M85.4306 0.265625L37.1445 48.7901" stroke="#0F3658" stroke-miterlimit="10"/>
<path d="M86.8297 0.265625L38.5281 48.7901" stroke="#0F3658" stroke-miterlimit="10"/>
<path d="M88.1977 0.265625L39.9116 48.7901" stroke="#0F3658" stroke-miterlimit="10"/>
<path d="M89.597 0.265625L41.3109 48.7901" stroke="#0F3658" stroke-miterlimit="10"/>
<path d="M90.281 0.265625L42.0105 48.7901" stroke="#0F3658" stroke-miterlimit="10"/>
<path d="M91.68 0.265625L43.3784 48.7901" stroke="#0F3658" stroke-miterlimit="10"/>
<path d="M93.0638 0.265625L44.7777 48.7901" stroke="#0F3658" stroke-miterlimit="10"/>
<path d="M94.4629 0.265625L46.1769 48.7901" stroke="#0F3658" stroke-miterlimit="10"/>
<path d="M95.8465 0.265625L47.5604 48.7901" stroke="#0F3658" stroke-miterlimit="10"/>
<path d="M97.23 0.265625L48.944 48.7901" stroke="#0F3658" stroke-miterlimit="10"/>
<path d="M97.541 0.265625L50.3431 48.7901" stroke="#0F3658" stroke-miterlimit="10"/>
<path d="M98.9245 0.265625L51.7267 48.7901" stroke="#0F3658" stroke-miterlimit="10"/>
<path d="M100.293 0.265625L53.126 48.7901" stroke="#0F3658" stroke-miterlimit="10"/>
<path d="M101.692 0.265625L54.5095 48.7901" stroke="#0F3658" stroke-miterlimit="10"/>
<path d="M103.075 0.265625L55.9087 48.7901" stroke="#0F3658" stroke-miterlimit="10"/>
<path d="M105.858 0.265625L58.6758 48.7901" stroke="#0F3658" stroke-miterlimit="10"/>
<path d="M63.1997 0.265625L14.9137 48.7901" stroke="#0F3658" stroke-miterlimit="10"/>
<path d="M64.5833 0.265625L16.2972 48.7901" stroke="#0F3658" stroke-miterlimit="10"/>
<path d="M65.967 0.265625L17.6809 48.7901" stroke="#0F3658" stroke-miterlimit="10"/>
<path d="M67.3661 0.265625L19.0801 48.7901" stroke="#0F3658" stroke-miterlimit="10"/>
<path d="M62.4846 0.265625L14.2141 48.7901" stroke="#0F3658" stroke-miterlimit="10"/>
<path d="M65.2673 0.265625L16.9968 48.7901" stroke="#0F3658" stroke-miterlimit="10"/>
<path d="M68.0502 0.265625L19.7642 48.7901" stroke="#0F3658" stroke-miterlimit="10"/>
<path d="M70.8329 0.265625L22.5469 48.7901" stroke="#0F3658" stroke-miterlimit="10"/>
<path d="M73.6156 0.265625L25.314 48.7901" stroke="#0F3658" stroke-miterlimit="10"/>
<path d="M74.9992 0.265625L26.7131 48.7901" stroke="#0F3658" stroke-miterlimit="10"/>
<path d="M76.3982 0.265625L28.1122 48.7901" stroke="#0F3658" stroke-miterlimit="10"/>
<path d="M77.7976 0.265625L29.496 48.7901" stroke="#0F3658" stroke-miterlimit="10"/>
<path d="M79.1655 0.265625L30.895 48.7901" stroke="#0F3658" stroke-miterlimit="10"/>
<path d="M80.5491 0.265625L32.2786 48.7901" stroke="#0F3658" stroke-miterlimit="10"/>
<path d="M81.9482 0.265625L33.6777 48.7901" stroke="#0F3658" stroke-miterlimit="10"/>
<path d="M83.3318 0.265625L35.0613 48.7901" stroke="#0F3658" stroke-miterlimit="10"/>
<path d="M84.7154 0.265625L36.4604 48.7901" stroke="#0F3658" stroke-miterlimit="10"/>
<path d="M86.1147 0.265625L37.8286 48.7901" stroke="#0F3658" stroke-miterlimit="10"/>
<path d="M87.4982 0.265625L39.2122 48.7901" stroke="#0F3658" stroke-miterlimit="10"/>
<path d="M88.8974 0.265625L40.6113 48.7901" stroke="#0F3658" stroke-miterlimit="10"/>
</g>
</g>
<path d="M19.9039 0V48.7433H62.0648V0H19.9039ZM57.8829 45.2114H24.1014C23.7127 45.2114 23.4173 44.9144 23.4173 44.5237V4.23515C23.4173 3.84445 23.7127 3.54752 24.1014 3.54752H57.8829C58.2716 3.54752 58.567 3.84445 58.567 4.23515V44.555C58.5514 44.9144 58.2561 45.2114 57.8829 45.2114Z" fill="url(#paint4_linear_455_2178)"/>
<path d="M58.4427 3.84424C58.5204 3.95363 58.5515 4.09428 58.5515 4.23493V44.5548C58.5515 44.9455 58.2561 45.2424 57.8675 45.2424H24.1014C23.946 45.2424 23.8216 45.1799 23.7128 45.133C23.8371 45.3049 24.0548 45.4299 24.2724 45.4299H58.054C58.4427 45.4299 58.738 45.133 58.738 44.7423V4.40684C58.738 4.18805 58.6292 3.96926 58.4427 3.84424Z" fill="#2680C3"/>
<path d="M23.6196 4.40714C23.6196 4.01645 23.915 3.71952 24.3036 3.71952H58.0852C58.2406 3.71952 58.365 3.78203 58.4738 3.82891C58.3495 3.65701 58.1318 3.53198 57.9142 3.53198H24.1015C23.7129 3.53198 23.4175 3.82891 23.4175 4.21961V44.5395C23.4175 44.7895 23.5419 44.9927 23.7129 45.1021C23.6351 44.9927 23.604 44.852 23.604 44.7114V4.40714H23.6196Z" fill="#0D1627"/>
<path d="M44.7739 12.3735L41.6639 15.5893H40.4136L37.3036 12.3735H1.04626V35.7737H37.288L40.398 32.714H41.6483L44.7583 35.7737H81V12.3735H44.7739Z" fill="#064A70"/>
<path d="M66.8309 33.7392H59.0605L55.6981 31.7788V17.0836L58.7066 15.426H66.8309V33.7392Z" fill="url(#paint5_linear_455_2178)"/>
<path d="M44.5653 25.5999V33.739H76.9516V25.5999H44.5653Z" fill="url(#paint6_linear_455_2178)"/>
<path d="M76.9516 23.5652V15.426H44.5653V23.5652H76.9516Z" fill="url(#paint7_linear_455_2178)"/>
<path d="M69.8672 33.7392H76.9517V15.426H69.8672V33.7392Z" fill="url(#paint8_linear_455_2178)"/>
<g opacity="0.15">
<mask id="mask1_455_2178" style="mask-type:luminance" maskUnits="userSpaceOnUse" x="1" y="12" width="80" height="25">
<path d="M44.6844 12.6426L41.5907 15.8463H40.3315L37.2534 12.6426H1.18652V36.0531H37.2534L40.3315 33.0057H41.5907L44.6844 36.0531H80.7512V12.6426H44.6844Z" fill="white"/>
</mask>
<g mask="url(#mask1_455_2178)">
<path d="M49.3792 -2.00049L1.09314 46.5396" stroke="#0F3658" stroke-miterlimit="10"/>
<path d="M50.0788 -2.00049L1.79272 46.5396" stroke="#0F3658" stroke-miterlimit="10"/>
<path d="M50.7628 -2.00049L2.49231 46.5396" stroke="#0F3658" stroke-miterlimit="10"/>
<path d="M51.4624 -2.00049L3.17639 46.5396" stroke="#0F3658" stroke-miterlimit="10"/>
<path d="M52.1464 -2.00049L3.87585 46.5396" stroke="#0F3658" stroke-miterlimit="10"/>
<path d="M52.8615 -2.00049L4.55994 46.5396" stroke="#0F3658" stroke-miterlimit="10"/>
<path d="M53.53 -2.00049L5.25952 46.5396" stroke="#0F3658" stroke-miterlimit="10"/>
<path d="M54.2297 -2.00049L5.9436 46.5396" stroke="#0F3658" stroke-miterlimit="10"/>
<path d="M54.9292 -2.00049L6.65869 46.5396" stroke="#0F3658" stroke-miterlimit="10"/>
<path d="M55.6287 -2.00049L7.34265 46.5396" stroke="#0F3658" stroke-miterlimit="10"/>
<path d="M56.3128 -2.00049L8.02673 46.5396" stroke="#0F3658" stroke-miterlimit="10"/>
<path d="M56.9968 -2.00049L8.72632 46.5396" stroke="#0F3658" stroke-miterlimit="10"/>
<path d="M59.08 -2.00049L10.8094 46.5396" stroke="#0F3658" stroke-miterlimit="10"/>
<path d="M61.8783 -2.00049L13.5923 46.5396" stroke="#0F3658" stroke-miterlimit="10"/>
<path d="M64.6299 -2.00049L16.3594 46.5396" stroke="#0F3658" stroke-miterlimit="10"/>
<path d="M67.4126 -2.00049L19.1266 46.5396" stroke="#0F3658" stroke-miterlimit="10"/>
<path d="M38.2949 -2.00049L-11.0793 46.5396" stroke="#0F3658" stroke-miterlimit="10"/>
<path d="M38.9789 -2.00049L-10.3954 46.5396" stroke="#0F3658" stroke-miterlimit="10"/>
<path d="M39.6629 -2.00049L-9.6958 46.5396" stroke="#0F3658" stroke-miterlimit="10"/>
<path d="M40.3625 -2.00049L-8.99622 46.5396" stroke="#0F3658" stroke-miterlimit="10"/>
<path d="M41.0621 -2.00049L-7.20837 46.5396" stroke="#0F3658" stroke-miterlimit="10"/>
<path d="M41.7616 -2.00049L-6.52441 46.5396" stroke="#0F3658" stroke-miterlimit="10"/>
<path d="M42.4457 -2.00049L-5.84033 46.5396" stroke="#0F3658" stroke-miterlimit="10"/>
<path d="M43.1453 -2.00049L-5.14075 46.5396" stroke="#0F3658" stroke-miterlimit="10"/>
<path d="M43.8293 -2.00049L-4.45679 46.5396" stroke="#0F3658" stroke-miterlimit="10"/>
<path d="M44.5133 -2.00049L-3.7572 46.5396" stroke="#0F3658" stroke-miterlimit="10"/>
<path d="M45.2128 -2.00049L-3.05774 46.5396" stroke="#0F3658" stroke-miterlimit="10"/>
<path d="M45.9125 -2.00049L-2.35803 46.5396" stroke="#0F3658" stroke-miterlimit="10"/>
<path d="M46.6121 -2.00049L-1.67395 46.5396" stroke="#0F3658" stroke-miterlimit="10"/>
<path d="M47.296 -2.00049L-0.974487 46.5396" stroke="#0F3658" stroke-miterlimit="10"/>
<path d="M48.0112 -2.00049L-0.290405 46.5396" stroke="#0F3658" stroke-miterlimit="10"/>
<path d="M48.6797 -2.00049L0.393677 46.5396" stroke="#0F3658" stroke-miterlimit="10"/>
<path d="M27.1951 -2.00049L-22.1792 46.5396" stroke="#0F3658" stroke-miterlimit="10"/>
<path d="M27.8946 -2.00049L-21.4952 46.5396" stroke="#0F3658" stroke-miterlimit="10"/>
<path d="M28.5786 -2.00049L-20.7802 46.5396" stroke="#0F3658" stroke-miterlimit="10"/>
<path d="M29.2782 -2.00049L-20.0961 46.5396" stroke="#0F3658" stroke-miterlimit="10"/>
<path d="M29.9622 -2.00049L-19.4121 46.5396" stroke="#0F3658" stroke-miterlimit="10"/>
<path d="M30.6463 -2.00049L-18.7124 46.5396" stroke="#0F3658" stroke-miterlimit="10"/>
<path d="M31.3613 -2.00049L-18.0129 46.5396" stroke="#0F3658" stroke-miterlimit="10"/>
<path d="M32.0454 -2.00049L-17.3289 46.5396" stroke="#0F3658" stroke-miterlimit="10"/>
<path d="M32.7449 -2.00049L-16.6449 46.5396" stroke="#0F3658" stroke-miterlimit="10"/>
<path d="M33.429 -2.00049L-15.9297 46.5396" stroke="#0F3658" stroke-miterlimit="10"/>
<path d="M34.1287 -2.00049L-15.2456 46.5396" stroke="#0F3658" stroke-miterlimit="10"/>
<path d="M34.8125 -2.00049L-14.5618 46.5396" stroke="#0F3658" stroke-miterlimit="10"/>
<path d="M35.5121 -2.00049L-13.8467 46.5396" stroke="#0F3658" stroke-miterlimit="10"/>
<path d="M36.2117 -2.00049L-13.1626 46.5396" stroke="#0F3658" stroke-miterlimit="10"/>
<path d="M36.9113 -2.00049L-12.4785 46.5396" stroke="#0F3658" stroke-miterlimit="10"/>
<path d="M37.5954 -2.00049L-11.7944 46.5396" stroke="#0F3658" stroke-miterlimit="10"/>
<path d="M16.0951 -2.00049L-33.2792 46.5396" stroke="#0F3658" stroke-miterlimit="10"/>
<path d="M16.7791 -2.00049L-32.5641 46.5396" stroke="#0F3658" stroke-miterlimit="10"/>
<path d="M17.4942 -2.00049L-31.8956 46.5396" stroke="#0F3658" stroke-miterlimit="10"/>
<path d="M18.1782 -2.00049L-31.196 46.5396" stroke="#0F3658" stroke-miterlimit="10"/>
<path d="M18.8779 -2.00049L-30.512 46.5396" stroke="#0F3658" stroke-miterlimit="10"/>
<path d="M19.562 -2.00049L-29.7968 46.5396" stroke="#0F3658" stroke-miterlimit="10"/>
<path d="M20.2615 -2.00049L-29.1128 46.5396" stroke="#0F3658" stroke-miterlimit="10"/>
<path d="M20.9454 -2.00049L-28.4288 46.5396" stroke="#0F3658" stroke-miterlimit="10"/>
<path d="M21.645 -2.00049L-27.7137 46.5396" stroke="#0F3658" stroke-miterlimit="10"/>
<path d="M22.3445 -2.00049L-27.0453 46.5396" stroke="#0F3658" stroke-miterlimit="10"/>
<path d="M23.0442 -2.00049L-26.3456 46.5396" stroke="#0F3658" stroke-miterlimit="10"/>
<path d="M23.7283 -2.00049L-25.646 46.5396" stroke="#0F3658" stroke-miterlimit="10"/>
<path d="M24.4123 -2.00049L-24.9464 46.5396" stroke="#0F3658" stroke-miterlimit="10"/>
<path d="M25.1118 -2.00049L-24.2625 46.5396" stroke="#0F3658" stroke-miterlimit="10"/>
<path d="M25.7959 -2.00049L-23.5629 46.5396" stroke="#0F3658" stroke-miterlimit="10"/>
<path d="M26.511 -2.00049L-22.8633 46.5396" stroke="#0F3658" stroke-miterlimit="10"/>
<path d="M86.13 -2.00049L37.844 46.5396" stroke="#0F3658" stroke-miterlimit="10"/>
<path d="M87.4981 -2.00049L39.2432 46.5396" stroke="#0F3658" stroke-miterlimit="10"/>
<path d="M88.8974 -2.00049L40.6113 46.5396" stroke="#0F3658" stroke-miterlimit="10"/>
<path d="M90.2965 -2.00049L42.0105 46.5396" stroke="#0F3658" stroke-miterlimit="10"/>
<path d="M91.68 -2.00049L43.3784 46.5396" stroke="#0F3658" stroke-miterlimit="10"/>
<path d="M93.0637 -2.00049L44.7776 46.5396" stroke="#0F3658" stroke-miterlimit="10"/>
<path d="M94.4473 -2.00049L46.1613 46.5396" stroke="#0F3658" stroke-miterlimit="10"/>
<path d="M95.8464 -2.00049L47.5603 46.5396" stroke="#0F3658" stroke-miterlimit="10"/>
<path d="M97.2145 -2.00049L48.944 46.5396" stroke="#0F3658" stroke-miterlimit="10"/>
<path d="M97.5098 -2.00049L50.3275 46.5396" stroke="#0F3658" stroke-miterlimit="10"/>
<path d="M99.5931 -2.00049L52.4108 46.5396" stroke="#0F3658" stroke-miterlimit="10"/>
<path d="M102.376 -2.00049L55.1779 46.5396" stroke="#0F3658" stroke-miterlimit="10"/>
<path d="M98.8934 -2.00049L51.7267 46.5396" stroke="#0F3658" stroke-miterlimit="10"/>
<path d="M100.277 -2.00049L53.0792 46.5396" stroke="#0F3658" stroke-miterlimit="10"/>
<path d="M101.676 -2.00049L54.4784 46.5396" stroke="#0F3658" stroke-miterlimit="10"/>
<path d="M103.06 -2.00049L55.8776 46.5396" stroke="#0F3658" stroke-miterlimit="10"/>
<path d="M63.9304 -2.00049L15.6599 46.5396" stroke="#0F3658" stroke-miterlimit="10"/>
<path d="M65.3295 -2.00049L17.0435 46.5396" stroke="#0F3658" stroke-miterlimit="10"/>
<path d="M66.7286 -2.00049L18.4425 46.5396" stroke="#0F3658" stroke-miterlimit="10"/>
<path d="M68.0967 -2.00049L19.8107 46.5396" stroke="#0F3658" stroke-miterlimit="10"/>
<path d="M69.4959 -2.00049L21.2098 46.5396" stroke="#0F3658" stroke-miterlimit="10"/>
<path d="M70.8639 -2.00049L22.5934 46.5396" stroke="#0F3658" stroke-miterlimit="10"/>
<path d="M72.263 -2.00049L23.9769 46.5396" stroke="#0F3658" stroke-miterlimit="10"/>
<path d="M73.6466 -2.00049L25.3761 46.5396" stroke="#0F3658" stroke-miterlimit="10"/>
<path d="M75.0303 -2.00049L26.7443 46.5396" stroke="#0F3658" stroke-miterlimit="10"/>
<path d="M76.4294 -2.00049L28.1433 46.5396" stroke="#0F3658" stroke-miterlimit="10"/>
<path d="M77.7974 -2.00049L29.5114 46.5396" stroke="#0F3658" stroke-miterlimit="10"/>
<path d="M79.1966 -2.00049L30.9105 46.5396" stroke="#0F3658" stroke-miterlimit="10"/>
<path d="M80.5802 -2.00049L32.3097 46.5396" stroke="#0F3658" stroke-miterlimit="10"/>
<path d="M81.9793 -2.00049L33.6777 46.5396" stroke="#0F3658" stroke-miterlimit="10"/>
<path d="M83.363 -2.00049L35.0769 46.5396" stroke="#0F3658" stroke-miterlimit="10"/>
<path d="M84.731 -2.00049L36.4604 46.5396" stroke="#0F3658" stroke-miterlimit="10"/>
<path d="M85.4304 -2.00049L37.1599 46.5396" stroke="#0F3658" stroke-miterlimit="10"/>
<path d="M86.8297 -2.00049L38.5281 46.5396" stroke="#0F3658" stroke-miterlimit="10"/>
<path d="M88.2133 -2.00049L39.9272 46.5396" stroke="#0F3658" stroke-miterlimit="10"/>
<path d="M89.5968 -2.00049L41.3108 46.5396" stroke="#0F3658" stroke-miterlimit="10"/>
<path d="M90.9804 -2.00049L42.6943 46.5396" stroke="#0F3658" stroke-miterlimit="10"/>
<path d="M92.3485 -2.00049L44.0935 46.5396" stroke="#0F3658" stroke-miterlimit="10"/>
<path d="M93.7477 -2.00049L45.4772 46.5396" stroke="#0F3658" stroke-miterlimit="10"/>
<path d="M95.1468 -2.00049L46.8763 46.5396" stroke="#0F3658" stroke-miterlimit="10"/>
<path d="M96.5304 -2.00049L48.2288 46.5396" stroke="#0F3658" stroke-miterlimit="10"/>
<path d="M96.8259 -2.00049L49.6281 46.5396" stroke="#0F3658" stroke-miterlimit="10"/>
<path d="M98.2094 -2.00049L51.0271 46.5396" stroke="#0F3658" stroke-miterlimit="10"/>
<path d="M100.992 -2.00049L53.7943 46.5396" stroke="#0F3658" stroke-miterlimit="10"/>
<path d="M58.3804 -2.00049L10.1099 46.5396" stroke="#0F3658" stroke-miterlimit="10"/>
<path d="M59.7795 -2.00049L11.509 46.5396" stroke="#0F3658" stroke-miterlimit="10"/>
<path d="M61.1633 -2.00049L12.8772 46.5396" stroke="#0F3658" stroke-miterlimit="10"/>
<path d="M62.5623 -2.00049L14.2607 46.5396" stroke="#0F3658" stroke-miterlimit="10"/>
<path d="M57.712 -2.00049L9.4104 46.5396" stroke="#0F3658" stroke-miterlimit="10"/>
<path d="M60.4792 -2.00049L12.1931 46.5396" stroke="#0F3658" stroke-miterlimit="10"/>
<path d="M63.2463 -2.00049L14.9602 46.5396" stroke="#0F3658" stroke-miterlimit="10"/>
<path d="M66.0134 -2.00049L17.7429 46.5396" stroke="#0F3658" stroke-miterlimit="10"/>
<path d="M68.7807 -2.00049L20.5258 46.5396" stroke="#0F3658" stroke-miterlimit="10"/>
<path d="M70.1799 -2.00049L21.8938 46.5396" stroke="#0F3658" stroke-miterlimit="10"/>
<path d="M71.5789 -2.00049L23.2928 46.5396" stroke="#0F3658" stroke-miterlimit="10"/>
<path d="M72.9471 -2.00049L24.661 46.5396" stroke="#0F3658" stroke-miterlimit="10"/>
<path d="M74.3462 -2.00049L26.0602 46.5396" stroke="#0F3658" stroke-miterlimit="10"/>
<path d="M75.7299 -2.00049L27.4594 46.5396" stroke="#0F3658" stroke-miterlimit="10"/>
<path d="M77.1133 -2.00049L28.8273 46.5396" stroke="#0F3658" stroke-miterlimit="10"/>
<path d="M78.4969 -2.00049L30.2264 46.5396" stroke="#0F3658" stroke-miterlimit="10"/>
<path d="M79.8806 -2.00049L31.6101 46.5396" stroke="#0F3658" stroke-miterlimit="10"/>
<path d="M81.2797 -2.00049L32.9937 46.5396" stroke="#0F3658" stroke-miterlimit="10"/>
<path d="M82.6478 -2.00049L34.3617 46.5396" stroke="#0F3658" stroke-miterlimit="10"/>
<path d="M84.0469 -2.00049L35.7609 46.5396" stroke="#0F3658" stroke-miterlimit="10"/>
<path d="M104.443 -2.00049L57.2611 46.5396" stroke="#0F3658" stroke-miterlimit="10"/>
<path d="M107.226 -2.00049L60.0283 46.5396" stroke="#0F3658" stroke-miterlimit="10"/>
<path d="M109.978 -2.00049L62.811 46.5396" stroke="#0F3658" stroke-miterlimit="10"/>
<path d="M106.527 -2.00049L59.3442 46.5396" stroke="#0F3658" stroke-miterlimit="10"/>
<path d="M107.91 -2.00049L60.7434 46.5396" stroke="#0F3658" stroke-miterlimit="10"/>
<path d="M109.294 -2.00049L62.1115 46.5396" stroke="#0F3658" stroke-miterlimit="10"/>
<path d="M110.693 -2.00049L63.4951 46.5396" stroke="#0F3658" stroke-miterlimit="10"/>
<path d="M112.076 -2.00049L64.8787 46.5396" stroke="#0F3658" stroke-miterlimit="10"/>
<path d="M113.46 -2.00049L66.2778 46.5396" stroke="#0F3658" stroke-miterlimit="10"/>
<path d="M114.844 -2.00049L67.6614 46.5396" stroke="#0F3658" stroke-miterlimit="10"/>
<path d="M116.243 -2.00049L69.0449 46.5396" stroke="#0F3658" stroke-miterlimit="10"/>
<path d="M116.927 -2.00049L69.729 46.5396" stroke="#0F3658" stroke-miterlimit="10"/>
<path d="M103.759 -2.00049L56.577 46.5396" stroke="#0F3658" stroke-miterlimit="10"/>
<path d="M105.127 -2.00049L57.9452 46.5396" stroke="#0F3658" stroke-miterlimit="10"/>
<path d="M105.842 -2.00049L58.6447 46.5396" stroke="#0F3658" stroke-miterlimit="10"/>
<path d="M108.61 -2.00049L61.4274 46.5396" stroke="#0F3658" stroke-miterlimit="10"/>
<path d="M111.377 -2.00049L64.1946 46.5396" stroke="#0F3658" stroke-miterlimit="10"/>
<path d="M112.776 -2.00049L65.5938 46.5396" stroke="#0F3658" stroke-miterlimit="10"/>
<path d="M114.144 -2.00049L66.9619 46.5396" stroke="#0F3658" stroke-miterlimit="10"/>
<path d="M115.543 -2.00049L68.3455 46.5396" stroke="#0F3658" stroke-miterlimit="10"/>
</g>
<path opacity="0.15" d="M44.6844 12.6426L41.5907 15.8619H40.347L37.2534 12.6426H1.18652V36.0687H37.2378L40.3315 33.0057H41.5752L44.6688 36.0687H80.7201V12.6426H44.6844Z" stroke="#0F3658" stroke-miterlimit="10"/>
</g>
<path d="M19.2635 33.7392H38.4929V15.426H19.2635V33.7392Z" fill="url(#paint9_linear_455_2178)"/>
<path d="M15.2152 33.7392H24.3239V15.426H15.2152V33.7392Z" fill="url(#paint10_linear_455_2178)"/>
<path d="M32.8538 25.2542H38.1395L20.4636 35.1935V32.4117L32.8538 25.2542Z" fill="#0E131C"/>
<path d="M37.4808 25.5999V33.739H5.09448V25.5999H37.4808Z" fill="url(#paint11_linear_455_2178)"/>
<path d="M5.09448 23.5652V15.426H37.4808V23.5652H5.09448Z" fill="url(#paint12_linear_455_2178)"/>
<path d="M39.4298 23.9888L20.7745 13.2681V16.8468L33.1647 23.9888H39.4298Z" fill="#0E131C"/>
<path d="M62.6401 13.3306V16.9093L50.2499 24.0669H44.0004L62.6401 13.3306ZM44.0159 24.5045L62.6401 35.2564V31.6777L50.2499 24.5357L44.0159 24.5045Z" fill="#0E131C"/>
<path d="M32.4497 24.7545H38.6992L20.0594 35.5065V31.9277L32.4497 24.7545ZM38.6992 24.1606L20.0594 13.4243V17.0031L32.4497 24.145L38.6992 24.1606Z" fill="#12629D"/>
<path d="M62.0495 13.2681L61.8784 16.8468L49.4882 23.9888H43.4097L62.0495 13.2681ZM43.2543 24.5983L61.894 35.3502V31.7714L49.5038 24.6295H43.2543V24.5983Z" fill="#12629D"/>
<path d="M32.6518 24.5983H38.9013L20.2616 35.3502V31.7714L32.6518 24.5983ZM38.9013 23.9888L20.2771 13.2681V16.8468L32.6673 23.9888H38.9013Z" fill="url(#paint13_linear_455_2178)"/>
<path d="M62.3449 13.2681V16.8468L49.9547 23.9888H43.7207L62.3449 13.2681ZM43.7207 24.5983L62.3604 35.3502V31.7714L49.9702 24.6295H43.7207V24.5983Z" fill="url(#paint14_linear_455_2178)"/>
<path d="M44.7739 12.3735L41.6639 15.5893H40.4136L37.3036 12.3735H1.04626V35.7737H37.288L40.398 32.714H41.6483L44.7583 35.7737H81V12.3735H44.7739ZM38.0069 31.5588L36.194 33.0262H4.59386V15.1054H36.1471L38.0069 16.6976V31.5588ZM77.4993 33.0418H45.8991L44.0863 31.5744V16.682L45.946 15.0898H77.4993V33.0418Z" fill="url(#paint15_linear_455_2178)"/>
<path d="M23.3118 33.739V29.6694L58.7343 29.7612V33.739H23.3118Z" fill="url(#paint16_linear_455_2178)"/>
<path d="M23.3118 22.5476V18.478L57.7222 18.5695V22.5476H23.3118Z" fill="url(#paint17_linear_455_2178)"/>
<path d="M23.3118 30.6869V17.4607H56.7102V30.6869H23.3118Z" fill="url(#paint18_linear_455_2178)"/>
<path d="M31.4083 17.4607H23.3118V30.6869H31.4083V17.4607Z" fill="url(#paint19_linear_455_2178)"/>
<path d="M43.5533 20.5129H37.4808V30.6869H43.5533V20.5129Z" fill="url(#paint20_linear_455_2178)"/>
<path d="M51.6498 19.4956H46.5895V30.687H51.6498V19.4956Z" fill="url(#paint21_linear_455_2178)"/>
<path d="M60.7584 18.478H52.6619V30.6868H60.7584V18.478Z" fill="url(#paint22_linear_455_2178)"/>
<path d="M41.3887 32.834H40.145L37.0358 35.897H1V35.9596C1 36.069 1.07773 36.1471 1.18655 36.1471H37.3156L40.4093 33.084H41.5286L41.2643 32.8184H41.3887V32.834Z" fill="#092342"/>
<path d="M80.7513 12.4397V36.0534H44.7C44.7 36.0534 44.7 36.0534 44.6844 36.069L44.9487 36.319H80.8135C80.9223 36.319 81 36.2409 81 36.1315V12.6429C81 12.5335 80.9068 12.4397 80.7979 12.4397H80.7513Z" fill="#092342"/>
<path d="M46.0991 33.631H77.5487V15.3777H77.2378V33.3341H45.8037L44.3113 32.1151V32.1776L46.0991 33.631Z" fill="#2680C3"/>
<path d="M36.4139 15.6746L37.9529 17.003V16.9561L36.1029 15.3621H4.71545V33.631H5.02638V15.6746H36.4139Z" fill="#0D1627"/>
<path d="M37.6265 31.8494L35.8231 33.334H4.71545V33.631H36.134L37.9529 32.1776V17.2842L37.6265 17.0186V31.8494Z" fill="#2680C3"/>
<path d="M46.1613 15.7059H77.2378V15.3777H45.8504L44.0004 16.9561V31.8494L44.3113 32.1151V17.2843L46.1613 15.7059Z" fill="#0D1627"/>
<path d="M13.1911 15.426H5.09448V33.7392H13.1911V15.426Z" fill="url(#paint23_linear_455_2178)"/>
<path d="M1.2176 12.3735C1.12415 12.3735 1.04626 12.4511 1.04626 12.5442V35.7737H1.23318V12.5753H37.3549L37.168 12.3891H1.2176V12.3735ZM44.6135 12.3735L41.5138 15.5701H40.2833L40.4702 15.7563H41.7163L44.816 12.5597H80.9377L81 12.3735H44.6135Z" fill="url(#paint24_linear_455_2178)"/>
<path d="M58.3494 29.2084C58.3494 29.2084 58.3494 29.9585 58.3494 30.3961H55.007C55.007 29.9273 55.007 29.3959 55.007 28.5051V26.0984C55.007 25.8015 54.8515 25.5827 54.665 25.4108C54.4784 25.2233 53.8877 25.0514 53.5923 25.0514V30.4274H50.6852V17.8938H53.7478V22.6759C54.3696 22.6603 55.1469 22.3321 55.1625 21.6758V19.7848C55.178 18.8784 55.1625 18.8784 55.1625 17.8782L58.3339 17.8938C58.3339 18.2689 58.3339 19.3316 58.3339 19.3316C58.3339 19.3316 57.5876 19.2691 57.5876 20.0974L57.6032 21.4413C57.6187 22.7385 57.3545 23.6605 55.8931 23.8168C57.37 23.9887 57.6032 24.9107 57.6032 26.2391L57.5876 28.3957C57.541 29.1928 58.3494 29.2084 58.3494 29.2084ZM45.6016 28.5208C45.5084 28.5208 45.4306 28.5051 45.3529 28.4582C45.1819 28.3957 45.0731 28.2707 45.0731 28.1144V20.5037C45.0731 20.3005 45.3218 20.113 45.6172 20.113H45.9592C46.239 20.113 46.5033 20.2849 46.5033 20.5037V28.1144C46.5033 28.2707 46.3945 28.3957 46.2235 28.4582C46.1613 28.4895 46.0525 28.5208 45.9747 28.5208H45.6016ZM49.426 20.5037C49.255 19.7692 48.6953 18.7221 47.747 18.1282C47.3583 17.8782 46.8764 17.7532 46.41 17.7532H46.0991H45.4773H45.1663C44.6844 17.7532 44.218 17.8626 43.8294 18.1282C42.8655 18.7221 42.3059 19.7692 42.1504 20.5037C42.0416 21.0194 42.0571 21.7539 42.0571 23.0198V25.1608C42.0571 26.4579 42.0727 27.1924 42.1504 27.7081C42.3525 29.0365 43.8605 30.4117 45.1508 30.4117H45.5861H46.0214H46.4567C47.747 30.4117 49.255 29.0365 49.4571 27.7081C49.5348 27.1924 49.5503 26.4579 49.5503 25.1608V23.0198C49.5037 21.7539 49.5348 21.035 49.426 20.5037ZM28.4077 27.88C28.4077 28.0676 28.2367 28.2238 28.019 28.2238H27.3661C27.1485 28.2238 26.9775 28.0676 26.9775 27.88V24.3012C26.9775 24.1137 27.1485 23.9574 27.3661 23.9574H28.019C28.2367 23.9574 28.4077 24.1137 28.4077 24.3012V27.88ZM27.5838 22.129H27.0863V20.0036H30.1955V17.8313H23.8372V30.3648H27.5838C28.6564 30.3648 29.1228 30.3023 29.6047 30.1929C30.1022 30.0992 30.7862 29.5209 31.0194 29.099C31.2682 28.7083 31.548 28.0207 31.548 27.083V24.9732C31.548 24.1137 31.2993 23.5824 31.0039 23.2229C29.9468 21.9727 28.5787 22.129 27.5838 22.129ZM40.7513 19.2222V30.3492H37.6576V20.8162C37.6576 20.5349 37.44 20.3161 37.1601 20.3161H36.7559C36.4761 20.3161 36.2585 20.5349 36.2585 20.8162V26.9111C36.2585 28.3332 35.2169 30.1148 34.0043 30.2555C33.5068 30.318 33.8488 30.318 32.7917 30.318H32.0921V28.4739C32.4808 28.4739 32.9316 28.4114 33.056 28.3176C33.2114 28.2238 33.2736 27.5675 33.2736 27.0049V19.1753C33.2736 18.4095 33.8955 17.7688 34.6728 17.7688H39.321C40.1139 17.8313 40.7513 18.4564 40.7513 19.2222Z" fill="url(#paint25_linear_455_2178)" stroke="url(#paint26_linear_455_2178)" stroke-width="0.5" stroke-miterlimit="10"/>
<defs>
<linearGradient id="paint0_linear_455_2178" x1="41.0282" y1="3.21284" x2="41.0282" y2="10.3357" gradientUnits="userSpaceOnUse">
<stop offset="0.1423" stop-color="#051A2E"/>
<stop offset="0.988" stop-color="#084366" stop-opacity="0"/>
</linearGradient>
<linearGradient id="paint1_linear_455_2178" x1="41.0282" y1="45.9527" x2="41.0282" y2="38.839" gradientUnits="userSpaceOnUse">
<stop offset="0.138" stop-color="#051A2E"/>
<stop offset="0.988" stop-color="#084366" stop-opacity="0"/>
</linearGradient>
<linearGradient id="paint2_linear_455_2178" x1="58.7405" y1="24.0734" x2="51.6549" y2="24.0734" gradientUnits="userSpaceOnUse">
<stop offset="0.1423" stop-color="#051A2E"/>
<stop offset="0.988" stop-color="#084366" stop-opacity="0"/>
</linearGradient>
<linearGradient id="paint3_linear_455_2178" x1="23.3059" y1="24.082" x2="30.3915" y2="24.082" gradientUnits="userSpaceOnUse">
<stop offset="0.1423" stop-color="#051A2E"/>
<stop offset="0.988" stop-color="#084366" stop-opacity="0"/>
</linearGradient>
<linearGradient id="paint4_linear_455_2178" x1="59.3086" y1="50.6859" x2="22.1966" y2="-2.0381" gradientUnits="userSpaceOnUse">
<stop offset="0.1423" stop-color="#11284A"/>
<stop offset="0.5922" stop-color="#04508C"/>
<stop offset="0.988" stop-color="#4385C5"/>
</linearGradient>
<linearGradient id="paint5_linear_455_2178" x1="55.7021" y1="24.5857" x2="66.8303" y2="24.5857" gradientUnits="userSpaceOnUse">
<stop offset="0.1423" stop-color="#20364E"/>
<stop offset="0.988" stop-color="#084366" stop-opacity="0"/>
</linearGradient>
<linearGradient id="paint6_linear_455_2178" x1="60.7572" y1="33.7422" x2="60.7572" y2="25.6017" gradientUnits="userSpaceOnUse">
<stop offset="0.1423" stop-color="#051A2E"/>
<stop offset="0.988" stop-color="#084366" stop-opacity="0"/>
</linearGradient>
<linearGradient id="paint7_linear_455_2178" x1="60.7572" y1="15.4313" x2="60.7572" y2="23.5717" gradientUnits="userSpaceOnUse">
<stop offset="0.138" stop-color="#051A2E"/>
<stop offset="0.988" stop-color="#084366" stop-opacity="0"/>
</linearGradient>
<linearGradient id="paint8_linear_455_2178" x1="76.9448" y1="24.5857" x2="69.8736" y2="24.5857" gradientUnits="userSpaceOnUse">
<stop offset="0.1423" stop-color="#051A2E"/>
<stop offset="0.988" stop-color="#084366" stop-opacity="0"/>
</linearGradient>
<linearGradient id="paint9_linear_455_2178" x1="38.4903" y1="24.5857" x2="19.27" y2="24.5857" gradientUnits="userSpaceOnUse">
<stop offset="0.1423" stop-color="#20364E"/>
<stop offset="0.988" stop-color="#084366" stop-opacity="0"/>
</linearGradient>
<linearGradient id="paint10_linear_455_2178" x1="24.3275" y1="24.5857" x2="15.2106" y2="24.5857" gradientUnits="userSpaceOnUse">
<stop offset="0.1423" stop-color="#20364E"/>
<stop offset="0.988" stop-color="#084366" stop-opacity="0"/>
</linearGradient>
<linearGradient id="paint11_linear_455_2178" x1="21.2937" y1="33.7422" x2="21.2937" y2="25.6017" gradientUnits="userSpaceOnUse">
<stop offset="0.1423" stop-color="#051A2E"/>
<stop offset="0.988" stop-color="#084366" stop-opacity="0"/>
</linearGradient>
<linearGradient id="paint12_linear_455_2178" x1="21.2937" y1="15.4313" x2="21.2937" y2="23.5717" gradientUnits="userSpaceOnUse">
<stop offset="0.1423" stop-color="#051A2E"/>
<stop offset="0.988" stop-color="#084366" stop-opacity="0"/>
</linearGradient>
<linearGradient id="paint13_linear_455_2178" x1="20.2662" y1="24.311" x2="38.9036" y2="24.311" gradientUnits="userSpaceOnUse">
<stop offset="0.1419" stop-color="#0F4B80"/>
<stop offset="0.9958" stop-color="#0C5BA2"/>
</linearGradient>
<linearGradient id="paint14_linear_455_2178" x1="43.7133" y1="24.311" x2="62.3644" y2="24.311" gradientUnits="userSpaceOnUse">
<stop stop-color="#0D4B82"/>
<stop offset="1" stop-color="#133156"/>
</linearGradient>
<linearGradient id="paint15_linear_455_2178" x1="59.6841" y1="50.674" x2="22.432" y2="-2.58776" gradientUnits="userSpaceOnUse">
<stop offset="0.1464" stop-color="#0E2546"/>
<stop offset="0.5922" stop-color="#04508C"/>
<stop offset="0.988" stop-color="#4385C5"/>
</linearGradient>
<linearGradient id="paint16_linear_455_2178" x1="41.0249" y1="29.6628" x2="41.0249" y2="33.7543" gradientUnits="userSpaceOnUse">
<stop stop-color="#0B1F34" stop-opacity="0"/>
<stop offset="0.2673" stop-color="#0B1F34"/>
<stop offset="0.5418" stop-color="#09324E" stop-opacity="0.619"/>
<stop offset="0.7995" stop-color="#083F60" stop-opacity="0.2616"/>
<stop offset="0.988" stop-color="#084366" stop-opacity="0"/>
</linearGradient>
<linearGradient id="paint17_linear_455_2178" x1="40.5172" y1="18.467" x2="40.5172" y2="22.5395" gradientUnits="userSpaceOnUse">
<stop stop-color="#0B1F34" stop-opacity="0"/>
<stop offset="0.2673" stop-color="#0B1F34"/>
<stop offset="0.5418" stop-color="#09324E" stop-opacity="0.619"/>
<stop offset="0.7995" stop-color="#083F60" stop-opacity="0.2616"/>
<stop offset="0.988" stop-color="#084366" stop-opacity="0"/>
</linearGradient>
<linearGradient id="paint18_linear_455_2178" x1="40.0086" y1="17.4544" x2="40.0086" y2="30.6806" gradientUnits="userSpaceOnUse">
<stop offset="0.2047" stop-color="#0B1F34" stop-opacity="0"/>
<stop offset="0.6256" stop-color="#0B1F34"/>
<stop offset="0.988" stop-color="#084366" stop-opacity="0"/>
</linearGradient>
<linearGradient id="paint19_linear_455_2178" x1="23.3127" y1="24.0635" x2="31.4105" y2="24.0635" gradientUnits="userSpaceOnUse">
<stop offset="0.1423" stop-color="#0B1F34"/>
<stop offset="0.988" stop-color="#084366" stop-opacity="0"/>
</linearGradient>
<linearGradient id="paint20_linear_455_2178" x1="37.4765" y1="25.6029" x2="43.5513" y2="25.6029" gradientUnits="userSpaceOnUse">
<stop offset="0.1423" stop-color="#0B1F34"/>
<stop offset="0.988" stop-color="#084366" stop-opacity="0"/>
</linearGradient>
<linearGradient id="paint21_linear_455_2178" x1="46.5958" y1="25.0945" x2="51.6494" y2="25.0945" gradientUnits="userSpaceOnUse">
<stop offset="0.1423" stop-color="#0B1F34"/>
<stop offset="0.988" stop-color="#084366" stop-opacity="0"/>
</linearGradient>
<linearGradient id="paint22_linear_455_2178" x1="52.6665" y1="24.5866" x2="60.7643" y2="24.5866" gradientUnits="userSpaceOnUse">
<stop offset="0.1423" stop-color="#0B1F34"/>
<stop offset="0.988" stop-color="#084366" stop-opacity="0"/>
</linearGradient>
<linearGradient id="paint23_linear_455_2178" x1="5.09936" y1="24.5857" x2="13.1972" y2="24.5857" gradientUnits="userSpaceOnUse">
<stop offset="0.1423" stop-color="#051A2E"/>
<stop offset="0.988" stop-color="#084366" stop-opacity="0"/>
</linearGradient>
<linearGradient id="paint24_linear_455_2178" x1="1.0465" y1="24.0789" x2="81.0124" y2="24.0789" gradientUnits="userSpaceOnUse">
<stop offset="0.00416705" stop-color="#0E2038"/>
<stop offset="0.9958" stop-color="#25689C"/>
</linearGradient>
<linearGradient id="paint25_linear_455_2178" x1="23.8324" y1="24.0842" x2="58.3471" y2="24.0842" gradientUnits="userSpaceOnUse">
<stop offset="0.4256" stop-color="white"/>
<stop offset="0.8091" stop-color="#BABBBA"/>
<stop offset="0.9958" stop-color="#999A98"/>
</linearGradient>
<linearGradient id="paint26_linear_455_2178" x1="23.7935" y1="24.0842" x2="58.3859" y2="24.0842" gradientUnits="userSpaceOnUse">
<stop stop-color="#BBBBBA"/>
<stop offset="1" stop-color="white"/>
</linearGradient>
</defs>
</svg>
